%TF.GenerationSoftware,KiCad,Pcbnew,9.0.4*%
%TF.CreationDate,2025-09-11T11:59:47+05:30*%
%TF.ProjectId,DimLED,44696d4c-4544-42e6-9b69-6361645f7063,Mark II.B*%
%TF.SameCoordinates,Original*%
%TF.FileFunction,Legend,Bot*%
%TF.FilePolarity,Positive*%
%FSLAX46Y46*%
G04 Gerber Fmt 4.6, Leading zero omitted, Abs format (unit mm)*
G04 Created by KiCad (PCBNEW 9.0.4) date 2025-09-11 11:59:47*
%MOMM*%
%LPD*%
G01*
G04 APERTURE LIST*
%ADD10C,0.304000*%
%ADD11C,0.200000*%
%ADD12C,0.187500*%
%ADD13C,0.150000*%
%ADD14C,0.000000*%
G04 APERTURE END LIST*
D10*
X155552000Y-106407500D02*
G75*
G02*
X155248000Y-106407500I-152000J0D01*
G01*
X155248000Y-106407500D02*
G75*
G02*
X155552000Y-106407500I152000J0D01*
G01*
X155552000Y-108947500D02*
G75*
G02*
X155248000Y-108947500I-152000J0D01*
G01*
X155248000Y-108947500D02*
G75*
G02*
X155552000Y-108947500I152000J0D01*
G01*
D11*
X155400000Y-108947500D02*
X155400000Y-106407500D01*
X187300000Y-88750000D02*
X198300000Y-88750000D01*
X198300000Y-92250000D01*
X187300000Y-92250000D01*
X187300000Y-88750000D01*
G36*
X198319068Y-96160000D02*
G01*
X197858670Y-96160000D01*
X197594151Y-96152844D01*
X197418808Y-96134927D01*
X197309490Y-96110907D01*
X197208105Y-96070192D01*
X197110236Y-96011573D01*
X197015055Y-95933342D01*
X196932200Y-95842096D01*
X196861133Y-95735113D01*
X196801831Y-95610453D01*
X196759489Y-95478660D01*
X196733541Y-95336900D01*
X196724651Y-95183639D01*
X196725030Y-95176922D01*
X197111409Y-95176922D01*
X197120555Y-95314617D01*
X197146244Y-95430762D01*
X197186636Y-95528876D01*
X197243684Y-95617774D01*
X197307981Y-95684470D01*
X197379954Y-95732208D01*
X197461810Y-95762515D01*
X197584212Y-95784191D01*
X197760362Y-95792658D01*
X197937927Y-95792658D01*
X197937927Y-94518688D01*
X197808112Y-94518688D01*
X197626774Y-94530745D01*
X197484929Y-94563501D01*
X197374843Y-94613181D01*
X197290317Y-94678056D01*
X197214584Y-94771731D01*
X197159043Y-94883491D01*
X197123918Y-95016962D01*
X197111409Y-95176922D01*
X196725030Y-95176922D01*
X196733842Y-95020671D01*
X196760462Y-94872449D01*
X196803523Y-94737089D01*
X196862648Y-94612965D01*
X196939133Y-94495485D01*
X197022974Y-94398907D01*
X197114302Y-94320928D01*
X197213747Y-94259912D01*
X197318816Y-94217273D01*
X197457280Y-94183050D01*
X197636688Y-94159927D01*
X197865509Y-94151346D01*
X198319068Y-94151346D01*
X198319068Y-96160000D01*
G37*
G36*
X196255460Y-94057557D02*
G01*
X196192865Y-94065629D01*
X196137253Y-94089411D01*
X196086688Y-94129975D01*
X196047539Y-94181688D01*
X196024301Y-94239394D01*
X196016346Y-94305097D01*
X196024223Y-94370013D01*
X196047251Y-94427119D01*
X196086078Y-94478387D01*
X196136102Y-94518486D01*
X196191034Y-94541981D01*
X196252773Y-94549951D01*
X196316214Y-94541783D01*
X196372253Y-94517779D01*
X196422889Y-94476922D01*
X196461988Y-94424727D01*
X196485253Y-94366298D01*
X196493230Y-94299602D01*
X196485389Y-94235671D01*
X196462427Y-94179287D01*
X196423621Y-94128510D01*
X196373538Y-94088849D01*
X196318131Y-94065505D01*
X196255460Y-94057557D01*
G37*
G36*
X196442672Y-94675003D02*
G01*
X196068248Y-94675003D01*
X196068248Y-96160000D01*
X196442672Y-96160000D01*
X196442672Y-94675003D01*
G37*
G36*
X195734124Y-94675003D02*
G01*
X195359822Y-94675003D01*
X195359822Y-94848171D01*
X195257439Y-94753762D01*
X195147452Y-94688681D01*
X195026444Y-94649351D01*
X194892585Y-94635924D01*
X194801684Y-94643818D01*
X194718433Y-94666953D01*
X194641259Y-94705289D01*
X194572582Y-94757513D01*
X194512580Y-94824344D01*
X194460886Y-94907766D01*
X194396086Y-94824871D01*
X194323653Y-94757876D01*
X194243021Y-94705289D01*
X194154675Y-94666900D01*
X194061049Y-94643773D01*
X193960799Y-94635924D01*
X193857227Y-94644488D01*
X193765015Y-94669255D01*
X193682117Y-94709685D01*
X193608343Y-94764881D01*
X193551334Y-94828783D01*
X193509316Y-94902271D01*
X193483091Y-94984234D01*
X193464126Y-95108439D01*
X193456681Y-95288663D01*
X193456681Y-96160000D01*
X193832327Y-96160000D01*
X193832327Y-95409441D01*
X193841603Y-95240258D01*
X193864480Y-95132903D01*
X193895219Y-95068967D01*
X193943135Y-95020105D01*
X194004527Y-94990416D01*
X194083775Y-94979818D01*
X194174705Y-94993516D01*
X194255233Y-95034284D01*
X194320654Y-95098108D01*
X194367951Y-95184494D01*
X194393784Y-95295085D01*
X194404832Y-95492362D01*
X194404832Y-96160000D01*
X194780600Y-96160000D01*
X194780600Y-95443513D01*
X194789449Y-95258680D01*
X194810031Y-95155917D01*
X194848110Y-95076176D01*
X194898080Y-95023415D01*
X194961795Y-94991078D01*
X195040108Y-94979818D01*
X195128678Y-94993558D01*
X195208879Y-95034895D01*
X195274273Y-95099821D01*
X195322330Y-95189256D01*
X195348654Y-95302923D01*
X195359822Y-95501887D01*
X195359822Y-96160000D01*
X195734124Y-96160000D01*
X195734124Y-94675003D01*
G37*
G36*
X193060397Y-94151346D02*
G01*
X192677913Y-94151346D01*
X192677913Y-95792658D01*
X192120429Y-95792658D01*
X192120429Y-96160000D01*
X193060397Y-96160000D01*
X193060397Y-94151346D01*
G37*
G36*
X191828070Y-94151346D02*
G01*
X190731053Y-94151346D01*
X190731053Y-94518688D01*
X191448272Y-94518688D01*
X191448272Y-94886029D01*
X190731053Y-94886029D01*
X190731053Y-95253370D01*
X191448272Y-95253370D01*
X191448272Y-95792658D01*
X190731053Y-95792658D01*
X190731053Y-96160000D01*
X191828070Y-96160000D01*
X191828070Y-94151346D01*
G37*
G36*
X190372383Y-96160000D02*
G01*
X189911985Y-96160000D01*
X189647466Y-96152844D01*
X189472123Y-96134927D01*
X189362805Y-96110907D01*
X189261420Y-96070192D01*
X189163551Y-96011573D01*
X189068370Y-95933342D01*
X188985514Y-95842096D01*
X188914448Y-95735113D01*
X188855146Y-95610453D01*
X188812804Y-95478660D01*
X188786855Y-95336900D01*
X188777965Y-95183639D01*
X188778344Y-95176922D01*
X189164724Y-95176922D01*
X189173870Y-95314617D01*
X189199559Y-95430762D01*
X189239951Y-95528876D01*
X189296999Y-95617774D01*
X189361296Y-95684470D01*
X189433269Y-95732208D01*
X189515125Y-95762515D01*
X189637526Y-95784191D01*
X189813677Y-95792658D01*
X189991242Y-95792658D01*
X189991242Y-94518688D01*
X189861427Y-94518688D01*
X189680089Y-94530745D01*
X189538244Y-94563501D01*
X189428157Y-94613181D01*
X189343632Y-94678056D01*
X189267898Y-94771731D01*
X189212358Y-94883491D01*
X189177232Y-95016962D01*
X189164724Y-95176922D01*
X188778344Y-95176922D01*
X188787156Y-95020671D01*
X188813777Y-94872449D01*
X188856838Y-94737089D01*
X188915963Y-94612965D01*
X188992448Y-94495485D01*
X189076289Y-94398907D01*
X189167617Y-94320928D01*
X189267062Y-94259912D01*
X189372130Y-94217273D01*
X189510595Y-94183050D01*
X189690003Y-94159927D01*
X189918824Y-94151346D01*
X190372383Y-94151346D01*
X190372383Y-96160000D01*
G37*
G36*
X106618714Y-92514730D02*
G01*
X106644921Y-92527442D01*
X106665836Y-92547316D01*
X106679970Y-92573176D01*
X106687324Y-92607849D01*
X106690655Y-92678384D01*
X106690655Y-92730957D01*
X106483538Y-92730957D01*
X106483538Y-92670874D01*
X106487024Y-92609449D01*
X106495721Y-92569482D01*
X106507595Y-92544844D01*
X106526232Y-92526324D01*
X106552027Y-92514649D01*
X106587463Y-92510345D01*
X106618714Y-92514730D01*
G37*
G36*
X106985437Y-93033371D02*
G01*
X105758889Y-93033371D01*
X105758889Y-92487081D01*
X105870000Y-92487081D01*
X106219325Y-92670874D01*
X106299867Y-92713250D01*
X106299867Y-92730957D01*
X105870000Y-92730957D01*
X105870000Y-92922260D01*
X106874326Y-92922260D01*
X106874326Y-92719356D01*
X106870092Y-92606821D01*
X106859404Y-92530809D01*
X106844834Y-92482013D01*
X106821035Y-92438176D01*
X106788712Y-92400464D01*
X106746953Y-92368257D01*
X106699628Y-92344751D01*
X106646099Y-92330255D01*
X106585020Y-92325209D01*
X106521031Y-92330869D01*
X106466885Y-92346922D01*
X106420706Y-92372714D01*
X106381495Y-92408263D01*
X106348143Y-92455220D01*
X106320750Y-92515779D01*
X105870000Y-92278070D01*
X105870000Y-92487081D01*
X105758889Y-92487081D01*
X105758889Y-91531114D01*
X105870000Y-91531114D01*
X106223053Y-91762351D01*
X105870000Y-91993588D01*
X105870000Y-92210109D01*
X106387794Y-91870245D01*
X106874326Y-92188921D01*
X106874326Y-91973743D01*
X106551864Y-91762534D01*
X106874326Y-91550898D01*
X106874326Y-91335720D01*
X106387306Y-91654762D01*
X105870000Y-91315936D01*
X105870000Y-91531114D01*
X105758889Y-91531114D01*
X105758889Y-91204825D01*
X106985437Y-91204825D01*
X106985437Y-93033371D01*
G37*
D12*
G36*
X188096981Y-96160000D02*
G01*
X187811461Y-94151346D01*
X187778611Y-94151346D01*
X186961618Y-95800474D01*
X186152808Y-94151346D01*
X186120080Y-94151346D01*
X185831751Y-96160000D01*
X186029832Y-96160000D01*
X186226570Y-94721898D01*
X186937072Y-96160000D01*
X186987630Y-96160000D01*
X187707658Y-94714082D01*
X187902930Y-96160000D01*
X188096981Y-96160000D01*
G37*
G36*
X185466852Y-94096636D02*
G01*
X185274145Y-94096636D01*
X185274145Y-95283656D01*
X184586967Y-94675003D01*
X184305600Y-94675003D01*
X185121127Y-95386238D01*
X184257728Y-96160000D01*
X184528227Y-96160000D01*
X185274145Y-95487721D01*
X185274145Y-96160000D01*
X185466852Y-96160000D01*
X185466852Y-94096636D01*
G37*
G36*
X183284054Y-94151346D02*
G01*
X183083286Y-94151346D01*
X183083286Y-96160000D01*
X183284054Y-96160000D01*
X183284054Y-94151346D01*
G37*
G36*
X182652930Y-94151346D02*
G01*
X182452163Y-94151346D01*
X182452163Y-96160000D01*
X182652930Y-96160000D01*
X182652930Y-94151346D01*
G37*
G36*
X181814200Y-95863000D02*
G01*
X181749576Y-95875234D01*
X181695376Y-95911849D01*
X181658520Y-95965877D01*
X181646161Y-96031039D01*
X181658435Y-96095173D01*
X181695376Y-96149619D01*
X181749624Y-96186712D01*
X181814200Y-96199078D01*
X181878798Y-96186715D01*
X181933147Y-96149619D01*
X181969992Y-96095182D01*
X181982240Y-96031039D01*
X181969908Y-95965867D01*
X181933147Y-95911849D01*
X181878846Y-95875230D01*
X181814200Y-95863000D01*
G37*
G36*
X181213974Y-96160000D02*
G01*
X180661985Y-96160000D01*
X180514253Y-96148464D01*
X180388247Y-96115760D01*
X180280184Y-96063554D01*
X180187177Y-95991838D01*
X180109017Y-95902031D01*
X180054410Y-95804843D01*
X180021493Y-95698550D01*
X180010492Y-95583464D01*
X180219295Y-95583464D01*
X180226172Y-95653742D01*
X180246688Y-95720340D01*
X180281454Y-95784476D01*
X180327547Y-95841073D01*
X180382093Y-95886304D01*
X180446074Y-95921008D01*
X180516473Y-95942872D01*
X180620532Y-95958516D01*
X180768597Y-95964605D01*
X181017236Y-95964605D01*
X181017236Y-95183028D01*
X180903785Y-95183028D01*
X180668552Y-95190691D01*
X180547191Y-95207941D01*
X180449743Y-95241233D01*
X180370561Y-95287495D01*
X180306734Y-95346549D01*
X180258078Y-95417965D01*
X180229153Y-95496177D01*
X180219295Y-95583464D01*
X180010492Y-95583464D01*
X180010223Y-95580655D01*
X180022179Y-95464724D01*
X180057362Y-95359005D01*
X180114007Y-95264103D01*
X180189253Y-95184616D01*
X180285665Y-95120454D01*
X180431053Y-95058953D01*
X180351577Y-95007914D01*
X180288002Y-94949059D01*
X180238468Y-94881999D01*
X180202162Y-94806840D01*
X180180316Y-94726540D01*
X180172973Y-94640687D01*
X180381838Y-94640687D01*
X180396202Y-94738157D01*
X180439235Y-94826434D01*
X180506482Y-94898561D01*
X180595062Y-94948921D01*
X180707506Y-94976143D01*
X180902442Y-94987634D01*
X181017236Y-94987634D01*
X181017236Y-94346741D01*
X180784961Y-94346741D01*
X180646162Y-94357236D01*
X180547211Y-94384704D01*
X180478192Y-94425020D01*
X180425116Y-94483031D01*
X180393099Y-94553605D01*
X180381838Y-94640687D01*
X180172973Y-94640687D01*
X180172889Y-94639710D01*
X180181293Y-94546963D01*
X180206056Y-94461155D01*
X180247383Y-94380690D01*
X180303035Y-94309512D01*
X180370196Y-94252166D01*
X180450226Y-94207644D01*
X180538052Y-94178742D01*
X180657844Y-94158863D01*
X180817812Y-94151346D01*
X181213974Y-94151346D01*
X181213974Y-96160000D01*
G37*
D13*
X198153696Y-97922031D02*
X197737030Y-97922031D01*
X197558458Y-98576793D02*
X198153696Y-98576793D01*
X198153696Y-98576793D02*
X198153696Y-97326793D01*
X198153696Y-97326793D02*
X197558458Y-97326793D01*
X197082268Y-98517270D02*
X196903697Y-98576793D01*
X196903697Y-98576793D02*
X196606078Y-98576793D01*
X196606078Y-98576793D02*
X196487030Y-98517270D01*
X196487030Y-98517270D02*
X196427506Y-98457746D01*
X196427506Y-98457746D02*
X196367983Y-98338698D01*
X196367983Y-98338698D02*
X196367983Y-98219650D01*
X196367983Y-98219650D02*
X196427506Y-98100603D01*
X196427506Y-98100603D02*
X196487030Y-98041079D01*
X196487030Y-98041079D02*
X196606078Y-97981555D01*
X196606078Y-97981555D02*
X196844173Y-97922031D01*
X196844173Y-97922031D02*
X196963221Y-97862508D01*
X196963221Y-97862508D02*
X197022744Y-97802984D01*
X197022744Y-97802984D02*
X197082268Y-97683936D01*
X197082268Y-97683936D02*
X197082268Y-97564889D01*
X197082268Y-97564889D02*
X197022744Y-97445841D01*
X197022744Y-97445841D02*
X196963221Y-97386317D01*
X196963221Y-97386317D02*
X196844173Y-97326793D01*
X196844173Y-97326793D02*
X196546554Y-97326793D01*
X196546554Y-97326793D02*
X196367983Y-97386317D01*
X195832268Y-98576793D02*
X195832268Y-97326793D01*
X195832268Y-97326793D02*
X195356078Y-97326793D01*
X195356078Y-97326793D02*
X195237030Y-97386317D01*
X195237030Y-97386317D02*
X195177507Y-97445841D01*
X195177507Y-97445841D02*
X195117983Y-97564889D01*
X195117983Y-97564889D02*
X195117983Y-97743460D01*
X195117983Y-97743460D02*
X195177507Y-97862508D01*
X195177507Y-97862508D02*
X195237030Y-97922031D01*
X195237030Y-97922031D02*
X195356078Y-97981555D01*
X195356078Y-97981555D02*
X195832268Y-97981555D01*
X194344173Y-97326793D02*
X194225126Y-97326793D01*
X194225126Y-97326793D02*
X194106078Y-97386317D01*
X194106078Y-97386317D02*
X194046554Y-97445841D01*
X194046554Y-97445841D02*
X193987030Y-97564889D01*
X193987030Y-97564889D02*
X193927507Y-97802984D01*
X193927507Y-97802984D02*
X193927507Y-98100603D01*
X193927507Y-98100603D02*
X193987030Y-98338698D01*
X193987030Y-98338698D02*
X194046554Y-98457746D01*
X194046554Y-98457746D02*
X194106078Y-98517270D01*
X194106078Y-98517270D02*
X194225126Y-98576793D01*
X194225126Y-98576793D02*
X194344173Y-98576793D01*
X194344173Y-98576793D02*
X194463221Y-98517270D01*
X194463221Y-98517270D02*
X194522745Y-98457746D01*
X194522745Y-98457746D02*
X194582268Y-98338698D01*
X194582268Y-98338698D02*
X194641792Y-98100603D01*
X194641792Y-98100603D02*
X194641792Y-97802984D01*
X194641792Y-97802984D02*
X194582268Y-97564889D01*
X194582268Y-97564889D02*
X194522745Y-97445841D01*
X194522745Y-97445841D02*
X194463221Y-97386317D01*
X194463221Y-97386317D02*
X194344173Y-97326793D01*
X192737031Y-98576793D02*
X193451316Y-98576793D01*
X193094173Y-98576793D02*
X193094173Y-97326793D01*
X193094173Y-97326793D02*
X193213221Y-97505365D01*
X193213221Y-97505365D02*
X193332269Y-97624412D01*
X193332269Y-97624412D02*
X193451316Y-97683936D01*
X191367983Y-97326793D02*
X191070364Y-98576793D01*
X191070364Y-98576793D02*
X190832269Y-97683936D01*
X190832269Y-97683936D02*
X190594174Y-98576793D01*
X190594174Y-98576793D02*
X190296555Y-97326793D01*
X189820364Y-98576793D02*
X189820364Y-97743460D01*
X189820364Y-97326793D02*
X189879888Y-97386317D01*
X189879888Y-97386317D02*
X189820364Y-97445841D01*
X189820364Y-97445841D02*
X189760841Y-97386317D01*
X189760841Y-97386317D02*
X189820364Y-97326793D01*
X189820364Y-97326793D02*
X189820364Y-97445841D01*
X188808460Y-97922031D02*
X189225126Y-97922031D01*
X189225126Y-98576793D02*
X189225126Y-97326793D01*
X189225126Y-97326793D02*
X188629888Y-97326793D01*
X188153697Y-98576793D02*
X188153697Y-97743460D01*
X188153697Y-97326793D02*
X188213221Y-97386317D01*
X188213221Y-97386317D02*
X188153697Y-97445841D01*
X188153697Y-97445841D02*
X188094174Y-97386317D01*
X188094174Y-97386317D02*
X188153697Y-97326793D01*
X188153697Y-97326793D02*
X188153697Y-97445841D01*
X186606078Y-98576793D02*
X186606078Y-97326793D01*
X186606078Y-97326793D02*
X186129888Y-97326793D01*
X186129888Y-97326793D02*
X186010840Y-97386317D01*
X186010840Y-97386317D02*
X185951317Y-97445841D01*
X185951317Y-97445841D02*
X185891793Y-97564889D01*
X185891793Y-97564889D02*
X185891793Y-97743460D01*
X185891793Y-97743460D02*
X185951317Y-97862508D01*
X185951317Y-97862508D02*
X186010840Y-97922031D01*
X186010840Y-97922031D02*
X186129888Y-97981555D01*
X186129888Y-97981555D02*
X186606078Y-97981555D01*
X185475126Y-97326793D02*
X185177507Y-98576793D01*
X185177507Y-98576793D02*
X184939412Y-97683936D01*
X184939412Y-97683936D02*
X184701317Y-98576793D01*
X184701317Y-98576793D02*
X184403698Y-97326793D01*
X183927507Y-98576793D02*
X183927507Y-97326793D01*
X183927507Y-97326793D02*
X183510841Y-98219650D01*
X183510841Y-98219650D02*
X183094174Y-97326793D01*
X183094174Y-97326793D02*
X183094174Y-98576793D01*
X181546555Y-98576793D02*
X181546555Y-97326793D01*
X181546555Y-97326793D02*
X181248936Y-97326793D01*
X181248936Y-97326793D02*
X181070365Y-97386317D01*
X181070365Y-97386317D02*
X180951317Y-97505365D01*
X180951317Y-97505365D02*
X180891794Y-97624412D01*
X180891794Y-97624412D02*
X180832270Y-97862508D01*
X180832270Y-97862508D02*
X180832270Y-98041079D01*
X180832270Y-98041079D02*
X180891794Y-98279174D01*
X180891794Y-98279174D02*
X180951317Y-98398222D01*
X180951317Y-98398222D02*
X181070365Y-98517270D01*
X181070365Y-98517270D02*
X181248936Y-98576793D01*
X181248936Y-98576793D02*
X181546555Y-98576793D01*
X180296555Y-98576793D02*
X180296555Y-97743460D01*
X180296555Y-97326793D02*
X180356079Y-97386317D01*
X180356079Y-97386317D02*
X180296555Y-97445841D01*
X180296555Y-97445841D02*
X180237032Y-97386317D01*
X180237032Y-97386317D02*
X180296555Y-97326793D01*
X180296555Y-97326793D02*
X180296555Y-97445841D01*
X179701317Y-98576793D02*
X179701317Y-97743460D01*
X179701317Y-97862508D02*
X179641794Y-97802984D01*
X179641794Y-97802984D02*
X179522746Y-97743460D01*
X179522746Y-97743460D02*
X179344175Y-97743460D01*
X179344175Y-97743460D02*
X179225127Y-97802984D01*
X179225127Y-97802984D02*
X179165603Y-97922031D01*
X179165603Y-97922031D02*
X179165603Y-98576793D01*
X179165603Y-97922031D02*
X179106079Y-97802984D01*
X179106079Y-97802984D02*
X178987032Y-97743460D01*
X178987032Y-97743460D02*
X178808460Y-97743460D01*
X178808460Y-97743460D02*
X178689413Y-97802984D01*
X178689413Y-97802984D02*
X178629889Y-97922031D01*
X178629889Y-97922031D02*
X178629889Y-98576793D01*
X178034650Y-98576793D02*
X178034650Y-97743460D01*
X178034650Y-97862508D02*
X177975127Y-97802984D01*
X177975127Y-97802984D02*
X177856079Y-97743460D01*
X177856079Y-97743460D02*
X177677508Y-97743460D01*
X177677508Y-97743460D02*
X177558460Y-97802984D01*
X177558460Y-97802984D02*
X177498936Y-97922031D01*
X177498936Y-97922031D02*
X177498936Y-98576793D01*
X177498936Y-97922031D02*
X177439412Y-97802984D01*
X177439412Y-97802984D02*
X177320365Y-97743460D01*
X177320365Y-97743460D02*
X177141793Y-97743460D01*
X177141793Y-97743460D02*
X177022746Y-97802984D01*
X177022746Y-97802984D02*
X176963222Y-97922031D01*
X176963222Y-97922031D02*
X176963222Y-98576793D01*
X175891793Y-98517270D02*
X176010841Y-98576793D01*
X176010841Y-98576793D02*
X176248936Y-98576793D01*
X176248936Y-98576793D02*
X176367983Y-98517270D01*
X176367983Y-98517270D02*
X176427507Y-98398222D01*
X176427507Y-98398222D02*
X176427507Y-97922031D01*
X176427507Y-97922031D02*
X176367983Y-97802984D01*
X176367983Y-97802984D02*
X176248936Y-97743460D01*
X176248936Y-97743460D02*
X176010841Y-97743460D01*
X176010841Y-97743460D02*
X175891793Y-97802984D01*
X175891793Y-97802984D02*
X175832269Y-97922031D01*
X175832269Y-97922031D02*
X175832269Y-98041079D01*
X175832269Y-98041079D02*
X176427507Y-98160127D01*
X175296554Y-98576793D02*
X175296554Y-97743460D01*
X175296554Y-97981555D02*
X175237031Y-97862508D01*
X175237031Y-97862508D02*
X175177507Y-97802984D01*
X175177507Y-97802984D02*
X175058459Y-97743460D01*
X175058459Y-97743460D02*
X174939412Y-97743460D01*
X198153696Y-100589223D02*
X198153696Y-99339223D01*
X198153696Y-99339223D02*
X197737030Y-100232080D01*
X197737030Y-100232080D02*
X197320363Y-99339223D01*
X197320363Y-99339223D02*
X197320363Y-100589223D01*
X196784649Y-100232080D02*
X196189411Y-100232080D01*
X196903697Y-100589223D02*
X196487030Y-99339223D01*
X196487030Y-99339223D02*
X196070364Y-100589223D01*
X195772744Y-99339223D02*
X194939411Y-100589223D01*
X194939411Y-99339223D02*
X195772744Y-100589223D01*
X194463220Y-100470176D02*
X194403697Y-100529700D01*
X194403697Y-100529700D02*
X194463220Y-100589223D01*
X194463220Y-100589223D02*
X194522744Y-100529700D01*
X194522744Y-100529700D02*
X194463220Y-100470176D01*
X194463220Y-100470176D02*
X194463220Y-100589223D01*
X194463220Y-99815414D02*
X194403697Y-99874938D01*
X194403697Y-99874938D02*
X194463220Y-99934461D01*
X194463220Y-99934461D02*
X194522744Y-99874938D01*
X194522744Y-99874938D02*
X194463220Y-99815414D01*
X194463220Y-99815414D02*
X194463220Y-99934461D01*
X192260840Y-100589223D02*
X192975125Y-100589223D01*
X192617982Y-100589223D02*
X192617982Y-99339223D01*
X192617982Y-99339223D02*
X192737030Y-99517795D01*
X192737030Y-99517795D02*
X192856078Y-99636842D01*
X192856078Y-99636842D02*
X192975125Y-99696366D01*
X191784649Y-99458271D02*
X191725125Y-99398747D01*
X191725125Y-99398747D02*
X191606078Y-99339223D01*
X191606078Y-99339223D02*
X191308459Y-99339223D01*
X191308459Y-99339223D02*
X191189411Y-99398747D01*
X191189411Y-99398747D02*
X191129887Y-99458271D01*
X191129887Y-99458271D02*
X191070364Y-99577319D01*
X191070364Y-99577319D02*
X191070364Y-99696366D01*
X191070364Y-99696366D02*
X191129887Y-99874938D01*
X191129887Y-99874938D02*
X191844173Y-100589223D01*
X191844173Y-100589223D02*
X191070364Y-100589223D01*
X190713221Y-99339223D02*
X190296554Y-100589223D01*
X190296554Y-100589223D02*
X189879888Y-99339223D01*
X189463220Y-100589223D02*
X189463220Y-99339223D01*
X189463220Y-99339223D02*
X189165601Y-99339223D01*
X189165601Y-99339223D02*
X188987030Y-99398747D01*
X188987030Y-99398747D02*
X188867982Y-99517795D01*
X188867982Y-99517795D02*
X188808459Y-99636842D01*
X188808459Y-99636842D02*
X188748935Y-99874938D01*
X188748935Y-99874938D02*
X188748935Y-100053509D01*
X188748935Y-100053509D02*
X188808459Y-100291604D01*
X188808459Y-100291604D02*
X188867982Y-100410652D01*
X188867982Y-100410652D02*
X188987030Y-100529700D01*
X188987030Y-100529700D02*
X189165601Y-100589223D01*
X189165601Y-100589223D02*
X189463220Y-100589223D01*
X187498935Y-100470176D02*
X187558459Y-100529700D01*
X187558459Y-100529700D02*
X187737030Y-100589223D01*
X187737030Y-100589223D02*
X187856078Y-100589223D01*
X187856078Y-100589223D02*
X188034649Y-100529700D01*
X188034649Y-100529700D02*
X188153697Y-100410652D01*
X188153697Y-100410652D02*
X188213220Y-100291604D01*
X188213220Y-100291604D02*
X188272744Y-100053509D01*
X188272744Y-100053509D02*
X188272744Y-99874938D01*
X188272744Y-99874938D02*
X188213220Y-99636842D01*
X188213220Y-99636842D02*
X188153697Y-99517795D01*
X188153697Y-99517795D02*
X188034649Y-99398747D01*
X188034649Y-99398747D02*
X187856078Y-99339223D01*
X187856078Y-99339223D02*
X187737030Y-99339223D01*
X187737030Y-99339223D02*
X187558459Y-99398747D01*
X187558459Y-99398747D02*
X187498935Y-99458271D01*
X185117982Y-99279700D02*
X186189411Y-100886842D01*
X183153696Y-99339223D02*
X183748934Y-99339223D01*
X183748934Y-99339223D02*
X183808458Y-99934461D01*
X183808458Y-99934461D02*
X183748934Y-99874938D01*
X183748934Y-99874938D02*
X183629887Y-99815414D01*
X183629887Y-99815414D02*
X183332268Y-99815414D01*
X183332268Y-99815414D02*
X183213220Y-99874938D01*
X183213220Y-99874938D02*
X183153696Y-99934461D01*
X183153696Y-99934461D02*
X183094173Y-100053509D01*
X183094173Y-100053509D02*
X183094173Y-100351128D01*
X183094173Y-100351128D02*
X183153696Y-100470176D01*
X183153696Y-100470176D02*
X183213220Y-100529700D01*
X183213220Y-100529700D02*
X183332268Y-100589223D01*
X183332268Y-100589223D02*
X183629887Y-100589223D01*
X183629887Y-100589223D02*
X183748934Y-100529700D01*
X183748934Y-100529700D02*
X183808458Y-100470176D01*
X182617982Y-100232080D02*
X182022744Y-100232080D01*
X182737030Y-100589223D02*
X182320363Y-99339223D01*
X182320363Y-99339223D02*
X181903697Y-100589223D01*
D11*
G36*
X118444403Y-89182650D02*
G01*
X118655694Y-89182650D01*
X118637354Y-89101526D01*
X118606581Y-89034679D01*
X118563777Y-88979575D01*
X118507863Y-88932826D01*
X118446000Y-88899734D01*
X118376966Y-88879539D01*
X118299048Y-88872560D01*
X118229302Y-88878461D01*
X118167197Y-88895539D01*
X118111326Y-88923465D01*
X118060652Y-88962722D01*
X118017714Y-89010997D01*
X117988055Y-89062117D01*
X117970378Y-89116913D01*
X117964380Y-89176611D01*
X117969096Y-89226562D01*
X117983043Y-89273034D01*
X118006442Y-89316911D01*
X118037809Y-89355645D01*
X118078098Y-89389828D01*
X118128624Y-89419572D01*
X118062178Y-89446296D01*
X118007911Y-89482578D01*
X117964029Y-89528623D01*
X117931296Y-89583019D01*
X117911507Y-89643533D01*
X117904693Y-89711827D01*
X117911973Y-89786790D01*
X117933263Y-89854495D01*
X117968652Y-89916543D01*
X118019433Y-89974028D01*
X118079752Y-90020446D01*
X118147524Y-90053755D01*
X118224178Y-90074308D01*
X118311617Y-90081464D01*
X118394451Y-90074603D01*
X118466584Y-90054944D01*
X118529926Y-90023146D01*
X118585896Y-89978873D01*
X118631840Y-89924499D01*
X118666586Y-89860964D01*
X118690269Y-89786667D01*
X118702110Y-89699468D01*
X118484498Y-89699468D01*
X118470232Y-89756616D01*
X118449183Y-89799675D01*
X118422073Y-89831552D01*
X118387641Y-89855214D01*
X118347440Y-89869676D01*
X118299890Y-89874737D01*
X118250478Y-89869132D01*
X118208481Y-89853028D01*
X118172231Y-89826426D01*
X118143914Y-89791583D01*
X118127228Y-89752692D01*
X118121532Y-89708316D01*
X118128928Y-89660397D01*
X118151028Y-89617766D01*
X118189856Y-89578690D01*
X118238279Y-89550699D01*
X118302528Y-89531894D01*
X118387033Y-89524199D01*
X118387033Y-89335449D01*
X118313093Y-89324951D01*
X118268853Y-89310380D01*
X118233915Y-89287909D01*
X118208394Y-89259120D01*
X118192082Y-89225190D01*
X118186766Y-89189883D01*
X118190539Y-89159465D01*
X118201464Y-89133439D01*
X118219770Y-89110745D01*
X118243462Y-89093572D01*
X118271818Y-89083013D01*
X118306140Y-89079287D01*
X118351003Y-89086446D01*
X118391808Y-89108077D01*
X118424207Y-89141130D01*
X118444403Y-89182650D01*
G37*
G36*
X117804911Y-88899524D02*
G01*
X117578663Y-88899524D01*
X117288023Y-89720043D01*
X116993451Y-88899524D01*
X116767202Y-88899524D01*
X117183536Y-90054500D01*
X117395670Y-90054500D01*
X117804911Y-88899524D01*
G37*
G36*
X116416454Y-89182650D02*
G01*
X116627746Y-89182650D01*
X116609405Y-89101526D01*
X116578633Y-89034679D01*
X116535828Y-88979575D01*
X116479915Y-88932826D01*
X116418051Y-88899734D01*
X116349017Y-88879539D01*
X116271099Y-88872560D01*
X116201354Y-88878461D01*
X116139248Y-88895539D01*
X116083378Y-88923465D01*
X116032703Y-88962722D01*
X115989765Y-89010997D01*
X115960107Y-89062117D01*
X115942429Y-89116913D01*
X115936432Y-89176611D01*
X115941148Y-89226562D01*
X115955095Y-89273034D01*
X115978493Y-89316911D01*
X116009861Y-89355645D01*
X116050150Y-89389828D01*
X116100676Y-89419572D01*
X116034230Y-89446296D01*
X115979963Y-89482578D01*
X115936081Y-89528623D01*
X115903348Y-89583019D01*
X115883558Y-89643533D01*
X115876745Y-89711827D01*
X115884025Y-89786790D01*
X115905314Y-89854495D01*
X115940704Y-89916543D01*
X115991484Y-89974028D01*
X116051803Y-90020446D01*
X116119576Y-90053755D01*
X116196229Y-90074308D01*
X116283669Y-90081464D01*
X116366502Y-90074603D01*
X116438635Y-90054944D01*
X116501977Y-90023146D01*
X116557947Y-89978873D01*
X116603891Y-89924499D01*
X116638638Y-89860964D01*
X116662320Y-89786667D01*
X116674161Y-89699468D01*
X116456550Y-89699468D01*
X116442283Y-89756616D01*
X116421235Y-89799675D01*
X116394125Y-89831552D01*
X116359693Y-89855214D01*
X116319492Y-89869676D01*
X116271942Y-89874737D01*
X116222530Y-89869132D01*
X116180532Y-89853028D01*
X116144282Y-89826426D01*
X116115966Y-89791583D01*
X116099280Y-89752692D01*
X116093584Y-89708316D01*
X116100980Y-89660397D01*
X116123080Y-89617766D01*
X116161908Y-89578690D01*
X116210330Y-89550699D01*
X116274580Y-89531894D01*
X116359085Y-89524199D01*
X116359085Y-89335449D01*
X116285144Y-89324951D01*
X116240905Y-89310380D01*
X116205966Y-89287909D01*
X116180446Y-89259120D01*
X116164133Y-89225190D01*
X116158818Y-89189883D01*
X116162591Y-89159465D01*
X116173515Y-89133439D01*
X116191821Y-89110745D01*
X116215514Y-89093572D01*
X116243870Y-89083013D01*
X116278192Y-89079287D01*
X116323055Y-89086446D01*
X116363860Y-89108077D01*
X116396259Y-89141130D01*
X116416454Y-89182650D01*
G37*
G36*
X100801207Y-89338556D02*
G01*
X100955971Y-89490582D01*
X101018740Y-89432493D01*
X101083690Y-89388880D01*
X101151379Y-89358308D01*
X101222632Y-89339980D01*
X101298504Y-89333781D01*
X101381828Y-89341124D01*
X101456113Y-89362414D01*
X101523092Y-89397346D01*
X101584017Y-89446694D01*
X101634783Y-89506788D01*
X101670322Y-89571725D01*
X101691766Y-89642633D01*
X101699108Y-89721113D01*
X101691487Y-89802277D01*
X101669239Y-89875482D01*
X101632380Y-89942411D01*
X101579734Y-90004240D01*
X101516558Y-90054971D01*
X101447316Y-90090861D01*
X101370742Y-90112713D01*
X101285092Y-90120243D01*
X101210381Y-90114616D01*
X101147016Y-90098723D01*
X101093040Y-90073476D01*
X101045601Y-90037675D01*
X101003614Y-89989544D01*
X100966926Y-89926998D01*
X101301593Y-89926998D01*
X101301593Y-89720271D01*
X100720243Y-89720271D01*
X100718698Y-89768652D01*
X100727370Y-89867042D01*
X100753327Y-89961826D01*
X100797274Y-90054377D01*
X100855830Y-90138523D01*
X100923461Y-90206680D01*
X101000771Y-90260472D01*
X101086610Y-90299158D01*
X101183526Y-90323116D01*
X101293729Y-90331464D01*
X101383326Y-90326361D01*
X101466117Y-90311477D01*
X101542987Y-90287216D01*
X101614703Y-90253660D01*
X101681480Y-90210625D01*
X101740585Y-90159656D01*
X101792590Y-90100307D01*
X101837792Y-90031836D01*
X101873798Y-89958180D01*
X101899329Y-89882252D01*
X101914696Y-89803458D01*
X101919879Y-89721113D01*
X101913670Y-89631093D01*
X101895447Y-89547290D01*
X101865428Y-89468659D01*
X101823307Y-89394334D01*
X101768274Y-89323669D01*
X101691928Y-89251231D01*
X101608215Y-89195615D01*
X101516095Y-89155643D01*
X101414024Y-89131061D01*
X101300048Y-89122560D01*
X101200639Y-89128841D01*
X101106949Y-89147348D01*
X101018046Y-89177893D01*
X100947774Y-89214631D01*
X100875700Y-89267347D01*
X100801207Y-89338556D01*
G37*
G36*
X100515623Y-89149524D02*
G01*
X100305104Y-89149524D01*
X99809422Y-89909583D01*
X99809422Y-89149524D01*
X99589423Y-89149524D01*
X99589423Y-90304500D01*
X99800785Y-90304500D01*
X100295694Y-89546828D01*
X100295694Y-90304500D01*
X100515623Y-90304500D01*
X100515623Y-89149524D01*
G37*
G36*
X99324695Y-90304500D02*
G01*
X99059966Y-90304500D01*
X98907867Y-90300385D01*
X98807045Y-90290083D01*
X98744187Y-90276271D01*
X98685891Y-90252860D01*
X98629617Y-90219154D01*
X98574887Y-90174172D01*
X98527245Y-90121705D01*
X98486382Y-90060190D01*
X98452284Y-89988510D01*
X98427937Y-89912730D01*
X98413016Y-89831218D01*
X98407905Y-89743092D01*
X98408123Y-89739230D01*
X98630291Y-89739230D01*
X98635550Y-89818405D01*
X98650321Y-89885188D01*
X98673546Y-89941603D01*
X98706349Y-89992720D01*
X98743320Y-90031070D01*
X98784704Y-90058519D01*
X98831772Y-90075946D01*
X98902152Y-90088409D01*
X99003439Y-90093278D01*
X99105539Y-90093278D01*
X99105539Y-89360745D01*
X99030895Y-89360745D01*
X98926626Y-89367678D01*
X98845065Y-89386513D01*
X98781765Y-89415079D01*
X98733163Y-89452382D01*
X98689616Y-89506245D01*
X98657680Y-89570507D01*
X98637483Y-89647253D01*
X98630291Y-89739230D01*
X98408123Y-89739230D01*
X98413190Y-89649386D01*
X98428496Y-89564158D01*
X98453256Y-89486326D01*
X98487253Y-89414955D01*
X98531232Y-89347404D01*
X98579441Y-89291872D01*
X98631954Y-89247034D01*
X98689135Y-89211949D01*
X98749550Y-89187432D01*
X98829167Y-89167754D01*
X98932326Y-89154458D01*
X99063898Y-89149524D01*
X99324695Y-89149524D01*
X99324695Y-90304500D01*
G37*
G36*
X117394403Y-111632650D02*
G01*
X117605694Y-111632650D01*
X117587354Y-111551526D01*
X117556581Y-111484679D01*
X117513777Y-111429575D01*
X117457863Y-111382826D01*
X117396000Y-111349734D01*
X117326966Y-111329539D01*
X117249048Y-111322560D01*
X117179302Y-111328461D01*
X117117197Y-111345539D01*
X117061326Y-111373465D01*
X117010652Y-111412722D01*
X116967714Y-111460997D01*
X116938055Y-111512117D01*
X116920378Y-111566913D01*
X116914380Y-111626611D01*
X116919096Y-111676562D01*
X116933043Y-111723034D01*
X116956442Y-111766911D01*
X116987809Y-111805645D01*
X117028098Y-111839828D01*
X117078624Y-111869572D01*
X117012178Y-111896296D01*
X116957911Y-111932578D01*
X116914029Y-111978623D01*
X116881296Y-112033019D01*
X116861507Y-112093533D01*
X116854693Y-112161827D01*
X116861973Y-112236790D01*
X116883263Y-112304495D01*
X116918652Y-112366543D01*
X116969433Y-112424028D01*
X117029752Y-112470446D01*
X117097524Y-112503755D01*
X117174178Y-112524308D01*
X117261617Y-112531464D01*
X117344451Y-112524603D01*
X117416584Y-112504944D01*
X117479926Y-112473146D01*
X117535896Y-112428873D01*
X117581840Y-112374499D01*
X117616586Y-112310964D01*
X117640269Y-112236667D01*
X117652110Y-112149468D01*
X117434498Y-112149468D01*
X117420232Y-112206616D01*
X117399183Y-112249675D01*
X117372073Y-112281552D01*
X117337641Y-112305214D01*
X117297440Y-112319676D01*
X117249890Y-112324737D01*
X117200478Y-112319132D01*
X117158481Y-112303028D01*
X117122231Y-112276426D01*
X117093914Y-112241583D01*
X117077228Y-112202692D01*
X117071532Y-112158316D01*
X117078928Y-112110397D01*
X117101028Y-112067766D01*
X117139856Y-112028690D01*
X117188279Y-112000699D01*
X117252528Y-111981894D01*
X117337033Y-111974199D01*
X117337033Y-111785449D01*
X117263093Y-111774951D01*
X117218853Y-111760380D01*
X117183915Y-111737909D01*
X117158394Y-111709120D01*
X117142082Y-111675190D01*
X117136766Y-111639883D01*
X117140539Y-111609465D01*
X117151464Y-111583439D01*
X117169770Y-111560745D01*
X117193462Y-111543572D01*
X117221818Y-111533013D01*
X117256140Y-111529287D01*
X117301003Y-111536446D01*
X117341808Y-111558077D01*
X117374207Y-111591130D01*
X117394403Y-111632650D01*
G37*
G36*
X116573533Y-112279796D02*
G01*
X116540929Y-112283841D01*
X116512192Y-112295693D01*
X116486320Y-112315749D01*
X116466157Y-112341510D01*
X116454232Y-112370239D01*
X116450157Y-112402962D01*
X116454222Y-112435700D01*
X116466140Y-112464602D01*
X116486320Y-112490666D01*
X116512217Y-112510932D01*
X116540952Y-112522891D01*
X116573533Y-112526970D01*
X116606070Y-112522895D01*
X116634807Y-112510938D01*
X116660746Y-112490666D01*
X116680884Y-112464607D01*
X116692781Y-112435705D01*
X116696839Y-112402962D01*
X116692770Y-112370234D01*
X116680867Y-112341505D01*
X116660746Y-112315749D01*
X116634832Y-112295687D01*
X116606093Y-112283838D01*
X116573533Y-112279796D01*
G37*
G36*
X116043935Y-111632650D02*
G01*
X116255227Y-111632650D01*
X116236886Y-111551526D01*
X116206113Y-111484679D01*
X116163309Y-111429575D01*
X116107395Y-111382826D01*
X116045532Y-111349734D01*
X115976498Y-111329539D01*
X115898580Y-111322560D01*
X115828834Y-111328461D01*
X115766729Y-111345539D01*
X115710859Y-111373465D01*
X115660184Y-111412722D01*
X115617246Y-111460997D01*
X115587588Y-111512117D01*
X115569910Y-111566913D01*
X115563913Y-111626611D01*
X115568629Y-111676562D01*
X115582576Y-111723034D01*
X115605974Y-111766911D01*
X115637342Y-111805645D01*
X115677631Y-111839828D01*
X115728157Y-111869572D01*
X115661710Y-111896296D01*
X115607444Y-111932578D01*
X115563562Y-111978623D01*
X115530829Y-112033019D01*
X115511039Y-112093533D01*
X115504226Y-112161827D01*
X115511506Y-112236790D01*
X115532795Y-112304495D01*
X115568185Y-112366543D01*
X115618965Y-112424028D01*
X115679284Y-112470446D01*
X115747057Y-112503755D01*
X115823710Y-112524308D01*
X115911150Y-112531464D01*
X115993983Y-112524603D01*
X116066116Y-112504944D01*
X116129458Y-112473146D01*
X116185428Y-112428873D01*
X116231372Y-112374499D01*
X116266119Y-112310964D01*
X116289801Y-112236667D01*
X116301642Y-112149468D01*
X116084031Y-112149468D01*
X116069764Y-112206616D01*
X116048716Y-112249675D01*
X116021605Y-112281552D01*
X115987174Y-112305214D01*
X115946973Y-112319676D01*
X115899423Y-112324737D01*
X115850010Y-112319132D01*
X115808013Y-112303028D01*
X115771763Y-112276426D01*
X115743447Y-112241583D01*
X115726760Y-112202692D01*
X115721065Y-112158316D01*
X115728460Y-112110397D01*
X115750561Y-112067766D01*
X115789388Y-112028690D01*
X115837811Y-112000699D01*
X115902061Y-111981894D01*
X115986566Y-111974199D01*
X115986566Y-111785449D01*
X115912625Y-111774951D01*
X115868386Y-111760380D01*
X115833447Y-111737909D01*
X115807926Y-111709120D01*
X115791614Y-111675190D01*
X115786299Y-111639883D01*
X115790071Y-111609465D01*
X115800996Y-111583439D01*
X115819302Y-111560745D01*
X115842995Y-111543572D01*
X115871350Y-111533013D01*
X115905672Y-111529287D01*
X115950536Y-111536446D01*
X115991341Y-111558077D01*
X116023740Y-111591130D01*
X116043935Y-111632650D01*
G37*
G36*
X115404443Y-111349524D02*
G01*
X115178195Y-111349524D01*
X114887555Y-112170043D01*
X114592983Y-111349524D01*
X114366735Y-111349524D01*
X114783068Y-112504500D01*
X114995202Y-112504500D01*
X115404443Y-111349524D01*
G37*
G36*
X195485133Y-89734348D02*
G01*
X195607613Y-89770813D01*
X195718321Y-89830855D01*
X195819330Y-89916088D01*
X195901739Y-90018724D01*
X195960545Y-90133491D01*
X195996679Y-90262773D01*
X196009228Y-90409825D01*
X195999028Y-90541700D01*
X195969685Y-90658137D01*
X195922162Y-90761737D01*
X195856154Y-90854512D01*
X195770115Y-90937756D01*
X195672436Y-91004717D01*
X195570001Y-91051730D01*
X195461500Y-91079976D01*
X195345254Y-91089553D01*
X195212126Y-91076056D01*
X195088433Y-91036064D01*
X195447714Y-90573712D01*
X194991346Y-90573712D01*
X194811095Y-90806964D01*
X194743398Y-90681999D01*
X194703088Y-90549662D01*
X194689462Y-90407383D01*
X194701869Y-90267793D01*
X194738010Y-90141996D01*
X194797609Y-90027253D01*
X194882170Y-89921584D01*
X194984902Y-89833190D01*
X195095378Y-89771538D01*
X195215483Y-89734459D01*
X195347941Y-89721793D01*
X195485133Y-89734348D01*
G37*
G36*
X190260851Y-91042658D02*
G01*
X190165230Y-91042658D01*
X190005269Y-91033886D01*
X189904430Y-91012316D01*
X189844905Y-90983429D01*
X189799355Y-90938410D01*
X189771929Y-90882106D01*
X189762229Y-90810872D01*
X189773359Y-90730332D01*
X189805340Y-90664141D01*
X189859193Y-90608761D01*
X189928455Y-90571140D01*
X190031908Y-90544851D01*
X190181594Y-90534633D01*
X190260851Y-90534633D01*
X190260851Y-91042658D01*
G37*
G36*
X190260851Y-90190739D02*
G01*
X190177564Y-90190739D01*
X190086274Y-90183111D01*
X190019204Y-90162799D01*
X189970568Y-90132243D01*
X189933395Y-90089145D01*
X189910851Y-90036951D01*
X189902913Y-89972875D01*
X189910415Y-89913222D01*
X189931782Y-89864413D01*
X189967149Y-89823886D01*
X190013279Y-89795025D01*
X190076626Y-89775870D01*
X190162543Y-89768688D01*
X190260851Y-89768688D01*
X190260851Y-90190739D01*
G37*
G36*
X192173517Y-90628422D02*
G01*
X191639357Y-90628422D01*
X191905704Y-89935994D01*
X192173517Y-90628422D01*
G37*
G36*
X197890836Y-91788537D02*
G01*
X187708552Y-91788537D01*
X187708552Y-91566315D01*
X194222226Y-91566315D01*
X194675785Y-91566315D01*
X194853349Y-91337704D01*
X195003922Y-91403358D01*
X195166527Y-91443249D01*
X195343789Y-91456894D01*
X195522423Y-91443886D01*
X195684469Y-91406087D01*
X195832632Y-91344357D01*
X195969079Y-91258236D01*
X196095324Y-91145973D01*
X196204219Y-91015178D01*
X196287304Y-90877178D01*
X196346415Y-90730709D01*
X196382287Y-90574016D01*
X196394521Y-90404940D01*
X196385630Y-90262891D01*
X196359396Y-90128493D01*
X196316038Y-90000474D01*
X196255181Y-89877742D01*
X196182232Y-89768688D01*
X196557798Y-89768688D01*
X196923918Y-89768688D01*
X196923918Y-91410000D01*
X197312020Y-91410000D01*
X197312020Y-89768688D01*
X197668614Y-89768688D01*
X197668614Y-89401346D01*
X196557798Y-89401346D01*
X196557798Y-89768688D01*
X196182232Y-89768688D01*
X196178871Y-89763664D01*
X196090066Y-89662556D01*
X195988120Y-89573501D01*
X195871964Y-89495990D01*
X195747076Y-89433781D01*
X195618810Y-89389780D01*
X195486155Y-89363351D01*
X195347941Y-89354452D01*
X195180235Y-89366993D01*
X195024969Y-89403776D01*
X194879892Y-89464461D01*
X194743200Y-89549946D01*
X194613625Y-89662320D01*
X194502351Y-89792003D01*
X194417257Y-89930257D01*
X194356523Y-90078452D01*
X194319524Y-90238526D01*
X194307255Y-90407383D01*
X194306856Y-90412878D01*
X194317797Y-90573746D01*
X194349832Y-90722733D01*
X194402453Y-90861750D01*
X194476068Y-90992380D01*
X194571981Y-91115809D01*
X194222226Y-91566315D01*
X187708552Y-91566315D01*
X187708552Y-90890251D01*
X187930774Y-90890251D01*
X187941881Y-91010110D01*
X187974026Y-91116081D01*
X188026803Y-91210922D01*
X188101622Y-91296549D01*
X188191355Y-91365398D01*
X188293745Y-91415147D01*
X188411194Y-91446064D01*
X188546877Y-91456894D01*
X188686700Y-91444609D01*
X188810238Y-91409128D01*
X188920568Y-91351137D01*
X189017186Y-91271629D01*
X189108053Y-91162737D01*
X189193143Y-91018845D01*
X188874699Y-90825404D01*
X189386461Y-90825404D01*
X189396326Y-90935552D01*
X189425398Y-91037598D01*
X189473900Y-91133394D01*
X189538717Y-91219258D01*
X189613571Y-91288006D01*
X189699337Y-91341245D01*
X189794070Y-91377006D01*
X189918694Y-91401047D01*
X190080478Y-91410000D01*
X190643335Y-91410000D01*
X190941189Y-91410000D01*
X191338817Y-91410000D01*
X191495865Y-90995764D01*
X192315666Y-90995764D01*
X192479553Y-91410000D01*
X192877180Y-91410000D01*
X192735496Y-91042658D01*
X193005530Y-91042658D01*
X193005530Y-91410000D01*
X193945498Y-91410000D01*
X193945498Y-89401346D01*
X193563014Y-89401346D01*
X193563014Y-91042658D01*
X193005530Y-91042658D01*
X192735496Y-91042658D01*
X192102442Y-89401346D01*
X191714462Y-89401346D01*
X191242074Y-90628422D01*
X190941189Y-91410000D01*
X190643335Y-91410000D01*
X190643335Y-89401346D01*
X190327773Y-89401346D01*
X190071565Y-89411971D01*
X189926116Y-89436884D01*
X189811888Y-89479062D01*
X189717239Y-89538304D01*
X189639253Y-89614937D01*
X189580208Y-89706436D01*
X189544786Y-89807681D01*
X189532641Y-89921584D01*
X189538370Y-89972875D01*
X189545019Y-90032412D01*
X189581123Y-90130411D01*
X189642202Y-90218281D01*
X189738904Y-90306266D01*
X189622892Y-90371579D01*
X189535193Y-90443162D01*
X189471214Y-90520956D01*
X189424840Y-90610184D01*
X189396356Y-90710804D01*
X189387716Y-90810872D01*
X189386461Y-90825404D01*
X188874699Y-90825404D01*
X188872086Y-90823817D01*
X188787724Y-90951595D01*
X188705183Y-91031689D01*
X188623238Y-91075479D01*
X188538817Y-91089553D01*
X188475299Y-91082924D01*
X188420823Y-91063888D01*
X188373464Y-91032644D01*
X188335227Y-90991162D01*
X188313659Y-90947793D01*
X188306542Y-90900997D01*
X188318482Y-90835032D01*
X188357100Y-90765321D01*
X188425224Y-90691624D01*
X188579727Y-90557714D01*
X188797074Y-90371643D01*
X188930322Y-90239098D01*
X189003244Y-90147386D01*
X189057821Y-90047823D01*
X189088830Y-89952333D01*
X189098866Y-89859057D01*
X189088894Y-89758873D01*
X189059578Y-89667427D01*
X189010539Y-89582632D01*
X188939741Y-89503073D01*
X188855876Y-89438306D01*
X188763664Y-89392277D01*
X188661422Y-89364158D01*
X188546877Y-89354452D01*
X188448416Y-89362239D01*
X188353420Y-89385504D01*
X188260746Y-89424672D01*
X188175373Y-89478529D01*
X188077944Y-89561509D01*
X187966311Y-89680760D01*
X188249145Y-89932819D01*
X188332976Y-89831163D01*
X188410171Y-89767337D01*
X188482486Y-89732718D01*
X188552494Y-89721793D01*
X188622246Y-89732288D01*
X188675471Y-89761849D01*
X188711951Y-89805755D01*
X188723220Y-89852219D01*
X188714915Y-89900475D01*
X188689026Y-89947351D01*
X188617733Y-90021080D01*
X188409002Y-90204173D01*
X188143876Y-90433761D01*
X188041004Y-90553094D01*
X187979256Y-90657365D01*
X187943119Y-90767821D01*
X187930774Y-90890251D01*
X187708552Y-90890251D01*
X187708552Y-89132230D01*
X197890836Y-89132230D01*
X197890836Y-91788537D01*
G37*
G36*
X193417986Y-109149524D02*
G01*
X193198058Y-109149524D01*
X193198058Y-110093278D01*
X192877504Y-110093278D01*
X192877504Y-110304500D01*
X193417986Y-110304500D01*
X193417986Y-109149524D01*
G37*
G36*
X192709398Y-109149524D02*
G01*
X192078613Y-109149524D01*
X192078613Y-109360745D01*
X192491014Y-109360745D01*
X192491014Y-109571966D01*
X192078613Y-109571966D01*
X192078613Y-109783188D01*
X192491014Y-109783188D01*
X192491014Y-110093278D01*
X192078613Y-110093278D01*
X192078613Y-110304500D01*
X192709398Y-110304500D01*
X192709398Y-109149524D01*
G37*
G36*
X191872378Y-110304500D02*
G01*
X191607649Y-110304500D01*
X191455551Y-110300385D01*
X191354728Y-110290083D01*
X191291871Y-110276271D01*
X191233574Y-110252860D01*
X191177300Y-110219154D01*
X191122571Y-110174172D01*
X191074929Y-110121705D01*
X191034065Y-110060190D01*
X190999967Y-109988510D01*
X190975620Y-109912730D01*
X190960700Y-109831218D01*
X190955588Y-109743092D01*
X190955806Y-109739230D01*
X191177974Y-109739230D01*
X191183233Y-109818405D01*
X191198004Y-109885188D01*
X191221229Y-109941603D01*
X191254032Y-109992720D01*
X191291003Y-110031070D01*
X191332387Y-110058519D01*
X191379455Y-110075946D01*
X191449836Y-110088409D01*
X191551122Y-110093278D01*
X191653222Y-110093278D01*
X191653222Y-109360745D01*
X191578578Y-109360745D01*
X191474309Y-109367678D01*
X191392748Y-109386513D01*
X191329448Y-109415079D01*
X191280846Y-109452382D01*
X191237299Y-109506245D01*
X191205364Y-109570507D01*
X191185166Y-109647253D01*
X191177974Y-109739230D01*
X190955806Y-109739230D01*
X190960873Y-109649386D01*
X190976179Y-109564158D01*
X191000939Y-109486326D01*
X191034936Y-109414955D01*
X191078916Y-109347404D01*
X191127124Y-109291872D01*
X191179638Y-109247034D01*
X191236818Y-109211949D01*
X191297233Y-109187432D01*
X191376850Y-109167754D01*
X191480009Y-109154458D01*
X191611581Y-109149524D01*
X191872378Y-109149524D01*
X191872378Y-110304500D01*
G37*
G36*
X190493331Y-109630389D02*
G01*
X190493331Y-109338275D01*
X190296926Y-109338275D01*
X190296926Y-109630389D01*
X190003126Y-109630389D01*
X190003126Y-109828128D01*
X190296926Y-109828128D01*
X190296926Y-110120243D01*
X190493331Y-110120243D01*
X190493331Y-109828128D01*
X190787903Y-109828128D01*
X190787903Y-109630389D01*
X190493331Y-109630389D01*
G37*
G36*
X94315054Y-109730389D02*
G01*
X94315054Y-109438275D01*
X94118650Y-109438275D01*
X94118650Y-109730389D01*
X93824850Y-109730389D01*
X93824850Y-109928128D01*
X94118650Y-109928128D01*
X94118650Y-110220243D01*
X94315054Y-110220243D01*
X94315054Y-109928128D01*
X94609627Y-109928128D01*
X94609627Y-109730389D01*
X94315054Y-109730389D01*
G37*
G36*
X93470170Y-109249524D02*
G01*
X93140979Y-109249524D01*
X93140979Y-110404500D01*
X93359363Y-110404500D01*
X93359363Y-109451757D01*
X93597408Y-109451757D01*
X93470170Y-109249524D01*
G37*
G36*
X92553380Y-109627026D02*
G01*
X92767831Y-109627026D01*
X92756417Y-109533754D01*
X92732566Y-109454761D01*
X92697237Y-109387657D01*
X92650423Y-109330628D01*
X92592817Y-109283784D01*
X92528077Y-109250321D01*
X92454806Y-109229725D01*
X92371089Y-109222560D01*
X92302062Y-109227731D01*
X92240564Y-109242653D01*
X92185358Y-109266868D01*
X92135493Y-109300564D01*
X92092715Y-109342889D01*
X92056504Y-109394739D01*
X92029212Y-109451935D01*
X92013389Y-109508258D01*
X92008193Y-109564530D01*
X92014182Y-109631879D01*
X92033069Y-109705183D01*
X92066756Y-109785793D01*
X92111046Y-109861402D01*
X92180255Y-109953662D01*
X92280786Y-110065759D01*
X92410412Y-110202266D01*
X91998784Y-110202266D01*
X91998784Y-110404500D01*
X92799289Y-110404500D01*
X92799289Y-110299591D01*
X92441800Y-109936484D01*
X92356938Y-109845804D01*
X92301909Y-109777237D01*
X92269411Y-109726316D01*
X92244462Y-109672024D01*
X92230813Y-109624590D01*
X92226577Y-109582717D01*
X92231686Y-109540209D01*
X92246421Y-109504050D01*
X92270956Y-109472753D01*
X92302862Y-109448891D01*
X92340425Y-109434371D01*
X92385273Y-109429287D01*
X92430036Y-109435270D01*
X92468789Y-109452762D01*
X92503102Y-109482513D01*
X92528782Y-109520496D01*
X92545809Y-109567864D01*
X92553380Y-109627026D01*
G37*
G36*
X91888749Y-109249524D02*
G01*
X91662501Y-109249524D01*
X91371861Y-110070043D01*
X91077289Y-109249524D01*
X90851041Y-109249524D01*
X91267374Y-110404500D01*
X91479508Y-110404500D01*
X91888749Y-109249524D01*
G37*
X185918422Y-111551921D02*
X185918422Y-110426921D01*
X185918422Y-111498350D02*
X186025564Y-111551921D01*
X186025564Y-111551921D02*
X186239850Y-111551921D01*
X186239850Y-111551921D02*
X186346993Y-111498350D01*
X186346993Y-111498350D02*
X186400564Y-111444778D01*
X186400564Y-111444778D02*
X186454136Y-111337635D01*
X186454136Y-111337635D02*
X186454136Y-111016207D01*
X186454136Y-111016207D02*
X186400564Y-110909064D01*
X186400564Y-110909064D02*
X186346993Y-110855492D01*
X186346993Y-110855492D02*
X186239850Y-110801921D01*
X186239850Y-110801921D02*
X186025564Y-110801921D01*
X186025564Y-110801921D02*
X185918422Y-110855492D01*
X184954136Y-111498350D02*
X185061279Y-111551921D01*
X185061279Y-111551921D02*
X185275565Y-111551921D01*
X185275565Y-111551921D02*
X185382707Y-111498350D01*
X185382707Y-111498350D02*
X185436279Y-111391207D01*
X185436279Y-111391207D02*
X185436279Y-110962635D01*
X185436279Y-110962635D02*
X185382707Y-110855492D01*
X185382707Y-110855492D02*
X185275565Y-110801921D01*
X185275565Y-110801921D02*
X185061279Y-110801921D01*
X185061279Y-110801921D02*
X184954136Y-110855492D01*
X184954136Y-110855492D02*
X184900565Y-110962635D01*
X184900565Y-110962635D02*
X184900565Y-111069778D01*
X184900565Y-111069778D02*
X185436279Y-111176921D01*
X184471993Y-111498350D02*
X184364850Y-111551921D01*
X184364850Y-111551921D02*
X184150564Y-111551921D01*
X184150564Y-111551921D02*
X184043421Y-111498350D01*
X184043421Y-111498350D02*
X183989850Y-111391207D01*
X183989850Y-111391207D02*
X183989850Y-111337635D01*
X183989850Y-111337635D02*
X184043421Y-111230492D01*
X184043421Y-111230492D02*
X184150564Y-111176921D01*
X184150564Y-111176921D02*
X184311279Y-111176921D01*
X184311279Y-111176921D02*
X184418421Y-111123350D01*
X184418421Y-111123350D02*
X184471993Y-111016207D01*
X184471993Y-111016207D02*
X184471993Y-110962635D01*
X184471993Y-110962635D02*
X184418421Y-110855492D01*
X184418421Y-110855492D02*
X184311279Y-110801921D01*
X184311279Y-110801921D02*
X184150564Y-110801921D01*
X184150564Y-110801921D02*
X184043421Y-110855492D01*
X183507707Y-111551921D02*
X183507707Y-110801921D01*
X183507707Y-110426921D02*
X183561279Y-110480492D01*
X183561279Y-110480492D02*
X183507707Y-110534064D01*
X183507707Y-110534064D02*
X183454136Y-110480492D01*
X183454136Y-110480492D02*
X183507707Y-110426921D01*
X183507707Y-110426921D02*
X183507707Y-110534064D01*
X182489851Y-110801921D02*
X182489851Y-111712635D01*
X182489851Y-111712635D02*
X182543422Y-111819778D01*
X182543422Y-111819778D02*
X182596993Y-111873350D01*
X182596993Y-111873350D02*
X182704136Y-111926921D01*
X182704136Y-111926921D02*
X182864851Y-111926921D01*
X182864851Y-111926921D02*
X182971993Y-111873350D01*
X182489851Y-111498350D02*
X182596993Y-111551921D01*
X182596993Y-111551921D02*
X182811279Y-111551921D01*
X182811279Y-111551921D02*
X182918422Y-111498350D01*
X182918422Y-111498350D02*
X182971993Y-111444778D01*
X182971993Y-111444778D02*
X183025565Y-111337635D01*
X183025565Y-111337635D02*
X183025565Y-111016207D01*
X183025565Y-111016207D02*
X182971993Y-110909064D01*
X182971993Y-110909064D02*
X182918422Y-110855492D01*
X182918422Y-110855492D02*
X182811279Y-110801921D01*
X182811279Y-110801921D02*
X182596993Y-110801921D01*
X182596993Y-110801921D02*
X182489851Y-110855492D01*
X181954136Y-110801921D02*
X181954136Y-111551921D01*
X181954136Y-110909064D02*
X181900565Y-110855492D01*
X181900565Y-110855492D02*
X181793422Y-110801921D01*
X181793422Y-110801921D02*
X181632708Y-110801921D01*
X181632708Y-110801921D02*
X181525565Y-110855492D01*
X181525565Y-110855492D02*
X181471994Y-110962635D01*
X181471994Y-110962635D02*
X181471994Y-111551921D01*
X180507708Y-111498350D02*
X180614851Y-111551921D01*
X180614851Y-111551921D02*
X180829137Y-111551921D01*
X180829137Y-111551921D02*
X180936279Y-111498350D01*
X180936279Y-111498350D02*
X180989851Y-111391207D01*
X180989851Y-111391207D02*
X180989851Y-110962635D01*
X180989851Y-110962635D02*
X180936279Y-110855492D01*
X180936279Y-110855492D02*
X180829137Y-110801921D01*
X180829137Y-110801921D02*
X180614851Y-110801921D01*
X180614851Y-110801921D02*
X180507708Y-110855492D01*
X180507708Y-110855492D02*
X180454137Y-110962635D01*
X180454137Y-110962635D02*
X180454137Y-111069778D01*
X180454137Y-111069778D02*
X180989851Y-111176921D01*
X179489851Y-111551921D02*
X179489851Y-110426921D01*
X179489851Y-111498350D02*
X179596993Y-111551921D01*
X179596993Y-111551921D02*
X179811279Y-111551921D01*
X179811279Y-111551921D02*
X179918422Y-111498350D01*
X179918422Y-111498350D02*
X179971993Y-111444778D01*
X179971993Y-111444778D02*
X180025565Y-111337635D01*
X180025565Y-111337635D02*
X180025565Y-111016207D01*
X180025565Y-111016207D02*
X179971993Y-110909064D01*
X179971993Y-110909064D02*
X179918422Y-110855492D01*
X179918422Y-110855492D02*
X179811279Y-110801921D01*
X179811279Y-110801921D02*
X179596993Y-110801921D01*
X179596993Y-110801921D02*
X179489851Y-110855492D01*
X178096993Y-111551921D02*
X178096993Y-110426921D01*
X178096993Y-110855492D02*
X177989851Y-110801921D01*
X177989851Y-110801921D02*
X177775565Y-110801921D01*
X177775565Y-110801921D02*
X177668422Y-110855492D01*
X177668422Y-110855492D02*
X177614851Y-110909064D01*
X177614851Y-110909064D02*
X177561279Y-111016207D01*
X177561279Y-111016207D02*
X177561279Y-111337635D01*
X177561279Y-111337635D02*
X177614851Y-111444778D01*
X177614851Y-111444778D02*
X177668422Y-111498350D01*
X177668422Y-111498350D02*
X177775565Y-111551921D01*
X177775565Y-111551921D02*
X177989851Y-111551921D01*
X177989851Y-111551921D02*
X178096993Y-111498350D01*
X177186279Y-110801921D02*
X176918422Y-111551921D01*
X176650565Y-110801921D02*
X176918422Y-111551921D01*
X176918422Y-111551921D02*
X177025565Y-111819778D01*
X177025565Y-111819778D02*
X177079136Y-111873350D01*
X177079136Y-111873350D02*
X177186279Y-111926921D01*
X175525565Y-110801921D02*
X175096993Y-110801921D01*
X175364850Y-110426921D02*
X175364850Y-111391207D01*
X175364850Y-111391207D02*
X175311279Y-111498350D01*
X175311279Y-111498350D02*
X175204136Y-111551921D01*
X175204136Y-111551921D02*
X175096993Y-111551921D01*
X174239851Y-111551921D02*
X174239851Y-110962635D01*
X174239851Y-110962635D02*
X174293422Y-110855492D01*
X174293422Y-110855492D02*
X174400565Y-110801921D01*
X174400565Y-110801921D02*
X174614851Y-110801921D01*
X174614851Y-110801921D02*
X174721993Y-110855492D01*
X174239851Y-111498350D02*
X174346993Y-111551921D01*
X174346993Y-111551921D02*
X174614851Y-111551921D01*
X174614851Y-111551921D02*
X174721993Y-111498350D01*
X174721993Y-111498350D02*
X174775565Y-111391207D01*
X174775565Y-111391207D02*
X174775565Y-111284064D01*
X174775565Y-111284064D02*
X174721993Y-111176921D01*
X174721993Y-111176921D02*
X174614851Y-111123350D01*
X174614851Y-111123350D02*
X174346993Y-111123350D01*
X174346993Y-111123350D02*
X174239851Y-111069778D01*
X173704136Y-110801921D02*
X173704136Y-111551921D01*
X173704136Y-110909064D02*
X173650565Y-110855492D01*
X173650565Y-110855492D02*
X173543422Y-110801921D01*
X173543422Y-110801921D02*
X173382708Y-110801921D01*
X173382708Y-110801921D02*
X173275565Y-110855492D01*
X173275565Y-110855492D02*
X173221994Y-110962635D01*
X173221994Y-110962635D02*
X173221994Y-111551921D01*
X172686279Y-111551921D02*
X172686279Y-110801921D01*
X172686279Y-110426921D02*
X172739851Y-110480492D01*
X172739851Y-110480492D02*
X172686279Y-110534064D01*
X172686279Y-110534064D02*
X172632708Y-110480492D01*
X172632708Y-110480492D02*
X172686279Y-110426921D01*
X172686279Y-110426921D02*
X172686279Y-110534064D01*
X172204137Y-111498350D02*
X172096994Y-111551921D01*
X172096994Y-111551921D02*
X171882708Y-111551921D01*
X171882708Y-111551921D02*
X171775565Y-111498350D01*
X171775565Y-111498350D02*
X171721994Y-111391207D01*
X171721994Y-111391207D02*
X171721994Y-111337635D01*
X171721994Y-111337635D02*
X171775565Y-111230492D01*
X171775565Y-111230492D02*
X171882708Y-111176921D01*
X171882708Y-111176921D02*
X172043423Y-111176921D01*
X172043423Y-111176921D02*
X172150565Y-111123350D01*
X172150565Y-111123350D02*
X172204137Y-111016207D01*
X172204137Y-111016207D02*
X172204137Y-110962635D01*
X172204137Y-110962635D02*
X172150565Y-110855492D01*
X172150565Y-110855492D02*
X172043423Y-110801921D01*
X172043423Y-110801921D02*
X171882708Y-110801921D01*
X171882708Y-110801921D02*
X171775565Y-110855492D01*
X171239851Y-111551921D02*
X171239851Y-110426921D01*
X170757709Y-111551921D02*
X170757709Y-110962635D01*
X170757709Y-110962635D02*
X170811280Y-110855492D01*
X170811280Y-110855492D02*
X170918423Y-110801921D01*
X170918423Y-110801921D02*
X171079137Y-110801921D01*
X171079137Y-110801921D02*
X171186280Y-110855492D01*
X171186280Y-110855492D02*
X171239851Y-110909064D01*
X169739852Y-110801921D02*
X169739852Y-111926921D01*
X169739852Y-111498350D02*
X169846994Y-111551921D01*
X169846994Y-111551921D02*
X170061280Y-111551921D01*
X170061280Y-111551921D02*
X170168423Y-111498350D01*
X170168423Y-111498350D02*
X170221994Y-111444778D01*
X170221994Y-111444778D02*
X170275566Y-111337635D01*
X170275566Y-111337635D02*
X170275566Y-111016207D01*
X170275566Y-111016207D02*
X170221994Y-110909064D01*
X170221994Y-110909064D02*
X170168423Y-110855492D01*
X170168423Y-110855492D02*
X170061280Y-110801921D01*
X170061280Y-110801921D02*
X169846994Y-110801921D01*
X169846994Y-110801921D02*
X169739852Y-110855492D01*
X169204137Y-111551921D02*
X169204137Y-110801921D01*
X169204137Y-110909064D02*
X169150566Y-110855492D01*
X169150566Y-110855492D02*
X169043423Y-110801921D01*
X169043423Y-110801921D02*
X168882709Y-110801921D01*
X168882709Y-110801921D02*
X168775566Y-110855492D01*
X168775566Y-110855492D02*
X168721995Y-110962635D01*
X168721995Y-110962635D02*
X168721995Y-111551921D01*
X168721995Y-110962635D02*
X168668423Y-110855492D01*
X168668423Y-110855492D02*
X168561280Y-110801921D01*
X168561280Y-110801921D02*
X168400566Y-110801921D01*
X168400566Y-110801921D02*
X168293423Y-110855492D01*
X168293423Y-110855492D02*
X168239852Y-110962635D01*
X168239852Y-110962635D02*
X168239852Y-111551921D01*
X167221995Y-111551921D02*
X167221995Y-110962635D01*
X167221995Y-110962635D02*
X167275566Y-110855492D01*
X167275566Y-110855492D02*
X167382709Y-110801921D01*
X167382709Y-110801921D02*
X167596995Y-110801921D01*
X167596995Y-110801921D02*
X167704137Y-110855492D01*
X167221995Y-111498350D02*
X167329137Y-111551921D01*
X167329137Y-111551921D02*
X167596995Y-111551921D01*
X167596995Y-111551921D02*
X167704137Y-111498350D01*
X167704137Y-111498350D02*
X167757709Y-111391207D01*
X167757709Y-111391207D02*
X167757709Y-111284064D01*
X167757709Y-111284064D02*
X167704137Y-111176921D01*
X167704137Y-111176921D02*
X167596995Y-111123350D01*
X167596995Y-111123350D02*
X167329137Y-111123350D01*
X167329137Y-111123350D02*
X167221995Y-111069778D01*
X166686280Y-110801921D02*
X166686280Y-111551921D01*
X166686280Y-110909064D02*
X166632709Y-110855492D01*
X166632709Y-110855492D02*
X166525566Y-110801921D01*
X166525566Y-110801921D02*
X166364852Y-110801921D01*
X166364852Y-110801921D02*
X166257709Y-110855492D01*
X166257709Y-110855492D02*
X166204138Y-110962635D01*
X166204138Y-110962635D02*
X166204138Y-111551921D01*
X165186281Y-110801921D02*
X165186281Y-111551921D01*
X165668423Y-110801921D02*
X165668423Y-111391207D01*
X165668423Y-111391207D02*
X165614852Y-111498350D01*
X165614852Y-111498350D02*
X165507709Y-111551921D01*
X165507709Y-111551921D02*
X165346995Y-111551921D01*
X165346995Y-111551921D02*
X165239852Y-111498350D01*
X165239852Y-111498350D02*
X165186281Y-111444778D01*
X164650566Y-110801921D02*
X164650566Y-111766207D01*
X164650566Y-111766207D02*
X164704138Y-111873350D01*
X164704138Y-111873350D02*
X164811281Y-111926921D01*
X164811281Y-111926921D02*
X164864852Y-111926921D01*
X164650566Y-110426921D02*
X164704138Y-110480492D01*
X164704138Y-110480492D02*
X164650566Y-110534064D01*
X164650566Y-110534064D02*
X164596995Y-110480492D01*
X164596995Y-110480492D02*
X164650566Y-110426921D01*
X164650566Y-110426921D02*
X164650566Y-110534064D01*
X163632710Y-111551921D02*
X163632710Y-110962635D01*
X163632710Y-110962635D02*
X163686281Y-110855492D01*
X163686281Y-110855492D02*
X163793424Y-110801921D01*
X163793424Y-110801921D02*
X164007710Y-110801921D01*
X164007710Y-110801921D02*
X164114852Y-110855492D01*
X163632710Y-111498350D02*
X163739852Y-111551921D01*
X163739852Y-111551921D02*
X164007710Y-111551921D01*
X164007710Y-111551921D02*
X164114852Y-111498350D01*
X164114852Y-111498350D02*
X164168424Y-111391207D01*
X164168424Y-111391207D02*
X164168424Y-111284064D01*
X164168424Y-111284064D02*
X164114852Y-111176921D01*
X164114852Y-111176921D02*
X164007710Y-111123350D01*
X164007710Y-111123350D02*
X163739852Y-111123350D01*
X163739852Y-111123350D02*
X163632710Y-111069778D01*
G36*
X193417986Y-104149524D02*
G01*
X193198058Y-104149524D01*
X193198058Y-105093278D01*
X192877504Y-105093278D01*
X192877504Y-105304500D01*
X193417986Y-105304500D01*
X193417986Y-104149524D01*
G37*
G36*
X192709398Y-104149524D02*
G01*
X192078613Y-104149524D01*
X192078613Y-104360745D01*
X192491014Y-104360745D01*
X192491014Y-104571966D01*
X192078613Y-104571966D01*
X192078613Y-104783188D01*
X192491014Y-104783188D01*
X192491014Y-105093278D01*
X192078613Y-105093278D01*
X192078613Y-105304500D01*
X192709398Y-105304500D01*
X192709398Y-104149524D01*
G37*
G36*
X191872378Y-105304500D02*
G01*
X191607649Y-105304500D01*
X191455551Y-105300385D01*
X191354728Y-105290083D01*
X191291871Y-105276271D01*
X191233574Y-105252860D01*
X191177300Y-105219154D01*
X191122571Y-105174172D01*
X191074929Y-105121705D01*
X191034065Y-105060190D01*
X190999967Y-104988510D01*
X190975620Y-104912730D01*
X190960700Y-104831218D01*
X190955588Y-104743092D01*
X190955806Y-104739230D01*
X191177974Y-104739230D01*
X191183233Y-104818405D01*
X191198004Y-104885188D01*
X191221229Y-104941603D01*
X191254032Y-104992720D01*
X191291003Y-105031070D01*
X191332387Y-105058519D01*
X191379455Y-105075946D01*
X191449836Y-105088409D01*
X191551122Y-105093278D01*
X191653222Y-105093278D01*
X191653222Y-104360745D01*
X191578578Y-104360745D01*
X191474309Y-104367678D01*
X191392748Y-104386513D01*
X191329448Y-104415079D01*
X191280846Y-104452382D01*
X191237299Y-104506245D01*
X191205364Y-104570507D01*
X191185166Y-104647253D01*
X191177974Y-104739230D01*
X190955806Y-104739230D01*
X190960873Y-104649386D01*
X190976179Y-104564158D01*
X191000939Y-104486326D01*
X191034936Y-104414955D01*
X191078916Y-104347404D01*
X191127124Y-104291872D01*
X191179638Y-104247034D01*
X191236818Y-104211949D01*
X191297233Y-104187432D01*
X191376850Y-104167754D01*
X191480009Y-104154458D01*
X191611581Y-104149524D01*
X191872378Y-104149524D01*
X191872378Y-105304500D01*
G37*
G36*
X190740013Y-104778693D02*
G01*
X190340954Y-104778693D01*
X190340954Y-104976433D01*
X190740013Y-104976433D01*
X190740013Y-104778693D01*
G37*
G36*
X108941615Y-92297321D02*
G01*
X109004638Y-92315416D01*
X109061954Y-92345218D01*
X109114574Y-92387456D01*
X109158520Y-92438785D01*
X109189243Y-92494228D01*
X109207764Y-92554753D01*
X109214103Y-92621746D01*
X109207849Y-92689594D01*
X109189656Y-92750374D01*
X109159642Y-92805518D01*
X109116955Y-92856036D01*
X109065637Y-92897240D01*
X109008254Y-92926644D01*
X108943613Y-92944711D01*
X108870087Y-92950985D01*
X108804149Y-92945885D01*
X108745931Y-92931213D01*
X108694131Y-92907452D01*
X108647743Y-92874448D01*
X108606121Y-92831428D01*
X108572722Y-92782942D01*
X108549209Y-92731748D01*
X108535040Y-92677168D01*
X108530223Y-92618326D01*
X108536480Y-92552340D01*
X108554785Y-92492576D01*
X108585186Y-92437684D01*
X108628714Y-92386723D01*
X108680807Y-92344898D01*
X108737876Y-92315315D01*
X108800959Y-92297306D01*
X108871491Y-92291102D01*
X108941615Y-92297321D01*
G37*
G36*
X109508884Y-93609994D02*
G01*
X108235441Y-93609994D01*
X108235441Y-93498883D01*
X108370000Y-93498883D01*
X109374326Y-93498883D01*
X109374326Y-93308984D01*
X108370000Y-93308984D01*
X108370000Y-93498883D01*
X108235441Y-93498883D01*
X108235441Y-92618326D01*
X108346552Y-92618326D01*
X108353068Y-92707599D01*
X108372005Y-92788593D01*
X108402936Y-92862662D01*
X108446098Y-92930890D01*
X108502379Y-92994033D01*
X108567941Y-93048524D01*
X108636995Y-93090073D01*
X108710166Y-93119613D01*
X108788322Y-93137526D01*
X108872529Y-93143632D01*
X108943547Y-93139190D01*
X109010808Y-93126079D01*
X109074943Y-93104400D01*
X109136495Y-93073961D01*
X109193679Y-93035780D01*
X109244262Y-92991366D01*
X109288718Y-92940402D01*
X109327309Y-92882353D01*
X109358251Y-92819937D01*
X109380160Y-92755703D01*
X109393334Y-92689143D01*
X109397773Y-92619670D01*
X109391515Y-92536107D01*
X109373152Y-92458679D01*
X109342844Y-92386268D01*
X109300131Y-92317980D01*
X109243961Y-92253183D01*
X109179188Y-92197540D01*
X109110137Y-92154993D01*
X109036125Y-92124629D01*
X108956182Y-92106132D01*
X108869110Y-92099799D01*
X108782785Y-92106057D01*
X108703616Y-92124325D01*
X108630405Y-92154294D01*
X108562191Y-92196260D01*
X108498288Y-92251107D01*
X108443137Y-92314928D01*
X108401035Y-92382766D01*
X108371038Y-92455283D01*
X108352792Y-92533414D01*
X108346552Y-92618326D01*
X108235441Y-92618326D01*
X108235441Y-92003872D01*
X108370000Y-92003872D01*
X108461224Y-92003872D01*
X108776969Y-91693012D01*
X108855821Y-91619219D01*
X108915445Y-91571368D01*
X108959724Y-91543108D01*
X109006935Y-91521414D01*
X109048182Y-91509545D01*
X109084593Y-91505861D01*
X109121557Y-91510305D01*
X109152999Y-91523118D01*
X109180214Y-91544452D01*
X109200964Y-91572197D01*
X109213590Y-91604860D01*
X109218011Y-91643859D01*
X109212808Y-91682783D01*
X109197597Y-91716480D01*
X109171727Y-91746318D01*
X109138698Y-91768649D01*
X109097508Y-91783454D01*
X109046064Y-91790038D01*
X109046064Y-91976517D01*
X109127169Y-91966592D01*
X109195859Y-91945852D01*
X109254211Y-91915131D01*
X109303801Y-91874424D01*
X109344534Y-91824331D01*
X109373633Y-91768035D01*
X109391542Y-91704321D01*
X109397773Y-91631524D01*
X109393276Y-91571500D01*
X109380301Y-91518025D01*
X109359244Y-91470019D01*
X109329943Y-91426659D01*
X109293139Y-91389460D01*
X109248053Y-91357972D01*
X109198317Y-91334240D01*
X109149340Y-91320481D01*
X109100408Y-91315963D01*
X109041843Y-91321170D01*
X108978101Y-91337594D01*
X108908005Y-91366887D01*
X108842258Y-91405400D01*
X108762032Y-91465582D01*
X108664556Y-91553000D01*
X108545854Y-91665718D01*
X108545854Y-91307780D01*
X108370000Y-91307780D01*
X108370000Y-92003872D01*
X108235441Y-92003872D01*
X108235441Y-91196669D01*
X109508884Y-91196669D01*
X109508884Y-93609994D01*
G37*
G36*
X109156477Y-111349524D02*
G01*
X108941183Y-111349524D01*
X108674137Y-112155086D01*
X108403089Y-111349524D01*
X108190955Y-111349524D01*
X107996165Y-112504500D01*
X108208299Y-112504500D01*
X108332377Y-111775056D01*
X108578287Y-112504500D01*
X108772305Y-112504500D01*
X109015054Y-111775056D01*
X109141520Y-112504500D01*
X109355972Y-112504500D01*
X109156477Y-111349524D01*
G37*
G36*
X107820615Y-112504500D02*
G01*
X107600617Y-112504500D01*
X107600617Y-112010152D01*
X107445502Y-112004573D01*
X107368891Y-111992246D01*
X107300319Y-111965431D01*
X107243693Y-111928636D01*
X107197274Y-111881650D01*
X107162805Y-111825642D01*
X107141500Y-111759958D01*
X107134006Y-111682155D01*
X107134034Y-111681804D01*
X107346912Y-111681804D01*
X107351720Y-111718377D01*
X107365380Y-111747881D01*
X107387159Y-111771234D01*
X107416079Y-111787064D01*
X107454533Y-111795260D01*
X107530678Y-111798931D01*
X107600617Y-111798931D01*
X107600617Y-111560745D01*
X107538542Y-111560745D01*
X107469687Y-111564124D01*
X107425450Y-111572486D01*
X107398735Y-111583707D01*
X107370164Y-111608036D01*
X107353025Y-111639895D01*
X107346912Y-111681804D01*
X107134034Y-111681804D01*
X107139716Y-111611339D01*
X107156031Y-111549957D01*
X107182317Y-111496354D01*
X107218654Y-111449232D01*
X107262360Y-111412128D01*
X107314330Y-111384213D01*
X107371928Y-111366967D01*
X107459637Y-111354447D01*
X107587275Y-111349524D01*
X107820615Y-111349524D01*
X107820615Y-112504500D01*
G37*
G36*
X106785997Y-111349524D02*
G01*
X106456806Y-111349524D01*
X106456806Y-112504500D01*
X106675190Y-112504500D01*
X106675190Y-111551757D01*
X106913235Y-111551757D01*
X106785997Y-111349524D01*
G37*
G36*
X105881004Y-111349524D02*
G01*
X105339749Y-111349524D01*
X105339749Y-111551757D01*
X105716830Y-111551757D01*
X105763947Y-111760450D01*
X105725467Y-111752235D01*
X105689303Y-111749496D01*
X105612656Y-111756461D01*
X105544625Y-111776635D01*
X105483523Y-111809756D01*
X105428156Y-111856651D01*
X105383079Y-111913233D01*
X105350818Y-111976839D01*
X105330939Y-112048835D01*
X105324020Y-112131071D01*
X105331445Y-112213406D01*
X105353041Y-112287238D01*
X105388621Y-112354257D01*
X105439110Y-112415671D01*
X105500267Y-112466668D01*
X105566479Y-112502439D01*
X105638896Y-112524056D01*
X105719147Y-112531464D01*
X105792025Y-112525956D01*
X105857867Y-112509964D01*
X105917855Y-112483843D01*
X105972921Y-112447341D01*
X106020838Y-112401970D01*
X106059793Y-112349117D01*
X106090209Y-112287861D01*
X106111956Y-112216879D01*
X105881004Y-112216879D01*
X105849454Y-112264317D01*
X105810713Y-112297421D01*
X105764981Y-112317869D01*
X105714442Y-112324737D01*
X105667945Y-112318857D01*
X105627076Y-112301628D01*
X105590364Y-112272423D01*
X105562281Y-112234831D01*
X105545213Y-112190706D01*
X105539244Y-112138163D01*
X105544823Y-112086948D01*
X105560739Y-112043964D01*
X105586782Y-112007413D01*
X105621138Y-111978699D01*
X105659041Y-111961917D01*
X105701873Y-111956223D01*
X105737307Y-111960639D01*
X105772935Y-111974270D01*
X105806597Y-111996053D01*
X105841680Y-112028479D01*
X106020811Y-111988594D01*
X105881004Y-111349524D01*
G37*
G36*
X104865273Y-111327373D02*
G01*
X104925385Y-111341232D01*
X104979170Y-111363638D01*
X105027985Y-111394912D01*
X105068421Y-111433052D01*
X105101283Y-111478588D01*
X105125412Y-111529390D01*
X105139945Y-111583690D01*
X105144889Y-111642411D01*
X105138280Y-111706593D01*
X105118557Y-111767191D01*
X105086482Y-111823677D01*
X105040402Y-111878630D01*
X105090094Y-111920721D01*
X105129397Y-111965143D01*
X105159425Y-112012118D01*
X105181299Y-112063211D01*
X105194569Y-112118101D01*
X105199099Y-112177626D01*
X105193426Y-112246189D01*
X105176869Y-112308576D01*
X105149594Y-112365956D01*
X105112469Y-112417354D01*
X105068689Y-112458504D01*
X105017651Y-112490385D01*
X104961057Y-112511887D01*
X104888202Y-112526186D01*
X104795335Y-112531464D01*
X104709098Y-112526159D01*
X104638505Y-112511484D01*
X104580884Y-112488840D01*
X104528828Y-112455869D01*
X104484403Y-112413766D01*
X104446974Y-112361602D01*
X104419227Y-112303555D01*
X104402647Y-112242552D01*
X104397048Y-112177626D01*
X104398159Y-112163793D01*
X104614659Y-112163793D01*
X104620392Y-112208991D01*
X104636923Y-112247115D01*
X104664586Y-112279866D01*
X104700247Y-112304115D01*
X104744137Y-112319303D01*
X104798495Y-112324737D01*
X104852122Y-112319020D01*
X104896209Y-112302869D01*
X104932825Y-112276706D01*
X104961359Y-112242017D01*
X104978148Y-112203316D01*
X104983875Y-112159158D01*
X104977951Y-112117251D01*
X104960304Y-112079552D01*
X104929665Y-112044700D01*
X104891176Y-112018244D01*
X104847176Y-112002226D01*
X104796107Y-111996670D01*
X104746176Y-112002238D01*
X104703532Y-112018254D01*
X104666552Y-112044700D01*
X104637596Y-112079484D01*
X104620509Y-112118672D01*
X104614659Y-112163793D01*
X104398159Y-112163793D01*
X104401863Y-112117676D01*
X104416112Y-112061203D01*
X104439882Y-112007413D01*
X104472220Y-111958309D01*
X104512429Y-111915539D01*
X104561222Y-111878630D01*
X104506992Y-111812667D01*
X104476748Y-111760169D01*
X104459466Y-111705600D01*
X104454829Y-111658351D01*
X104673574Y-111658351D01*
X104677774Y-111695842D01*
X104689734Y-111727046D01*
X104709316Y-111753358D01*
X104735115Y-111773538D01*
X104765186Y-111785707D01*
X104800812Y-111789943D01*
X104835395Y-111785698D01*
X104865402Y-111773347D01*
X104891957Y-111752586D01*
X104912424Y-111725777D01*
X104924669Y-111695265D01*
X104928893Y-111659896D01*
X104924821Y-111624494D01*
X104913158Y-111594698D01*
X104893924Y-111569242D01*
X104868713Y-111549679D01*
X104839397Y-111537884D01*
X104804744Y-111533781D01*
X104766860Y-111537898D01*
X104735680Y-111549547D01*
X104709737Y-111568469D01*
X104689823Y-111593539D01*
X104677780Y-111623056D01*
X104673574Y-111658351D01*
X104454829Y-111658351D01*
X104453575Y-111645571D01*
X104458521Y-111588335D01*
X104473230Y-111533999D01*
X104497954Y-111481748D01*
X104531322Y-111434599D01*
X104571581Y-111395595D01*
X104619364Y-111364059D01*
X104672120Y-111341416D01*
X104731148Y-111327421D01*
X104797652Y-111322560D01*
X104865273Y-111327373D01*
G37*
G36*
X104314540Y-112063589D02*
G01*
X104314540Y-112266314D01*
X103810221Y-112266314D01*
X103810221Y-112504500D01*
X103594927Y-112504500D01*
X103594927Y-112266314D01*
X103492055Y-112266314D01*
X103492055Y-112064081D01*
X103594927Y-112064081D01*
X103810221Y-112064081D01*
X104074177Y-112064081D01*
X103810221Y-111678082D01*
X103810221Y-112064081D01*
X103594927Y-112064081D01*
X103594927Y-111322560D01*
X103814926Y-111322560D01*
X104314540Y-112063589D01*
G37*
G36*
X111985437Y-92895418D02*
G01*
X110758889Y-92895418D01*
X110758889Y-92411959D01*
X110870000Y-92411959D01*
X110870000Y-92606010D01*
X111690655Y-92606010D01*
X111690655Y-92784307D01*
X111874326Y-92784307D01*
X111874326Y-92228899D01*
X111690655Y-92228899D01*
X111690655Y-92411959D01*
X110870000Y-92411959D01*
X110758889Y-92411959D01*
X110758889Y-91505818D01*
X110870000Y-91505818D01*
X111223053Y-91737055D01*
X110870000Y-91968292D01*
X110870000Y-92184813D01*
X111387794Y-91844949D01*
X111874326Y-92163625D01*
X111874326Y-91948447D01*
X111551864Y-91737238D01*
X111874326Y-91525601D01*
X111874326Y-91310423D01*
X111387306Y-91629466D01*
X110870000Y-91290640D01*
X110870000Y-91505818D01*
X110758889Y-91505818D01*
X110758889Y-91179529D01*
X111985437Y-91179529D01*
X111985437Y-92895418D01*
G37*
G36*
X98135271Y-111349524D02*
G01*
X97806080Y-111349524D01*
X97806080Y-112504500D01*
X98024464Y-112504500D01*
X98024464Y-111551757D01*
X98262509Y-111551757D01*
X98135271Y-111349524D01*
G37*
G36*
X97218481Y-111727026D02*
G01*
X97432932Y-111727026D01*
X97421518Y-111633754D01*
X97397667Y-111554761D01*
X97362338Y-111487657D01*
X97315525Y-111430628D01*
X97257918Y-111383784D01*
X97193178Y-111350321D01*
X97119907Y-111329725D01*
X97036190Y-111322560D01*
X96967163Y-111327731D01*
X96905666Y-111342653D01*
X96850459Y-111366868D01*
X96800595Y-111400564D01*
X96757816Y-111442889D01*
X96721605Y-111494739D01*
X96694314Y-111551935D01*
X96678490Y-111608258D01*
X96673294Y-111664530D01*
X96679283Y-111731879D01*
X96698170Y-111805183D01*
X96731857Y-111885793D01*
X96776147Y-111961402D01*
X96845356Y-112053662D01*
X96945887Y-112165759D01*
X97075513Y-112302266D01*
X96663885Y-112302266D01*
X96663885Y-112504500D01*
X97464391Y-112504500D01*
X97464391Y-112399591D01*
X97106902Y-112036484D01*
X97022040Y-111945804D01*
X96967010Y-111877237D01*
X96934512Y-111826316D01*
X96909563Y-111772024D01*
X96895914Y-111724590D01*
X96891678Y-111682717D01*
X96896788Y-111640209D01*
X96911522Y-111604050D01*
X96936057Y-111572753D01*
X96967963Y-111548891D01*
X97005526Y-111534371D01*
X97050375Y-111529287D01*
X97095137Y-111535270D01*
X97133890Y-111552762D01*
X97168203Y-111582513D01*
X97193883Y-111620496D01*
X97210910Y-111667864D01*
X97218481Y-111727026D01*
G37*
G36*
X96553850Y-111349524D02*
G01*
X96327602Y-111349524D01*
X96036962Y-112170043D01*
X95742390Y-111349524D01*
X95516142Y-111349524D01*
X95932475Y-112504500D01*
X96144609Y-112504500D01*
X96553850Y-111349524D01*
G37*
G36*
X93301207Y-104588556D02*
G01*
X93455971Y-104740582D01*
X93518740Y-104682493D01*
X93583690Y-104638880D01*
X93651379Y-104608308D01*
X93722632Y-104589980D01*
X93798504Y-104583781D01*
X93881828Y-104591124D01*
X93956113Y-104612414D01*
X94023092Y-104647346D01*
X94084017Y-104696694D01*
X94134783Y-104756788D01*
X94170322Y-104821725D01*
X94191766Y-104892633D01*
X94199108Y-104971113D01*
X94191487Y-105052277D01*
X94169239Y-105125482D01*
X94132380Y-105192411D01*
X94079734Y-105254240D01*
X94016558Y-105304971D01*
X93947316Y-105340861D01*
X93870742Y-105362713D01*
X93785092Y-105370243D01*
X93710381Y-105364616D01*
X93647016Y-105348723D01*
X93593040Y-105323476D01*
X93545601Y-105287675D01*
X93503614Y-105239544D01*
X93466926Y-105176998D01*
X93801593Y-105176998D01*
X93801593Y-104970271D01*
X93220243Y-104970271D01*
X93218698Y-105018652D01*
X93227370Y-105117042D01*
X93253327Y-105211826D01*
X93297274Y-105304377D01*
X93355830Y-105388523D01*
X93423461Y-105456680D01*
X93500771Y-105510472D01*
X93586610Y-105549158D01*
X93683526Y-105573116D01*
X93793729Y-105581464D01*
X93883326Y-105576361D01*
X93966117Y-105561477D01*
X94042987Y-105537216D01*
X94114703Y-105503660D01*
X94181480Y-105460625D01*
X94240585Y-105409656D01*
X94292590Y-105350307D01*
X94337792Y-105281836D01*
X94373798Y-105208180D01*
X94399329Y-105132252D01*
X94414696Y-105053458D01*
X94419879Y-104971113D01*
X94413670Y-104881093D01*
X94395447Y-104797290D01*
X94365428Y-104718659D01*
X94323307Y-104644334D01*
X94268274Y-104573669D01*
X94191928Y-104501231D01*
X94108215Y-104445615D01*
X94016095Y-104405643D01*
X93914024Y-104381061D01*
X93800048Y-104372560D01*
X93700639Y-104378841D01*
X93606949Y-104397348D01*
X93518046Y-104427893D01*
X93447774Y-104464631D01*
X93375700Y-104517347D01*
X93301207Y-104588556D01*
G37*
G36*
X93015623Y-104399524D02*
G01*
X92805104Y-104399524D01*
X92309422Y-105159583D01*
X92309422Y-104399524D01*
X92089423Y-104399524D01*
X92089423Y-105554500D01*
X92300785Y-105554500D01*
X92795694Y-104796828D01*
X92795694Y-105554500D01*
X93015623Y-105554500D01*
X93015623Y-104399524D01*
G37*
G36*
X91824695Y-105554500D02*
G01*
X91559966Y-105554500D01*
X91407867Y-105550385D01*
X91307045Y-105540083D01*
X91244187Y-105526271D01*
X91185891Y-105502860D01*
X91129617Y-105469154D01*
X91074887Y-105424172D01*
X91027245Y-105371705D01*
X90986382Y-105310190D01*
X90952284Y-105238510D01*
X90927937Y-105162730D01*
X90913016Y-105081218D01*
X90907905Y-104993092D01*
X90908123Y-104989230D01*
X91130291Y-104989230D01*
X91135550Y-105068405D01*
X91150321Y-105135188D01*
X91173546Y-105191603D01*
X91206349Y-105242720D01*
X91243320Y-105281070D01*
X91284704Y-105308519D01*
X91331772Y-105325946D01*
X91402152Y-105338409D01*
X91503439Y-105343278D01*
X91605539Y-105343278D01*
X91605539Y-104610745D01*
X91530895Y-104610745D01*
X91426626Y-104617678D01*
X91345065Y-104636513D01*
X91281765Y-104665079D01*
X91233163Y-104702382D01*
X91189616Y-104756245D01*
X91157680Y-104820507D01*
X91137483Y-104897253D01*
X91130291Y-104989230D01*
X90908123Y-104989230D01*
X90913190Y-104899386D01*
X90928496Y-104814158D01*
X90953256Y-104736326D01*
X90987253Y-104664955D01*
X91031232Y-104597404D01*
X91079441Y-104541872D01*
X91131954Y-104497034D01*
X91189135Y-104461949D01*
X91249550Y-104437432D01*
X91329167Y-104417754D01*
X91432326Y-104404458D01*
X91563898Y-104399524D01*
X91824695Y-104399524D01*
X91824695Y-105554500D01*
G37*
D14*
%TO.C,G\u002A\u002A\u002A*%
G36*
X88015805Y-100699276D02*
G01*
X88015805Y-100798353D01*
X87586468Y-100798353D01*
X87157129Y-100798353D01*
X87157129Y-100699276D01*
X87157129Y-100600199D01*
X87586468Y-100600199D01*
X88015805Y-100600199D01*
X88015805Y-100699276D01*
G37*
G36*
X92259035Y-100271793D02*
G01*
X92293711Y-100288570D01*
X92307020Y-100337316D01*
X92309185Y-100435068D01*
X92309185Y-100600199D01*
X92474316Y-100600199D01*
X92555861Y-100601311D01*
X92613655Y-100611377D01*
X92635837Y-100640625D01*
X92639445Y-100699276D01*
X92637591Y-100748203D01*
X92620814Y-100782880D01*
X92572068Y-100796190D01*
X92474316Y-100798353D01*
X92309185Y-100798353D01*
X92309185Y-100963484D01*
X92308073Y-101045029D01*
X92298007Y-101102823D01*
X92268759Y-101125006D01*
X92210107Y-101128614D01*
X92161180Y-101126759D01*
X92126503Y-101109982D01*
X92113193Y-101061237D01*
X92111029Y-100963484D01*
X92111029Y-100798353D01*
X91945899Y-100798353D01*
X91864354Y-100797241D01*
X91806558Y-100787175D01*
X91784377Y-100757927D01*
X91780769Y-100699276D01*
X91782624Y-100650349D01*
X91799401Y-100615673D01*
X91848146Y-100602363D01*
X91945899Y-100600199D01*
X92111029Y-100600199D01*
X92111029Y-100435068D01*
X92112142Y-100353523D01*
X92122208Y-100295728D01*
X92151456Y-100273546D01*
X92210107Y-100269938D01*
X92259035Y-100271793D01*
G37*
G36*
X92230436Y-99742856D02*
G01*
X92272988Y-99775485D01*
X92352565Y-99846564D01*
X92461690Y-99949096D01*
X92592884Y-100076089D01*
X92738669Y-100220545D01*
X93216838Y-100699569D01*
X92713626Y-101202779D01*
X92210415Y-101705991D01*
X91755725Y-101252173D01*
X91301037Y-100798353D01*
X90773048Y-100798562D01*
X90245060Y-100798771D01*
X90190038Y-100895483D01*
X90132450Y-100965701D01*
X90017443Y-101031501D01*
X89882888Y-101051547D01*
X89750018Y-101019839D01*
X89657115Y-100957560D01*
X89575875Y-100845196D01*
X89547565Y-100716892D01*
X91483512Y-100716892D01*
X91846809Y-101079062D01*
X92210107Y-101441234D01*
X92573405Y-101079062D01*
X92936703Y-100716892D01*
X92582225Y-100361311D01*
X92516463Y-100295650D01*
X92399975Y-100180956D01*
X92304437Y-100089007D01*
X92238323Y-100027899D01*
X92210107Y-100005731D01*
X92200749Y-100011850D01*
X92151850Y-100055194D01*
X92069440Y-100133284D01*
X91961995Y-100238023D01*
X91837990Y-100361311D01*
X91483512Y-100716892D01*
X89547565Y-100716892D01*
X89546898Y-100713867D01*
X89572726Y-100578816D01*
X89655899Y-100455283D01*
X89758692Y-100388942D01*
X89892926Y-100363086D01*
X90028168Y-100385480D01*
X90141479Y-100456085D01*
X90154475Y-100469401D01*
X90207179Y-100531643D01*
X90228547Y-100571676D01*
X90246712Y-100578912D01*
X90320777Y-100587391D01*
X90441915Y-100594135D01*
X90599324Y-100598590D01*
X90782209Y-100600199D01*
X91335871Y-100600199D01*
X91764256Y-100170860D01*
X91896507Y-100039942D01*
X92020486Y-99920485D01*
X92122136Y-99825995D01*
X92193488Y-99763874D01*
X92226570Y-99741523D01*
X92230436Y-99742856D01*
G37*
G36*
X87583576Y-99708584D02*
G01*
X87614903Y-99733514D01*
X87684636Y-99797778D01*
X87785232Y-99894153D01*
X87909146Y-100015417D01*
X88048832Y-100154347D01*
X88493765Y-100600199D01*
X88797090Y-100600199D01*
X89100415Y-100600199D01*
X89121394Y-100504682D01*
X89155532Y-100398844D01*
X89258482Y-100227909D01*
X89405174Y-100082647D01*
X89581648Y-99975584D01*
X89773944Y-99919244D01*
X89912852Y-99913956D01*
X90115560Y-99950684D01*
X90304392Y-100033184D01*
X90463287Y-100153741D01*
X90576185Y-100304639D01*
X90600823Y-100353489D01*
X90619966Y-100409257D01*
X90599392Y-100431227D01*
X90534038Y-100435067D01*
X90517879Y-100434326D01*
X90434674Y-100402283D01*
X90348265Y-100316066D01*
X90323877Y-100287529D01*
X90181328Y-100175733D01*
X90014761Y-100115283D01*
X89837806Y-100105399D01*
X89664094Y-100145303D01*
X89507254Y-100234214D01*
X89380917Y-100371355D01*
X89320790Y-100494984D01*
X89287854Y-100676209D01*
X89307118Y-100859540D01*
X89378657Y-101023782D01*
X89387473Y-101036770D01*
X89518982Y-101177049D01*
X89678978Y-101270766D01*
X89853174Y-101311951D01*
X90027275Y-101294637D01*
X90079359Y-101276901D01*
X90211166Y-101210318D01*
X90325159Y-101125303D01*
X90397962Y-101038041D01*
X90412086Y-101018650D01*
X90470035Y-100980059D01*
X90540431Y-100961059D01*
X90599847Y-100965758D01*
X90624859Y-100998262D01*
X90622820Y-101011787D01*
X90590561Y-101080168D01*
X90530399Y-101168809D01*
X90457036Y-101257585D01*
X90385171Y-101326372D01*
X90290263Y-101389878D01*
X90098163Y-101465589D01*
X89895908Y-101488727D01*
X89694863Y-101462802D01*
X89506400Y-101391326D01*
X89341885Y-101277813D01*
X89212689Y-101125771D01*
X89130179Y-100938714D01*
X89091964Y-100798353D01*
X88777253Y-100798353D01*
X88462542Y-100798353D01*
X88024345Y-101235648D01*
X87586149Y-101672944D01*
X87101778Y-101188574D01*
X86617408Y-100704205D01*
X86619466Y-100702036D01*
X86879552Y-100702036D01*
X87233009Y-101055493D01*
X87586468Y-101408951D01*
X87941309Y-101054109D01*
X88296151Y-100699268D01*
X87933052Y-100341514D01*
X87569954Y-99983760D01*
X87224754Y-100342898D01*
X86879552Y-100702036D01*
X86619466Y-100702036D01*
X87089830Y-100206351D01*
X87131426Y-100162599D01*
X87270100Y-100018015D01*
X87391621Y-99893228D01*
X87488970Y-99795323D01*
X87555128Y-99731384D01*
X87583075Y-99708496D01*
X87583576Y-99708584D01*
G37*
%TD*%
M02*
