%TF.GenerationSoftware,KiCad,Pcbnew,9.0.4*%
%TF.CreationDate,2025-09-11T11:59:47+05:30*%
%TF.ProjectId,DimLED,44696d4c-4544-42e6-9b69-6361645f7063,Mark II.B*%
%TF.SameCoordinates,Original*%
%TF.FileFunction,Soldermask,Bot*%
%TF.FilePolarity,Negative*%
%FSLAX46Y46*%
G04 Gerber Fmt 4.6, Leading zero omitted, Abs format (unit mm)*
G04 Created by KiCad (PCBNEW 9.0.4) date 2025-09-11 11:59:47*
%MOMM*%
%LPD*%
G01*
G04 APERTURE LIST*
G04 Aperture macros list*
%AMRoundRect*
0 Rectangle with rounded corners*
0 $1 Rounding radius*
0 $2 $3 $4 $5 $6 $7 $8 $9 X,Y pos of 4 corners*
0 Add a 4 corners polygon primitive as box body*
4,1,4,$2,$3,$4,$5,$6,$7,$8,$9,$2,$3,0*
0 Add four circle primitives for the rounded corners*
1,1,$1+$1,$2,$3*
1,1,$1+$1,$4,$5*
1,1,$1+$1,$6,$7*
1,1,$1+$1,$8,$9*
0 Add four rect primitives between the rounded corners*
20,1,$1+$1,$2,$3,$4,$5,0*
20,1,$1+$1,$4,$5,$6,$7,0*
20,1,$1+$1,$6,$7,$8,$9,0*
20,1,$1+$1,$8,$9,$2,$3,0*%
G04 Aperture macros list end*
%ADD10RoundRect,0.250000X0.600000X0.600000X-0.600000X0.600000X-0.600000X-0.600000X0.600000X-0.600000X0*%
%ADD11RoundRect,0.250000X-0.600000X-0.600000X0.600000X-0.600000X0.600000X0.600000X-0.600000X0.600000X0*%
%ADD12RoundRect,0.250000X0.550000X-0.550000X0.550000X0.550000X-0.550000X0.550000X-0.550000X-0.550000X0*%
%ADD13C,1.600000*%
%ADD14R,2.000000X4.600000*%
%ADD15O,2.000000X4.200000*%
%ADD16O,4.200000X2.000000*%
%ADD17C,2.000000*%
%ADD18C,1.500000*%
%ADD19R,3.000000X3.000000*%
%ADD20C,3.000000*%
%ADD21R,1.700000X1.700000*%
%ADD22C,1.700000*%
G04 APERTURE END LIST*
D10*
%TO.C,U1*%
X97100000Y-106885000D03*
D11*
X97100000Y-97940000D03*
D10*
X116075000Y-106885000D03*
D11*
X116100000Y-97940000D03*
%TD*%
D12*
%TO.C,C2*%
X123400000Y-94500000D03*
D13*
X123400000Y-90700000D03*
%TD*%
D14*
%TO.C,J2*%
X92750000Y-92750000D03*
D15*
X86450000Y-92750000D03*
D16*
X89850000Y-97550000D03*
%TD*%
D17*
%TO.C,SW1*%
X130350000Y-104850000D03*
X136850000Y-104850000D03*
X130350000Y-109350000D03*
X136850000Y-109350000D03*
%TD*%
D13*
%TO.C,C1*%
X121900000Y-98750000D03*
X124400000Y-98750000D03*
%TD*%
D18*
%TO.C,U2*%
X133090000Y-91300000D03*
X133090000Y-93840000D03*
X133090000Y-96380000D03*
X133090000Y-98920000D03*
X130550000Y-91300000D03*
X130550000Y-93840000D03*
X130550000Y-96380000D03*
X130550000Y-98920000D03*
%TD*%
D13*
%TO.C,R2*%
X125400000Y-109250000D03*
X125400000Y-101630000D03*
%TD*%
D17*
%TO.C,SW2*%
X147250000Y-109350000D03*
X140750000Y-109350000D03*
X147250000Y-104850000D03*
X140750000Y-104850000D03*
%TD*%
D13*
%TO.C,R1*%
X121900000Y-101630000D03*
X121900000Y-109250000D03*
%TD*%
D19*
%TO.C,J4*%
X195550000Y-104710000D03*
D20*
X195550000Y-109790000D03*
%TD*%
D21*
%TO.C,J3*%
X114000000Y-89600000D03*
D22*
X111460000Y-89600000D03*
X108920000Y-89600000D03*
X106380000Y-89600000D03*
X103840000Y-89600000D03*
%TD*%
%TO.C,J5*%
X153550000Y-108950000D03*
D10*
X153550000Y-106410000D03*
D22*
X151010000Y-108950000D03*
%TD*%
D19*
%TO.C,J1*%
X88250000Y-109880000D03*
D20*
X88250000Y-104800000D03*
%TD*%
M02*
