M48
; DRILL file {KiCad 9.0.4} date 2025-09-11T11:59:36+0530
; FORMAT={-:-/ absolute / metric / decimal}
; #@! TF.CreationDate,2025-09-11T11:59:36+05:30
; #@! TF.GenerationSoftware,Kicad,Pcbnew,9.0.4
; #@! TF.FileFunction,Plated,1,2,PTH
FMAT,2
METRIC
; #@! TA.AperFunction,Plated,PTH,ViaDrill
T1C0.400
; #@! TA.AperFunction,Plated,PTH,ViaDrill
T2C0.600
; #@! TA.AperFunction,Plated,PTH,ComponentDrill
T3C0.800
; #@! TA.AperFunction,Plated,PTH,ComponentDrill
T4C1.000
; #@! TA.AperFunction,Plated,PTH,ComponentDrill
T5C1.100
; #@! TA.AperFunction,Plated,PTH,ComponentDrill
T6C1.520
%
G90
G05
T1
X85.2Y-96.6
X85.2Y-98.6
X85.25Y-89.2
X85.4Y-104.3
X85.4Y-105.5
X86.0Y-103.3
X86.2Y-106.5
X86.4Y-96.6
X86.4Y-98.6
X86.45Y-89.2
X88.8Y-92.75
X96.95Y-93.0
X98.2Y-93.0
X99.45Y-93.0
X100.75Y-93.0
X102.0Y-93.0
X115.85Y-93.0
X117.1Y-93.0
X118.4Y-95.4
X118.4Y-96.9
X118.4Y-98.4
X118.4Y-107.4
X118.4Y-109.15
X126.0Y-97.1
X126.7Y-99.1
X127.9Y-100.4
X129.9Y-101.4
X131.2Y-101.4
X136.5Y-90.1
X136.5Y-91.25
X136.5Y-92.5
X139.6Y-93.5
X139.6Y-95.0
X139.6Y-96.5
X141.4Y-93.5
X141.4Y-95.0
X141.4Y-96.5
X143.2Y-100.6
X144.2Y-101.5
X150.3Y-103.3
X151.8Y-103.3
X153.3Y-103.3
X157.25Y-93.0
X158.75Y-93.0
X160.25Y-93.0
X161.75Y-93.0
X163.25Y-93.0
X164.75Y-93.0
X164.8Y-103.25
X164.8Y-104.75
X164.8Y-106.25
X166.25Y-93.0
X171.25Y-103.75
X171.25Y-105.5
X172.75Y-103.75
X172.75Y-105.5
X174.25Y-103.75
X174.25Y-105.5
X198.6Y-103.2
X198.6Y-104.7
X198.6Y-106.2
X198.6Y-109.3
X198.6Y-110.8
T2
X180.82Y-100.07
X185.9Y-108.98
T3
X121.9Y-98.75
X121.9Y-101.63
X121.9Y-109.25
X123.4Y-90.7
X123.4Y-94.5
X124.4Y-98.75
X125.4Y-101.63
X125.4Y-109.25
X130.55Y-91.3
X130.55Y-93.84
X130.55Y-96.38
X130.55Y-98.92
X133.09Y-91.3
X133.09Y-93.84
X133.09Y-96.38
X133.09Y-98.92
T4
X97.1Y-97.94
X97.1Y-106.885
X103.84Y-89.6
X106.38Y-89.6
X108.92Y-89.6
X111.46Y-89.6
X114.0Y-89.6
X116.075Y-106.885
X116.1Y-97.94
X151.01Y-108.95
X153.55Y-106.41
X153.55Y-108.95
T5
X130.35Y-104.85
X130.35Y-109.35
X136.85Y-104.85
X136.85Y-109.35
X140.75Y-104.85
X140.75Y-109.35
X147.25Y-104.85
X147.25Y-109.35
T6
X88.25Y-104.8
X88.25Y-109.88
X195.55Y-104.71
X195.55Y-109.79
T4
G00X86.45Y-91.65
M15
G01X86.45Y-93.85
M16
G05
G00X90.95Y-97.55
M15
G01X88.75Y-97.55
M16
G05
G00X92.75Y-91.45
M15
G01X92.75Y-94.05
M16
G05
M30
