%TF.GenerationSoftware,KiCad,Pcbnew,9.0.4*%
%TF.CreationDate,2025-09-11T11:59:47+05:30*%
%TF.ProjectId,DimLED,44696d4c-4544-42e6-9b69-6361645f7063,Mark II.B*%
%TF.SameCoordinates,Original*%
%TF.FileFunction,Copper,L1,Top*%
%TF.FilePolarity,Positive*%
%FSLAX46Y46*%
G04 Gerber Fmt 4.6, Leading zero omitted, Abs format (unit mm)*
G04 Created by KiCad (PCBNEW 9.0.4) date 2025-09-11 11:59:47*
%MOMM*%
%LPD*%
G01*
G04 APERTURE LIST*
G04 Aperture macros list*
%AMRoundRect*
0 Rectangle with rounded corners*
0 $1 Rounding radius*
0 $2 $3 $4 $5 $6 $7 $8 $9 X,Y pos of 4 corners*
0 Add a 4 corners polygon primitive as box body*
4,1,4,$2,$3,$4,$5,$6,$7,$8,$9,$2,$3,0*
0 Add four circle primitives for the rounded corners*
1,1,$1+$1,$2,$3*
1,1,$1+$1,$4,$5*
1,1,$1+$1,$6,$7*
1,1,$1+$1,$8,$9*
0 Add four rect primitives between the rounded corners*
20,1,$1+$1,$2,$3,$4,$5,0*
20,1,$1+$1,$4,$5,$6,$7,0*
20,1,$1+$1,$6,$7,$8,$9,0*
20,1,$1+$1,$8,$9,$2,$3,0*%
G04 Aperture macros list end*
%ADD10C,0.200000*%
%ADD11C,0.300000*%
%TA.AperFunction,ComponentPad*%
%ADD12RoundRect,0.250000X0.600000X0.600000X-0.600000X0.600000X-0.600000X-0.600000X0.600000X-0.600000X0*%
%TD*%
%TA.AperFunction,SMDPad,CuDef*%
%ADD13RoundRect,0.250000X0.600000X0.600000X-0.600000X0.600000X-0.600000X-0.600000X0.600000X-0.600000X0*%
%TD*%
%TA.AperFunction,SMDPad,CuDef*%
%ADD14RoundRect,0.250000X-0.600000X-0.600000X0.600000X-0.600000X0.600000X0.600000X-0.600000X0.600000X0*%
%TD*%
%TA.AperFunction,ComponentPad*%
%ADD15RoundRect,0.250000X-0.600000X-0.600000X0.600000X-0.600000X0.600000X0.600000X-0.600000X0.600000X0*%
%TD*%
%TA.AperFunction,ComponentPad*%
%ADD16RoundRect,0.250000X0.550000X-0.550000X0.550000X0.550000X-0.550000X0.550000X-0.550000X-0.550000X0*%
%TD*%
%TA.AperFunction,ComponentPad*%
%ADD17C,1.600000*%
%TD*%
%TA.AperFunction,ComponentPad*%
%ADD18R,2.000000X4.600000*%
%TD*%
%TA.AperFunction,ComponentPad*%
%ADD19O,2.000000X4.200000*%
%TD*%
%TA.AperFunction,ComponentPad*%
%ADD20O,4.200000X2.000000*%
%TD*%
%TA.AperFunction,ComponentPad*%
%ADD21C,2.000000*%
%TD*%
%TA.AperFunction,ComponentPad*%
%ADD22C,1.500000*%
%TD*%
%TA.AperFunction,ComponentPad*%
%ADD23R,3.000000X3.000000*%
%TD*%
%TA.AperFunction,ComponentPad*%
%ADD24C,3.000000*%
%TD*%
%TA.AperFunction,ComponentPad*%
%ADD25R,1.700000X1.700000*%
%TD*%
%TA.AperFunction,ComponentPad*%
%ADD26C,1.700000*%
%TD*%
%TA.AperFunction,ConnectorPad*%
%ADD27C,1.700000*%
%TD*%
%TA.AperFunction,ConnectorPad*%
%ADD28RoundRect,0.250000X-0.750000X1.020000X-0.750000X-1.020000X0.750000X-1.020000X0.750000X1.020000X0*%
%TD*%
%TA.AperFunction,ConnectorPad*%
%ADD29RoundRect,0.196850X-0.803150X1.073150X-0.803150X-1.073150X0.803150X-1.073150X0.803150X1.073150X0*%
%TD*%
%TA.AperFunction,ConnectorPad*%
%ADD30RoundRect,0.250000X-1.250000X-1.250000X1.250000X-1.250000X1.250000X1.250000X-1.250000X1.250000X0*%
%TD*%
%TA.AperFunction,ViaPad*%
%ADD31C,0.800000*%
%TD*%
%TA.AperFunction,ViaPad*%
%ADD32C,1.200000*%
%TD*%
%TA.AperFunction,Conductor*%
%ADD33C,1.000000*%
%TD*%
%TA.AperFunction,Conductor*%
%ADD34C,0.500000*%
%TD*%
%TA.AperFunction,Conductor*%
%ADD35C,2.540000*%
%TD*%
%TA.AperFunction,Conductor*%
%ADD36C,2.000000*%
%TD*%
%TA.AperFunction,Conductor*%
%ADD37C,0.254000*%
%TD*%
G04 APERTURE END LIST*
D10*
G36*
X171276819Y-90243601D02*
G01*
X171373401Y-90283413D01*
X171457240Y-90349863D01*
X171520723Y-90436085D01*
X171559657Y-90539045D01*
X171573377Y-90663471D01*
X171559613Y-90790572D01*
X171520623Y-90895533D01*
X171457240Y-90983185D01*
X171373288Y-91050873D01*
X171277134Y-91091249D01*
X171164881Y-91105184D01*
X171056386Y-91091219D01*
X170961716Y-91050367D01*
X170877285Y-90981109D01*
X170813223Y-90892319D01*
X170774192Y-90788320D01*
X170760537Y-90664815D01*
X170773996Y-90542114D01*
X170812379Y-90439273D01*
X170875209Y-90351939D01*
X170958286Y-90284082D01*
X171053120Y-90243721D01*
X171163538Y-90229818D01*
X171276819Y-90243601D01*
G37*
G36*
X178603017Y-90544851D02*
G01*
X178706470Y-90571140D01*
X178775732Y-90608761D01*
X178829586Y-90664141D01*
X178861567Y-90730332D01*
X178872697Y-90810872D01*
X178862997Y-90882106D01*
X178835571Y-90938410D01*
X178790020Y-90983429D01*
X178730496Y-91012316D01*
X178629657Y-91033886D01*
X178469696Y-91042658D01*
X178374075Y-91042658D01*
X178374075Y-90534633D01*
X178453332Y-90534633D01*
X178603017Y-90544851D01*
G37*
G36*
X178558300Y-89775870D02*
G01*
X178621647Y-89795025D01*
X178667777Y-89823886D01*
X178703143Y-89864413D01*
X178724511Y-89913222D01*
X178732013Y-89972875D01*
X178724075Y-90036951D01*
X178701531Y-90089145D01*
X178664357Y-90132243D01*
X178615722Y-90162799D01*
X178548652Y-90183111D01*
X178457362Y-90190739D01*
X178374075Y-90190739D01*
X178374075Y-89768688D01*
X178472383Y-89768688D01*
X178558300Y-89775870D01*
G37*
G36*
X179470686Y-91671300D02*
G01*
X167604348Y-91671300D01*
X167604348Y-91410000D01*
X167826570Y-91410000D01*
X168199528Y-91410000D01*
X168419469Y-90141402D01*
X168841643Y-91410000D01*
X169179064Y-91410000D01*
X169606734Y-90141402D01*
X169822522Y-91410000D01*
X170191451Y-91410000D01*
X170066680Y-90670188D01*
X170388921Y-90670188D01*
X170402710Y-90833078D01*
X170442592Y-90977895D01*
X170507762Y-91107957D01*
X170599337Y-91225718D01*
X170712008Y-91325325D01*
X170831233Y-91394145D01*
X170958939Y-91435165D01*
X171097958Y-91449078D01*
X171222878Y-91437326D01*
X171336339Y-91402916D01*
X171442849Y-91344412D01*
X171555669Y-91252096D01*
X171555669Y-91410000D01*
X171927285Y-91410000D01*
X171927285Y-89925003D01*
X172218178Y-89925003D01*
X172218178Y-91410000D01*
X172588450Y-91410000D01*
X173203210Y-91410000D01*
X173576168Y-91410000D01*
X173576168Y-90728562D01*
X174207414Y-91410000D01*
X174670621Y-91410000D01*
X175619504Y-91410000D01*
X175999302Y-91410000D01*
X176401081Y-91410000D01*
X176780879Y-91410000D01*
X176780879Y-91233412D01*
X177157990Y-91233412D01*
X177165048Y-91290357D01*
X177185738Y-91340620D01*
X177220760Y-91385942D01*
X177265871Y-91421197D01*
X177315849Y-91441991D01*
X177372435Y-91449078D01*
X177429097Y-91441985D01*
X177479072Y-91421187D01*
X177524110Y-91385942D01*
X177559205Y-91340612D01*
X177579933Y-91290349D01*
X177587002Y-91233412D01*
X177579915Y-91176503D01*
X177559176Y-91126539D01*
X177524110Y-91081737D01*
X177479115Y-91046858D01*
X177429138Y-91026246D01*
X177372435Y-91019211D01*
X177315809Y-91026240D01*
X177265828Y-91046847D01*
X177220760Y-91081737D01*
X177185767Y-91126531D01*
X177165066Y-91176495D01*
X177157990Y-91233412D01*
X176780879Y-91233412D01*
X176780879Y-90190739D01*
X177991591Y-90190739D01*
X177991591Y-91042658D01*
X177991591Y-91410000D01*
X178554448Y-91410000D01*
X178716232Y-91401047D01*
X178840856Y-91377006D01*
X178935589Y-91341245D01*
X179021355Y-91288006D01*
X179096208Y-91219258D01*
X179161025Y-91133394D01*
X179209528Y-91037598D01*
X179238600Y-90935552D01*
X179248464Y-90825404D01*
X179238570Y-90710804D01*
X179210086Y-90610184D01*
X179163712Y-90520956D01*
X179099733Y-90443162D01*
X179012034Y-90371579D01*
X178896022Y-90306266D01*
X178992723Y-90218281D01*
X179053803Y-90130411D01*
X179089907Y-90032412D01*
X179102285Y-89921584D01*
X179090140Y-89807681D01*
X179054717Y-89706436D01*
X178995673Y-89614937D01*
X178917687Y-89538304D01*
X178823038Y-89479062D01*
X178708810Y-89436884D01*
X178563361Y-89411971D01*
X178307152Y-89401346D01*
X177991591Y-89401346D01*
X177991591Y-90190739D01*
X176780879Y-90190739D01*
X176780879Y-89401346D01*
X176401081Y-89401346D01*
X176401081Y-91410000D01*
X175999302Y-91410000D01*
X175999302Y-89401346D01*
X175619504Y-89401346D01*
X175619504Y-91410000D01*
X174670621Y-91410000D01*
X173953279Y-90634528D01*
X174592707Y-89925003D01*
X174125471Y-89925003D01*
X173576168Y-90540129D01*
X173576168Y-89346636D01*
X173203210Y-89346636D01*
X173203210Y-91410000D01*
X172588450Y-91410000D01*
X172588450Y-90806109D01*
X172587107Y-90733447D01*
X172596071Y-90521285D01*
X172617914Y-90389379D01*
X172646458Y-90313471D01*
X172692566Y-90250386D01*
X172740339Y-90217012D01*
X172791905Y-90206371D01*
X172836165Y-90213452D01*
X172899860Y-90239344D01*
X173015997Y-89923538D01*
X172936622Y-89894879D01*
X172864323Y-89885924D01*
X172766000Y-89899985D01*
X172675767Y-89942222D01*
X172599688Y-90009980D01*
X172537892Y-90107208D01*
X172537892Y-89925003D01*
X172218178Y-89925003D01*
X171927285Y-89925003D01*
X171555669Y-89925003D01*
X171555669Y-90088279D01*
X171450060Y-89998729D01*
X171338415Y-89936482D01*
X171217538Y-89898704D01*
X171087090Y-89885924D01*
X170946379Y-89899815D01*
X170818889Y-89940516D01*
X170701608Y-90008354D01*
X170592498Y-90105987D01*
X170504797Y-90221494D01*
X170441648Y-90351984D01*
X170402561Y-90500296D01*
X170389352Y-90664815D01*
X170388921Y-90670188D01*
X170066680Y-90670188D01*
X169852686Y-89401346D01*
X169483757Y-89401346D01*
X169012369Y-90802323D01*
X168547941Y-89401346D01*
X168173517Y-89401346D01*
X167826570Y-91410000D01*
X167604348Y-91410000D01*
X167604348Y-89124414D01*
X179470686Y-89124414D01*
X179470686Y-91671300D01*
G37*
D11*
G36*
X193665143Y-93279651D02*
G01*
X193709741Y-93299438D01*
X193750856Y-93333538D01*
X193789166Y-93384999D01*
X193814477Y-93440342D01*
X193835686Y-93521315D01*
X193850593Y-93635667D01*
X193856302Y-93792304D01*
X193850182Y-93945189D01*
X193833950Y-94060700D01*
X193810361Y-94146080D01*
X193781472Y-94207670D01*
X193746413Y-94254402D01*
X193707691Y-94285769D01*
X193664585Y-94304230D01*
X193615509Y-94310526D01*
X193564548Y-94303973D01*
X193518997Y-94284622D01*
X193477304Y-94251544D01*
X193438738Y-94202083D01*
X193412944Y-94148310D01*
X193391436Y-94070065D01*
X193376360Y-93959993D01*
X193370594Y-93809615D01*
X193379252Y-93604823D01*
X193400270Y-93478696D01*
X193425331Y-93405539D01*
X193454293Y-93354054D01*
X193486366Y-93319328D01*
X193525997Y-93293477D01*
X193568674Y-93278170D01*
X193615509Y-93272983D01*
X193665143Y-93279651D01*
G37*
G36*
X197792710Y-93889876D02*
G01*
X197848331Y-93910766D01*
X197896567Y-93945261D01*
X197934335Y-93990631D01*
X197956623Y-94041746D01*
X197964253Y-94100600D01*
X197956776Y-94159554D01*
X197935213Y-94209281D01*
X197899132Y-94252000D01*
X197852616Y-94283628D01*
X197795369Y-94303439D01*
X197724467Y-94310526D01*
X197654519Y-94303070D01*
X197597014Y-94282003D01*
X197549254Y-94247878D01*
X197512035Y-94202631D01*
X197490137Y-94152151D01*
X197482667Y-94094555D01*
X197490394Y-94039893D01*
X197513412Y-93990720D01*
X197553375Y-93945261D01*
X197603579Y-93910753D01*
X197660970Y-93889860D01*
X197727581Y-93882613D01*
X197792710Y-93889876D01*
G37*
G36*
X197765731Y-93284215D02*
G01*
X197806400Y-93299409D01*
X197840239Y-93324091D01*
X197866213Y-93356791D01*
X197881921Y-93395291D01*
X197887408Y-93441327D01*
X197881929Y-93490229D01*
X197866329Y-93530929D01*
X197840788Y-93565250D01*
X197807136Y-93591571D01*
X197767913Y-93607444D01*
X197721445Y-93612969D01*
X197676337Y-93607433D01*
X197637197Y-93591322D01*
X197602560Y-93564242D01*
X197575864Y-93529275D01*
X197559893Y-93489477D01*
X197554383Y-93443342D01*
X197559694Y-93397166D01*
X197574906Y-93358302D01*
X197599995Y-93325098D01*
X197632878Y-93299581D01*
X197671116Y-93284196D01*
X197716316Y-93278845D01*
X197765731Y-93284215D01*
G37*
G36*
X198414761Y-94746837D02*
G01*
X191728395Y-94746837D01*
X191728395Y-94408162D01*
X191895062Y-94408162D01*
X191895062Y-94545000D01*
X192939200Y-94545000D01*
X192939200Y-94281217D01*
X192402294Y-94281217D01*
X192571371Y-94103164D01*
X192702499Y-93956950D01*
X192792771Y-93836612D01*
X192810356Y-93806592D01*
X193083731Y-93806592D01*
X193083865Y-93809615D01*
X193092489Y-94004763D01*
X193115659Y-94153526D01*
X193149310Y-94262807D01*
X193200768Y-94364000D01*
X193261225Y-94442428D01*
X193330661Y-94501585D01*
X193411239Y-94544202D01*
X193505492Y-94570793D01*
X193616516Y-94580170D01*
X193727541Y-94570770D01*
X193820305Y-94544293D01*
X193898251Y-94502135D01*
X193964875Y-94443331D01*
X193990947Y-94408162D01*
X194245655Y-94408162D01*
X194245655Y-94545000D01*
X195289794Y-94545000D01*
X195289794Y-94281217D01*
X194752887Y-94281217D01*
X194858647Y-94169842D01*
X195425074Y-94169842D01*
X195453440Y-94262428D01*
X195493113Y-94342327D01*
X195543923Y-94411265D01*
X195606424Y-94470444D01*
X195678250Y-94518056D01*
X195756495Y-94552128D01*
X195842376Y-94572986D01*
X195937434Y-94580170D01*
X196042109Y-94570508D01*
X196136566Y-94542312D01*
X196222929Y-94495654D01*
X196302699Y-94429137D01*
X196316328Y-94412559D01*
X196684359Y-94412559D01*
X196689653Y-94455267D01*
X196705170Y-94492965D01*
X196731437Y-94526956D01*
X196765270Y-94553398D01*
X196802754Y-94568993D01*
X196845193Y-94574309D01*
X196887690Y-94568989D01*
X196925171Y-94553390D01*
X196958949Y-94526956D01*
X196985271Y-94492959D01*
X197000816Y-94455261D01*
X197006119Y-94412559D01*
X197000803Y-94369877D01*
X196985249Y-94332404D01*
X196958949Y-94298803D01*
X196925203Y-94272644D01*
X196887720Y-94257184D01*
X196845193Y-94251908D01*
X196802724Y-94257180D01*
X196765238Y-94272635D01*
X196731437Y-94298803D01*
X196705192Y-94332398D01*
X196689666Y-94369871D01*
X196684359Y-94412559D01*
X196316328Y-94412559D01*
X196368554Y-94349031D01*
X196414963Y-94261615D01*
X196443132Y-94165312D01*
X196447341Y-94118643D01*
X197201940Y-94118643D01*
X197209340Y-94208073D01*
X197230935Y-94289448D01*
X197266512Y-94364290D01*
X197314935Y-94431331D01*
X197372040Y-94485006D01*
X197438612Y-94526590D01*
X197512430Y-94554636D01*
X197607458Y-94573286D01*
X197728589Y-94580170D01*
X197841071Y-94573251D01*
X197933150Y-94554110D01*
X198008308Y-94524575D01*
X198076206Y-94481568D01*
X198134152Y-94426651D01*
X198182972Y-94358612D01*
X198219165Y-94282898D01*
X198240791Y-94203328D01*
X198248094Y-94118643D01*
X198241813Y-94040447D01*
X198223228Y-93966786D01*
X198192223Y-93896626D01*
X198150043Y-93832577D01*
X198097596Y-93776790D01*
X198033954Y-93728648D01*
X198104688Y-93642609D01*
X198144138Y-93574134D01*
X198166678Y-93502957D01*
X198174363Y-93424658D01*
X198167912Y-93350003D01*
X198148726Y-93279129D01*
X198116477Y-93210976D01*
X198072954Y-93149477D01*
X198020442Y-93098602D01*
X197958116Y-93057469D01*
X197889304Y-93027934D01*
X197812311Y-93009679D01*
X197725566Y-93003339D01*
X197637365Y-93009617D01*
X197558958Y-93027694D01*
X197488804Y-93056919D01*
X197425133Y-93097712D01*
X197372390Y-93147459D01*
X197329527Y-93206854D01*
X197298054Y-93273117D01*
X197279097Y-93343944D01*
X197272649Y-93420536D01*
X197274997Y-93443342D01*
X197281269Y-93504252D01*
X197306995Y-93583293D01*
X197348832Y-93656971D01*
X197408936Y-93728648D01*
X197344121Y-93783549D01*
X197292856Y-93841490D01*
X197253689Y-93902763D01*
X197225157Y-93969406D01*
X197207849Y-94041001D01*
X197203773Y-94094555D01*
X197201940Y-94118643D01*
X196447341Y-94118643D01*
X196452817Y-94057918D01*
X196443792Y-93950655D01*
X196417864Y-93856747D01*
X196375783Y-93773782D01*
X196316987Y-93699980D01*
X196244769Y-93638813D01*
X196165071Y-93595611D01*
X196076336Y-93569297D01*
X195976360Y-93560212D01*
X195929191Y-93563784D01*
X195878999Y-93574501D01*
X195940457Y-93302292D01*
X196432301Y-93302292D01*
X196432301Y-93038510D01*
X195726317Y-93038510D01*
X195543959Y-93872080D01*
X195777608Y-93924104D01*
X195823369Y-93881809D01*
X195867275Y-93853395D01*
X195913747Y-93835617D01*
X195959965Y-93829856D01*
X196015833Y-93837283D01*
X196065272Y-93859173D01*
X196110083Y-93896626D01*
X196144053Y-93944301D01*
X196164813Y-94000368D01*
X196172090Y-94067169D01*
X196164305Y-94135703D01*
X196142042Y-94193258D01*
X196105412Y-94242291D01*
X196057526Y-94280384D01*
X196004219Y-94302857D01*
X195943571Y-94310526D01*
X195877651Y-94301568D01*
X195817999Y-94274897D01*
X195767468Y-94231718D01*
X195726317Y-94169842D01*
X195425074Y-94169842D01*
X194858647Y-94169842D01*
X194921964Y-94103164D01*
X195053092Y-93956950D01*
X195143365Y-93836612D01*
X195201133Y-93737991D01*
X195245073Y-93632847D01*
X195269709Y-93537234D01*
X195277520Y-93449387D01*
X195270743Y-93375989D01*
X195250104Y-93302524D01*
X195214506Y-93227920D01*
X195167274Y-93160291D01*
X195111476Y-93105084D01*
X195046436Y-93061133D01*
X194974427Y-93029547D01*
X194894214Y-93010084D01*
X194804178Y-93003339D01*
X194694982Y-93012685D01*
X194599411Y-93039549D01*
X194514967Y-93083197D01*
X194439829Y-93144297D01*
X194378768Y-93218683D01*
X194332686Y-93306210D01*
X194301576Y-93409245D01*
X194286688Y-93530903D01*
X194566407Y-93530903D01*
X194576283Y-93453736D01*
X194598491Y-93391952D01*
X194631987Y-93342409D01*
X194676743Y-93303603D01*
X194727290Y-93280787D01*
X194785676Y-93272983D01*
X194844174Y-93279614D01*
X194893169Y-93298553D01*
X194934787Y-93329678D01*
X194966788Y-93370500D01*
X194986007Y-93417664D01*
X194992672Y-93473109D01*
X194987147Y-93527726D01*
X194969344Y-93589596D01*
X194936802Y-93660413D01*
X194894413Y-93726831D01*
X194822635Y-93816267D01*
X194711946Y-93934545D01*
X194245655Y-94408162D01*
X193990947Y-94408162D01*
X194024216Y-94363284D01*
X194076029Y-94257678D01*
X194110086Y-94144414D01*
X194133394Y-93992399D01*
X194142158Y-93792304D01*
X194133541Y-93594176D01*
X194110598Y-93443271D01*
X194077036Y-93330502D01*
X194025450Y-93225792D01*
X193963983Y-93144878D01*
X193892663Y-93084030D01*
X193809770Y-93039900D01*
X193715851Y-93012775D01*
X193608365Y-93003339D01*
X193508997Y-93011892D01*
X193421546Y-93036538D01*
X193343809Y-93076694D01*
X193274179Y-93133045D01*
X193211775Y-93207495D01*
X193170708Y-93279847D01*
X193135867Y-93371749D01*
X193108483Y-93487114D01*
X193090349Y-93630411D01*
X193083731Y-93806592D01*
X192810356Y-93806592D01*
X192850540Y-93737991D01*
X192894480Y-93632847D01*
X192919116Y-93537234D01*
X192926927Y-93449387D01*
X192920150Y-93375989D01*
X192899511Y-93302524D01*
X192863913Y-93227920D01*
X192816681Y-93160291D01*
X192760883Y-93105084D01*
X192695843Y-93061133D01*
X192623834Y-93029547D01*
X192543620Y-93010084D01*
X192453585Y-93003339D01*
X192344389Y-93012685D01*
X192248818Y-93039549D01*
X192164374Y-93083197D01*
X192089235Y-93144297D01*
X192028175Y-93218683D01*
X191982093Y-93306210D01*
X191950983Y-93409245D01*
X191936095Y-93530903D01*
X192215814Y-93530903D01*
X192225689Y-93453736D01*
X192247898Y-93391952D01*
X192281393Y-93342409D01*
X192326150Y-93303603D01*
X192376697Y-93280787D01*
X192435083Y-93272983D01*
X192493581Y-93279614D01*
X192542576Y-93298553D01*
X192584193Y-93329678D01*
X192616195Y-93370500D01*
X192635414Y-93417664D01*
X192642079Y-93473109D01*
X192636554Y-93527726D01*
X192618751Y-93589596D01*
X192586209Y-93660413D01*
X192543820Y-93726831D01*
X192472042Y-93816267D01*
X192361352Y-93934545D01*
X191895062Y-94408162D01*
X191728395Y-94408162D01*
X191728395Y-92836672D01*
X198414761Y-92836672D01*
X198414761Y-94746837D01*
G37*
D12*
%TO.P,U1,1,IN+*%
%TO.N,+12V*%
X97100000Y-106885000D03*
D13*
X97100000Y-109425000D03*
D14*
%TO.P,U1,2,IN-*%
%TO.N,GND*%
X97100000Y-95400000D03*
D15*
X97100000Y-97940000D03*
D12*
%TO.P,U1,3,OUT+*%
%TO.N,+3V3*%
X116075000Y-106885000D03*
D13*
X116075000Y-109425000D03*
D14*
%TO.P,U1,4,OUT-*%
%TO.N,GND*%
X116100000Y-95400000D03*
D15*
X116100000Y-97940000D03*
%TD*%
D16*
%TO.P,C2,1*%
%TO.N,+3V3*%
X123400000Y-94500000D03*
D17*
%TO.P,C2,2*%
%TO.N,GND*%
X123400000Y-90700000D03*
%TD*%
D18*
%TO.P,J2,1*%
%TO.N,+12V*%
X92750000Y-92750000D03*
D19*
%TO.P,J2,2*%
%TO.N,GND*%
X86450000Y-92750000D03*
D20*
%TO.P,J2,3*%
X89850000Y-97550000D03*
%TD*%
D21*
%TO.P,SW1,1,1*%
%TO.N,/GPIO0*%
X130350000Y-104850000D03*
X136850000Y-104850000D03*
%TO.P,SW1,2,2*%
%TO.N,Net-(R2-Pad1)*%
X130350000Y-109350000D03*
X136850000Y-109350000D03*
%TD*%
D17*
%TO.P,C1,1*%
%TO.N,+3V3*%
X121900000Y-98750000D03*
%TO.P,C1,2*%
%TO.N,GND*%
X124400000Y-98750000D03*
%TD*%
D22*
%TO.P,U2,1,GND*%
%TO.N,GND*%
X133090000Y-91300000D03*
%TO.P,U2,2,GPIO2*%
%TO.N,/GPIO2*%
X133090000Y-93840000D03*
%TO.P,U2,3,GPIO0*%
%TO.N,/GPIO0*%
X133090000Y-96380000D03*
%TO.P,U2,4,URXD*%
%TO.N,/GPIO3*%
X133090000Y-98920000D03*
%TO.P,U2,5,UTXD*%
%TO.N,/GPIO1*%
X130550000Y-91300000D03*
%TO.P,U2,6,CH_PD*%
%TO.N,+3V3*%
X130550000Y-93840000D03*
%TO.P,U2,7,RST*%
%TO.N,/RESET*%
X130550000Y-96380000D03*
%TO.P,U2,8,VCC*%
%TO.N,+3V3*%
X130550000Y-98920000D03*
%TD*%
D17*
%TO.P,R2,1*%
%TO.N,Net-(R2-Pad1)*%
X125400000Y-109250000D03*
%TO.P,R2,2*%
%TO.N,GND*%
X125400000Y-101630000D03*
%TD*%
D21*
%TO.P,SW2,1,1*%
%TO.N,/RESET*%
X147250000Y-109350000D03*
X140750000Y-109350000D03*
%TO.P,SW2,2,2*%
%TO.N,GND*%
X147250000Y-104850000D03*
X140750000Y-104850000D03*
%TD*%
D17*
%TO.P,R1,1*%
%TO.N,+3V3*%
X121900000Y-101630000D03*
%TO.P,R1,2*%
%TO.N,/RESET*%
X121900000Y-109250000D03*
%TD*%
D23*
%TO.P,J4,1,Pin_1*%
%TO.N,/LED-*%
X195550000Y-104710000D03*
D24*
%TO.P,J4,2,Pin_2*%
%TO.N,+12V*%
X195550000Y-109790000D03*
%TD*%
D25*
%TO.P,J3,1,Pin_1*%
%TO.N,+3V3*%
X114000000Y-89600000D03*
D26*
%TO.P,J3,2,Pin_2*%
%TO.N,/GPIO1*%
X111460000Y-89600000D03*
%TO.P,J3,3,Pin_3*%
%TO.N,/GPIO2*%
X108920000Y-89600000D03*
%TO.P,J3,4,Pin_4*%
%TO.N,/GPIO3*%
X106380000Y-89600000D03*
%TO.P,J3,5,Pin_5*%
%TO.N,GND*%
X103840000Y-89600000D03*
%TD*%
%TO.P,J5,1,Pin_1*%
%TO.N,/GPIO3*%
X153550000Y-108950000D03*
D12*
%TO.P,J5,2,Pin_2*%
%TO.N,/PWM_SIG*%
X153550000Y-106410000D03*
D26*
%TO.P,J5,3,Pin_3*%
%TO.N,GND*%
X151010000Y-108950000D03*
%TD*%
D27*
%TO.P,U3,1,GND*%
%TO.N,GND*%
X160500000Y-103510000D03*
D28*
X157950000Y-104800000D03*
D27*
X160500000Y-106050000D03*
%TO.P,U3,2,TRIG/PWM*%
%TO.N,/PWM_SIG*%
X160500000Y-98450000D03*
D29*
X157950000Y-99750000D03*
D27*
X160500000Y-100990000D03*
D30*
%TO.P,U3,3,OUT-*%
%TO.N,/LED-*%
X180820000Y-97800000D03*
%TO.P,U3,4,OUT+*%
%TO.N,unconnected-(U3-OUT+-Pad4)*%
X185900000Y-97800000D03*
%TO.P,U3,5,VIN-*%
%TO.N,GND*%
X180820000Y-106700000D03*
%TO.P,U3,6,VIN+*%
%TO.N,+12V*%
X185900000Y-106700000D03*
%TD*%
D23*
%TO.P,J1,1,Pin_1*%
%TO.N,+12V*%
X88250000Y-109880000D03*
D24*
%TO.P,J1,2,Pin_2*%
%TO.N,GND*%
X88250000Y-104800000D03*
%TD*%
D31*
%TO.N,GND*%
X136500000Y-92500000D03*
X85250000Y-89200000D03*
X141400000Y-95000000D03*
X118400000Y-95400000D03*
X136500000Y-91250000D03*
X174250000Y-105500000D03*
X174250000Y-103750000D03*
X86400000Y-98600000D03*
X85200000Y-98600000D03*
X136500000Y-90100000D03*
X85400000Y-104300000D03*
X153300000Y-103300000D03*
X139600000Y-96500000D03*
X118400000Y-107400000D03*
X157250000Y-93000000D03*
X164800000Y-103250000D03*
X164800000Y-104750000D03*
X141400000Y-93500000D03*
X172750000Y-103750000D03*
X118400000Y-98400000D03*
X86000000Y-103300000D03*
X118400000Y-96900000D03*
X86200000Y-106500000D03*
X143200000Y-100600000D03*
X151800000Y-103300000D03*
X164750000Y-93000000D03*
X88800000Y-92750000D03*
X166250000Y-93000000D03*
X99450000Y-93000000D03*
X100750000Y-93000000D03*
X102000000Y-93000000D03*
X163250000Y-93000000D03*
X86400000Y-96600000D03*
X115850000Y-93000000D03*
X129900000Y-101400000D03*
X164800000Y-106250000D03*
X144200000Y-101500000D03*
X171250000Y-103750000D03*
X98200000Y-93000000D03*
X139600000Y-93500000D03*
X126000000Y-97100000D03*
X96950000Y-93000000D03*
X172750000Y-105500000D03*
X160250000Y-93000000D03*
X86450000Y-89200000D03*
X141400000Y-96500000D03*
X150300000Y-103300000D03*
X139600000Y-95000000D03*
X171250000Y-105500000D03*
X126700000Y-99100000D03*
X118400000Y-109150000D03*
X117100000Y-93000000D03*
X131200000Y-101400000D03*
X85400000Y-105500000D03*
X161750000Y-93000000D03*
X158750000Y-93000000D03*
X85200000Y-96600000D03*
%TO.N,/LED-*%
X198600000Y-106200000D03*
X198600000Y-104700000D03*
D32*
X180820000Y-100070000D03*
D31*
X198600000Y-103200000D03*
%TO.N,+12V*%
X198600000Y-110800000D03*
X198600000Y-109300000D03*
D32*
X185900000Y-108980000D03*
D31*
%TO.N,/RESET*%
X127900000Y-100400000D03*
%TD*%
D33*
%TO.N,GND*%
X158000000Y-104925000D02*
X158005000Y-104920000D01*
X97100000Y-97940000D02*
X97100000Y-95400000D01*
X116100000Y-97940000D02*
X116100000Y-95400000D01*
%TO.N,+3V3*%
X121900000Y-97600000D02*
X121900000Y-98750000D01*
X126700000Y-94500000D02*
X123400000Y-94500000D01*
X129220000Y-98920000D02*
X128000000Y-97700000D01*
X121900000Y-101630000D02*
X121900000Y-98750000D01*
X116075000Y-105800000D02*
X116075000Y-106885000D01*
X121250000Y-94500000D02*
X123400000Y-94500000D01*
X123400000Y-94500000D02*
X123400000Y-96100000D01*
X121900000Y-101630000D02*
X121900000Y-103750000D01*
X120650000Y-105000000D02*
X116875000Y-105000000D01*
X128000000Y-97700000D02*
X128000000Y-95800000D01*
X130337349Y-94052651D02*
X130550000Y-93840000D01*
X123400000Y-96100000D02*
X121900000Y-97600000D01*
X116075000Y-109425000D02*
X116075000Y-106885000D01*
X114000000Y-89600000D02*
X116350000Y-89600000D01*
D34*
X126700000Y-94500000D02*
X127360000Y-93840000D01*
D33*
X128000000Y-95800000D02*
X126700000Y-94500000D01*
X116350000Y-89600000D02*
X121250000Y-94500000D01*
X116875000Y-105000000D02*
X116075000Y-105800000D01*
X121900000Y-103750000D02*
X120650000Y-105000000D01*
X130550000Y-98920000D02*
X129220000Y-98920000D01*
D34*
X127360000Y-93840000D02*
X130550000Y-93840000D01*
D35*
%TO.N,/LED-*%
X180820000Y-100070000D02*
X180820000Y-97800000D01*
D36*
X196000000Y-104420000D02*
X196000000Y-104710000D01*
D35*
X183250000Y-102500000D02*
X189000000Y-102500000D01*
X191210000Y-104710000D02*
X195750000Y-104710000D01*
X189000000Y-102500000D02*
X191210000Y-104710000D01*
X180820000Y-100070000D02*
X183250000Y-102500000D01*
%TO.N,+12V*%
X185900000Y-106700000D02*
X185900000Y-108980000D01*
D36*
X97100000Y-109425000D02*
X97100000Y-111949000D01*
X185900000Y-108980000D02*
X185900000Y-110600000D01*
X94200000Y-96000000D02*
X92750000Y-94550000D01*
X90319000Y-111949000D02*
X97100000Y-111949000D01*
X97100000Y-106885000D02*
X97100000Y-106000000D01*
D35*
X186710000Y-109790000D02*
X195550000Y-109790000D01*
D36*
X97100000Y-106000000D02*
X94200000Y-103100000D01*
X94200000Y-103100000D02*
X94200000Y-96000000D01*
X184551000Y-111949000D02*
X95750000Y-111949000D01*
X97100000Y-106885000D02*
X97100000Y-109425000D01*
X88250000Y-109880000D02*
X90319000Y-111949000D01*
X185900000Y-110600000D02*
X184551000Y-111949000D01*
D33*
%TO.N,/GPIO2*%
X133180000Y-94000000D02*
X133090000Y-94090000D01*
%TO.N,/GPIO3*%
X133170000Y-99250000D02*
X133090000Y-99170000D01*
D34*
X133090000Y-98920000D02*
X133090000Y-100290000D01*
X144400000Y-104300000D02*
X144400000Y-105800000D01*
D37*
X135000000Y-89000000D02*
X135000000Y-98000000D01*
X135000000Y-98000000D02*
X134080000Y-98920000D01*
D34*
X151950000Y-107350000D02*
X145950000Y-107350000D01*
D37*
X134080000Y-98920000D02*
X133090000Y-98920000D01*
D34*
X141900000Y-101800000D02*
X144400000Y-104300000D01*
D37*
X106380000Y-88370000D02*
X106950000Y-87800000D01*
X106380000Y-89600000D02*
X106380000Y-88370000D01*
D34*
X144400000Y-105800000D02*
X145650000Y-107050000D01*
D37*
X133800000Y-87800000D02*
X135000000Y-89000000D01*
D34*
X134600000Y-101800000D02*
X141900000Y-101800000D01*
D37*
X106950000Y-87800000D02*
X133800000Y-87800000D01*
D34*
X153550000Y-108950000D02*
X151950000Y-107350000D01*
X145950000Y-107350000D02*
X145650000Y-107050000D01*
X133090000Y-100290000D02*
X134600000Y-101800000D01*
%TO.N,/RESET*%
X122500000Y-107150000D02*
X122275000Y-107375000D01*
D33*
X140750000Y-109350000D02*
X147250000Y-109350000D01*
D34*
X138550000Y-107150000D02*
X130400000Y-107150000D01*
X121900000Y-107750000D02*
X121900000Y-109250000D01*
X129450000Y-107150000D02*
X130400000Y-107150000D01*
X127900000Y-105600000D02*
X129450000Y-107150000D01*
X140750000Y-109350000D02*
X138550000Y-107150000D01*
X130400000Y-107150000D02*
X122500000Y-107150000D01*
X127900000Y-100400000D02*
X127900000Y-105600000D01*
X122275000Y-107375000D02*
X121900000Y-107750000D01*
D33*
%TO.N,/GPIO0*%
X130350000Y-104850000D02*
X136850000Y-104850000D01*
X130350000Y-104850000D02*
X130450000Y-104750000D01*
X136750000Y-104750000D02*
X136850000Y-104850000D01*
D37*
%TO.N,/GPIO1*%
X128750000Y-88250000D02*
X130550000Y-90050000D01*
X111750000Y-88250000D02*
X128750000Y-88250000D01*
X111460000Y-89600000D02*
X111460000Y-88540000D01*
X130550000Y-90050000D02*
X130550000Y-91300000D01*
X111460000Y-88540000D02*
X111750000Y-88250000D01*
D34*
%TO.N,Net-(R2-Pad1)*%
X130250000Y-109250000D02*
X125400000Y-109250000D01*
D33*
X136750000Y-109250000D02*
X136850000Y-109350000D01*
D34*
X130350000Y-109350000D02*
X130250000Y-109250000D01*
D33*
X130350000Y-109350000D02*
X136850000Y-109350000D01*
X130350000Y-109350000D02*
X130450000Y-109250000D01*
D36*
%TO.N,/PWM_SIG*%
X160500000Y-99750000D02*
X157950000Y-99750000D01*
X160500000Y-100990000D02*
X160500000Y-99750000D01*
D34*
X155250000Y-100750000D02*
X155250000Y-104710000D01*
X158010000Y-99583000D02*
X156417000Y-99583000D01*
X155250000Y-104710000D02*
X153550000Y-106410000D01*
D36*
X160500000Y-99750000D02*
X160500000Y-98450000D01*
D34*
X156417000Y-99583000D02*
X155250000Y-100750000D01*
%TD*%
%TA.AperFunction,Conductor*%
%TO.N,GND*%
G36*
X98099500Y-99800000D02*
G01*
X95700500Y-99800000D01*
X95700500Y-96700000D01*
X98099500Y-96700000D01*
X98099500Y-99800000D01*
G37*
%TD.AperFunction*%
%TD*%
%TA.AperFunction,Conductor*%
%TO.N,+12V*%
G36*
X98042539Y-105719685D02*
G01*
X98088294Y-105772489D01*
X98099500Y-105824000D01*
X98099500Y-110495186D01*
X98100000Y-110502816D01*
X98100000Y-112625500D01*
X98080315Y-112692539D01*
X98027511Y-112738294D01*
X97976000Y-112749500D01*
X84374500Y-112749500D01*
X84307461Y-112729815D01*
X84261706Y-112677011D01*
X84250500Y-112625500D01*
X84250500Y-107724000D01*
X84270185Y-107656961D01*
X84322989Y-107611206D01*
X84374500Y-107600000D01*
X95600000Y-107600000D01*
X95600000Y-105926362D01*
X95608644Y-105896921D01*
X95615168Y-105866935D01*
X95618922Y-105861919D01*
X95619685Y-105859323D01*
X95636319Y-105838681D01*
X95738681Y-105736319D01*
X95800004Y-105702834D01*
X95826362Y-105700000D01*
X97975500Y-105700000D01*
X98042539Y-105719685D01*
G37*
%TD.AperFunction*%
%TD*%
%TA.AperFunction,Conductor*%
%TO.N,/LED-*%
G36*
X199192539Y-102019685D02*
G01*
X199238294Y-102072489D01*
X199249500Y-102124000D01*
X199249500Y-106876000D01*
X199229815Y-106943039D01*
X199177011Y-106988794D01*
X199125500Y-107000000D01*
X193037844Y-107000000D01*
X192970805Y-106980315D01*
X192968605Y-106978869D01*
X192404761Y-106599358D01*
X192360138Y-106545594D01*
X192350000Y-106496489D01*
X192350000Y-102124000D01*
X192369685Y-102056961D01*
X192422489Y-102011206D01*
X192474000Y-102000000D01*
X199125500Y-102000000D01*
X199192539Y-102019685D01*
G37*
%TD.AperFunction*%
%TD*%
%TA.AperFunction,Conductor*%
%TO.N,+12V*%
G36*
X199192539Y-107619685D02*
G01*
X199238294Y-107672489D01*
X199249500Y-107724000D01*
X199249500Y-112625500D01*
X199229815Y-112692539D01*
X199177011Y-112738294D01*
X199125500Y-112749500D01*
X192524000Y-112749500D01*
X192456961Y-112729815D01*
X192411206Y-112677011D01*
X192400000Y-112625500D01*
X192400000Y-108251362D01*
X192419685Y-108184323D01*
X192436319Y-108163681D01*
X192963681Y-107636319D01*
X193025004Y-107602834D01*
X193051362Y-107600000D01*
X199125500Y-107600000D01*
X199192539Y-107619685D01*
G37*
%TD.AperFunction*%
%TD*%
%TA.AperFunction,Conductor*%
%TO.N,GND*%
G36*
X126301257Y-95520185D02*
G01*
X126321899Y-95536819D01*
X126963181Y-96178101D01*
X126996666Y-96239424D01*
X126999500Y-96265782D01*
X126999500Y-97798541D01*
X126999500Y-97798543D01*
X126999499Y-97798543D01*
X127014399Y-97873446D01*
X127016520Y-97884106D01*
X127035495Y-97979501D01*
X127035496Y-97979505D01*
X127035495Y-97979505D01*
X127037948Y-97991834D01*
X127037949Y-97991838D01*
X127113364Y-98173907D01*
X127113371Y-98173920D01*
X127222859Y-98337780D01*
X127222860Y-98337781D01*
X127222861Y-98337782D01*
X127362218Y-98477139D01*
X127362219Y-98477139D01*
X127369286Y-98484206D01*
X127369285Y-98484206D01*
X127369289Y-98484209D01*
X128193832Y-99308754D01*
X128227317Y-99370077D01*
X128222333Y-99439769D01*
X128180461Y-99495702D01*
X128114997Y-99520119D01*
X128081959Y-99518052D01*
X127988693Y-99499500D01*
X127988691Y-99499500D01*
X127811309Y-99499500D01*
X127811306Y-99499500D01*
X127637341Y-99534103D01*
X127637332Y-99534106D01*
X127473459Y-99601983D01*
X127473446Y-99601990D01*
X127325965Y-99700535D01*
X127325961Y-99700538D01*
X127200538Y-99825961D01*
X127200535Y-99825965D01*
X127101990Y-99973446D01*
X127101983Y-99973459D01*
X127034106Y-100137332D01*
X127034103Y-100137341D01*
X126999500Y-100311304D01*
X126999500Y-100488695D01*
X127034103Y-100662658D01*
X127034106Y-100662667D01*
X127101984Y-100826542D01*
X127101985Y-100826543D01*
X127101987Y-100826547D01*
X127125297Y-100861432D01*
X127128602Y-100866378D01*
X127149480Y-100933055D01*
X127149500Y-100935269D01*
X127149500Y-105673918D01*
X127149500Y-105673920D01*
X127149499Y-105673920D01*
X127178340Y-105818907D01*
X127178343Y-105818917D01*
X127234912Y-105955488D01*
X127234918Y-105955499D01*
X127244939Y-105970495D01*
X127244941Y-105970500D01*
X127317046Y-106078414D01*
X127317052Y-106078421D01*
X127426450Y-106187819D01*
X127459935Y-106249142D01*
X127454951Y-106318834D01*
X127413079Y-106374767D01*
X127347615Y-106399184D01*
X127338769Y-106399500D01*
X122426080Y-106399500D01*
X122281092Y-106428340D01*
X122281082Y-106428343D01*
X122144509Y-106484913D01*
X122144504Y-106484916D01*
X122127184Y-106496488D01*
X122127185Y-106496489D01*
X122021579Y-106567051D01*
X122021578Y-106567052D01*
X121692048Y-106896584D01*
X121317048Y-107271583D01*
X121300313Y-107296631D01*
X121300312Y-107296632D01*
X121234913Y-107394508D01*
X121178343Y-107531082D01*
X121178340Y-107531092D01*
X121149500Y-107676079D01*
X121149500Y-108124582D01*
X121129815Y-108191621D01*
X121098385Y-108224900D01*
X121052787Y-108258028D01*
X121052782Y-108258032D01*
X120908028Y-108402786D01*
X120787715Y-108568386D01*
X120694781Y-108750776D01*
X120631522Y-108945465D01*
X120599500Y-109147648D01*
X120599500Y-109352351D01*
X120631522Y-109554534D01*
X120694781Y-109749223D01*
X120735831Y-109829786D01*
X120784090Y-109924500D01*
X120787715Y-109931613D01*
X120908028Y-110097213D01*
X121047634Y-110236819D01*
X121081119Y-110298142D01*
X121076135Y-110367834D01*
X121034263Y-110423767D01*
X120968799Y-110448184D01*
X120959953Y-110448500D01*
X117497017Y-110448500D01*
X117429978Y-110428815D01*
X117384223Y-110376011D01*
X117374279Y-110306853D01*
X117379311Y-110285496D01*
X117393735Y-110241966D01*
X117414999Y-110177797D01*
X117425500Y-110075009D01*
X117425499Y-108774992D01*
X117425398Y-108774008D01*
X117414999Y-108672203D01*
X117414998Y-108672200D01*
X117402259Y-108633757D01*
X117359814Y-108505666D01*
X117267712Y-108356344D01*
X117154049Y-108242681D01*
X117120564Y-108181358D01*
X117125548Y-108111666D01*
X117154049Y-108067319D01*
X117202180Y-108019188D01*
X117267712Y-107953656D01*
X117359814Y-107804334D01*
X117414999Y-107637797D01*
X117425500Y-107535009D01*
X117425499Y-106234992D01*
X117415499Y-106137100D01*
X117428269Y-106068409D01*
X117476149Y-106017525D01*
X117538857Y-106000500D01*
X120748542Y-106000500D01*
X120778618Y-105994517D01*
X120845188Y-105981275D01*
X120941836Y-105962051D01*
X120996368Y-105939463D01*
X121116531Y-105889690D01*
X121123907Y-105886635D01*
X121123907Y-105886634D01*
X121123914Y-105886632D01*
X121287782Y-105777139D01*
X121427139Y-105637782D01*
X121427140Y-105637780D01*
X121434206Y-105630714D01*
X121434209Y-105630710D01*
X122537778Y-104527141D01*
X122537782Y-104527139D01*
X122677139Y-104387782D01*
X122786632Y-104223914D01*
X122845792Y-104081088D01*
X122862051Y-104041836D01*
X122892661Y-103887949D01*
X122900500Y-103848541D01*
X122900500Y-102505761D01*
X122920185Y-102438722D01*
X122924165Y-102432899D01*
X123012287Y-102311610D01*
X123105220Y-102129219D01*
X123168477Y-101934534D01*
X123200500Y-101732352D01*
X123200500Y-101527682D01*
X124100000Y-101527682D01*
X124100000Y-101732317D01*
X124132009Y-101934417D01*
X124195244Y-102129031D01*
X124288141Y-102311350D01*
X124288147Y-102311359D01*
X124320523Y-102355921D01*
X124320524Y-102355922D01*
X125000000Y-101676446D01*
X125000000Y-101682661D01*
X125027259Y-101784394D01*
X125079920Y-101875606D01*
X125154394Y-101950080D01*
X125245606Y-102002741D01*
X125347339Y-102030000D01*
X125353553Y-102030000D01*
X124674076Y-102709474D01*
X124718650Y-102741859D01*
X124900968Y-102834755D01*
X125095582Y-102897990D01*
X125297683Y-102930000D01*
X125502317Y-102930000D01*
X125704417Y-102897990D01*
X125899031Y-102834755D01*
X126081349Y-102741859D01*
X126125921Y-102709474D01*
X125446447Y-102030000D01*
X125452661Y-102030000D01*
X125554394Y-102002741D01*
X125645606Y-101950080D01*
X125720080Y-101875606D01*
X125772741Y-101784394D01*
X125800000Y-101682661D01*
X125800000Y-101676447D01*
X126479474Y-102355921D01*
X126511859Y-102311349D01*
X126604755Y-102129031D01*
X126667990Y-101934417D01*
X126700000Y-101732317D01*
X126700000Y-101527682D01*
X126667990Y-101325582D01*
X126604755Y-101130968D01*
X126511859Y-100948650D01*
X126479474Y-100904077D01*
X126479474Y-100904076D01*
X125800000Y-101583551D01*
X125800000Y-101577339D01*
X125772741Y-101475606D01*
X125720080Y-101384394D01*
X125645606Y-101309920D01*
X125554394Y-101257259D01*
X125452661Y-101230000D01*
X125446446Y-101230000D01*
X126125922Y-100550524D01*
X126125921Y-100550523D01*
X126081359Y-100518147D01*
X126081350Y-100518141D01*
X125899031Y-100425244D01*
X125704417Y-100362009D01*
X125502317Y-100330000D01*
X125297683Y-100330000D01*
X125095582Y-100362009D01*
X124900968Y-100425244D01*
X124718644Y-100518143D01*
X124674077Y-100550523D01*
X124674077Y-100550524D01*
X125353554Y-101230000D01*
X125347339Y-101230000D01*
X125245606Y-101257259D01*
X125154394Y-101309920D01*
X125079920Y-101384394D01*
X125027259Y-101475606D01*
X125000000Y-101577339D01*
X125000000Y-101583553D01*
X124320524Y-100904077D01*
X124320523Y-100904077D01*
X124288143Y-100948644D01*
X124195244Y-101130968D01*
X124132009Y-101325582D01*
X124100000Y-101527682D01*
X123200500Y-101527682D01*
X123200500Y-101527648D01*
X123186228Y-101437539D01*
X123168477Y-101325465D01*
X123113442Y-101156086D01*
X123105220Y-101130781D01*
X123105218Y-101130778D01*
X123105218Y-101130776D01*
X123051181Y-101024724D01*
X123012287Y-100948390D01*
X122980091Y-100904076D01*
X122924182Y-100827122D01*
X122917029Y-100807077D01*
X122905523Y-100789172D01*
X122902068Y-100765145D01*
X122900702Y-100761316D01*
X122900500Y-100754237D01*
X122900500Y-99625761D01*
X122920185Y-99558722D01*
X122924165Y-99552899D01*
X123012287Y-99431610D01*
X123039795Y-99377621D01*
X123087769Y-99326826D01*
X123155589Y-99310030D01*
X123221725Y-99332567D01*
X123260765Y-99377621D01*
X123288141Y-99431350D01*
X123288147Y-99431359D01*
X123320523Y-99475921D01*
X123320524Y-99475922D01*
X124000000Y-98796446D01*
X124000000Y-98802661D01*
X124027259Y-98904394D01*
X124079920Y-98995606D01*
X124154394Y-99070080D01*
X124245606Y-99122741D01*
X124347339Y-99150000D01*
X124353553Y-99150000D01*
X123674076Y-99829474D01*
X123718650Y-99861859D01*
X123900968Y-99954755D01*
X124095582Y-100017990D01*
X124297683Y-100050000D01*
X124502317Y-100050000D01*
X124704417Y-100017990D01*
X124899031Y-99954755D01*
X125081349Y-99861859D01*
X125125921Y-99829474D01*
X124446447Y-99150000D01*
X124452661Y-99150000D01*
X124554394Y-99122741D01*
X124645606Y-99070080D01*
X124720080Y-98995606D01*
X124772741Y-98904394D01*
X124800000Y-98802661D01*
X124800000Y-98796447D01*
X125479474Y-99475921D01*
X125511859Y-99431349D01*
X125604755Y-99249031D01*
X125667990Y-99054417D01*
X125700000Y-98852317D01*
X125700000Y-98647682D01*
X125667990Y-98445582D01*
X125604755Y-98250968D01*
X125511859Y-98068650D01*
X125479474Y-98024077D01*
X125479474Y-98024076D01*
X124800000Y-98703551D01*
X124800000Y-98697339D01*
X124772741Y-98595606D01*
X124720080Y-98504394D01*
X124645606Y-98429920D01*
X124554394Y-98377259D01*
X124452661Y-98350000D01*
X124446446Y-98350000D01*
X125125922Y-97670524D01*
X125125921Y-97670523D01*
X125081359Y-97638147D01*
X125081350Y-97638141D01*
X124899031Y-97545244D01*
X124704417Y-97482009D01*
X124502317Y-97450000D01*
X124297683Y-97450000D01*
X124095582Y-97482009D01*
X123900968Y-97545244D01*
X123718644Y-97638143D01*
X123674077Y-97670523D01*
X123674077Y-97670524D01*
X124353554Y-98350000D01*
X124347339Y-98350000D01*
X124245606Y-98377259D01*
X124154394Y-98429920D01*
X124079920Y-98504394D01*
X124027259Y-98595606D01*
X124000000Y-98697339D01*
X124000000Y-98703553D01*
X123320524Y-98024077D01*
X123320523Y-98024077D01*
X123288143Y-98068644D01*
X123260765Y-98122378D01*
X123253733Y-98129822D01*
X123250247Y-98139449D01*
X123230150Y-98154792D01*
X123212790Y-98173174D01*
X123202851Y-98175635D01*
X123194713Y-98181849D01*
X123169509Y-98183891D01*
X123144969Y-98189969D01*
X123135278Y-98186666D01*
X123125071Y-98187494D01*
X123102763Y-98175585D01*
X123078834Y-98167431D01*
X123070826Y-98158537D01*
X123063434Y-98154591D01*
X123046516Y-98131537D01*
X123042016Y-98126539D01*
X123040867Y-98124481D01*
X123012287Y-98068390D01*
X123000438Y-98052081D01*
X122996838Y-98045634D01*
X122990663Y-98018489D01*
X122981304Y-97992261D01*
X122983019Y-97984885D01*
X122981340Y-97977504D01*
X122990822Y-97951325D01*
X122997128Y-97924207D01*
X123003850Y-97915359D01*
X123005135Y-97911812D01*
X123008493Y-97909248D01*
X123017417Y-97897501D01*
X124177139Y-96737782D01*
X124284476Y-96577140D01*
X124286632Y-96573914D01*
X124362051Y-96391835D01*
X124392368Y-96239424D01*
X124400500Y-96198543D01*
X124400500Y-95712231D01*
X124409144Y-95682790D01*
X124415668Y-95652804D01*
X124419422Y-95647788D01*
X124420185Y-95645192D01*
X124436819Y-95624550D01*
X124524550Y-95536819D01*
X124585873Y-95503334D01*
X124612231Y-95500500D01*
X126234218Y-95500500D01*
X126301257Y-95520185D01*
G37*
%TD.AperFunction*%
%TA.AperFunction,Conductor*%
G36*
X149727992Y-108101275D02*
G01*
X149730663Y-108100614D01*
X149761318Y-108111061D01*
X149792391Y-108120185D01*
X149794192Y-108122264D01*
X149796798Y-108123152D01*
X149816944Y-108148521D01*
X149838146Y-108172989D01*
X149838537Y-108175711D01*
X149840249Y-108177867D01*
X149843480Y-108210087D01*
X149848090Y-108242147D01*
X149847030Y-108245488D01*
X149847221Y-108247388D01*
X149835837Y-108280795D01*
X149758904Y-108431782D01*
X149693242Y-108633869D01*
X149693242Y-108633872D01*
X149660000Y-108843753D01*
X149660000Y-109056246D01*
X149693242Y-109266127D01*
X149693242Y-109266130D01*
X149758904Y-109468217D01*
X149855375Y-109657550D01*
X149894728Y-109711716D01*
X150527036Y-109079407D01*
X150544075Y-109142993D01*
X150609901Y-109257007D01*
X150702993Y-109350099D01*
X150817007Y-109415925D01*
X150880590Y-109432962D01*
X150248282Y-110065269D01*
X150248282Y-110065270D01*
X150302449Y-110104624D01*
X150491783Y-110201095D01*
X150508628Y-110206569D01*
X150566304Y-110246007D01*
X150593502Y-110310365D01*
X150581587Y-110379212D01*
X150534343Y-110430687D01*
X150470310Y-110448500D01*
X148874000Y-110448500D01*
X148806961Y-110428815D01*
X148761206Y-110376011D01*
X148750000Y-110324500D01*
X148750000Y-109479315D01*
X148750383Y-109469581D01*
X148750500Y-109468095D01*
X148750500Y-109233491D01*
X148750500Y-109231908D01*
X148750000Y-109228751D01*
X148750000Y-109181746D01*
X148741154Y-109172900D01*
X148713553Y-108998632D01*
X148640568Y-108774008D01*
X148640566Y-108774005D01*
X148640566Y-108774003D01*
X148584002Y-108662991D01*
X148533343Y-108563567D01*
X148394517Y-108372490D01*
X148334208Y-108312181D01*
X148300723Y-108250858D01*
X148305707Y-108181166D01*
X148347579Y-108125233D01*
X148413043Y-108100816D01*
X148421889Y-108100500D01*
X149725352Y-108100500D01*
X149727992Y-108101275D01*
G37*
%TD.AperFunction*%
%TA.AperFunction,Conductor*%
G36*
X152125270Y-109711717D02*
G01*
X152125270Y-109711716D01*
X152164622Y-109657555D01*
X152169232Y-109648507D01*
X152217205Y-109597709D01*
X152285025Y-109580912D01*
X152351161Y-109603447D01*
X152390204Y-109648504D01*
X152394949Y-109657817D01*
X152519890Y-109829786D01*
X152670213Y-109980109D01*
X152842179Y-110105048D01*
X152842181Y-110105049D01*
X152842184Y-110105051D01*
X152880355Y-110124500D01*
X153031583Y-110201555D01*
X153031585Y-110201555D01*
X153031588Y-110201557D01*
X153047016Y-110206570D01*
X153104690Y-110246007D01*
X153131888Y-110310366D01*
X153119973Y-110379212D01*
X153072729Y-110430688D01*
X153008696Y-110448500D01*
X151549690Y-110448500D01*
X151482651Y-110428815D01*
X151436896Y-110376011D01*
X151426952Y-110306853D01*
X151455977Y-110243297D01*
X151511372Y-110206569D01*
X151528216Y-110201095D01*
X151717554Y-110104622D01*
X151771716Y-110065270D01*
X151771717Y-110065270D01*
X151139408Y-109432962D01*
X151202993Y-109415925D01*
X151317007Y-109350099D01*
X151410099Y-109257007D01*
X151475925Y-109142993D01*
X151492962Y-109079409D01*
X152125270Y-109711717D01*
G37*
%TD.AperFunction*%
%TA.AperFunction,Conductor*%
G36*
X147032909Y-87770185D02*
G01*
X147078664Y-87822989D01*
X147089869Y-87874714D01*
X147065000Y-102125000D01*
X153690000Y-102150000D01*
X153708666Y-91454056D01*
X167821570Y-91454056D01*
X179253445Y-91454056D01*
X179253445Y-89341636D01*
X167821570Y-89341636D01*
X167821570Y-91454056D01*
X153708666Y-91454056D01*
X153714913Y-87874280D01*
X153734715Y-87807279D01*
X153787598Y-87761616D01*
X153838913Y-87750500D01*
X199125500Y-87750500D01*
X199192539Y-87770185D01*
X199238294Y-87822989D01*
X199249500Y-87874500D01*
X199249500Y-101370500D01*
X199229815Y-101437539D01*
X199177011Y-101483294D01*
X199125500Y-101494500D01*
X192474000Y-101494500D01*
X192473991Y-101494500D01*
X192473990Y-101494501D01*
X192366549Y-101506052D01*
X192366537Y-101506054D01*
X192315030Y-101517259D01*
X192243848Y-101540951D01*
X192224687Y-101547329D01*
X192185529Y-101553675D01*
X190608902Y-101553675D01*
X190541863Y-101533990D01*
X190521221Y-101517356D01*
X190337114Y-101333249D01*
X190337086Y-101333219D01*
X190169882Y-101166015D01*
X190169875Y-101166009D01*
X189985745Y-101024721D01*
X189985743Y-101024720D01*
X189784769Y-100908689D01*
X189784758Y-100908683D01*
X189784752Y-100908680D01*
X189784746Y-100908677D01*
X189784743Y-100908676D01*
X189776538Y-100905277D01*
X189722138Y-100861432D01*
X189700079Y-100795136D01*
X189700000Y-100790720D01*
X189700000Y-94585162D01*
X191890062Y-94585162D01*
X198253078Y-94585162D01*
X198253078Y-92998352D01*
X191890062Y-92998352D01*
X191890062Y-94585162D01*
X189700000Y-94585162D01*
X189700000Y-93900000D01*
X183700000Y-93900000D01*
X183700000Y-100146773D01*
X183680315Y-100213812D01*
X183627511Y-100259567D01*
X183558353Y-100269511D01*
X183494797Y-100240486D01*
X183488319Y-100234454D01*
X183086319Y-99832454D01*
X183052834Y-99771131D01*
X183050000Y-99744773D01*
X183050000Y-93950000D01*
X170800000Y-93950000D01*
X170800000Y-102000000D01*
X180194773Y-102000000D01*
X180261812Y-102019685D01*
X180282454Y-102036319D01*
X181913566Y-103667431D01*
X181913603Y-103667470D01*
X182080117Y-103833984D01*
X182080124Y-103833990D01*
X182264250Y-103975275D01*
X182264252Y-103975276D01*
X182303634Y-103998013D01*
X182465248Y-104091321D01*
X182679670Y-104180137D01*
X182903851Y-104240207D01*
X183133955Y-104270501D01*
X183133962Y-104270501D01*
X183369885Y-104270501D01*
X183369917Y-104270500D01*
X183576000Y-104270500D01*
X183643039Y-104290185D01*
X183688794Y-104342989D01*
X183700000Y-104394500D01*
X183700000Y-110324500D01*
X183680315Y-110391539D01*
X183627511Y-110437294D01*
X183576000Y-110448500D01*
X158922889Y-110448500D01*
X158855850Y-110428815D01*
X158810095Y-110376011D01*
X158800151Y-110306853D01*
X158829176Y-110243297D01*
X158835208Y-110236819D01*
X158844517Y-110227510D01*
X158983343Y-110036433D01*
X159090568Y-109825992D01*
X159163553Y-109601368D01*
X159171043Y-109554076D01*
X159200500Y-109368097D01*
X159200500Y-109131902D01*
X159163553Y-108898631D01*
X159115513Y-108750781D01*
X159090568Y-108674008D01*
X159090566Y-108674005D01*
X159090566Y-108674003D01*
X159027332Y-108549901D01*
X158983343Y-108463567D01*
X158844517Y-108272490D01*
X158677510Y-108105483D01*
X158486433Y-107966657D01*
X158275996Y-107859433D01*
X158051368Y-107786446D01*
X157818097Y-107749500D01*
X157818092Y-107749500D01*
X157581908Y-107749500D01*
X157581903Y-107749500D01*
X157348631Y-107786446D01*
X157124003Y-107859433D01*
X156913566Y-107966657D01*
X156809664Y-108042147D01*
X156722490Y-108105483D01*
X156722488Y-108105485D01*
X156722487Y-108105485D01*
X156555485Y-108272487D01*
X156555485Y-108272488D01*
X156555483Y-108272490D01*
X156526646Y-108312181D01*
X156416657Y-108463566D01*
X156309433Y-108674003D01*
X156236446Y-108898631D01*
X156199500Y-109131902D01*
X156199500Y-109368097D01*
X156236446Y-109601368D01*
X156309433Y-109825996D01*
X156398348Y-110000500D01*
X156416657Y-110036433D01*
X156555483Y-110227510D01*
X156555485Y-110227512D01*
X156564792Y-110236819D01*
X156598277Y-110298142D01*
X156593293Y-110367834D01*
X156551421Y-110423767D01*
X156485957Y-110448184D01*
X156477111Y-110448500D01*
X154091304Y-110448500D01*
X154024265Y-110428815D01*
X153978510Y-110376011D01*
X153968566Y-110306853D01*
X153997591Y-110243297D01*
X154052983Y-110206570D01*
X154068412Y-110201557D01*
X154257816Y-110105051D01*
X154331365Y-110051615D01*
X154429786Y-109980109D01*
X154429788Y-109980106D01*
X154429792Y-109980104D01*
X154580104Y-109829792D01*
X154580106Y-109829788D01*
X154580109Y-109829786D01*
X154705048Y-109657820D01*
X154705050Y-109657817D01*
X154705051Y-109657816D01*
X154801557Y-109468412D01*
X154867246Y-109266243D01*
X154900500Y-109056287D01*
X154900500Y-108843713D01*
X154867246Y-108633757D01*
X154801557Y-108431588D01*
X154705051Y-108242184D01*
X154705049Y-108242181D01*
X154705048Y-108242179D01*
X154580109Y-108070213D01*
X154429790Y-107919894D01*
X154429785Y-107919890D01*
X154424891Y-107916334D01*
X154382227Y-107861003D01*
X154376249Y-107791390D01*
X154408857Y-107729595D01*
X154458774Y-107698312D01*
X154469334Y-107694814D01*
X154618656Y-107602712D01*
X154742712Y-107478656D01*
X154834814Y-107329334D01*
X154889999Y-107162797D01*
X154900500Y-107060009D01*
X154900499Y-106172229D01*
X154920183Y-106105191D01*
X154936818Y-106084549D01*
X155383586Y-105637782D01*
X155832952Y-105188416D01*
X155893004Y-105098540D01*
X155915084Y-105065495D01*
X155971658Y-104928913D01*
X155997301Y-104800000D01*
X156000500Y-104783920D01*
X156000500Y-102124000D01*
X156020185Y-102056961D01*
X156072989Y-102011206D01*
X156124500Y-102000000D01*
X159336611Y-102000000D01*
X159403650Y-102019685D01*
X159424292Y-102036319D01*
X159522490Y-102134517D01*
X159713567Y-102273343D01*
X159788158Y-102311349D01*
X159924003Y-102380566D01*
X159924005Y-102380566D01*
X159924008Y-102380568D01*
X160044412Y-102419689D01*
X160148631Y-102453553D01*
X160381903Y-102490500D01*
X160381908Y-102490500D01*
X160618097Y-102490500D01*
X160851368Y-102453553D01*
X160915008Y-102432875D01*
X161075992Y-102380568D01*
X161286433Y-102273343D01*
X161477510Y-102134517D01*
X161575708Y-102036319D01*
X161637031Y-102002834D01*
X161663389Y-102000000D01*
X161900000Y-102000000D01*
X161900000Y-101556602D01*
X161906068Y-101518286D01*
X161963553Y-101341368D01*
X161973836Y-101276446D01*
X162000500Y-101108097D01*
X162000500Y-98331902D01*
X161975359Y-98173174D01*
X161963553Y-98098632D01*
X161963552Y-98098628D01*
X161963552Y-98098627D01*
X161906069Y-97921714D01*
X161900000Y-97883396D01*
X161900000Y-93900000D01*
X158385381Y-93900000D01*
X158329086Y-93886484D01*
X158276001Y-93859435D01*
X158051368Y-93786446D01*
X157818097Y-93749500D01*
X157818092Y-93749500D01*
X157581908Y-93749500D01*
X157581903Y-93749500D01*
X157348631Y-93786446D01*
X157123998Y-93859435D01*
X157070914Y-93886484D01*
X157014619Y-93900000D01*
X155800000Y-93900000D01*
X155800000Y-99087270D01*
X155780315Y-99154309D01*
X155763681Y-99174951D01*
X154667048Y-100271583D01*
X154648238Y-100299735D01*
X154629553Y-100327701D01*
X154584919Y-100394499D01*
X154584912Y-100394511D01*
X154528343Y-100531082D01*
X154528340Y-100531092D01*
X154499500Y-100676079D01*
X154499500Y-104347769D01*
X154479815Y-104414808D01*
X154463181Y-104435450D01*
X153875450Y-105023181D01*
X153814127Y-105056666D01*
X153787769Y-105059500D01*
X152899998Y-105059500D01*
X152899980Y-105059501D01*
X152797203Y-105070000D01*
X152797200Y-105070001D01*
X152630668Y-105125185D01*
X152630663Y-105125187D01*
X152481342Y-105217289D01*
X152357289Y-105341342D01*
X152265187Y-105490663D01*
X152265185Y-105490668D01*
X152253659Y-105525451D01*
X152210001Y-105657203D01*
X152210001Y-105657204D01*
X152210000Y-105657204D01*
X152199500Y-105759983D01*
X152199500Y-106483330D01*
X152179815Y-106550369D01*
X152127011Y-106596124D01*
X152057853Y-106606068D01*
X152051311Y-106604948D01*
X152023919Y-106599500D01*
X152023918Y-106599500D01*
X146312230Y-106599500D01*
X146245191Y-106579815D01*
X146224549Y-106563181D01*
X145186819Y-105525451D01*
X145153334Y-105464128D01*
X145150500Y-105437770D01*
X145150500Y-104731947D01*
X145750000Y-104731947D01*
X145750000Y-104968052D01*
X145786934Y-105201247D01*
X145859897Y-105425802D01*
X145967087Y-105636174D01*
X146027338Y-105719104D01*
X146027340Y-105719105D01*
X146726212Y-105020233D01*
X146737482Y-105062292D01*
X146809890Y-105187708D01*
X146912292Y-105290110D01*
X147037708Y-105362518D01*
X147079765Y-105373787D01*
X146380893Y-106072658D01*
X146463828Y-106132914D01*
X146674197Y-106240102D01*
X146898752Y-106313065D01*
X146898751Y-106313065D01*
X147131948Y-106350000D01*
X147368052Y-106350000D01*
X147601247Y-106313065D01*
X147825802Y-106240102D01*
X148036163Y-106132918D01*
X148036169Y-106132914D01*
X148119104Y-106072658D01*
X148119105Y-106072658D01*
X147420233Y-105373787D01*
X147462292Y-105362518D01*
X147587708Y-105290110D01*
X147690110Y-105187708D01*
X147762518Y-105062292D01*
X147773787Y-105020234D01*
X148472658Y-105719105D01*
X148472658Y-105719104D01*
X148532914Y-105636169D01*
X148532918Y-105636163D01*
X148640102Y-105425802D01*
X148713065Y-105201247D01*
X148750000Y-104968052D01*
X148750000Y-104731947D01*
X148713065Y-104498752D01*
X148640102Y-104274197D01*
X148532914Y-104063828D01*
X148472658Y-103980894D01*
X148472658Y-103980893D01*
X147773787Y-104679765D01*
X147762518Y-104637708D01*
X147690110Y-104512292D01*
X147587708Y-104409890D01*
X147462292Y-104337482D01*
X147420234Y-104326212D01*
X148119105Y-103627340D01*
X148119104Y-103627338D01*
X148036174Y-103567087D01*
X147825802Y-103459897D01*
X147601247Y-103386934D01*
X147601248Y-103386934D01*
X147368052Y-103350000D01*
X147131948Y-103350000D01*
X146898752Y-103386934D01*
X146674197Y-103459897D01*
X146463830Y-103567084D01*
X146380894Y-103627340D01*
X147079766Y-104326212D01*
X147037708Y-104337482D01*
X146912292Y-104409890D01*
X146809890Y-104512292D01*
X146737482Y-104637708D01*
X146726212Y-104679766D01*
X146027340Y-103980894D01*
X145967084Y-104063830D01*
X145859897Y-104274197D01*
X145786934Y-104498752D01*
X145750000Y-104731947D01*
X145150500Y-104731947D01*
X145150500Y-104226079D01*
X145121659Y-104081092D01*
X145121658Y-104081088D01*
X145121658Y-104081087D01*
X145065084Y-103944505D01*
X145017694Y-103873580D01*
X145017694Y-103873579D01*
X144982950Y-103821581D01*
X142378420Y-101217051D01*
X142287178Y-101156086D01*
X142255495Y-101134916D01*
X142255488Y-101134912D01*
X142118917Y-101078343D01*
X142118907Y-101078340D01*
X141973920Y-101049500D01*
X141973918Y-101049500D01*
X134962229Y-101049500D01*
X134895190Y-101029815D01*
X134874548Y-101013181D01*
X133935824Y-100074457D01*
X133902339Y-100013134D01*
X133907323Y-99943442D01*
X133935825Y-99899094D01*
X133947139Y-99887781D01*
X134056631Y-99723914D01*
X134057651Y-99721450D01*
X134071893Y-99696014D01*
X134157692Y-99577925D01*
X134213022Y-99535262D01*
X134233813Y-99529198D01*
X134263035Y-99523386D01*
X134340232Y-99491409D01*
X134367526Y-99480104D01*
X134367528Y-99480102D01*
X134377233Y-99476083D01*
X134480008Y-99407411D01*
X134567411Y-99320008D01*
X135487410Y-98400009D01*
X135494190Y-98389863D01*
X135556083Y-98297233D01*
X135603385Y-98183035D01*
X135603385Y-98183032D01*
X135603387Y-98183028D01*
X135615153Y-98123877D01*
X135615153Y-98123876D01*
X135627500Y-98061806D01*
X135627500Y-88938194D01*
X135603386Y-88816970D01*
X135603385Y-88816969D01*
X135603385Y-88816965D01*
X135603383Y-88816960D01*
X135556086Y-88702773D01*
X135556079Y-88702760D01*
X135487412Y-88599993D01*
X135456566Y-88569147D01*
X135400008Y-88512589D01*
X134849600Y-87962181D01*
X134816115Y-87900858D01*
X134821099Y-87831166D01*
X134862971Y-87775233D01*
X134928435Y-87750816D01*
X134937281Y-87750500D01*
X146965870Y-87750500D01*
X147032909Y-87770185D01*
G37*
%TD.AperFunction*%
%TA.AperFunction,Conductor*%
G36*
X105822774Y-87753452D02*
G01*
X105833180Y-87752200D01*
X105855723Y-87763127D01*
X105879757Y-87770185D01*
X105886619Y-87778104D01*
X105896052Y-87782677D01*
X105909109Y-87804059D01*
X105925512Y-87822989D01*
X105927003Y-87833361D01*
X105932466Y-87842307D01*
X105931890Y-87867350D01*
X105935456Y-87892147D01*
X105931101Y-87901681D01*
X105930861Y-87912159D01*
X105915466Y-87943918D01*
X105908807Y-87953773D01*
X105892589Y-87969992D01*
X105823917Y-88072767D01*
X105823917Y-88072768D01*
X105816793Y-88089965D01*
X105816789Y-88089972D01*
X105776614Y-88186964D01*
X105776612Y-88186972D01*
X105752899Y-88306185D01*
X105752900Y-88306186D01*
X105752500Y-88308198D01*
X105752500Y-88328038D01*
X105732815Y-88395077D01*
X105684798Y-88438521D01*
X105672182Y-88444949D01*
X105500213Y-88569890D01*
X105349890Y-88720213D01*
X105224949Y-88892182D01*
X105220202Y-88901499D01*
X105172227Y-88952293D01*
X105104405Y-88969087D01*
X105038271Y-88946548D01*
X104999234Y-88901495D01*
X104994626Y-88892452D01*
X104955270Y-88838282D01*
X104955269Y-88838282D01*
X104322962Y-89470590D01*
X104305925Y-89407007D01*
X104240099Y-89292993D01*
X104147007Y-89199901D01*
X104032993Y-89134075D01*
X103969409Y-89117037D01*
X104601716Y-88484728D01*
X104547550Y-88445375D01*
X104358217Y-88348904D01*
X104156129Y-88283242D01*
X103946246Y-88250000D01*
X103733754Y-88250000D01*
X103523872Y-88283242D01*
X103523869Y-88283242D01*
X103321782Y-88348904D01*
X103132439Y-88445380D01*
X103078282Y-88484727D01*
X103078282Y-88484728D01*
X103710591Y-89117037D01*
X103647007Y-89134075D01*
X103532993Y-89199901D01*
X103439901Y-89292993D01*
X103374075Y-89407007D01*
X103357037Y-89470591D01*
X102724728Y-88838282D01*
X102724727Y-88838282D01*
X102685380Y-88892439D01*
X102588904Y-89081782D01*
X102523242Y-89283869D01*
X102523242Y-89283872D01*
X102490000Y-89493753D01*
X102490000Y-89706246D01*
X102523242Y-89916127D01*
X102523242Y-89916130D01*
X102588904Y-90118217D01*
X102685375Y-90307550D01*
X102724728Y-90361716D01*
X103357037Y-89729408D01*
X103374075Y-89792993D01*
X103439901Y-89907007D01*
X103532993Y-90000099D01*
X103647007Y-90065925D01*
X103710590Y-90082962D01*
X103078282Y-90715269D01*
X103078282Y-90715270D01*
X103132449Y-90754624D01*
X103321782Y-90851095D01*
X103523870Y-90916757D01*
X103733754Y-90950000D01*
X103946246Y-90950000D01*
X104156127Y-90916757D01*
X104156130Y-90916757D01*
X104358217Y-90851095D01*
X104547554Y-90754622D01*
X104601716Y-90715270D01*
X104601717Y-90715270D01*
X103969408Y-90082962D01*
X104032993Y-90065925D01*
X104147007Y-90000099D01*
X104240099Y-89907007D01*
X104305925Y-89792993D01*
X104322962Y-89729409D01*
X104955270Y-90361717D01*
X104955270Y-90361716D01*
X104994622Y-90307555D01*
X104999232Y-90298507D01*
X105047205Y-90247709D01*
X105115025Y-90230912D01*
X105181161Y-90253447D01*
X105220204Y-90298504D01*
X105224949Y-90307817D01*
X105349890Y-90479786D01*
X105500213Y-90630109D01*
X105672179Y-90755048D01*
X105672181Y-90755049D01*
X105672184Y-90755051D01*
X105861588Y-90851557D01*
X106063757Y-90917246D01*
X106273713Y-90950500D01*
X106273714Y-90950500D01*
X106486286Y-90950500D01*
X106486287Y-90950500D01*
X106696243Y-90917246D01*
X106898412Y-90851557D01*
X107087816Y-90755051D01*
X107142572Y-90715269D01*
X107259786Y-90630109D01*
X107259788Y-90630106D01*
X107259792Y-90630104D01*
X107410104Y-90479792D01*
X107410106Y-90479788D01*
X107410109Y-90479786D01*
X107535048Y-90307820D01*
X107535050Y-90307817D01*
X107535051Y-90307816D01*
X107539514Y-90299054D01*
X107587488Y-90248259D01*
X107655308Y-90231463D01*
X107721444Y-90253999D01*
X107760486Y-90299056D01*
X107764951Y-90307820D01*
X107889890Y-90479786D01*
X108040213Y-90630109D01*
X108212179Y-90755048D01*
X108212181Y-90755049D01*
X108212184Y-90755051D01*
X108401588Y-90851557D01*
X108603757Y-90917246D01*
X108813713Y-90950500D01*
X108813714Y-90950500D01*
X109026286Y-90950500D01*
X109026287Y-90950500D01*
X109236243Y-90917246D01*
X109438412Y-90851557D01*
X109627816Y-90755051D01*
X109682572Y-90715269D01*
X109799786Y-90630109D01*
X109799788Y-90630106D01*
X109799792Y-90630104D01*
X109950104Y-90479792D01*
X109950106Y-90479788D01*
X109950109Y-90479786D01*
X110075048Y-90307820D01*
X110075050Y-90307817D01*
X110075051Y-90307816D01*
X110079514Y-90299054D01*
X110127488Y-90248259D01*
X110195308Y-90231463D01*
X110261444Y-90253999D01*
X110300486Y-90299056D01*
X110304951Y-90307820D01*
X110429890Y-90479786D01*
X110580213Y-90630109D01*
X110752179Y-90755048D01*
X110752181Y-90755049D01*
X110752184Y-90755051D01*
X110941588Y-90851557D01*
X111143757Y-90917246D01*
X111353713Y-90950500D01*
X111353714Y-90950500D01*
X111566286Y-90950500D01*
X111566287Y-90950500D01*
X111776243Y-90917246D01*
X111978412Y-90851557D01*
X112167816Y-90755051D01*
X112316070Y-90647339D01*
X112339784Y-90630110D01*
X112339784Y-90630109D01*
X112339792Y-90630104D01*
X112453329Y-90516566D01*
X112514648Y-90483084D01*
X112584340Y-90488068D01*
X112640274Y-90529939D01*
X112657189Y-90560917D01*
X112706202Y-90692328D01*
X112706206Y-90692335D01*
X112792452Y-90807544D01*
X112792455Y-90807547D01*
X112907664Y-90893793D01*
X112907671Y-90893797D01*
X113042517Y-90944091D01*
X113042516Y-90944091D01*
X113049444Y-90944835D01*
X113102127Y-90950500D01*
X114897872Y-90950499D01*
X114957483Y-90944091D01*
X115092331Y-90893796D01*
X115207546Y-90807546D01*
X115293796Y-90692331D01*
X115297960Y-90681165D01*
X115339829Y-90625234D01*
X115405293Y-90600816D01*
X115414141Y-90600500D01*
X115884218Y-90600500D01*
X115951257Y-90620185D01*
X115971898Y-90636818D01*
X120472860Y-95137781D01*
X120472861Y-95137782D01*
X120548646Y-95213567D01*
X120612219Y-95277140D01*
X120709925Y-95342425D01*
X120776086Y-95386632D01*
X120871545Y-95426172D01*
X120958164Y-95462051D01*
X121117746Y-95493794D01*
X121151454Y-95500499D01*
X121151457Y-95500500D01*
X121151459Y-95500500D01*
X121348540Y-95500500D01*
X122187769Y-95500500D01*
X122217209Y-95509144D01*
X122247196Y-95515668D01*
X122252211Y-95519422D01*
X122254808Y-95520185D01*
X122275450Y-95536819D01*
X122324174Y-95585543D01*
X122357659Y-95646866D01*
X122352675Y-95716558D01*
X122324174Y-95760905D01*
X121262220Y-96822859D01*
X121262218Y-96822861D01*
X121226292Y-96858787D01*
X121122859Y-96962219D01*
X121013371Y-97126079D01*
X121013366Y-97126089D01*
X120963741Y-97245895D01*
X120948234Y-97283336D01*
X120948230Y-97283346D01*
X120937950Y-97308160D01*
X120937947Y-97308169D01*
X120899500Y-97501456D01*
X120899500Y-97874237D01*
X120879815Y-97941276D01*
X120875818Y-97947122D01*
X120787715Y-98068386D01*
X120694781Y-98250776D01*
X120631522Y-98445465D01*
X120599500Y-98647648D01*
X120599500Y-98852351D01*
X120631522Y-99054534D01*
X120694781Y-99249223D01*
X120787580Y-99431349D01*
X120787713Y-99431610D01*
X120875819Y-99552877D01*
X120899298Y-99618681D01*
X120899500Y-99625761D01*
X120899500Y-100754237D01*
X120879815Y-100821276D01*
X120875818Y-100827122D01*
X120787715Y-100948386D01*
X120694781Y-101130776D01*
X120631522Y-101325465D01*
X120599500Y-101527648D01*
X120599500Y-101732351D01*
X120631522Y-101934534D01*
X120694781Y-102129223D01*
X120705368Y-102150000D01*
X120787713Y-102311610D01*
X120875819Y-102432877D01*
X120899298Y-102498681D01*
X120899500Y-102505761D01*
X120899500Y-103284218D01*
X120879815Y-103351257D01*
X120863181Y-103371899D01*
X120271899Y-103963181D01*
X120210576Y-103996666D01*
X120184218Y-103999500D01*
X116776455Y-103999500D01*
X116679812Y-104018724D01*
X116583167Y-104037947D01*
X116583161Y-104037949D01*
X116529834Y-104060037D01*
X116529834Y-104060038D01*
X116487654Y-104077510D01*
X116401089Y-104113366D01*
X116401079Y-104113371D01*
X116237219Y-104222859D01*
X116189579Y-104270500D01*
X116097861Y-104362218D01*
X115437220Y-105022858D01*
X115437219Y-105022860D01*
X115437218Y-105022861D01*
X115361545Y-105098534D01*
X115312181Y-105147898D01*
X115250858Y-105181382D01*
X115181166Y-105176398D01*
X115125233Y-105134526D01*
X115100816Y-105069062D01*
X115100500Y-105060216D01*
X115100500Y-99369443D01*
X115120185Y-99302404D01*
X115172989Y-99256649D01*
X115242147Y-99246705D01*
X115263504Y-99251737D01*
X115347302Y-99279505D01*
X115347309Y-99279506D01*
X115450019Y-99289999D01*
X115849999Y-99289999D01*
X115850000Y-99289998D01*
X115850000Y-98373012D01*
X115907007Y-98405925D01*
X116034174Y-98440000D01*
X116165826Y-98440000D01*
X116292993Y-98405925D01*
X116350000Y-98373012D01*
X116350000Y-99289999D01*
X116749972Y-99289999D01*
X116749986Y-99289998D01*
X116852697Y-99279505D01*
X117019119Y-99224358D01*
X117019124Y-99224356D01*
X117168345Y-99132315D01*
X117292315Y-99008345D01*
X117384356Y-98859124D01*
X117384358Y-98859119D01*
X117439505Y-98692697D01*
X117439506Y-98692690D01*
X117449999Y-98589986D01*
X117450000Y-98589973D01*
X117450000Y-98190000D01*
X116533012Y-98190000D01*
X116565925Y-98132993D01*
X116600000Y-98005826D01*
X116600000Y-97874174D01*
X116565925Y-97747007D01*
X116533012Y-97690000D01*
X117449999Y-97690000D01*
X117449999Y-97290028D01*
X117449998Y-97290013D01*
X117439505Y-97187302D01*
X117384358Y-97020880D01*
X117384356Y-97020875D01*
X117292315Y-96871654D01*
X117178342Y-96757681D01*
X117144857Y-96696358D01*
X117149841Y-96626666D01*
X117178342Y-96582319D01*
X117292315Y-96468345D01*
X117384356Y-96319124D01*
X117384358Y-96319119D01*
X117439505Y-96152697D01*
X117439506Y-96152690D01*
X117449999Y-96049986D01*
X117450000Y-96049973D01*
X117450000Y-95650000D01*
X116350000Y-95650000D01*
X116350000Y-97506988D01*
X116292993Y-97474075D01*
X116165826Y-97440000D01*
X116034174Y-97440000D01*
X115907007Y-97474075D01*
X115850000Y-97506988D01*
X115850000Y-95150000D01*
X116350000Y-95150000D01*
X117449999Y-95150000D01*
X117449999Y-94750028D01*
X117449998Y-94750013D01*
X117439505Y-94647302D01*
X117384358Y-94480880D01*
X117384356Y-94480875D01*
X117292315Y-94331654D01*
X117168345Y-94207684D01*
X117019124Y-94115643D01*
X117019119Y-94115641D01*
X116852697Y-94060494D01*
X116852690Y-94060493D01*
X116749986Y-94050000D01*
X116350000Y-94050000D01*
X116350000Y-95150000D01*
X115850000Y-95150000D01*
X115850000Y-94050000D01*
X115450028Y-94050000D01*
X115450012Y-94050001D01*
X115347302Y-94060494D01*
X115180880Y-94115641D01*
X115180870Y-94115646D01*
X115151493Y-94133765D01*
X115084100Y-94152203D01*
X115017437Y-94131278D01*
X114998719Y-94115905D01*
X114907316Y-94024502D01*
X114907314Y-94024500D01*
X114850250Y-93991554D01*
X114793187Y-93958608D01*
X114717831Y-93938417D01*
X114665892Y-93924500D01*
X98665892Y-93924500D01*
X98534108Y-93924500D01*
X98406812Y-93958608D01*
X98292686Y-94024500D01*
X98201280Y-94115906D01*
X98139956Y-94149390D01*
X98070265Y-94144406D01*
X98048505Y-94133764D01*
X98019131Y-94115647D01*
X98019119Y-94115641D01*
X97852697Y-94060494D01*
X97852690Y-94060493D01*
X97749986Y-94050000D01*
X97350000Y-94050000D01*
X97350000Y-96700000D01*
X96850000Y-96700000D01*
X96850000Y-94050000D01*
X96450028Y-94050000D01*
X96450012Y-94050001D01*
X96347302Y-94060494D01*
X96180880Y-94115641D01*
X96180875Y-94115643D01*
X96031654Y-94207684D01*
X95907684Y-94331654D01*
X95815643Y-94480875D01*
X95815641Y-94480880D01*
X95760494Y-94647302D01*
X95760493Y-94647309D01*
X95750000Y-94750013D01*
X95750000Y-95220413D01*
X95749507Y-95222089D01*
X95749954Y-95223778D01*
X95739699Y-95255492D01*
X95730315Y-95287452D01*
X95728996Y-95288594D01*
X95728458Y-95290259D01*
X95702670Y-95311405D01*
X95677511Y-95333207D01*
X95675782Y-95333455D01*
X95674431Y-95334564D01*
X95641320Y-95338410D01*
X95608353Y-95343151D01*
X95606764Y-95342425D01*
X95605029Y-95342627D01*
X95575106Y-95327967D01*
X95544797Y-95314126D01*
X95543351Y-95312410D01*
X95542284Y-95311888D01*
X95536477Y-95304257D01*
X95519904Y-95284597D01*
X95517562Y-95280726D01*
X95483343Y-95213567D01*
X95448118Y-95165084D01*
X95344518Y-95022490D01*
X94802903Y-94480875D01*
X94286818Y-93964790D01*
X94253333Y-93903467D01*
X94250499Y-93877109D01*
X94250499Y-90402129D01*
X94250498Y-90402123D01*
X94250497Y-90402116D01*
X94244091Y-90342517D01*
X94241828Y-90336450D01*
X94193797Y-90207671D01*
X94193793Y-90207664D01*
X94107547Y-90092455D01*
X94107544Y-90092452D01*
X93992335Y-90006206D01*
X93992328Y-90006202D01*
X93857482Y-89955908D01*
X93857483Y-89955908D01*
X93797883Y-89949501D01*
X93797881Y-89949500D01*
X93797873Y-89949500D01*
X93797864Y-89949500D01*
X91702129Y-89949500D01*
X91702123Y-89949501D01*
X91642516Y-89955908D01*
X91507671Y-90006202D01*
X91507664Y-90006206D01*
X91392455Y-90092452D01*
X91392452Y-90092455D01*
X91306206Y-90207664D01*
X91306202Y-90207671D01*
X91255908Y-90342517D01*
X91249501Y-90402116D01*
X91249501Y-90402123D01*
X91249500Y-90402135D01*
X91249500Y-95097870D01*
X91249501Y-95097876D01*
X91255908Y-95157483D01*
X91306202Y-95292328D01*
X91306206Y-95292335D01*
X91392452Y-95407544D01*
X91392455Y-95407547D01*
X91507666Y-95493794D01*
X91507669Y-95493796D01*
X91574323Y-95518656D01*
X91584622Y-95522497D01*
X91628971Y-95550998D01*
X92663181Y-96585208D01*
X92696666Y-96646531D01*
X92699500Y-96672889D01*
X92699500Y-103218097D01*
X92736446Y-103451368D01*
X92809433Y-103675996D01*
X92897350Y-103848542D01*
X92916657Y-103886434D01*
X93049450Y-104069207D01*
X93055484Y-104077511D01*
X95058181Y-106080208D01*
X95091666Y-106141531D01*
X95094500Y-106167889D01*
X95094500Y-106970500D01*
X95074815Y-107037539D01*
X95022011Y-107083294D01*
X94970500Y-107094500D01*
X84374500Y-107094500D01*
X84307461Y-107074815D01*
X84261706Y-107022011D01*
X84250500Y-106970500D01*
X84250500Y-104668905D01*
X86250000Y-104668905D01*
X86250000Y-104931094D01*
X86284220Y-105191009D01*
X86284222Y-105191020D01*
X86352075Y-105444255D01*
X86452404Y-105686471D01*
X86452409Y-105686482D01*
X86583488Y-105913516D01*
X86583494Y-105913524D01*
X86670080Y-106026365D01*
X87564767Y-105131677D01*
X87576497Y-105159995D01*
X87659670Y-105284472D01*
X87765528Y-105390330D01*
X87890005Y-105473503D01*
X87918320Y-105485231D01*
X87023633Y-106379917D01*
X87023633Y-106379918D01*
X87136475Y-106466505D01*
X87136483Y-106466511D01*
X87363517Y-106597590D01*
X87363528Y-106597595D01*
X87605744Y-106697924D01*
X87858979Y-106765777D01*
X87858990Y-106765779D01*
X88118905Y-106799999D01*
X88118920Y-106800000D01*
X88381080Y-106800000D01*
X88381094Y-106799999D01*
X88641009Y-106765779D01*
X88641020Y-106765777D01*
X88894255Y-106697924D01*
X89136471Y-106597595D01*
X89136482Y-106597590D01*
X89363516Y-106466511D01*
X89363534Y-106466499D01*
X89476365Y-106379919D01*
X89476365Y-106379917D01*
X88581679Y-105485231D01*
X88609995Y-105473503D01*
X88734472Y-105390330D01*
X88840330Y-105284472D01*
X88923503Y-105159995D01*
X88935231Y-105131679D01*
X89829917Y-106026365D01*
X89829919Y-106026365D01*
X89916499Y-105913534D01*
X89916511Y-105913516D01*
X90047590Y-105686482D01*
X90047595Y-105686471D01*
X90147924Y-105444255D01*
X90215777Y-105191020D01*
X90215779Y-105191009D01*
X90249999Y-104931094D01*
X90250000Y-104931080D01*
X90250000Y-104668919D01*
X90249999Y-104668905D01*
X90215779Y-104408990D01*
X90215777Y-104408979D01*
X90147924Y-104155744D01*
X90047595Y-103913528D01*
X90047590Y-103913517D01*
X89916511Y-103686483D01*
X89916505Y-103686475D01*
X89829918Y-103573633D01*
X89829917Y-103573633D01*
X88935231Y-104468320D01*
X88923503Y-104440005D01*
X88840330Y-104315528D01*
X88734472Y-104209670D01*
X88609995Y-104126497D01*
X88581677Y-104114767D01*
X89476365Y-103220080D01*
X89363524Y-103133494D01*
X89363516Y-103133488D01*
X89136482Y-103002409D01*
X89136471Y-103002404D01*
X88894255Y-102902075D01*
X88641020Y-102834222D01*
X88641009Y-102834220D01*
X88381094Y-102800000D01*
X88118905Y-102800000D01*
X87858990Y-102834220D01*
X87858979Y-102834222D01*
X87605744Y-102902075D01*
X87363528Y-103002404D01*
X87363517Y-103002409D01*
X87136471Y-103133496D01*
X87023633Y-103220079D01*
X87023633Y-103220080D01*
X87918321Y-104114768D01*
X87890005Y-104126497D01*
X87765528Y-104209670D01*
X87659670Y-104315528D01*
X87576497Y-104440005D01*
X87564768Y-104468321D01*
X86670080Y-103573633D01*
X86670079Y-103573633D01*
X86583496Y-103686471D01*
X86452409Y-103913517D01*
X86452404Y-103913528D01*
X86352075Y-104155744D01*
X86284222Y-104408979D01*
X86284220Y-104408990D01*
X86250000Y-104668905D01*
X84250500Y-104668905D01*
X84250500Y-97300000D01*
X87270898Y-97300000D01*
X88316988Y-97300000D01*
X88284075Y-97357007D01*
X88250000Y-97484174D01*
X88250000Y-97615826D01*
X88284075Y-97742993D01*
X88316988Y-97800000D01*
X87270898Y-97800000D01*
X87286934Y-97901247D01*
X87359897Y-98125802D01*
X87467085Y-98336171D01*
X87605866Y-98527186D01*
X87772813Y-98694133D01*
X87963828Y-98832914D01*
X88174197Y-98940102D01*
X88398752Y-99013065D01*
X88398751Y-99013065D01*
X88631948Y-99050000D01*
X89600000Y-99050000D01*
X89600000Y-98050000D01*
X90100000Y-98050000D01*
X90100000Y-99050000D01*
X91068052Y-99050000D01*
X91301247Y-99013065D01*
X91525802Y-98940102D01*
X91736171Y-98832914D01*
X91927186Y-98694133D01*
X92094133Y-98527186D01*
X92232914Y-98336171D01*
X92340102Y-98125802D01*
X92413065Y-97901247D01*
X92429102Y-97800000D01*
X91383012Y-97800000D01*
X91415925Y-97742993D01*
X91450000Y-97615826D01*
X91450000Y-97484174D01*
X91415925Y-97357007D01*
X91383012Y-97300000D01*
X92429102Y-97300000D01*
X92413065Y-97198752D01*
X92340102Y-96974197D01*
X92232914Y-96763828D01*
X92094133Y-96572813D01*
X91927186Y-96405866D01*
X91736171Y-96267085D01*
X91525802Y-96159897D01*
X91301247Y-96086934D01*
X91301248Y-96086934D01*
X91068052Y-96050000D01*
X90100000Y-96050000D01*
X90100000Y-97050000D01*
X89600000Y-97050000D01*
X89600000Y-96050000D01*
X88631948Y-96050000D01*
X88398752Y-96086934D01*
X88174197Y-96159897D01*
X87963828Y-96267085D01*
X87772813Y-96405866D01*
X87605866Y-96572813D01*
X87467085Y-96763828D01*
X87359897Y-96974197D01*
X87286934Y-97198752D01*
X87270898Y-97300000D01*
X84250500Y-97300000D01*
X84250500Y-91531947D01*
X84950000Y-91531947D01*
X84950000Y-92500000D01*
X85950000Y-92500000D01*
X85950000Y-93000000D01*
X84950000Y-93000000D01*
X84950000Y-93968052D01*
X84986934Y-94201247D01*
X85059897Y-94425802D01*
X85167085Y-94636171D01*
X85305866Y-94827186D01*
X85472813Y-94994133D01*
X85663828Y-95132914D01*
X85874195Y-95240102D01*
X86098744Y-95313063D01*
X86098750Y-95313065D01*
X86200000Y-95329101D01*
X86200000Y-94283012D01*
X86257007Y-94315925D01*
X86384174Y-94350000D01*
X86515826Y-94350000D01*
X86642993Y-94315925D01*
X86700000Y-94283012D01*
X86700000Y-95329100D01*
X86801249Y-95313065D01*
X86801255Y-95313063D01*
X87025804Y-95240102D01*
X87236171Y-95132914D01*
X87427186Y-94994133D01*
X87594133Y-94827186D01*
X87732914Y-94636171D01*
X87840102Y-94425802D01*
X87913065Y-94201247D01*
X87950000Y-93968052D01*
X87950000Y-93000000D01*
X86950000Y-93000000D01*
X86950000Y-92500000D01*
X87950000Y-92500000D01*
X87950000Y-91531947D01*
X87913065Y-91298752D01*
X87840102Y-91074197D01*
X87732914Y-90863828D01*
X87594133Y-90672813D01*
X87427186Y-90505866D01*
X87236171Y-90367085D01*
X87025802Y-90259897D01*
X86801247Y-90186934D01*
X86700000Y-90170897D01*
X86700000Y-91216988D01*
X86642993Y-91184075D01*
X86515826Y-91150000D01*
X86384174Y-91150000D01*
X86257007Y-91184075D01*
X86200000Y-91216988D01*
X86200000Y-90170897D01*
X86098752Y-90186934D01*
X85874197Y-90259897D01*
X85663828Y-90367085D01*
X85472813Y-90505866D01*
X85305866Y-90672813D01*
X85167085Y-90863828D01*
X85059897Y-91074197D01*
X84986934Y-91298752D01*
X84950000Y-91531947D01*
X84250500Y-91531947D01*
X84250500Y-87874500D01*
X84270185Y-87807461D01*
X84322989Y-87761706D01*
X84374500Y-87750500D01*
X105812718Y-87750500D01*
X105822774Y-87753452D01*
G37*
%TD.AperFunction*%
%TA.AperFunction,Conductor*%
G36*
X131891445Y-99353732D02*
G01*
X131930485Y-99398787D01*
X132020474Y-99575403D01*
X132022308Y-99577927D01*
X132136172Y-99734646D01*
X132275354Y-99873828D01*
X132288385Y-99883295D01*
X132331050Y-99938622D01*
X132339500Y-99983613D01*
X132339500Y-100363918D01*
X132339500Y-100363920D01*
X132339499Y-100363920D01*
X132368340Y-100508907D01*
X132368343Y-100508917D01*
X132424914Y-100645492D01*
X132443799Y-100673755D01*
X132443800Y-100673758D01*
X132507046Y-100768414D01*
X132507052Y-100768421D01*
X133673050Y-101934417D01*
X134017048Y-102278415D01*
X134017049Y-102278416D01*
X134094554Y-102355921D01*
X134121585Y-102382952D01*
X134244498Y-102465080D01*
X134244511Y-102465087D01*
X134342708Y-102505761D01*
X134381087Y-102521658D01*
X134381091Y-102521658D01*
X134381092Y-102521659D01*
X134526079Y-102550500D01*
X134526082Y-102550500D01*
X141537770Y-102550500D01*
X141604809Y-102570185D01*
X141625451Y-102586819D01*
X143613181Y-104574549D01*
X143646666Y-104635872D01*
X143649500Y-104662230D01*
X143649500Y-105873918D01*
X143649500Y-105873920D01*
X143649499Y-105873920D01*
X143678340Y-106018907D01*
X143678343Y-106018917D01*
X143703043Y-106078548D01*
X143710512Y-106148017D01*
X143679236Y-106210496D01*
X143619147Y-106246148D01*
X143588482Y-106250000D01*
X141739291Y-106250000D01*
X141672252Y-106230315D01*
X141626497Y-106177511D01*
X141615673Y-106116272D01*
X141619105Y-106072658D01*
X140920233Y-105373787D01*
X140962292Y-105362518D01*
X141087708Y-105290110D01*
X141190110Y-105187708D01*
X141262518Y-105062292D01*
X141273787Y-105020234D01*
X141972658Y-105719105D01*
X141972658Y-105719104D01*
X142032914Y-105636169D01*
X142032918Y-105636163D01*
X142140102Y-105425802D01*
X142213065Y-105201247D01*
X142250000Y-104968052D01*
X142250000Y-104731947D01*
X142213065Y-104498752D01*
X142140102Y-104274197D01*
X142032914Y-104063828D01*
X141972658Y-103980894D01*
X141972658Y-103980893D01*
X141273787Y-104679765D01*
X141262518Y-104637708D01*
X141190110Y-104512292D01*
X141087708Y-104409890D01*
X140962292Y-104337482D01*
X140920234Y-104326212D01*
X141619105Y-103627340D01*
X141619104Y-103627338D01*
X141536174Y-103567087D01*
X141325802Y-103459897D01*
X141101247Y-103386934D01*
X141101248Y-103386934D01*
X140868052Y-103350000D01*
X140631948Y-103350000D01*
X140398752Y-103386934D01*
X140174197Y-103459897D01*
X139963830Y-103567084D01*
X139880894Y-103627340D01*
X140579766Y-104326212D01*
X140537708Y-104337482D01*
X140412292Y-104409890D01*
X140309890Y-104512292D01*
X140237482Y-104637708D01*
X140226212Y-104679766D01*
X139527340Y-103980894D01*
X139467084Y-104063830D01*
X139359897Y-104274197D01*
X139286934Y-104498752D01*
X139250000Y-104731947D01*
X139250000Y-104968052D01*
X139286934Y-105201247D01*
X139359897Y-105425802D01*
X139467087Y-105636174D01*
X139527338Y-105719104D01*
X139527340Y-105719105D01*
X140226212Y-105020233D01*
X140237482Y-105062292D01*
X140309890Y-105187708D01*
X140412292Y-105290110D01*
X140537708Y-105362518D01*
X140579765Y-105373787D01*
X139880893Y-106072658D01*
X139884326Y-106116272D01*
X139869961Y-106184649D01*
X139820910Y-106234405D01*
X139760708Y-106250000D01*
X137857500Y-106250000D01*
X137790461Y-106230315D01*
X137744706Y-106177511D01*
X137734762Y-106108353D01*
X137763787Y-106044797D01*
X137784615Y-106025682D01*
X137793926Y-106018917D01*
X137827510Y-105994517D01*
X137994517Y-105827510D01*
X138133343Y-105636433D01*
X138240568Y-105425992D01*
X138313553Y-105201368D01*
X138315717Y-105187708D01*
X138350500Y-104968097D01*
X138350500Y-104731902D01*
X138313553Y-104498631D01*
X138261192Y-104337482D01*
X138240568Y-104274008D01*
X138240566Y-104274005D01*
X138240566Y-104274003D01*
X138184002Y-104162991D01*
X138133343Y-104063567D01*
X137994517Y-103872490D01*
X137827510Y-103705483D01*
X137636433Y-103566657D01*
X137425996Y-103459433D01*
X137201368Y-103386446D01*
X136968097Y-103349500D01*
X136968092Y-103349500D01*
X136731908Y-103349500D01*
X136731903Y-103349500D01*
X136498631Y-103386446D01*
X136274003Y-103459433D01*
X136063566Y-103566657D01*
X135980047Y-103627338D01*
X135872490Y-103705483D01*
X135872488Y-103705485D01*
X135872487Y-103705485D01*
X135764792Y-103813181D01*
X135703469Y-103846666D01*
X135677111Y-103849500D01*
X131522889Y-103849500D01*
X131455850Y-103829815D01*
X131435208Y-103813181D01*
X131327512Y-103705485D01*
X131327510Y-103705483D01*
X131136433Y-103566657D01*
X130925996Y-103459433D01*
X130701368Y-103386446D01*
X130468097Y-103349500D01*
X130468092Y-103349500D01*
X130231908Y-103349500D01*
X130231903Y-103349500D01*
X129998631Y-103386446D01*
X129774003Y-103459433D01*
X129563566Y-103566657D01*
X129480047Y-103627338D01*
X129372490Y-103705483D01*
X129372488Y-103705485D01*
X129372487Y-103705485D01*
X129205485Y-103872487D01*
X129205485Y-103872488D01*
X129205483Y-103872490D01*
X129175675Y-103913517D01*
X129066657Y-104063566D01*
X128959433Y-104274003D01*
X128892431Y-104480214D01*
X128852993Y-104537889D01*
X128788634Y-104565087D01*
X128719788Y-104553172D01*
X128668312Y-104505928D01*
X128650500Y-104441895D01*
X128650500Y-100935269D01*
X128670185Y-100868230D01*
X128671398Y-100866378D01*
X128674703Y-100861432D01*
X128698013Y-100826547D01*
X128765894Y-100662666D01*
X128800500Y-100488691D01*
X128800500Y-100311309D01*
X128800500Y-100311306D01*
X128800499Y-100311304D01*
X128765896Y-100137341D01*
X128765893Y-100137332D01*
X128719207Y-100024620D01*
X128711738Y-99955151D01*
X128743014Y-99892672D01*
X128803103Y-99857020D01*
X128872928Y-99859514D01*
X128881219Y-99862606D01*
X128928165Y-99882052D01*
X129121118Y-99920433D01*
X129121455Y-99920500D01*
X129121458Y-99920501D01*
X129121460Y-99920501D01*
X129324655Y-99920501D01*
X129324675Y-99920500D01*
X129759301Y-99920500D01*
X129826340Y-99940185D01*
X129832186Y-99944182D01*
X129886459Y-99983613D01*
X129894595Y-99989524D01*
X130006347Y-100046464D01*
X130069970Y-100078882D01*
X130069972Y-100078882D01*
X130069975Y-100078884D01*
X130170317Y-100111487D01*
X130257173Y-100139709D01*
X130451578Y-100170500D01*
X130451583Y-100170500D01*
X130648422Y-100170500D01*
X130842826Y-100139709D01*
X130850142Y-100137332D01*
X131030025Y-100078884D01*
X131205405Y-99989524D01*
X131364646Y-99873828D01*
X131503828Y-99734646D01*
X131619524Y-99575405D01*
X131658199Y-99499500D01*
X131709515Y-99398787D01*
X131757489Y-99347990D01*
X131825310Y-99331195D01*
X131891445Y-99353732D01*
G37*
%TD.AperFunction*%
%TA.AperFunction,Conductor*%
G36*
X98099500Y-104578111D02*
G01*
X98079815Y-104645150D01*
X98027011Y-104690905D01*
X97957853Y-104700849D01*
X97894297Y-104671824D01*
X97887819Y-104665792D01*
X95736819Y-102514792D01*
X95703334Y-102453469D01*
X95700500Y-102427111D01*
X95700500Y-99800000D01*
X98099500Y-99800000D01*
X98099500Y-104578111D01*
G37*
%TD.AperFunction*%
%TA.AperFunction,Conductor*%
G36*
X128505758Y-88897185D02*
G01*
X128526400Y-88913819D01*
X129762083Y-90149502D01*
X129795568Y-90210825D01*
X129790584Y-90280517D01*
X129748712Y-90336450D01*
X129747292Y-90337498D01*
X129735354Y-90346171D01*
X129596174Y-90485351D01*
X129596174Y-90485352D01*
X129596172Y-90485354D01*
X129581269Y-90505866D01*
X129480476Y-90644594D01*
X129391117Y-90819970D01*
X129330290Y-91007173D01*
X129299500Y-91201577D01*
X129299500Y-91398422D01*
X129330290Y-91592826D01*
X129391117Y-91780029D01*
X129463211Y-91921520D01*
X129480476Y-91955405D01*
X129596172Y-92114646D01*
X129735354Y-92253828D01*
X129894595Y-92369524D01*
X130017992Y-92432397D01*
X130071213Y-92459515D01*
X130122009Y-92507489D01*
X130138804Y-92575310D01*
X130116267Y-92641445D01*
X130071213Y-92680485D01*
X129894594Y-92770476D01*
X129803741Y-92836485D01*
X129735354Y-92886172D01*
X129735352Y-92886174D01*
X129735351Y-92886174D01*
X129596171Y-93025354D01*
X129586703Y-93038387D01*
X129531372Y-93081052D01*
X129486386Y-93089500D01*
X127286080Y-93089500D01*
X127141092Y-93118340D01*
X127141082Y-93118343D01*
X127004511Y-93174912D01*
X127004499Y-93174919D01*
X126967712Y-93199500D01*
X126967711Y-93199501D01*
X126881579Y-93257051D01*
X126881578Y-93257052D01*
X126675451Y-93463181D01*
X126614128Y-93496666D01*
X126587770Y-93499500D01*
X124612231Y-93499500D01*
X124545192Y-93479815D01*
X124524550Y-93463182D01*
X124473377Y-93412009D01*
X124418656Y-93357288D01*
X124269334Y-93265186D01*
X124102797Y-93210001D01*
X124102795Y-93210000D01*
X124000010Y-93199500D01*
X122799998Y-93199500D01*
X122799981Y-93199501D01*
X122697203Y-93210000D01*
X122697200Y-93210001D01*
X122530668Y-93265185D01*
X122530663Y-93265187D01*
X122381345Y-93357287D01*
X122275450Y-93463182D01*
X122214127Y-93496666D01*
X122187769Y-93499500D01*
X121715783Y-93499500D01*
X121648744Y-93479815D01*
X121628102Y-93463181D01*
X120845125Y-92680204D01*
X118762602Y-90597682D01*
X122100000Y-90597682D01*
X122100000Y-90802317D01*
X122132009Y-91004417D01*
X122195244Y-91199031D01*
X122288141Y-91381350D01*
X122288147Y-91381359D01*
X122320523Y-91425921D01*
X122320524Y-91425922D01*
X123000000Y-90746446D01*
X123000000Y-90752661D01*
X123027259Y-90854394D01*
X123079920Y-90945606D01*
X123154394Y-91020080D01*
X123245606Y-91072741D01*
X123347339Y-91100000D01*
X123353553Y-91100000D01*
X122674076Y-91779474D01*
X122718650Y-91811859D01*
X122900968Y-91904755D01*
X123095582Y-91967990D01*
X123297683Y-92000000D01*
X123502317Y-92000000D01*
X123704417Y-91967990D01*
X123899031Y-91904755D01*
X124081349Y-91811859D01*
X124125921Y-91779474D01*
X123446447Y-91100000D01*
X123452661Y-91100000D01*
X123554394Y-91072741D01*
X123645606Y-91020080D01*
X123720080Y-90945606D01*
X123772741Y-90854394D01*
X123800000Y-90752661D01*
X123800000Y-90746447D01*
X124479474Y-91425921D01*
X124511859Y-91381349D01*
X124604755Y-91199031D01*
X124667990Y-91004417D01*
X124700000Y-90802317D01*
X124700000Y-90597682D01*
X124667990Y-90395582D01*
X124604755Y-90200968D01*
X124511859Y-90018650D01*
X124479474Y-89974077D01*
X124479474Y-89974076D01*
X123800000Y-90653551D01*
X123800000Y-90647339D01*
X123772741Y-90545606D01*
X123720080Y-90454394D01*
X123645606Y-90379920D01*
X123554394Y-90327259D01*
X123452661Y-90300000D01*
X123446446Y-90300000D01*
X124125922Y-89620524D01*
X124125921Y-89620523D01*
X124081359Y-89588147D01*
X124081350Y-89588141D01*
X123899031Y-89495244D01*
X123704417Y-89432009D01*
X123502317Y-89400000D01*
X123297683Y-89400000D01*
X123095582Y-89432009D01*
X122900968Y-89495244D01*
X122718644Y-89588143D01*
X122674077Y-89620523D01*
X122674077Y-89620524D01*
X123353554Y-90300000D01*
X123347339Y-90300000D01*
X123245606Y-90327259D01*
X123154394Y-90379920D01*
X123079920Y-90454394D01*
X123027259Y-90545606D01*
X123000000Y-90647339D01*
X123000000Y-90653553D01*
X122320524Y-89974077D01*
X122320523Y-89974077D01*
X122288143Y-90018644D01*
X122195244Y-90200968D01*
X122132009Y-90395582D01*
X122100000Y-90597682D01*
X118762602Y-90597682D01*
X117254100Y-89089180D01*
X117220616Y-89027858D01*
X117225600Y-88958166D01*
X117267472Y-88902233D01*
X117332936Y-88877816D01*
X117341782Y-88877500D01*
X128438719Y-88877500D01*
X128505758Y-88897185D01*
G37*
%TD.AperFunction*%
%TA.AperFunction,Conductor*%
G36*
X132690000Y-91352661D02*
G01*
X132717259Y-91454394D01*
X132769920Y-91545606D01*
X132844394Y-91620080D01*
X132935606Y-91672741D01*
X133037339Y-91700000D01*
X133043553Y-91700000D01*
X132399873Y-92343677D01*
X132399873Y-92343678D01*
X132434858Y-92369096D01*
X132611764Y-92459234D01*
X132662560Y-92507209D01*
X132679355Y-92575030D01*
X132656818Y-92641164D01*
X132611764Y-92680204D01*
X132434594Y-92770476D01*
X132343741Y-92836485D01*
X132275354Y-92886172D01*
X132275352Y-92886174D01*
X132275351Y-92886174D01*
X132136174Y-93025351D01*
X132136174Y-93025352D01*
X132136172Y-93025354D01*
X132126703Y-93038387D01*
X132020476Y-93184594D01*
X131930485Y-93361213D01*
X131882511Y-93412009D01*
X131814690Y-93428804D01*
X131748555Y-93406267D01*
X131709515Y-93361213D01*
X131656440Y-93257048D01*
X131619524Y-93184595D01*
X131503828Y-93025354D01*
X131364646Y-92886172D01*
X131285025Y-92828324D01*
X131205403Y-92770474D01*
X131028787Y-92680485D01*
X130977990Y-92632511D01*
X130961195Y-92564690D01*
X130983732Y-92498555D01*
X131028787Y-92459515D01*
X131205403Y-92369525D01*
X131205402Y-92369525D01*
X131205405Y-92369524D01*
X131364646Y-92253828D01*
X131503828Y-92114646D01*
X131619524Y-91955405D01*
X131708884Y-91780025D01*
X131708884Y-91780022D01*
X131709795Y-91778236D01*
X131757769Y-91727440D01*
X131825590Y-91710644D01*
X131891725Y-91733181D01*
X131930765Y-91778235D01*
X132020905Y-91955145D01*
X132046319Y-91990125D01*
X132046320Y-91990125D01*
X132690000Y-91346445D01*
X132690000Y-91352661D01*
G37*
%TD.AperFunction*%
%TA.AperFunction,Conductor*%
G36*
X134133678Y-91990126D02*
G01*
X134133678Y-91990125D01*
X134148182Y-91970164D01*
X134203512Y-91927499D01*
X134273126Y-91921520D01*
X134334921Y-91954126D01*
X134369278Y-92014965D01*
X134372500Y-92043050D01*
X134372500Y-93096098D01*
X134352815Y-93163137D01*
X134300011Y-93208892D01*
X134230853Y-93218836D01*
X134167297Y-93189811D01*
X134148182Y-93168984D01*
X134053297Y-93038387D01*
X134043828Y-93025354D01*
X133904646Y-92886172D01*
X133745405Y-92770476D01*
X133570025Y-92681116D01*
X133570024Y-92681115D01*
X133568235Y-92680204D01*
X133517439Y-92632230D01*
X133500644Y-92564409D01*
X133523181Y-92498274D01*
X133568236Y-92459234D01*
X133745141Y-92369097D01*
X133780125Y-92343678D01*
X133780126Y-92343678D01*
X133136448Y-91700000D01*
X133142661Y-91700000D01*
X133244394Y-91672741D01*
X133335606Y-91620080D01*
X133410080Y-91545606D01*
X133462741Y-91454394D01*
X133490000Y-91352661D01*
X133490000Y-91346448D01*
X134133678Y-91990126D01*
G37*
%TD.AperFunction*%
%TA.AperFunction,Conductor*%
G36*
X133555758Y-88447185D02*
G01*
X133576400Y-88463819D01*
X134336181Y-89223600D01*
X134369666Y-89284923D01*
X134372500Y-89311281D01*
X134372500Y-90556949D01*
X134352815Y-90623988D01*
X134300011Y-90669743D01*
X134230853Y-90679687D01*
X134167297Y-90650662D01*
X134148182Y-90629834D01*
X134133679Y-90609873D01*
X134133677Y-90609873D01*
X133490000Y-91253551D01*
X133490000Y-91247339D01*
X133462741Y-91145606D01*
X133410080Y-91054394D01*
X133335606Y-90979920D01*
X133244394Y-90927259D01*
X133142661Y-90900000D01*
X133136447Y-90900000D01*
X133780125Y-90256320D01*
X133780125Y-90256319D01*
X133745145Y-90230905D01*
X133569835Y-90141581D01*
X133382705Y-90080778D01*
X133188382Y-90050000D01*
X132991618Y-90050000D01*
X132797294Y-90080778D01*
X132610161Y-90141582D01*
X132434863Y-90230899D01*
X132434859Y-90230902D01*
X132399873Y-90256320D01*
X132399872Y-90256320D01*
X133043554Y-90900000D01*
X133037339Y-90900000D01*
X132935606Y-90927259D01*
X132844394Y-90979920D01*
X132769920Y-91054394D01*
X132717259Y-91145606D01*
X132690000Y-91247339D01*
X132690000Y-91253552D01*
X132046320Y-90609872D01*
X132046320Y-90609873D01*
X132020902Y-90644859D01*
X131930765Y-90821764D01*
X131882790Y-90872560D01*
X131814969Y-90889355D01*
X131748835Y-90866818D01*
X131709795Y-90821763D01*
X131619525Y-90644596D01*
X131594296Y-90609872D01*
X131503828Y-90485354D01*
X131364646Y-90346172D01*
X131274280Y-90280517D01*
X131228614Y-90247338D01*
X131226857Y-90245059D01*
X131224195Y-90243973D01*
X131205652Y-90217559D01*
X131185949Y-90192007D01*
X131185200Y-90188427D01*
X131184050Y-90186788D01*
X131181048Y-90168564D01*
X131177604Y-90152087D01*
X131177500Y-90149544D01*
X131177500Y-89988197D01*
X131171077Y-89955909D01*
X131163187Y-89916243D01*
X131153387Y-89866972D01*
X131153384Y-89866963D01*
X131106086Y-89752772D01*
X131106079Y-89752760D01*
X131037411Y-89649992D01*
X131037408Y-89649988D01*
X130026600Y-88639181D01*
X129993115Y-88577858D01*
X129998099Y-88508166D01*
X130039971Y-88452233D01*
X130105435Y-88427816D01*
X130114281Y-88427500D01*
X133488719Y-88427500D01*
X133555758Y-88447185D01*
G37*
%TD.AperFunction*%
%TD*%
M02*
