%TF.GenerationSoftware,KiCad,Pcbnew,9.0.4*%
%TF.CreationDate,2025-09-11T11:59:47+05:30*%
%TF.ProjectId,DimLED,44696d4c-4544-42e6-9b69-6361645f7063,Mark II.B*%
%TF.SameCoordinates,Original*%
%TF.FileFunction,Legend,Top*%
%TF.FilePolarity,Positive*%
%FSLAX46Y46*%
G04 Gerber Fmt 4.6, Leading zero omitted, Abs format (unit mm)*
G04 Created by KiCad (PCBNEW 9.0.4) date 2025-09-11 11:59:47*
%MOMM*%
%LPD*%
G01*
G04 APERTURE LIST*
%ADD10C,0.200000*%
%ADD11C,0.150000*%
%ADD12C,0.100000*%
%ADD13C,0.120000*%
G04 APERTURE END LIST*
D10*
X187300000Y-88750000D02*
X198300000Y-88750000D01*
X198300000Y-92250000D01*
X187300000Y-92250000D01*
X187300000Y-88750000D01*
G36*
X151948532Y-100597024D02*
G01*
X151973201Y-100621692D01*
X152008654Y-100692599D01*
X152050625Y-100860480D01*
X152050625Y-101073956D01*
X152008654Y-101241837D01*
X151973201Y-101312743D01*
X151948532Y-101337413D01*
X151888923Y-101367219D01*
X151840899Y-101367219D01*
X151781289Y-101337414D01*
X151756622Y-101312746D01*
X151721167Y-101241837D01*
X151679197Y-101073956D01*
X151679197Y-100860481D01*
X151721167Y-100692599D01*
X151756621Y-100621692D01*
X151781289Y-100597023D01*
X151840899Y-100567219D01*
X151888923Y-100567219D01*
X151948532Y-100597024D01*
G37*
G36*
X151043770Y-100597024D02*
G01*
X151068439Y-100621692D01*
X151098244Y-100681302D01*
X151098244Y-100776945D01*
X151068439Y-100836554D01*
X151043770Y-100861222D01*
X150984161Y-100891028D01*
X150726816Y-100891028D01*
X150726816Y-100567219D01*
X150984161Y-100567219D01*
X151043770Y-100597024D01*
G37*
G36*
X153312196Y-101678330D02*
G01*
X148558562Y-101678330D01*
X148558562Y-100467219D01*
X148669673Y-100467219D01*
X148669673Y-101467219D01*
X148671594Y-101486728D01*
X148686526Y-101522776D01*
X148714116Y-101550366D01*
X148750164Y-101565298D01*
X148769673Y-101567219D01*
X149245863Y-101567219D01*
X149265372Y-101565298D01*
X149301420Y-101550366D01*
X149329010Y-101522776D01*
X149343942Y-101486728D01*
X149343942Y-101447710D01*
X149329010Y-101411662D01*
X149301420Y-101384072D01*
X149265372Y-101369140D01*
X149245863Y-101367219D01*
X148869673Y-101367219D01*
X148869673Y-101043409D01*
X149103006Y-101043409D01*
X149122515Y-101041488D01*
X149158563Y-101026556D01*
X149186153Y-100998966D01*
X149201085Y-100962918D01*
X149201085Y-100923900D01*
X149186153Y-100887852D01*
X149158563Y-100860262D01*
X149122515Y-100845330D01*
X149103006Y-100843409D01*
X148869673Y-100843409D01*
X148869673Y-100657695D01*
X149526816Y-100657695D01*
X149526816Y-100752933D01*
X149528737Y-100772442D01*
X149530112Y-100775762D01*
X149530367Y-100779346D01*
X149537373Y-100797654D01*
X149584992Y-100892892D01*
X149590277Y-100901288D01*
X149591288Y-100903728D01*
X149593541Y-100906474D01*
X149595435Y-100909482D01*
X149597429Y-100911211D01*
X149603724Y-100918882D01*
X149651343Y-100966500D01*
X149659009Y-100972792D01*
X149660742Y-100974790D01*
X149663750Y-100976683D01*
X149666496Y-100978937D01*
X149668936Y-100979947D01*
X149677333Y-100985233D01*
X149772570Y-101032852D01*
X149773998Y-101033398D01*
X149774578Y-101033828D01*
X149782754Y-101036749D01*
X149790879Y-101039858D01*
X149791599Y-101039909D01*
X149793038Y-101040423D01*
X149972863Y-101085379D01*
X150043770Y-101120833D01*
X150068439Y-101145501D01*
X150098244Y-101205111D01*
X150098244Y-101253135D01*
X150068439Y-101312743D01*
X150043770Y-101337413D01*
X149984161Y-101367219D01*
X149785899Y-101367219D01*
X149658439Y-101324732D01*
X149639323Y-101320385D01*
X149600403Y-101323151D01*
X149565504Y-101340601D01*
X149539939Y-101370077D01*
X149527601Y-101407093D01*
X149530367Y-101446013D01*
X149547817Y-101480912D01*
X149577293Y-101506477D01*
X149595193Y-101514468D01*
X149738050Y-101562087D01*
X149747722Y-101564286D01*
X149750164Y-101565298D01*
X149753701Y-101565646D01*
X149757165Y-101566434D01*
X149759799Y-101566246D01*
X149769673Y-101567219D01*
X150007768Y-101567219D01*
X150027277Y-101565298D01*
X150030597Y-101563922D01*
X150034181Y-101563668D01*
X150052489Y-101556662D01*
X150147727Y-101509043D01*
X150156122Y-101503758D01*
X150158564Y-101502747D01*
X150161311Y-101500491D01*
X150164317Y-101498600D01*
X150166047Y-101496605D01*
X150173717Y-101490310D01*
X150221336Y-101442690D01*
X150227628Y-101435023D01*
X150229625Y-101433292D01*
X150231518Y-101430284D01*
X150233773Y-101427537D01*
X150234784Y-101425095D01*
X150240068Y-101416701D01*
X150287687Y-101321464D01*
X150294693Y-101303155D01*
X150294947Y-101299571D01*
X150296323Y-101296251D01*
X150298244Y-101276742D01*
X150298244Y-101181504D01*
X150296323Y-101161995D01*
X150294947Y-101158674D01*
X150294693Y-101155091D01*
X150287687Y-101136782D01*
X150240068Y-101041545D01*
X150234782Y-101033148D01*
X150233772Y-101030708D01*
X150231518Y-101027962D01*
X150229625Y-101024954D01*
X150227627Y-101023221D01*
X150221335Y-101015555D01*
X150173717Y-100967936D01*
X150166046Y-100961641D01*
X150164317Y-100959647D01*
X150161309Y-100957753D01*
X150158563Y-100955500D01*
X150156123Y-100954489D01*
X150147727Y-100949204D01*
X150052489Y-100901585D01*
X150051062Y-100901039D01*
X150050482Y-100900609D01*
X150042305Y-100897687D01*
X150034181Y-100894579D01*
X150033458Y-100894527D01*
X150032021Y-100894014D01*
X149852196Y-100849057D01*
X149781289Y-100813604D01*
X149756621Y-100788935D01*
X149726816Y-100729325D01*
X149726816Y-100681302D01*
X149756621Y-100621692D01*
X149781289Y-100597023D01*
X149840899Y-100567219D01*
X150039160Y-100567219D01*
X150166621Y-100609706D01*
X150185736Y-100614053D01*
X150224656Y-100611287D01*
X150259555Y-100593837D01*
X150285120Y-100564361D01*
X150297459Y-100527345D01*
X150294692Y-100488425D01*
X150284089Y-100467219D01*
X150526816Y-100467219D01*
X150526816Y-101467219D01*
X150528737Y-101486728D01*
X150543669Y-101522776D01*
X150571259Y-101550366D01*
X150607307Y-101565298D01*
X150646325Y-101565298D01*
X150682373Y-101550366D01*
X150709963Y-101522776D01*
X150724895Y-101486728D01*
X150726816Y-101467219D01*
X150726816Y-101091028D01*
X151007768Y-101091028D01*
X151027277Y-101089107D01*
X151030597Y-101087731D01*
X151034181Y-101087477D01*
X151052489Y-101080471D01*
X151147727Y-101032852D01*
X151156123Y-101027566D01*
X151158563Y-101026556D01*
X151161309Y-101024302D01*
X151164317Y-101022409D01*
X151166046Y-101020414D01*
X151173717Y-101014120D01*
X151221335Y-100966501D01*
X151227627Y-100958834D01*
X151229625Y-100957102D01*
X151231518Y-100954093D01*
X151233772Y-100951348D01*
X151234782Y-100948907D01*
X151240068Y-100940511D01*
X151286238Y-100848171D01*
X151479197Y-100848171D01*
X151479197Y-101086266D01*
X151479532Y-101089668D01*
X151479315Y-101091127D01*
X151480394Y-101098424D01*
X151481118Y-101105775D01*
X151481682Y-101107138D01*
X151482183Y-101110520D01*
X151529802Y-101300995D01*
X151530315Y-101302432D01*
X151530367Y-101303155D01*
X151533475Y-101311279D01*
X151536397Y-101319456D01*
X151536827Y-101320036D01*
X151537373Y-101321463D01*
X151584992Y-101416701D01*
X151590275Y-101425093D01*
X151591287Y-101427537D01*
X151593543Y-101430286D01*
X151595435Y-101433291D01*
X151597429Y-101435020D01*
X151603724Y-101442690D01*
X151651342Y-101490310D01*
X151659010Y-101496603D01*
X151660742Y-101498600D01*
X151663750Y-101500493D01*
X151666496Y-101502747D01*
X151668936Y-101503757D01*
X151677333Y-101509043D01*
X151772570Y-101556662D01*
X151790879Y-101563668D01*
X151794462Y-101563922D01*
X151797783Y-101565298D01*
X151817292Y-101567219D01*
X151912530Y-101567219D01*
X151932039Y-101565298D01*
X151935359Y-101563922D01*
X151938943Y-101563668D01*
X151957251Y-101556662D01*
X152052489Y-101509043D01*
X152060884Y-101503758D01*
X152063326Y-101502747D01*
X152066073Y-101500491D01*
X152069079Y-101498600D01*
X152070809Y-101496605D01*
X152078479Y-101490310D01*
X152126098Y-101442690D01*
X152132390Y-101435023D01*
X152134387Y-101433292D01*
X152136280Y-101430284D01*
X152138535Y-101427537D01*
X152139546Y-101425095D01*
X152144830Y-101416701D01*
X152192449Y-101321464D01*
X152192995Y-101320035D01*
X152193425Y-101319456D01*
X152196346Y-101311279D01*
X152199455Y-101303155D01*
X152199506Y-101302434D01*
X152200020Y-101300996D01*
X152247639Y-101110520D01*
X152248139Y-101107138D01*
X152248704Y-101105775D01*
X152249427Y-101098424D01*
X152250507Y-101091127D01*
X152250289Y-101089668D01*
X152250625Y-101086266D01*
X152250625Y-100848171D01*
X152250289Y-100844768D01*
X152250507Y-100843310D01*
X152249427Y-100836012D01*
X152248704Y-100828662D01*
X152248139Y-100827298D01*
X152247639Y-100823917D01*
X152226766Y-100740426D01*
X152432363Y-100740426D01*
X152435129Y-100779346D01*
X152452578Y-100814245D01*
X152482055Y-100839809D01*
X152519071Y-100852148D01*
X152557991Y-100849382D01*
X152576299Y-100842376D01*
X152671537Y-100794757D01*
X152679933Y-100789471D01*
X152682373Y-100788461D01*
X152685119Y-100786207D01*
X152688127Y-100784314D01*
X152689856Y-100782319D01*
X152697527Y-100776025D01*
X152717292Y-100756260D01*
X152717292Y-101367219D01*
X152531578Y-101367219D01*
X152512069Y-101369140D01*
X152476021Y-101384072D01*
X152448431Y-101411662D01*
X152433499Y-101447710D01*
X152433499Y-101486728D01*
X152448431Y-101522776D01*
X152476021Y-101550366D01*
X152512069Y-101565298D01*
X152531578Y-101567219D01*
X153103006Y-101567219D01*
X153122515Y-101565298D01*
X153158563Y-101550366D01*
X153186153Y-101522776D01*
X153201085Y-101486728D01*
X153201085Y-101447710D01*
X153186153Y-101411662D01*
X153158563Y-101384072D01*
X153122515Y-101369140D01*
X153103006Y-101367219D01*
X152917292Y-101367219D01*
X152917292Y-100467219D01*
X152917285Y-100467148D01*
X152917292Y-100467114D01*
X152917271Y-100467012D01*
X152915371Y-100447710D01*
X152911581Y-100438561D01*
X152909640Y-100428854D01*
X152904188Y-100420713D01*
X152900439Y-100411662D01*
X152893439Y-100404662D01*
X152887929Y-100396434D01*
X152879774Y-100390997D01*
X152872849Y-100384072D01*
X152863705Y-100380284D01*
X152855464Y-100374790D01*
X152845850Y-100372888D01*
X152836801Y-100369140D01*
X152826900Y-100369140D01*
X152817188Y-100367219D01*
X152807583Y-100369140D01*
X152797783Y-100369140D01*
X152788634Y-100372929D01*
X152778927Y-100374871D01*
X152770786Y-100380322D01*
X152761735Y-100384072D01*
X152754735Y-100391071D01*
X152746507Y-100396582D01*
X152734218Y-100411588D01*
X152734145Y-100411662D01*
X152734131Y-100411694D01*
X152734087Y-100411749D01*
X152644343Y-100546365D01*
X152567579Y-100623128D01*
X152486857Y-100663490D01*
X152470266Y-100673933D01*
X152444702Y-100703410D01*
X152432363Y-100740426D01*
X152226766Y-100740426D01*
X152200020Y-100633441D01*
X152199506Y-100632002D01*
X152199455Y-100631282D01*
X152196346Y-100623157D01*
X152193425Y-100614981D01*
X152192995Y-100614401D01*
X152192449Y-100612973D01*
X152144830Y-100517736D01*
X152139544Y-100509339D01*
X152138534Y-100506899D01*
X152136280Y-100504153D01*
X152134387Y-100501145D01*
X152132389Y-100499412D01*
X152126097Y-100491746D01*
X152078479Y-100444127D01*
X152070808Y-100437832D01*
X152069079Y-100435838D01*
X152066071Y-100433944D01*
X152063325Y-100431691D01*
X152060885Y-100430680D01*
X152052489Y-100425395D01*
X151957251Y-100377776D01*
X151938943Y-100370770D01*
X151935359Y-100370515D01*
X151932039Y-100369140D01*
X151912530Y-100367219D01*
X151817292Y-100367219D01*
X151797783Y-100369140D01*
X151794462Y-100370515D01*
X151790879Y-100370770D01*
X151772570Y-100377776D01*
X151677333Y-100425395D01*
X151668936Y-100430680D01*
X151666496Y-100431691D01*
X151663750Y-100433944D01*
X151660742Y-100435838D01*
X151659009Y-100437835D01*
X151651343Y-100444128D01*
X151603724Y-100491746D01*
X151597429Y-100499416D01*
X151595435Y-100501146D01*
X151593541Y-100504153D01*
X151591288Y-100506900D01*
X151590277Y-100509339D01*
X151584992Y-100517736D01*
X151537373Y-100612974D01*
X151536827Y-100614400D01*
X151536397Y-100614981D01*
X151533475Y-100623157D01*
X151530367Y-100631282D01*
X151530315Y-100632004D01*
X151529802Y-100633442D01*
X151482183Y-100823917D01*
X151481682Y-100827298D01*
X151481118Y-100828662D01*
X151480394Y-100836012D01*
X151479315Y-100843310D01*
X151479532Y-100844768D01*
X151479197Y-100848171D01*
X151286238Y-100848171D01*
X151287687Y-100845274D01*
X151294693Y-100826965D01*
X151294947Y-100823381D01*
X151296323Y-100820061D01*
X151298244Y-100800552D01*
X151298244Y-100657695D01*
X151296323Y-100638186D01*
X151294947Y-100634865D01*
X151294693Y-100631282D01*
X151287687Y-100612973D01*
X151240068Y-100517736D01*
X151234782Y-100509339D01*
X151233772Y-100506899D01*
X151231518Y-100504153D01*
X151229625Y-100501145D01*
X151227627Y-100499412D01*
X151221335Y-100491746D01*
X151173717Y-100444127D01*
X151166046Y-100437832D01*
X151164317Y-100435838D01*
X151161309Y-100433944D01*
X151158563Y-100431691D01*
X151156123Y-100430680D01*
X151147727Y-100425395D01*
X151052489Y-100377776D01*
X151034181Y-100370770D01*
X151030597Y-100370515D01*
X151027277Y-100369140D01*
X151007768Y-100367219D01*
X150626816Y-100367219D01*
X150607307Y-100369140D01*
X150571259Y-100384072D01*
X150543669Y-100411662D01*
X150528737Y-100447710D01*
X150526816Y-100467219D01*
X150284089Y-100467219D01*
X150277243Y-100453526D01*
X150247767Y-100427961D01*
X150229866Y-100419970D01*
X150087010Y-100372351D01*
X150077338Y-100370151D01*
X150074896Y-100369140D01*
X150071357Y-100368791D01*
X150067894Y-100368004D01*
X150065260Y-100368191D01*
X150055387Y-100367219D01*
X149817292Y-100367219D01*
X149797783Y-100369140D01*
X149794462Y-100370515D01*
X149790879Y-100370770D01*
X149772570Y-100377776D01*
X149677333Y-100425395D01*
X149668936Y-100430680D01*
X149666496Y-100431691D01*
X149663750Y-100433944D01*
X149660742Y-100435838D01*
X149659009Y-100437835D01*
X149651343Y-100444128D01*
X149603724Y-100491746D01*
X149597429Y-100499416D01*
X149595435Y-100501146D01*
X149593541Y-100504153D01*
X149591288Y-100506900D01*
X149590277Y-100509339D01*
X149584992Y-100517736D01*
X149537373Y-100612974D01*
X149530367Y-100631282D01*
X149530112Y-100634865D01*
X149528737Y-100638186D01*
X149526816Y-100657695D01*
X148869673Y-100657695D01*
X148869673Y-100567219D01*
X149245863Y-100567219D01*
X149265372Y-100565298D01*
X149301420Y-100550366D01*
X149329010Y-100522776D01*
X149343942Y-100486728D01*
X149343942Y-100447710D01*
X149329010Y-100411662D01*
X149301420Y-100384072D01*
X149265372Y-100369140D01*
X149245863Y-100367219D01*
X148769673Y-100367219D01*
X148750164Y-100369140D01*
X148714116Y-100384072D01*
X148686526Y-100411662D01*
X148671594Y-100447710D01*
X148669673Y-100467219D01*
X148558562Y-100467219D01*
X148558562Y-100256108D01*
X153312196Y-100256108D01*
X153312196Y-101678330D01*
G37*
D11*
X110793922Y-91469819D02*
X111365350Y-91469819D01*
X111079636Y-92469819D02*
X111079636Y-91469819D01*
X111603446Y-92469819D02*
X112127255Y-91803152D01*
X111603446Y-91803152D02*
X112127255Y-92469819D01*
D10*
G36*
X190384516Y-89734459D02*
G01*
X190504621Y-89771538D01*
X190615097Y-89833190D01*
X190717829Y-89921584D01*
X190802390Y-90027253D01*
X190861989Y-90141996D01*
X190898130Y-90267793D01*
X190910537Y-90407383D01*
X190896911Y-90549662D01*
X190856601Y-90681999D01*
X190788904Y-90806964D01*
X190608653Y-90573712D01*
X190152285Y-90573712D01*
X190511566Y-91036064D01*
X190387873Y-91076056D01*
X190254745Y-91089553D01*
X190138499Y-91079976D01*
X190029998Y-91051730D01*
X189927563Y-91004717D01*
X189829884Y-90937756D01*
X189743845Y-90854512D01*
X189677837Y-90761737D01*
X189630314Y-90658137D01*
X189600971Y-90541700D01*
X189590771Y-90409825D01*
X189603320Y-90262773D01*
X189639454Y-90133491D01*
X189698260Y-90018724D01*
X189780669Y-89916088D01*
X189881678Y-89830855D01*
X189992386Y-89770813D01*
X190114866Y-89734348D01*
X190252058Y-89721793D01*
X190384516Y-89734459D01*
G37*
G36*
X193960642Y-90628422D02*
G01*
X193426482Y-90628422D01*
X193694295Y-89935994D01*
X193960642Y-90628422D01*
G37*
G36*
X195568091Y-90544851D02*
G01*
X195671544Y-90571140D01*
X195740806Y-90608761D01*
X195794659Y-90664141D01*
X195826640Y-90730332D01*
X195837770Y-90810872D01*
X195828070Y-90882106D01*
X195800644Y-90938410D01*
X195755094Y-90983429D01*
X195695569Y-91012316D01*
X195594730Y-91033886D01*
X195434769Y-91042658D01*
X195339148Y-91042658D01*
X195339148Y-90534633D01*
X195418405Y-90534633D01*
X195568091Y-90544851D01*
G37*
G36*
X195523373Y-89775870D02*
G01*
X195586720Y-89795025D01*
X195632850Y-89823886D01*
X195668217Y-89864413D01*
X195689584Y-89913222D01*
X195697086Y-89972875D01*
X195689148Y-90036951D01*
X195666604Y-90089145D01*
X195629431Y-90132243D01*
X195580795Y-90162799D01*
X195513725Y-90183111D01*
X195422435Y-90190739D01*
X195339148Y-90190739D01*
X195339148Y-89768688D01*
X195437456Y-89768688D01*
X195523373Y-89775870D01*
G37*
G36*
X197891447Y-91788537D02*
G01*
X187709163Y-91788537D01*
X187709163Y-89768688D01*
X187931385Y-89768688D01*
X188287979Y-89768688D01*
X188287979Y-91410000D01*
X188676081Y-91410000D01*
X188676081Y-90404940D01*
X189205478Y-90404940D01*
X189205831Y-90409825D01*
X189217712Y-90574016D01*
X189253584Y-90730709D01*
X189312695Y-90877178D01*
X189395780Y-91015178D01*
X189504675Y-91145973D01*
X189630920Y-91258236D01*
X189767367Y-91344357D01*
X189915530Y-91406087D01*
X190077576Y-91443886D01*
X190256210Y-91456894D01*
X190433472Y-91443249D01*
X190596077Y-91403358D01*
X190746650Y-91337704D01*
X190924214Y-91566315D01*
X191377773Y-91566315D01*
X191256416Y-91410000D01*
X191654501Y-91410000D01*
X192594469Y-91410000D01*
X192722819Y-91410000D01*
X193120446Y-91410000D01*
X193284333Y-90995764D01*
X194104134Y-90995764D01*
X194261182Y-91410000D01*
X194658810Y-91410000D01*
X194189430Y-90190739D01*
X194956664Y-90190739D01*
X194956664Y-91042658D01*
X194956664Y-91410000D01*
X195519521Y-91410000D01*
X195681305Y-91401047D01*
X195805929Y-91377006D01*
X195900662Y-91341245D01*
X195986428Y-91288006D01*
X196061282Y-91219258D01*
X196126099Y-91133394D01*
X196174601Y-91037598D01*
X196179944Y-91018845D01*
X196406856Y-91018845D01*
X196491946Y-91162737D01*
X196582813Y-91271629D01*
X196679431Y-91351137D01*
X196789761Y-91409128D01*
X196913299Y-91444609D01*
X197053122Y-91456894D01*
X197188805Y-91446064D01*
X197306254Y-91415147D01*
X197408644Y-91365398D01*
X197498377Y-91296549D01*
X197573196Y-91210922D01*
X197625973Y-91116081D01*
X197658118Y-91010110D01*
X197669225Y-90890251D01*
X197656880Y-90767821D01*
X197620743Y-90657365D01*
X197558995Y-90553094D01*
X197456123Y-90433761D01*
X197190997Y-90204173D01*
X196982266Y-90021080D01*
X196910973Y-89947351D01*
X196885084Y-89900475D01*
X196876779Y-89852219D01*
X196888048Y-89805755D01*
X196924528Y-89761849D01*
X196977753Y-89732288D01*
X197047505Y-89721793D01*
X197117513Y-89732718D01*
X197189828Y-89767337D01*
X197267023Y-89831163D01*
X197350854Y-89932819D01*
X197633688Y-89680760D01*
X197522055Y-89561509D01*
X197424626Y-89478529D01*
X197339253Y-89424672D01*
X197246579Y-89385504D01*
X197151583Y-89362239D01*
X197053122Y-89354452D01*
X196938577Y-89364158D01*
X196836335Y-89392277D01*
X196744123Y-89438306D01*
X196660258Y-89503073D01*
X196589460Y-89582632D01*
X196540421Y-89667427D01*
X196511105Y-89758873D01*
X196501133Y-89859057D01*
X196511169Y-89952333D01*
X196542178Y-90047823D01*
X196596755Y-90147386D01*
X196669677Y-90239098D01*
X196802925Y-90371643D01*
X197020272Y-90557714D01*
X197174775Y-90691624D01*
X197242899Y-90765321D01*
X197281517Y-90835032D01*
X197293457Y-90900997D01*
X197286340Y-90947793D01*
X197264772Y-90991162D01*
X197226535Y-91032644D01*
X197179176Y-91063888D01*
X197124700Y-91082924D01*
X197061182Y-91089553D01*
X196976761Y-91075479D01*
X196894816Y-91031689D01*
X196812275Y-90951595D01*
X196727913Y-90823817D01*
X196406856Y-91018845D01*
X196179944Y-91018845D01*
X196203673Y-90935552D01*
X196213538Y-90825404D01*
X196203643Y-90710804D01*
X196175159Y-90610184D01*
X196128785Y-90520956D01*
X196064806Y-90443162D01*
X195977107Y-90371579D01*
X195861095Y-90306266D01*
X195957797Y-90218281D01*
X196018876Y-90130411D01*
X196054980Y-90032412D01*
X196067358Y-89921584D01*
X196055213Y-89807681D01*
X196019791Y-89706436D01*
X195960746Y-89614937D01*
X195882760Y-89538304D01*
X195788111Y-89479062D01*
X195673883Y-89436884D01*
X195528434Y-89411971D01*
X195272226Y-89401346D01*
X194956664Y-89401346D01*
X194956664Y-90190739D01*
X194189430Y-90190739D01*
X193885537Y-89401346D01*
X193497557Y-89401346D01*
X193024274Y-90628422D01*
X192722819Y-91410000D01*
X192594469Y-91410000D01*
X192594469Y-91042658D01*
X192036985Y-91042658D01*
X192036985Y-89401346D01*
X191654501Y-89401346D01*
X191654501Y-91410000D01*
X191256416Y-91410000D01*
X191028018Y-91115809D01*
X191123931Y-90992380D01*
X191197546Y-90861750D01*
X191250167Y-90722733D01*
X191282202Y-90573746D01*
X191293143Y-90412878D01*
X191280475Y-90238526D01*
X191243476Y-90078452D01*
X191182742Y-89930257D01*
X191097648Y-89792003D01*
X190986374Y-89662320D01*
X190856799Y-89549946D01*
X190720107Y-89464461D01*
X190575030Y-89403776D01*
X190419764Y-89366993D01*
X190252058Y-89354452D01*
X190113844Y-89363351D01*
X189981189Y-89389780D01*
X189852923Y-89433781D01*
X189728035Y-89495990D01*
X189611879Y-89573501D01*
X189509933Y-89662556D01*
X189421128Y-89763664D01*
X189344818Y-89877742D01*
X189283961Y-90000474D01*
X189240603Y-90128493D01*
X189214369Y-90262891D01*
X189205478Y-90404940D01*
X188676081Y-90404940D01*
X188676081Y-89768688D01*
X189042201Y-89768688D01*
X189042201Y-89401346D01*
X187931385Y-89401346D01*
X187931385Y-89768688D01*
X187709163Y-89768688D01*
X187709163Y-89132230D01*
X197891447Y-89132230D01*
X197891447Y-91788537D01*
G37*
D11*
X103486779Y-92088866D02*
X104248684Y-92088866D01*
D10*
G36*
X198506185Y-100669215D02*
G01*
X198594838Y-100689688D01*
X198663642Y-100720738D01*
X198716471Y-100761285D01*
X198763804Y-100819832D01*
X198798517Y-100889682D01*
X198820470Y-100973101D01*
X198828288Y-101073076D01*
X198822572Y-101159136D01*
X198806516Y-101231726D01*
X198781271Y-101293047D01*
X198745616Y-101348608D01*
X198705431Y-101390293D01*
X198660447Y-101420130D01*
X198609287Y-101439072D01*
X198532786Y-101452619D01*
X198422692Y-101457911D01*
X198311714Y-101457911D01*
X198311714Y-100661680D01*
X198392849Y-100661680D01*
X198506185Y-100669215D01*
G37*
G36*
X199208901Y-101826389D02*
G01*
X196254603Y-101826389D01*
X196254603Y-101687500D01*
X196393492Y-101687500D01*
X196980973Y-101687500D01*
X197163697Y-101687500D01*
X197849332Y-101687500D01*
X197849332Y-101457911D01*
X198073501Y-101457911D01*
X198073501Y-101687500D01*
X198361250Y-101687500D01*
X198526574Y-101683027D01*
X198636164Y-101671829D01*
X198704487Y-101656816D01*
X198767853Y-101631370D01*
X198829021Y-101594733D01*
X198888509Y-101545839D01*
X198940294Y-101488810D01*
X198984711Y-101421946D01*
X199021774Y-101344033D01*
X199048238Y-101261663D01*
X199064456Y-101173063D01*
X199070012Y-101077274D01*
X199064268Y-100975419D01*
X199047630Y-100882780D01*
X199020717Y-100798181D01*
X198983764Y-100720603D01*
X198935960Y-100647178D01*
X198883560Y-100586817D01*
X198826480Y-100538080D01*
X198764327Y-100499945D01*
X198698659Y-100473296D01*
X198612119Y-100451906D01*
X198499989Y-100437454D01*
X198356976Y-100432091D01*
X198073501Y-100432091D01*
X198073501Y-101457911D01*
X197849332Y-101457911D01*
X197401070Y-101457911D01*
X197401070Y-101120856D01*
X197849332Y-101120856D01*
X197849332Y-100891268D01*
X197401070Y-100891268D01*
X197401070Y-100661680D01*
X197849332Y-100661680D01*
X197849332Y-100432091D01*
X197163697Y-100432091D01*
X197163697Y-101687500D01*
X196980973Y-101687500D01*
X196980973Y-101457911D01*
X196632545Y-101457911D01*
X196632545Y-100432091D01*
X196393492Y-100432091D01*
X196393492Y-101687500D01*
X196254603Y-101687500D01*
X196254603Y-100293202D01*
X199208901Y-100293202D01*
X199208901Y-101826389D01*
G37*
D11*
X122519819Y-105889411D02*
X122519819Y-106460839D01*
X122519819Y-106175125D02*
X121519819Y-106175125D01*
X121519819Y-106175125D02*
X121662676Y-106270363D01*
X121662676Y-106270363D02*
X121757914Y-106365601D01*
X121757914Y-106365601D02*
X121805533Y-106460839D01*
X121519819Y-105270363D02*
X121519819Y-105175125D01*
X121519819Y-105175125D02*
X121567438Y-105079887D01*
X121567438Y-105079887D02*
X121615057Y-105032268D01*
X121615057Y-105032268D02*
X121710295Y-104984649D01*
X121710295Y-104984649D02*
X121900771Y-104937030D01*
X121900771Y-104937030D02*
X122138866Y-104937030D01*
X122138866Y-104937030D02*
X122329342Y-104984649D01*
X122329342Y-104984649D02*
X122424580Y-105032268D01*
X122424580Y-105032268D02*
X122472200Y-105079887D01*
X122472200Y-105079887D02*
X122519819Y-105175125D01*
X122519819Y-105175125D02*
X122519819Y-105270363D01*
X122519819Y-105270363D02*
X122472200Y-105365601D01*
X122472200Y-105365601D02*
X122424580Y-105413220D01*
X122424580Y-105413220D02*
X122329342Y-105460839D01*
X122329342Y-105460839D02*
X122138866Y-105508458D01*
X122138866Y-105508458D02*
X121900771Y-105508458D01*
X121900771Y-105508458D02*
X121710295Y-105460839D01*
X121710295Y-105460839D02*
X121615057Y-105413220D01*
X121615057Y-105413220D02*
X121567438Y-105365601D01*
X121567438Y-105365601D02*
X121519819Y-105270363D01*
X122519819Y-104508458D02*
X121519819Y-104508458D01*
X122138866Y-104413220D02*
X122519819Y-104127506D01*
X121853152Y-104127506D02*
X122234104Y-104508458D01*
D10*
G36*
X94774020Y-88265352D02*
G01*
X94822104Y-88274442D01*
X94851142Y-88286638D01*
X94882198Y-88313082D01*
X94900827Y-88347712D01*
X94907471Y-88393265D01*
X94902245Y-88433018D01*
X94887397Y-88465088D01*
X94863724Y-88490472D01*
X94832290Y-88507678D01*
X94790492Y-88516587D01*
X94707726Y-88520577D01*
X94631705Y-88520577D01*
X94631705Y-88261680D01*
X94699177Y-88261680D01*
X94774020Y-88265352D01*
G37*
G36*
X97356247Y-88265844D02*
G01*
X97399587Y-88275037D01*
X97431913Y-88292704D01*
X97456755Y-88318848D01*
X97472645Y-88351607D01*
X97478127Y-88390670D01*
X97472747Y-88434965D01*
X97458153Y-88467208D01*
X97435003Y-88490505D01*
X97404205Y-88505347D01*
X97354246Y-88516219D01*
X97277466Y-88520577D01*
X97202361Y-88520577D01*
X97202361Y-88261680D01*
X97268078Y-88261680D01*
X97356247Y-88265844D01*
G37*
G36*
X97907359Y-89426389D02*
G01*
X94253687Y-89426389D01*
X94253687Y-88520577D01*
X94392576Y-88520577D01*
X94392576Y-89287500D01*
X94631705Y-89287500D01*
X94631705Y-88750165D01*
X94800308Y-88744101D01*
X94883581Y-88730702D01*
X94958115Y-88701555D01*
X95019666Y-88661561D01*
X95070121Y-88610489D01*
X95107588Y-88549611D01*
X95130745Y-88478215D01*
X95138891Y-88393647D01*
X95132684Y-88316673D01*
X95114951Y-88249954D01*
X95086379Y-88191689D01*
X95046882Y-88140469D01*
X94999376Y-88100139D01*
X94942886Y-88069796D01*
X94880279Y-88051051D01*
X94784944Y-88037442D01*
X94646207Y-88032091D01*
X95277270Y-88032091D01*
X95561584Y-89287500D01*
X95788729Y-89287500D01*
X96015875Y-88475850D01*
X96247295Y-89287500D01*
X96476960Y-89287500D01*
X96649620Y-88520577D01*
X96963232Y-88520577D01*
X96963232Y-89287500D01*
X97202361Y-89287500D01*
X97202361Y-88750165D01*
X97224496Y-88750165D01*
X97507207Y-89287500D01*
X97768470Y-89287500D01*
X97471334Y-88724062D01*
X97547033Y-88689820D01*
X97605729Y-88648130D01*
X97650165Y-88599116D01*
X97682405Y-88541393D01*
X97702472Y-88473710D01*
X97709547Y-88393723D01*
X97703239Y-88317375D01*
X97685119Y-88250464D01*
X97655737Y-88191307D01*
X97615478Y-88139109D01*
X97568338Y-88098705D01*
X97513542Y-88068957D01*
X97452546Y-88050743D01*
X97357531Y-88037384D01*
X97216863Y-88032091D01*
X96963232Y-88032091D01*
X96963232Y-88520577D01*
X96649620Y-88520577D01*
X96759595Y-88032091D01*
X96523900Y-88032091D01*
X96344611Y-88833437D01*
X96117465Y-88032091D01*
X95918483Y-88032091D01*
X95693933Y-88833437D01*
X95512888Y-88032091D01*
X95277270Y-88032091D01*
X94646207Y-88032091D01*
X94392576Y-88032091D01*
X94392576Y-88520577D01*
X94253687Y-88520577D01*
X94253687Y-87893202D01*
X97907359Y-87893202D01*
X97907359Y-89426389D01*
G37*
D11*
X106308207Y-92469819D02*
X105974874Y-91993628D01*
X105736779Y-92469819D02*
X105736779Y-91469819D01*
X105736779Y-91469819D02*
X106117731Y-91469819D01*
X106117731Y-91469819D02*
X106212969Y-91517438D01*
X106212969Y-91517438D02*
X106260588Y-91565057D01*
X106260588Y-91565057D02*
X106308207Y-91660295D01*
X106308207Y-91660295D02*
X106308207Y-91803152D01*
X106308207Y-91803152D02*
X106260588Y-91898390D01*
X106260588Y-91898390D02*
X106212969Y-91946009D01*
X106212969Y-91946009D02*
X106117731Y-91993628D01*
X106117731Y-91993628D02*
X105736779Y-91993628D01*
X106641541Y-92469819D02*
X107165350Y-91803152D01*
X106641541Y-91803152D02*
X107165350Y-92469819D01*
X190073866Y-112380951D02*
X190073866Y-111619047D01*
X190454819Y-111999999D02*
X189692914Y-111999999D01*
D10*
G36*
X174727102Y-94497023D02*
G01*
X174791281Y-94561202D01*
X174829196Y-94712861D01*
X174829196Y-95021575D01*
X174791280Y-95173235D01*
X174727104Y-95237413D01*
X174667494Y-95267219D01*
X174524232Y-95267219D01*
X174464622Y-95237414D01*
X174400445Y-95173236D01*
X174362530Y-95021575D01*
X174362530Y-94712862D01*
X174400445Y-94561202D01*
X174464624Y-94497023D01*
X174524232Y-94467219D01*
X174667494Y-94467219D01*
X174727102Y-94497023D01*
G37*
G36*
X176092688Y-95578330D02*
G01*
X169813324Y-95578330D01*
X169813324Y-94367114D01*
X169924435Y-94367114D01*
X169932007Y-94405391D01*
X169941230Y-94422689D01*
X170237583Y-94867219D01*
X169941230Y-95311749D01*
X169932007Y-95329047D01*
X169924435Y-95367324D01*
X169932087Y-95405584D01*
X169953798Y-95438004D01*
X169986263Y-95459647D01*
X170024540Y-95467219D01*
X170062800Y-95459567D01*
X170095220Y-95437856D01*
X170107640Y-95422689D01*
X170357768Y-95047496D01*
X170607896Y-95422689D01*
X170620316Y-95437856D01*
X170652736Y-95459567D01*
X170690996Y-95467219D01*
X170729273Y-95459647D01*
X170761738Y-95438004D01*
X170783449Y-95405584D01*
X170791101Y-95367324D01*
X170783529Y-95329047D01*
X170774306Y-95311749D01*
X170477952Y-94867219D01*
X170774306Y-94422689D01*
X170783529Y-94405391D01*
X170791101Y-94367114D01*
X170790676Y-94364987D01*
X170829222Y-94364987D01*
X170835978Y-94403416D01*
X170844831Y-94420907D01*
X171162530Y-94920148D01*
X171162530Y-95367219D01*
X171164451Y-95386728D01*
X171179383Y-95422776D01*
X171206973Y-95450366D01*
X171243021Y-95465298D01*
X171282039Y-95465298D01*
X171318087Y-95450366D01*
X171345677Y-95422776D01*
X171360609Y-95386728D01*
X171362530Y-95367219D01*
X171362530Y-94966757D01*
X171831118Y-94966757D01*
X171831118Y-95005775D01*
X171846050Y-95041823D01*
X171873640Y-95069413D01*
X171909688Y-95084345D01*
X171929197Y-95086266D01*
X172691102Y-95086266D01*
X172710611Y-95084345D01*
X172746659Y-95069413D01*
X172774249Y-95041823D01*
X172789181Y-95005775D01*
X172789181Y-94966757D01*
X172774249Y-94930709D01*
X172746659Y-94903119D01*
X172710611Y-94888187D01*
X172691102Y-94886266D01*
X171929197Y-94886266D01*
X171909688Y-94888187D01*
X171873640Y-94903119D01*
X171846050Y-94930709D01*
X171831118Y-94966757D01*
X171362530Y-94966757D01*
X171362530Y-94920148D01*
X171680229Y-94420906D01*
X171689082Y-94403416D01*
X171695446Y-94367219D01*
X173067292Y-94367219D01*
X173067292Y-95367219D01*
X173069213Y-95386728D01*
X173084145Y-95422776D01*
X173111735Y-95450366D01*
X173147783Y-95465298D01*
X173186801Y-95465298D01*
X173222849Y-95450366D01*
X173250439Y-95422776D01*
X173265371Y-95386728D01*
X173267292Y-95367219D01*
X173267292Y-94817975D01*
X173410007Y-95123793D01*
X173414239Y-95130938D01*
X173415119Y-95133356D01*
X173416684Y-95135065D01*
X173419998Y-95140659D01*
X173431208Y-95150925D01*
X173441470Y-95162131D01*
X173445495Y-95164009D01*
X173448773Y-95167011D01*
X173463055Y-95172204D01*
X173476828Y-95178632D01*
X173481267Y-95178827D01*
X173485442Y-95180345D01*
X173500625Y-95179677D01*
X173515808Y-95180345D01*
X173519981Y-95178827D01*
X173524423Y-95178632D01*
X173538207Y-95172199D01*
X173552477Y-95167010D01*
X173555750Y-95164012D01*
X173559780Y-95162132D01*
X173570049Y-95150917D01*
X173581252Y-95140659D01*
X173584563Y-95135068D01*
X173586132Y-95133356D01*
X173587012Y-95130934D01*
X173591243Y-95123793D01*
X173733958Y-94817974D01*
X173733958Y-95367219D01*
X173735879Y-95386728D01*
X173750811Y-95422776D01*
X173778401Y-95450366D01*
X173814449Y-95465298D01*
X173853467Y-95465298D01*
X173889515Y-95450366D01*
X173917105Y-95422776D01*
X173932037Y-95386728D01*
X173933958Y-95367219D01*
X173933958Y-94700552D01*
X174162530Y-94700552D01*
X174162530Y-95033885D01*
X174162865Y-95037287D01*
X174162648Y-95038746D01*
X174163727Y-95046043D01*
X174164451Y-95053394D01*
X174165015Y-95054757D01*
X174165516Y-95058139D01*
X174213135Y-95248614D01*
X174219730Y-95267075D01*
X174224155Y-95273047D01*
X174227001Y-95279918D01*
X174239438Y-95295071D01*
X174334676Y-95390311D01*
X174342344Y-95396604D01*
X174344075Y-95398600D01*
X174347082Y-95400493D01*
X174349829Y-95402747D01*
X174352269Y-95403757D01*
X174360666Y-95409043D01*
X174455903Y-95456662D01*
X174474212Y-95463668D01*
X174477795Y-95463922D01*
X174481116Y-95465298D01*
X174500625Y-95467219D01*
X174691101Y-95467219D01*
X174710610Y-95465298D01*
X174713930Y-95463922D01*
X174717514Y-95463668D01*
X174735822Y-95456662D01*
X174831060Y-95409043D01*
X174839455Y-95403758D01*
X174841897Y-95402747D01*
X174844644Y-95400491D01*
X174847650Y-95398600D01*
X174849380Y-95396605D01*
X174857050Y-95390310D01*
X174952288Y-95295071D01*
X174964725Y-95279918D01*
X174967570Y-95273047D01*
X174971996Y-95267075D01*
X174978591Y-95248615D01*
X175026210Y-95058139D01*
X175026710Y-95054757D01*
X175027275Y-95053394D01*
X175027998Y-95046043D01*
X175029078Y-95038746D01*
X175028860Y-95037287D01*
X175029196Y-95033885D01*
X175029196Y-94700552D01*
X175028860Y-94697149D01*
X175029078Y-94695691D01*
X175027998Y-94688393D01*
X175027275Y-94681043D01*
X175026710Y-94679679D01*
X175026210Y-94676298D01*
X174996559Y-94557695D01*
X175210149Y-94557695D01*
X175210149Y-94652933D01*
X175212070Y-94672442D01*
X175213445Y-94675762D01*
X175213700Y-94679346D01*
X175220706Y-94697654D01*
X175268325Y-94792892D01*
X175273610Y-94801288D01*
X175274621Y-94803728D01*
X175276874Y-94806474D01*
X175278768Y-94809482D01*
X175280762Y-94811211D01*
X175287057Y-94818882D01*
X175334676Y-94866500D01*
X175342342Y-94872792D01*
X175344075Y-94874790D01*
X175347083Y-94876683D01*
X175349829Y-94878937D01*
X175352269Y-94879947D01*
X175360666Y-94885233D01*
X175455903Y-94932852D01*
X175457331Y-94933398D01*
X175457911Y-94933828D01*
X175466087Y-94936749D01*
X175474212Y-94939858D01*
X175474932Y-94939909D01*
X175476371Y-94940423D01*
X175656196Y-94985379D01*
X175727103Y-95020833D01*
X175751772Y-95045501D01*
X175781577Y-95105111D01*
X175781577Y-95153135D01*
X175751772Y-95212743D01*
X175727103Y-95237413D01*
X175667494Y-95267219D01*
X175469232Y-95267219D01*
X175341772Y-95224732D01*
X175322656Y-95220385D01*
X175283736Y-95223151D01*
X175248837Y-95240601D01*
X175223272Y-95270077D01*
X175210934Y-95307093D01*
X175213700Y-95346013D01*
X175231150Y-95380912D01*
X175260626Y-95406477D01*
X175278526Y-95414468D01*
X175421383Y-95462087D01*
X175431055Y-95464286D01*
X175433497Y-95465298D01*
X175437034Y-95465646D01*
X175440498Y-95466434D01*
X175443132Y-95466246D01*
X175453006Y-95467219D01*
X175691101Y-95467219D01*
X175710610Y-95465298D01*
X175713930Y-95463922D01*
X175717514Y-95463668D01*
X175735822Y-95456662D01*
X175831060Y-95409043D01*
X175839455Y-95403758D01*
X175841897Y-95402747D01*
X175844644Y-95400491D01*
X175847650Y-95398600D01*
X175849380Y-95396605D01*
X175857050Y-95390310D01*
X175904669Y-95342690D01*
X175910961Y-95335023D01*
X175912958Y-95333292D01*
X175914851Y-95330284D01*
X175917106Y-95327537D01*
X175918117Y-95325095D01*
X175923401Y-95316701D01*
X175971020Y-95221464D01*
X175978026Y-95203155D01*
X175978280Y-95199571D01*
X175979656Y-95196251D01*
X175981577Y-95176742D01*
X175981577Y-95081504D01*
X175979656Y-95061995D01*
X175978280Y-95058674D01*
X175978026Y-95055091D01*
X175971020Y-95036782D01*
X175923401Y-94941545D01*
X175918115Y-94933148D01*
X175917105Y-94930708D01*
X175914851Y-94927962D01*
X175912958Y-94924954D01*
X175910960Y-94923221D01*
X175904668Y-94915555D01*
X175857050Y-94867936D01*
X175849379Y-94861641D01*
X175847650Y-94859647D01*
X175844642Y-94857753D01*
X175841896Y-94855500D01*
X175839456Y-94854489D01*
X175831060Y-94849204D01*
X175735822Y-94801585D01*
X175734395Y-94801039D01*
X175733815Y-94800609D01*
X175725638Y-94797687D01*
X175717514Y-94794579D01*
X175716791Y-94794527D01*
X175715354Y-94794014D01*
X175535529Y-94749057D01*
X175464622Y-94713604D01*
X175439954Y-94688935D01*
X175410149Y-94629325D01*
X175410149Y-94581302D01*
X175439954Y-94521692D01*
X175464622Y-94497023D01*
X175524232Y-94467219D01*
X175722493Y-94467219D01*
X175849954Y-94509706D01*
X175869069Y-94514053D01*
X175907989Y-94511287D01*
X175942888Y-94493837D01*
X175968453Y-94464361D01*
X175980792Y-94427345D01*
X175978025Y-94388425D01*
X175960576Y-94353526D01*
X175931100Y-94327961D01*
X175913199Y-94319970D01*
X175770343Y-94272351D01*
X175760671Y-94270151D01*
X175758229Y-94269140D01*
X175754690Y-94268791D01*
X175751227Y-94268004D01*
X175748593Y-94268191D01*
X175738720Y-94267219D01*
X175500625Y-94267219D01*
X175481116Y-94269140D01*
X175477795Y-94270515D01*
X175474212Y-94270770D01*
X175455903Y-94277776D01*
X175360666Y-94325395D01*
X175352269Y-94330680D01*
X175349829Y-94331691D01*
X175347083Y-94333944D01*
X175344075Y-94335838D01*
X175342342Y-94337835D01*
X175334676Y-94344128D01*
X175287057Y-94391746D01*
X175280762Y-94399416D01*
X175278768Y-94401146D01*
X175276874Y-94404153D01*
X175274621Y-94406900D01*
X175273610Y-94409339D01*
X175268325Y-94417736D01*
X175220706Y-94512974D01*
X175213700Y-94531282D01*
X175213445Y-94534865D01*
X175212070Y-94538186D01*
X175210149Y-94557695D01*
X174996559Y-94557695D01*
X174978591Y-94485822D01*
X174971996Y-94467362D01*
X174967569Y-94461387D01*
X174964724Y-94454519D01*
X174952288Y-94439365D01*
X174857050Y-94344127D01*
X174849379Y-94337832D01*
X174847650Y-94335838D01*
X174844642Y-94333944D01*
X174841896Y-94331691D01*
X174839456Y-94330680D01*
X174831060Y-94325395D01*
X174735822Y-94277776D01*
X174717514Y-94270770D01*
X174713930Y-94270515D01*
X174710610Y-94269140D01*
X174691101Y-94267219D01*
X174500625Y-94267219D01*
X174481116Y-94269140D01*
X174477795Y-94270515D01*
X174474212Y-94270770D01*
X174455903Y-94277776D01*
X174360666Y-94325395D01*
X174352267Y-94330681D01*
X174349830Y-94331691D01*
X174347086Y-94333942D01*
X174344075Y-94335838D01*
X174342342Y-94337835D01*
X174334676Y-94344127D01*
X174239438Y-94439365D01*
X174227002Y-94454519D01*
X174224156Y-94461387D01*
X174219730Y-94467362D01*
X174213135Y-94485823D01*
X174165516Y-94676298D01*
X174165015Y-94679679D01*
X174164451Y-94681043D01*
X174163727Y-94688393D01*
X174162648Y-94695691D01*
X174162865Y-94697149D01*
X174162530Y-94700552D01*
X173933958Y-94700552D01*
X173933958Y-94367219D01*
X173932695Y-94354395D01*
X173932799Y-94352036D01*
X173932338Y-94350768D01*
X173932037Y-94347710D01*
X173925396Y-94331679D01*
X173919465Y-94315367D01*
X173917958Y-94313721D01*
X173917105Y-94311662D01*
X173904843Y-94299400D01*
X173893113Y-94286591D01*
X173891089Y-94285646D01*
X173889515Y-94284072D01*
X173873499Y-94277437D01*
X173857756Y-94270091D01*
X173855526Y-94269993D01*
X173853467Y-94269140D01*
X173836115Y-94269140D01*
X173818775Y-94268378D01*
X173816679Y-94269140D01*
X173814449Y-94269140D01*
X173798418Y-94275780D01*
X173782106Y-94281712D01*
X173780460Y-94283218D01*
X173778401Y-94284072D01*
X173766133Y-94296339D01*
X173753331Y-94308064D01*
X173751764Y-94310708D01*
X173750811Y-94311662D01*
X173749907Y-94313843D01*
X173743340Y-94324930D01*
X173500624Y-94845033D01*
X173257910Y-94324930D01*
X173251342Y-94313843D01*
X173250439Y-94311662D01*
X173249485Y-94310708D01*
X173247919Y-94308064D01*
X173235122Y-94296345D01*
X173222849Y-94284072D01*
X173220787Y-94283218D01*
X173219144Y-94281713D01*
X173202842Y-94275784D01*
X173186801Y-94269140D01*
X173184570Y-94269140D01*
X173182475Y-94268378D01*
X173165135Y-94269140D01*
X173147783Y-94269140D01*
X173145723Y-94269993D01*
X173143495Y-94270091D01*
X173127764Y-94277432D01*
X173111735Y-94284072D01*
X173110158Y-94285648D01*
X173108137Y-94286592D01*
X173096418Y-94299388D01*
X173084145Y-94311662D01*
X173083291Y-94313723D01*
X173081786Y-94315367D01*
X173075857Y-94331668D01*
X173069213Y-94347710D01*
X173068911Y-94350768D01*
X173068451Y-94352036D01*
X173068554Y-94354395D01*
X173067292Y-94367219D01*
X171695446Y-94367219D01*
X171695838Y-94364987D01*
X171687374Y-94326898D01*
X171664978Y-94294947D01*
X171632060Y-94273999D01*
X171593631Y-94267244D01*
X171555542Y-94275708D01*
X171523592Y-94298104D01*
X171511497Y-94313531D01*
X171262529Y-94704765D01*
X171013563Y-94313531D01*
X171001469Y-94298104D01*
X170969518Y-94275708D01*
X170931429Y-94267244D01*
X170893000Y-94274000D01*
X170860082Y-94294947D01*
X170837686Y-94326898D01*
X170829222Y-94364987D01*
X170790676Y-94364987D01*
X170783449Y-94328854D01*
X170761738Y-94296434D01*
X170729273Y-94274791D01*
X170690996Y-94267219D01*
X170652736Y-94274871D01*
X170620316Y-94296582D01*
X170607896Y-94311749D01*
X170357768Y-94686941D01*
X170107640Y-94311749D01*
X170095220Y-94296582D01*
X170062800Y-94274871D01*
X170024540Y-94267219D01*
X169986263Y-94274791D01*
X169953798Y-94296434D01*
X169932087Y-94328854D01*
X169924435Y-94367114D01*
X169813324Y-94367114D01*
X169813324Y-94156108D01*
X176092688Y-94156108D01*
X176092688Y-95578330D01*
G37*
D11*
X94073866Y-112380951D02*
X94073866Y-111619047D01*
X94454819Y-111999999D02*
X93692914Y-111999999D01*
D10*
G36*
X143223397Y-111515844D02*
G01*
X143266737Y-111525037D01*
X143299063Y-111542704D01*
X143323905Y-111568848D01*
X143339796Y-111601607D01*
X143345277Y-111640670D01*
X143339897Y-111684965D01*
X143325303Y-111717208D01*
X143302153Y-111740505D01*
X143271355Y-111755347D01*
X143221396Y-111766219D01*
X143144616Y-111770577D01*
X143069511Y-111770577D01*
X143069511Y-111511680D01*
X143135228Y-111511680D01*
X143223397Y-111515844D01*
G37*
G36*
X145448107Y-112705698D02*
G01*
X142691493Y-112705698D01*
X142691493Y-111770577D01*
X142830382Y-111770577D01*
X142830382Y-112537500D01*
X143069511Y-112537500D01*
X143069511Y-112000165D01*
X143091646Y-112000165D01*
X143374357Y-112537500D01*
X143635620Y-112537500D01*
X143506695Y-112293028D01*
X143720571Y-112293028D01*
X143773752Y-112382960D01*
X143830544Y-112451018D01*
X143890930Y-112500710D01*
X143959887Y-112536955D01*
X144037098Y-112559130D01*
X144124488Y-112566809D01*
X144209289Y-112560040D01*
X144282695Y-112540717D01*
X144346689Y-112509624D01*
X144402772Y-112466593D01*
X144449534Y-112413076D01*
X144482519Y-112353800D01*
X144502610Y-112287568D01*
X144509552Y-112212657D01*
X144501836Y-112136138D01*
X144479250Y-112067103D01*
X144440658Y-112001934D01*
X144376363Y-111927350D01*
X144210660Y-111783858D01*
X144080203Y-111669425D01*
X144035644Y-111623344D01*
X144019464Y-111594047D01*
X144014273Y-111563886D01*
X144021316Y-111534847D01*
X144044117Y-111507405D01*
X144077382Y-111488930D01*
X144120977Y-111482370D01*
X144164732Y-111489198D01*
X144209928Y-111510835D01*
X144258176Y-111550727D01*
X144310570Y-111614262D01*
X144425676Y-111511680D01*
X144614958Y-111511680D01*
X144837829Y-111511680D01*
X144837829Y-112537500D01*
X145080393Y-112537500D01*
X145080393Y-111511680D01*
X145309218Y-111511680D01*
X145309218Y-111282091D01*
X144614958Y-111282091D01*
X144614958Y-111511680D01*
X144425676Y-111511680D01*
X144487341Y-111456725D01*
X144417570Y-111382193D01*
X144356677Y-111330331D01*
X144303319Y-111296670D01*
X144245398Y-111272190D01*
X144186025Y-111257649D01*
X144124488Y-111252782D01*
X144052897Y-111258848D01*
X143988996Y-111276423D01*
X143931363Y-111305191D01*
X143878947Y-111345671D01*
X143834699Y-111395395D01*
X143804049Y-111448392D01*
X143785727Y-111505545D01*
X143779495Y-111568161D01*
X143785767Y-111626458D01*
X143805148Y-111686139D01*
X143839258Y-111748366D01*
X143884835Y-111805686D01*
X143968114Y-111888526D01*
X144103956Y-112004821D01*
X144200521Y-112088515D01*
X144243098Y-112134575D01*
X144267235Y-112178145D01*
X144274697Y-112219373D01*
X144270249Y-112248621D01*
X144256769Y-112275726D01*
X144232870Y-112301653D01*
X144203271Y-112321180D01*
X144169224Y-112333077D01*
X144129525Y-112337220D01*
X144076762Y-112328424D01*
X144025546Y-112301055D01*
X143973958Y-112250997D01*
X143921232Y-112171135D01*
X143720571Y-112293028D01*
X143506695Y-112293028D01*
X143338484Y-111974062D01*
X143414183Y-111939820D01*
X143472879Y-111898130D01*
X143517315Y-111849116D01*
X143549555Y-111791393D01*
X143569622Y-111723710D01*
X143576697Y-111643723D01*
X143570389Y-111567375D01*
X143552269Y-111500464D01*
X143522887Y-111441307D01*
X143482628Y-111389109D01*
X143435488Y-111348705D01*
X143380692Y-111318957D01*
X143319696Y-111300743D01*
X143224681Y-111287384D01*
X143084013Y-111282091D01*
X142830382Y-111282091D01*
X142830382Y-111770577D01*
X142691493Y-111770577D01*
X142691493Y-111113893D01*
X145448107Y-111113893D01*
X145448107Y-112705698D01*
G37*
D11*
X113636779Y-92088866D02*
X114398684Y-92088866D01*
X114017731Y-92469819D02*
X114017731Y-91707914D01*
D10*
G36*
X157663311Y-89409927D02*
G01*
X157842719Y-89433050D01*
X157981183Y-89467273D01*
X158086252Y-89509912D01*
X158185697Y-89570928D01*
X158277025Y-89648907D01*
X158360866Y-89745485D01*
X158437351Y-89862965D01*
X158496476Y-89987089D01*
X158539537Y-90122449D01*
X158566157Y-90270671D01*
X158575348Y-90433639D01*
X158566458Y-90586900D01*
X158540510Y-90728660D01*
X158498168Y-90860453D01*
X158438866Y-90985113D01*
X158367799Y-91092096D01*
X158284944Y-91183342D01*
X158189763Y-91261573D01*
X158091894Y-91320192D01*
X157990509Y-91360907D01*
X157881191Y-91384927D01*
X157705848Y-91402844D01*
X157441329Y-91410000D01*
X156980931Y-91410000D01*
X156980931Y-91042658D01*
X157362072Y-91042658D01*
X157539637Y-91042658D01*
X157715787Y-91034191D01*
X157838189Y-91012515D01*
X157920045Y-90982208D01*
X157992018Y-90934470D01*
X158056315Y-90867774D01*
X158113363Y-90778876D01*
X158153755Y-90680762D01*
X158179444Y-90564617D01*
X158188590Y-90426922D01*
X158176081Y-90266962D01*
X158140956Y-90133491D01*
X158085415Y-90021731D01*
X158009682Y-89928056D01*
X157925156Y-89863181D01*
X157815070Y-89813501D01*
X157673225Y-89780745D01*
X157491887Y-89768688D01*
X157362072Y-89768688D01*
X157362072Y-91042658D01*
X156980931Y-91042658D01*
X156980931Y-89401346D01*
X157434490Y-89401346D01*
X157663311Y-89409927D01*
G37*
G36*
X159044539Y-89307557D02*
G01*
X159107134Y-89315629D01*
X159162746Y-89339411D01*
X159213311Y-89379975D01*
X159252460Y-89431688D01*
X159275698Y-89489394D01*
X159283653Y-89555097D01*
X159275776Y-89620013D01*
X159252748Y-89677119D01*
X159213921Y-89728387D01*
X159163897Y-89768486D01*
X159108965Y-89791981D01*
X159047226Y-89799951D01*
X158983785Y-89791783D01*
X158927746Y-89767779D01*
X158877110Y-89726922D01*
X158838011Y-89674727D01*
X158814746Y-89616298D01*
X158806769Y-89549602D01*
X158814610Y-89485671D01*
X158837572Y-89429287D01*
X158876378Y-89378510D01*
X158926461Y-89338849D01*
X158981868Y-89315505D01*
X159044539Y-89307557D01*
G37*
G36*
X158857327Y-89925003D02*
G01*
X159231751Y-89925003D01*
X159231751Y-91410000D01*
X158857327Y-91410000D01*
X158857327Y-89925003D01*
G37*
G36*
X159565875Y-89925003D02*
G01*
X159940177Y-89925003D01*
X159940177Y-90098171D01*
X160042560Y-90003762D01*
X160152547Y-89938681D01*
X160273555Y-89899351D01*
X160407414Y-89885924D01*
X160498315Y-89893818D01*
X160581566Y-89916953D01*
X160658740Y-89955289D01*
X160727417Y-90007513D01*
X160787419Y-90074344D01*
X160839113Y-90157766D01*
X160903913Y-90074871D01*
X160976346Y-90007876D01*
X161056978Y-89955289D01*
X161145324Y-89916900D01*
X161238950Y-89893773D01*
X161339200Y-89885924D01*
X161442772Y-89894488D01*
X161534984Y-89919255D01*
X161617882Y-89959685D01*
X161691656Y-90014881D01*
X161748665Y-90078783D01*
X161790683Y-90152271D01*
X161816908Y-90234234D01*
X161835873Y-90358439D01*
X161843318Y-90538663D01*
X161843318Y-91410000D01*
X161467672Y-91410000D01*
X161467672Y-90659441D01*
X161458396Y-90490258D01*
X161435519Y-90382903D01*
X161404780Y-90318967D01*
X161356864Y-90270105D01*
X161295472Y-90240416D01*
X161216224Y-90229818D01*
X161125294Y-90243516D01*
X161044766Y-90284284D01*
X160979345Y-90348108D01*
X160932048Y-90434494D01*
X160906215Y-90545085D01*
X160895167Y-90742362D01*
X160895167Y-91410000D01*
X160519399Y-91410000D01*
X160519399Y-90693513D01*
X160510550Y-90508680D01*
X160489968Y-90405917D01*
X160451889Y-90326176D01*
X160401919Y-90273415D01*
X160338204Y-90241078D01*
X160259891Y-90229818D01*
X160171321Y-90243558D01*
X160091120Y-90284895D01*
X160025726Y-90349821D01*
X159977669Y-90439256D01*
X159951345Y-90552923D01*
X159940177Y-90751887D01*
X159940177Y-91410000D01*
X159565875Y-91410000D01*
X159565875Y-89925003D01*
G37*
G36*
X162239602Y-89401346D02*
G01*
X162622086Y-89401346D01*
X162622086Y-91042658D01*
X163179570Y-91042658D01*
X163179570Y-91410000D01*
X162239602Y-91410000D01*
X162239602Y-89401346D01*
G37*
G36*
X163471929Y-89401346D02*
G01*
X164568946Y-89401346D01*
X164568946Y-89768688D01*
X163851727Y-89768688D01*
X163851727Y-90136029D01*
X164568946Y-90136029D01*
X164568946Y-90503370D01*
X163851727Y-90503370D01*
X163851727Y-91042658D01*
X164568946Y-91042658D01*
X164568946Y-91410000D01*
X163471929Y-91410000D01*
X163471929Y-89401346D01*
G37*
G36*
X165609996Y-89409927D02*
G01*
X165789404Y-89433050D01*
X165927869Y-89467273D01*
X166032937Y-89509912D01*
X166132382Y-89570928D01*
X166223710Y-89648907D01*
X166307551Y-89745485D01*
X166384036Y-89862965D01*
X166443161Y-89987089D01*
X166486222Y-90122449D01*
X166512843Y-90270671D01*
X166522034Y-90433639D01*
X166513144Y-90586900D01*
X166487195Y-90728660D01*
X166444853Y-90860453D01*
X166385551Y-90985113D01*
X166314485Y-91092096D01*
X166231629Y-91183342D01*
X166136448Y-91261573D01*
X166038579Y-91320192D01*
X165937194Y-91360907D01*
X165827876Y-91384927D01*
X165652533Y-91402844D01*
X165388014Y-91410000D01*
X164927616Y-91410000D01*
X164927616Y-91042658D01*
X165308757Y-91042658D01*
X165486322Y-91042658D01*
X165662473Y-91034191D01*
X165784874Y-91012515D01*
X165866730Y-90982208D01*
X165938703Y-90934470D01*
X166003000Y-90867774D01*
X166060048Y-90778876D01*
X166100440Y-90680762D01*
X166126129Y-90564617D01*
X166135275Y-90426922D01*
X166122767Y-90266962D01*
X166087641Y-90133491D01*
X166032101Y-90021731D01*
X165956367Y-89928056D01*
X165871842Y-89863181D01*
X165761755Y-89813501D01*
X165619910Y-89780745D01*
X165438572Y-89768688D01*
X165308757Y-89768688D01*
X165308757Y-91042658D01*
X164927616Y-91042658D01*
X164927616Y-89401346D01*
X165381175Y-89401346D01*
X165609996Y-89409927D01*
G37*
G36*
X84824020Y-100665352D02*
G01*
X84872104Y-100674442D01*
X84901142Y-100686638D01*
X84932198Y-100713082D01*
X84950827Y-100747712D01*
X84957471Y-100793265D01*
X84952245Y-100833018D01*
X84937397Y-100865088D01*
X84913724Y-100890472D01*
X84882290Y-100907678D01*
X84840492Y-100916587D01*
X84757726Y-100920577D01*
X84681705Y-100920577D01*
X84681705Y-100661680D01*
X84749177Y-100661680D01*
X84824020Y-100665352D01*
G37*
G36*
X87406247Y-100665844D02*
G01*
X87449587Y-100675037D01*
X87481913Y-100692704D01*
X87506755Y-100718848D01*
X87522645Y-100751607D01*
X87528127Y-100790670D01*
X87522747Y-100834965D01*
X87508153Y-100867208D01*
X87485003Y-100890505D01*
X87454205Y-100905347D01*
X87404246Y-100916219D01*
X87327466Y-100920577D01*
X87252361Y-100920577D01*
X87252361Y-100661680D01*
X87318078Y-100661680D01*
X87406247Y-100665844D01*
G37*
G36*
X87957359Y-101826389D02*
G01*
X84303687Y-101826389D01*
X84303687Y-100920577D01*
X84442576Y-100920577D01*
X84442576Y-101687500D01*
X84681705Y-101687500D01*
X84681705Y-101150165D01*
X84850308Y-101144101D01*
X84933581Y-101130702D01*
X85008115Y-101101555D01*
X85069666Y-101061561D01*
X85120121Y-101010489D01*
X85157588Y-100949611D01*
X85180745Y-100878215D01*
X85188891Y-100793647D01*
X85182684Y-100716673D01*
X85164951Y-100649954D01*
X85136379Y-100591689D01*
X85096882Y-100540469D01*
X85049376Y-100500139D01*
X84992886Y-100469796D01*
X84930279Y-100451051D01*
X84834944Y-100437442D01*
X84696207Y-100432091D01*
X85327270Y-100432091D01*
X85611584Y-101687500D01*
X85838729Y-101687500D01*
X86065875Y-100875850D01*
X86297295Y-101687500D01*
X86526960Y-101687500D01*
X86699620Y-100920577D01*
X87013232Y-100920577D01*
X87013232Y-101687500D01*
X87252361Y-101687500D01*
X87252361Y-101150165D01*
X87274496Y-101150165D01*
X87557207Y-101687500D01*
X87818470Y-101687500D01*
X87521334Y-101124062D01*
X87597033Y-101089820D01*
X87655729Y-101048130D01*
X87700165Y-100999116D01*
X87732405Y-100941393D01*
X87752472Y-100873710D01*
X87759547Y-100793723D01*
X87753239Y-100717375D01*
X87735119Y-100650464D01*
X87705737Y-100591307D01*
X87665478Y-100539109D01*
X87618338Y-100498705D01*
X87563542Y-100468957D01*
X87502546Y-100450743D01*
X87407531Y-100437384D01*
X87266863Y-100432091D01*
X87013232Y-100432091D01*
X87013232Y-100920577D01*
X86699620Y-100920577D01*
X86809595Y-100432091D01*
X86573900Y-100432091D01*
X86394611Y-101233437D01*
X86167465Y-100432091D01*
X85968483Y-100432091D01*
X85743933Y-101233437D01*
X85562888Y-100432091D01*
X85327270Y-100432091D01*
X84696207Y-100432091D01*
X84442576Y-100432091D01*
X84442576Y-100920577D01*
X84303687Y-100920577D01*
X84303687Y-100293202D01*
X87957359Y-100293202D01*
X87957359Y-101826389D01*
G37*
G36*
X133082901Y-111490293D02*
G01*
X133158557Y-111513445D01*
X133227862Y-111551849D01*
X133292022Y-111606782D01*
X133344819Y-111672557D01*
X133382072Y-111744202D01*
X133404691Y-111822980D01*
X133412465Y-111910635D01*
X133404710Y-111998800D01*
X133382199Y-112077654D01*
X133345220Y-112148990D01*
X133292938Y-112214107D01*
X133229237Y-112268516D01*
X133160622Y-112306517D01*
X133085918Y-112329398D01*
X133003434Y-112337220D01*
X132929882Y-112331199D01*
X132861657Y-112313488D01*
X132797664Y-112284096D01*
X132737057Y-112242347D01*
X132683282Y-112190320D01*
X132642027Y-112132335D01*
X132612325Y-112067585D01*
X132593986Y-111994812D01*
X132587611Y-111912390D01*
X132595454Y-111820483D01*
X132618038Y-111739682D01*
X132654792Y-111667952D01*
X132706297Y-111603805D01*
X132769445Y-111550446D01*
X132838375Y-111512929D01*
X132914349Y-111490187D01*
X132999160Y-111482370D01*
X133082901Y-111490293D01*
G37*
G36*
X134552022Y-111490293D02*
G01*
X134627678Y-111513445D01*
X134696982Y-111551849D01*
X134761143Y-111606782D01*
X134813940Y-111672557D01*
X134851192Y-111744202D01*
X134873811Y-111822980D01*
X134881585Y-111910635D01*
X134873831Y-111998800D01*
X134851319Y-112077654D01*
X134814340Y-112148990D01*
X134762059Y-112214107D01*
X134698357Y-112268516D01*
X134629743Y-112306517D01*
X134555038Y-112329398D01*
X134472555Y-112337220D01*
X134399003Y-112331199D01*
X134330778Y-112313488D01*
X134266785Y-112284096D01*
X134206178Y-112242347D01*
X134152403Y-112190320D01*
X134111148Y-112132335D01*
X134081446Y-112067585D01*
X134063107Y-111994812D01*
X134056731Y-111912390D01*
X134064575Y-111820483D01*
X134087158Y-111739682D01*
X134123913Y-111667952D01*
X134175418Y-111603805D01*
X134238566Y-111550446D01*
X134307496Y-111512929D01*
X134383470Y-111490187D01*
X134468281Y-111482370D01*
X134552022Y-111490293D01*
G37*
G36*
X131775634Y-111996782D02*
G01*
X131840292Y-112013212D01*
X131883581Y-112036725D01*
X131917239Y-112071338D01*
X131937227Y-112112707D01*
X131944183Y-112163045D01*
X131938121Y-112207566D01*
X131920980Y-112242756D01*
X131892511Y-112270893D01*
X131855308Y-112288947D01*
X131792283Y-112302429D01*
X131692308Y-112307911D01*
X131632545Y-112307911D01*
X131632545Y-111990396D01*
X131682080Y-111990396D01*
X131775634Y-111996782D01*
G37*
G36*
X131747686Y-111516169D02*
G01*
X131787277Y-111528140D01*
X131816109Y-111546179D01*
X131838213Y-111571508D01*
X131851567Y-111602014D01*
X131856256Y-111639296D01*
X131851295Y-111679344D01*
X131837205Y-111711966D01*
X131813971Y-111738902D01*
X131783574Y-111757999D01*
X131741655Y-111770694D01*
X131684599Y-111775462D01*
X131632545Y-111775462D01*
X131632545Y-111511680D01*
X131693987Y-111511680D01*
X131747686Y-111516169D01*
G37*
G36*
X136055835Y-112705698D02*
G01*
X131254603Y-112705698D01*
X131254603Y-111775462D01*
X131393492Y-111775462D01*
X131393492Y-112307911D01*
X131393492Y-112537500D01*
X131745278Y-112537500D01*
X131846393Y-112531904D01*
X131924283Y-112516879D01*
X131983491Y-112494528D01*
X132037095Y-112461254D01*
X132083878Y-112418286D01*
X132124389Y-112364621D01*
X132154703Y-112304748D01*
X132172873Y-112240970D01*
X132179038Y-112172127D01*
X132172854Y-112100503D01*
X132155052Y-112037615D01*
X132126068Y-111981847D01*
X132086081Y-111933226D01*
X132056813Y-111909337D01*
X132346803Y-111909337D01*
X132347024Y-111912390D01*
X132354434Y-112014596D01*
X132376826Y-112112291D01*
X132413750Y-112203756D01*
X132465688Y-112290073D01*
X132533801Y-112372025D01*
X132612729Y-112442376D01*
X132698014Y-112496329D01*
X132790601Y-112534993D01*
X132891844Y-112558664D01*
X133003434Y-112566809D01*
X133109574Y-112559009D01*
X133207239Y-112536201D01*
X133297884Y-112498705D01*
X133382682Y-112446078D01*
X133462458Y-112377139D01*
X133531017Y-112297260D01*
X133583475Y-112211992D01*
X133620936Y-112120479D01*
X133643771Y-112021517D01*
X133651594Y-111913612D01*
X133651283Y-111909337D01*
X133815923Y-111909337D01*
X133816144Y-111912390D01*
X133823555Y-112014596D01*
X133845946Y-112112291D01*
X133882871Y-112203756D01*
X133934809Y-112290073D01*
X134002922Y-112372025D01*
X134081850Y-112442376D01*
X134167135Y-112496329D01*
X134259722Y-112534993D01*
X134360965Y-112558664D01*
X134472555Y-112566809D01*
X134578695Y-112559009D01*
X134676359Y-112536201D01*
X134767005Y-112498705D01*
X134851803Y-112446078D01*
X134931579Y-112377139D01*
X135000138Y-112297260D01*
X135052595Y-112211992D01*
X135090057Y-112120479D01*
X135112892Y-112021517D01*
X135120714Y-111913612D01*
X135112798Y-111804771D01*
X135089677Y-111704843D01*
X135051721Y-111612327D01*
X134998537Y-111526014D01*
X134986224Y-111511680D01*
X135222686Y-111511680D01*
X135445557Y-111511680D01*
X135445557Y-112537500D01*
X135688121Y-112537500D01*
X135688121Y-111511680D01*
X135916946Y-111511680D01*
X135916946Y-111282091D01*
X135222686Y-111282091D01*
X135222686Y-111511680D01*
X134986224Y-111511680D01*
X134928984Y-111445047D01*
X134847989Y-111374836D01*
X134762628Y-111321444D01*
X134672115Y-111283559D01*
X134575329Y-111260605D01*
X134470876Y-111252782D01*
X134384035Y-111258332D01*
X134300834Y-111274799D01*
X134220542Y-111302186D01*
X134142522Y-111340862D01*
X134069960Y-111389101D01*
X134006255Y-111444671D01*
X133950738Y-111507900D01*
X133903011Y-111579381D01*
X133864962Y-111656320D01*
X133837864Y-111736489D01*
X133821475Y-111820566D01*
X133815923Y-111909337D01*
X133651283Y-111909337D01*
X133643677Y-111804771D01*
X133620556Y-111704843D01*
X133582601Y-111612327D01*
X133529417Y-111526014D01*
X133459863Y-111445047D01*
X133378868Y-111374836D01*
X133293507Y-111321444D01*
X133202994Y-111283559D01*
X133106209Y-111260605D01*
X133001755Y-111252782D01*
X132914914Y-111258332D01*
X132831714Y-111274799D01*
X132751421Y-111302186D01*
X132673401Y-111340862D01*
X132600840Y-111389101D01*
X132537134Y-111444671D01*
X132481618Y-111507900D01*
X132433890Y-111579381D01*
X132395842Y-111656320D01*
X132368743Y-111736489D01*
X132352355Y-111820566D01*
X132346803Y-111909337D01*
X132056813Y-111909337D01*
X132031269Y-111888487D01*
X131958762Y-111847666D01*
X132019200Y-111792676D01*
X132057375Y-111737757D01*
X132079940Y-111676507D01*
X132087676Y-111607240D01*
X132080085Y-111536050D01*
X132057946Y-111472772D01*
X132021044Y-111415585D01*
X131972302Y-111367690D01*
X131913147Y-111330664D01*
X131841754Y-111304302D01*
X131750849Y-111288732D01*
X131590718Y-111282091D01*
X131393492Y-111282091D01*
X131393492Y-111775462D01*
X131254603Y-111775462D01*
X131254603Y-111113893D01*
X136055835Y-111113893D01*
X136055835Y-112705698D01*
G37*
D11*
X125769819Y-105889411D02*
X125769819Y-106460839D01*
X125769819Y-106175125D02*
X124769819Y-106175125D01*
X124769819Y-106175125D02*
X124912676Y-106270363D01*
X124912676Y-106270363D02*
X125007914Y-106365601D01*
X125007914Y-106365601D02*
X125055533Y-106460839D01*
X124769819Y-105270363D02*
X124769819Y-105175125D01*
X124769819Y-105175125D02*
X124817438Y-105079887D01*
X124817438Y-105079887D02*
X124865057Y-105032268D01*
X124865057Y-105032268D02*
X124960295Y-104984649D01*
X124960295Y-104984649D02*
X125150771Y-104937030D01*
X125150771Y-104937030D02*
X125388866Y-104937030D01*
X125388866Y-104937030D02*
X125579342Y-104984649D01*
X125579342Y-104984649D02*
X125674580Y-105032268D01*
X125674580Y-105032268D02*
X125722200Y-105079887D01*
X125722200Y-105079887D02*
X125769819Y-105175125D01*
X125769819Y-105175125D02*
X125769819Y-105270363D01*
X125769819Y-105270363D02*
X125722200Y-105365601D01*
X125722200Y-105365601D02*
X125674580Y-105413220D01*
X125674580Y-105413220D02*
X125579342Y-105460839D01*
X125579342Y-105460839D02*
X125388866Y-105508458D01*
X125388866Y-105508458D02*
X125150771Y-105508458D01*
X125150771Y-105508458D02*
X124960295Y-105460839D01*
X124960295Y-105460839D02*
X124865057Y-105413220D01*
X124865057Y-105413220D02*
X124817438Y-105365601D01*
X124817438Y-105365601D02*
X124769819Y-105270363D01*
X125769819Y-104508458D02*
X124769819Y-104508458D01*
X125388866Y-104413220D02*
X125769819Y-104127506D01*
X125103152Y-104127506D02*
X125484104Y-104508458D01*
X116173866Y-104853570D02*
X116173866Y-104091666D01*
X116554819Y-104472618D02*
X115792914Y-104472618D01*
X115554819Y-103424999D02*
X115554819Y-103234523D01*
X115554819Y-103234523D02*
X115602438Y-103139285D01*
X115602438Y-103139285D02*
X115697676Y-103044047D01*
X115697676Y-103044047D02*
X115888152Y-102996428D01*
X115888152Y-102996428D02*
X116221485Y-102996428D01*
X116221485Y-102996428D02*
X116411961Y-103044047D01*
X116411961Y-103044047D02*
X116507200Y-103139285D01*
X116507200Y-103139285D02*
X116554819Y-103234523D01*
X116554819Y-103234523D02*
X116554819Y-103424999D01*
X116554819Y-103424999D02*
X116507200Y-103520237D01*
X116507200Y-103520237D02*
X116411961Y-103615475D01*
X116411961Y-103615475D02*
X116221485Y-103663094D01*
X116221485Y-103663094D02*
X115888152Y-103663094D01*
X115888152Y-103663094D02*
X115697676Y-103615475D01*
X115697676Y-103615475D02*
X115602438Y-103520237D01*
X115602438Y-103520237D02*
X115554819Y-103424999D01*
X115554819Y-102567856D02*
X116364342Y-102567856D01*
X116364342Y-102567856D02*
X116459580Y-102520237D01*
X116459580Y-102520237D02*
X116507200Y-102472618D01*
X116507200Y-102472618D02*
X116554819Y-102377380D01*
X116554819Y-102377380D02*
X116554819Y-102186904D01*
X116554819Y-102186904D02*
X116507200Y-102091666D01*
X116507200Y-102091666D02*
X116459580Y-102044047D01*
X116459580Y-102044047D02*
X116364342Y-101996428D01*
X116364342Y-101996428D02*
X115554819Y-101996428D01*
X115554819Y-101663094D02*
X115554819Y-101091666D01*
X116554819Y-101377380D02*
X115554819Y-101377380D01*
X116173866Y-100758332D02*
X116173866Y-99996428D01*
X97098866Y-104948808D02*
X97098866Y-104186904D01*
X97479819Y-104567856D02*
X96717914Y-104567856D01*
X97479819Y-102948808D02*
X96479819Y-102948808D01*
X97479819Y-102472618D02*
X96479819Y-102472618D01*
X96479819Y-102472618D02*
X97479819Y-101901190D01*
X97479819Y-101901190D02*
X96479819Y-101901190D01*
X97098866Y-100663094D02*
X97098866Y-99901190D01*
X132266667Y-107507200D02*
X132409524Y-107554819D01*
X132409524Y-107554819D02*
X132647619Y-107554819D01*
X132647619Y-107554819D02*
X132742857Y-107507200D01*
X132742857Y-107507200D02*
X132790476Y-107459580D01*
X132790476Y-107459580D02*
X132838095Y-107364342D01*
X132838095Y-107364342D02*
X132838095Y-107269104D01*
X132838095Y-107269104D02*
X132790476Y-107173866D01*
X132790476Y-107173866D02*
X132742857Y-107126247D01*
X132742857Y-107126247D02*
X132647619Y-107078628D01*
X132647619Y-107078628D02*
X132457143Y-107031009D01*
X132457143Y-107031009D02*
X132361905Y-106983390D01*
X132361905Y-106983390D02*
X132314286Y-106935771D01*
X132314286Y-106935771D02*
X132266667Y-106840533D01*
X132266667Y-106840533D02*
X132266667Y-106745295D01*
X132266667Y-106745295D02*
X132314286Y-106650057D01*
X132314286Y-106650057D02*
X132361905Y-106602438D01*
X132361905Y-106602438D02*
X132457143Y-106554819D01*
X132457143Y-106554819D02*
X132695238Y-106554819D01*
X132695238Y-106554819D02*
X132838095Y-106602438D01*
X133171429Y-106554819D02*
X133409524Y-107554819D01*
X133409524Y-107554819D02*
X133600000Y-106840533D01*
X133600000Y-106840533D02*
X133790476Y-107554819D01*
X133790476Y-107554819D02*
X134028572Y-106554819D01*
X134933333Y-107554819D02*
X134361905Y-107554819D01*
X134647619Y-107554819D02*
X134647619Y-106554819D01*
X134647619Y-106554819D02*
X134552381Y-106697676D01*
X134552381Y-106697676D02*
X134457143Y-106792914D01*
X134457143Y-106792914D02*
X134361905Y-106840533D01*
X142666667Y-107507200D02*
X142809524Y-107554819D01*
X142809524Y-107554819D02*
X143047619Y-107554819D01*
X143047619Y-107554819D02*
X143142857Y-107507200D01*
X143142857Y-107507200D02*
X143190476Y-107459580D01*
X143190476Y-107459580D02*
X143238095Y-107364342D01*
X143238095Y-107364342D02*
X143238095Y-107269104D01*
X143238095Y-107269104D02*
X143190476Y-107173866D01*
X143190476Y-107173866D02*
X143142857Y-107126247D01*
X143142857Y-107126247D02*
X143047619Y-107078628D01*
X143047619Y-107078628D02*
X142857143Y-107031009D01*
X142857143Y-107031009D02*
X142761905Y-106983390D01*
X142761905Y-106983390D02*
X142714286Y-106935771D01*
X142714286Y-106935771D02*
X142666667Y-106840533D01*
X142666667Y-106840533D02*
X142666667Y-106745295D01*
X142666667Y-106745295D02*
X142714286Y-106650057D01*
X142714286Y-106650057D02*
X142761905Y-106602438D01*
X142761905Y-106602438D02*
X142857143Y-106554819D01*
X142857143Y-106554819D02*
X143095238Y-106554819D01*
X143095238Y-106554819D02*
X143238095Y-106602438D01*
X143571429Y-106554819D02*
X143809524Y-107554819D01*
X143809524Y-107554819D02*
X144000000Y-106840533D01*
X144000000Y-106840533D02*
X144190476Y-107554819D01*
X144190476Y-107554819D02*
X144428572Y-106554819D01*
X144761905Y-106650057D02*
X144809524Y-106602438D01*
X144809524Y-106602438D02*
X144904762Y-106554819D01*
X144904762Y-106554819D02*
X145142857Y-106554819D01*
X145142857Y-106554819D02*
X145238095Y-106602438D01*
X145238095Y-106602438D02*
X145285714Y-106650057D01*
X145285714Y-106650057D02*
X145333333Y-106745295D01*
X145333333Y-106745295D02*
X145333333Y-106840533D01*
X145333333Y-106840533D02*
X145285714Y-106983390D01*
X145285714Y-106983390D02*
X144714286Y-107554819D01*
X144714286Y-107554819D02*
X145333333Y-107554819D01*
X162395180Y-97845238D02*
X163395180Y-97845238D01*
X163395180Y-97845238D02*
X163395180Y-98226190D01*
X163395180Y-98226190D02*
X163347561Y-98321428D01*
X163347561Y-98321428D02*
X163299942Y-98369047D01*
X163299942Y-98369047D02*
X163204704Y-98416666D01*
X163204704Y-98416666D02*
X163061847Y-98416666D01*
X163061847Y-98416666D02*
X162966609Y-98369047D01*
X162966609Y-98369047D02*
X162918990Y-98321428D01*
X162918990Y-98321428D02*
X162871371Y-98226190D01*
X162871371Y-98226190D02*
X162871371Y-97845238D01*
X163395180Y-98750000D02*
X162395180Y-98988095D01*
X162395180Y-98988095D02*
X163109466Y-99178571D01*
X163109466Y-99178571D02*
X162395180Y-99369047D01*
X162395180Y-99369047D02*
X163395180Y-99607143D01*
X162395180Y-99988095D02*
X163395180Y-99988095D01*
X163395180Y-99988095D02*
X162680895Y-100321428D01*
X162680895Y-100321428D02*
X163395180Y-100654761D01*
X163395180Y-100654761D02*
X162395180Y-100654761D01*
X163247561Y-104488095D02*
X163295180Y-104392857D01*
X163295180Y-104392857D02*
X163295180Y-104250000D01*
X163295180Y-104250000D02*
X163247561Y-104107143D01*
X163247561Y-104107143D02*
X163152323Y-104011905D01*
X163152323Y-104011905D02*
X163057085Y-103964286D01*
X163057085Y-103964286D02*
X162866609Y-103916667D01*
X162866609Y-103916667D02*
X162723752Y-103916667D01*
X162723752Y-103916667D02*
X162533276Y-103964286D01*
X162533276Y-103964286D02*
X162438038Y-104011905D01*
X162438038Y-104011905D02*
X162342800Y-104107143D01*
X162342800Y-104107143D02*
X162295180Y-104250000D01*
X162295180Y-104250000D02*
X162295180Y-104345238D01*
X162295180Y-104345238D02*
X162342800Y-104488095D01*
X162342800Y-104488095D02*
X162390419Y-104535714D01*
X162390419Y-104535714D02*
X162723752Y-104535714D01*
X162723752Y-104535714D02*
X162723752Y-104345238D01*
X162295180Y-104964286D02*
X163295180Y-104964286D01*
X163295180Y-104964286D02*
X162295180Y-105535714D01*
X162295180Y-105535714D02*
X163295180Y-105535714D01*
X162295180Y-106011905D02*
X163295180Y-106011905D01*
X163295180Y-106011905D02*
X163295180Y-106250000D01*
X163295180Y-106250000D02*
X163247561Y-106392857D01*
X163247561Y-106392857D02*
X163152323Y-106488095D01*
X163152323Y-106488095D02*
X163057085Y-106535714D01*
X163057085Y-106535714D02*
X162866609Y-106583333D01*
X162866609Y-106583333D02*
X162723752Y-106583333D01*
X162723752Y-106583333D02*
X162533276Y-106535714D01*
X162533276Y-106535714D02*
X162438038Y-106488095D01*
X162438038Y-106488095D02*
X162342800Y-106392857D01*
X162342800Y-106392857D02*
X162295180Y-106250000D01*
X162295180Y-106250000D02*
X162295180Y-106011905D01*
%TO.C,U1*%
D12*
X95550000Y-94025000D02*
X117650000Y-94025000D01*
X117650000Y-110825000D01*
X95550000Y-110825000D01*
X95550000Y-94025000D01*
D13*
%TO.C,C2*%
X119320000Y-92560000D02*
X127480000Y-92560000D01*
X119320000Y-92600000D02*
X127480000Y-92600000D01*
X119321000Y-92520000D02*
X127479000Y-92520000D01*
X119322000Y-92480000D02*
X127478000Y-92480000D01*
X119323000Y-92440000D02*
X127477000Y-92440000D01*
X119325000Y-92400000D02*
X127475000Y-92400000D01*
X119327000Y-92360000D02*
X127473000Y-92360000D01*
X119330000Y-92320000D02*
X127470000Y-92320000D01*
X119332000Y-92280000D02*
X127468000Y-92280000D01*
X119336000Y-92240000D02*
X127464000Y-92240000D01*
X119339000Y-92200000D02*
X127461000Y-92200000D01*
X119344000Y-92160000D02*
X127456000Y-92160000D01*
X119348000Y-92120000D02*
X127452000Y-92120000D01*
X119353000Y-92080000D02*
X127447000Y-92080000D01*
X119358000Y-92040000D02*
X127442000Y-92040000D01*
X119364000Y-92000000D02*
X127436000Y-92000000D01*
X119370000Y-91960000D02*
X127430000Y-91960000D01*
X119377000Y-91920000D02*
X127423000Y-91920000D01*
X119383000Y-91880000D02*
X127417000Y-91880000D01*
X119391000Y-91840000D02*
X127409000Y-91840000D01*
X119398000Y-91800000D02*
X127402000Y-91800000D01*
X119407000Y-91760000D02*
X127393000Y-91760000D01*
X119415000Y-91720000D02*
X122360000Y-91720000D01*
X119424000Y-91680000D02*
X122360000Y-91680000D01*
X119433000Y-91640000D02*
X122360000Y-91640000D01*
X119443000Y-91600000D02*
X122360000Y-91600000D01*
X119453000Y-91560000D02*
X122360000Y-91560000D01*
X119464000Y-91520000D02*
X122360000Y-91520000D01*
X119475000Y-91480000D02*
X122360000Y-91480000D01*
X119487000Y-91440000D02*
X122360000Y-91440000D01*
X119499000Y-91400000D02*
X122360000Y-91400000D01*
X119511000Y-91360000D02*
X122360000Y-91360000D01*
X119524000Y-91320000D02*
X122360000Y-91320000D01*
X119537000Y-91280000D02*
X122360000Y-91280000D01*
X119551000Y-91240000D02*
X122360000Y-91240000D01*
X119565000Y-91200000D02*
X122360000Y-91200000D01*
X119580000Y-91160000D02*
X122360000Y-91160000D01*
X119595000Y-91120000D02*
X122360000Y-91120000D01*
X119611000Y-91080000D02*
X122360000Y-91080000D01*
X119627000Y-91040000D02*
X122360000Y-91040000D01*
X119643000Y-91000000D02*
X122360000Y-91000000D01*
X119660000Y-90960000D02*
X122360000Y-90960000D01*
X119678000Y-90920000D02*
X122360000Y-90920000D01*
X119696000Y-90880000D02*
X122360000Y-90880000D01*
X119715000Y-90840000D02*
X122360000Y-90840000D01*
X119734000Y-90800000D02*
X122360000Y-90800000D01*
X119754000Y-90760000D02*
X122360000Y-90760000D01*
X119774000Y-90720000D02*
X122360000Y-90720000D01*
X119795000Y-90680000D02*
X122360000Y-90680000D01*
X119816000Y-90640000D02*
X122360000Y-90640000D01*
X119838000Y-90600000D02*
X122360000Y-90600000D01*
X119861000Y-90560000D02*
X122360000Y-90560000D01*
X119884000Y-90520000D02*
X122360000Y-90520000D01*
X119907000Y-90480000D02*
X122360000Y-90480000D01*
X119932000Y-90440000D02*
X122360000Y-90440000D01*
X119957000Y-90400000D02*
X122360000Y-90400000D01*
X119982000Y-90360000D02*
X122360000Y-90360000D01*
X120008000Y-90320000D02*
X122360000Y-90320000D01*
X120035000Y-90280000D02*
X122360000Y-90280000D01*
X120063000Y-90240000D02*
X122360000Y-90240000D01*
X120091000Y-90200000D02*
X122360000Y-90200000D01*
X120120000Y-90160000D02*
X122360000Y-90160000D01*
X120150000Y-90120000D02*
X122360000Y-90120000D01*
X120181000Y-90080000D02*
X122360000Y-90080000D01*
X120212000Y-90040000D02*
X122360000Y-90040000D01*
X120244000Y-90000000D02*
X122360000Y-90000000D01*
X120277000Y-89960000D02*
X122360000Y-89960000D01*
X120311000Y-89920000D02*
X122360000Y-89920000D01*
X120345000Y-89880000D02*
X122360000Y-89880000D01*
X120381000Y-89840000D02*
X122360000Y-89840000D01*
X120418000Y-89800000D02*
X122360000Y-89800000D01*
X120455000Y-89760000D02*
X122360000Y-89760000D01*
X120494000Y-89720000D02*
X122360000Y-89720000D01*
X120533000Y-89680000D02*
X122360000Y-89680000D01*
X120574000Y-89640000D02*
X126226000Y-89640000D01*
X120616000Y-89600000D02*
X126184000Y-89600000D01*
X120659000Y-89560000D02*
X126141000Y-89560000D01*
X120685000Y-96609698D02*
X121485000Y-96609698D01*
X120704000Y-89520000D02*
X126096000Y-89520000D01*
X120749000Y-89480000D02*
X126051000Y-89480000D01*
X120796000Y-89440000D02*
X126004000Y-89440000D01*
X120845000Y-89400000D02*
X125955000Y-89400000D01*
X120895000Y-89360000D02*
X125905000Y-89360000D01*
X120947000Y-89320000D02*
X125853000Y-89320000D01*
X121000000Y-89280000D02*
X125800000Y-89280000D01*
X121056000Y-89240000D02*
X125744000Y-89240000D01*
X121085000Y-97009698D02*
X121085000Y-96209698D01*
X121113000Y-89200000D02*
X125687000Y-89200000D01*
X121173000Y-89160000D02*
X125627000Y-89160000D01*
X121235000Y-89120000D02*
X125565000Y-89120000D01*
X121299000Y-89080000D02*
X125501000Y-89080000D01*
X121366000Y-89040000D02*
X125434000Y-89040000D01*
X121436000Y-89000000D02*
X125364000Y-89000000D01*
X121510000Y-88960000D02*
X125290000Y-88960000D01*
X121587000Y-88920000D02*
X125213000Y-88920000D01*
X121669000Y-88880000D02*
X125131000Y-88880000D01*
X121756000Y-88840000D02*
X125044000Y-88840000D01*
X121848000Y-88800000D02*
X124952000Y-88800000D01*
X121947000Y-88760000D02*
X124853000Y-88760000D01*
X122054000Y-88720000D02*
X124746000Y-88720000D01*
X122172000Y-88680000D02*
X124628000Y-88680000D01*
X122303000Y-88640000D02*
X124497000Y-88640000D01*
X122453000Y-88600000D02*
X124347000Y-88600000D01*
X122632000Y-88560000D02*
X124168000Y-88560000D01*
X122867000Y-88520000D02*
X123933000Y-88520000D01*
X124440000Y-89680000D02*
X126267000Y-89680000D01*
X124440000Y-89720000D02*
X126306000Y-89720000D01*
X124440000Y-89760000D02*
X126345000Y-89760000D01*
X124440000Y-89800000D02*
X126382000Y-89800000D01*
X124440000Y-89840000D02*
X126419000Y-89840000D01*
X124440000Y-89880000D02*
X126455000Y-89880000D01*
X124440000Y-89920000D02*
X126489000Y-89920000D01*
X124440000Y-89960000D02*
X126523000Y-89960000D01*
X124440000Y-90000000D02*
X126556000Y-90000000D01*
X124440000Y-90040000D02*
X126588000Y-90040000D01*
X124440000Y-90080000D02*
X126619000Y-90080000D01*
X124440000Y-90120000D02*
X126650000Y-90120000D01*
X124440000Y-90160000D02*
X126680000Y-90160000D01*
X124440000Y-90200000D02*
X126709000Y-90200000D01*
X124440000Y-90240000D02*
X126737000Y-90240000D01*
X124440000Y-90280000D02*
X126765000Y-90280000D01*
X124440000Y-90320000D02*
X126792000Y-90320000D01*
X124440000Y-90360000D02*
X126818000Y-90360000D01*
X124440000Y-90400000D02*
X126843000Y-90400000D01*
X124440000Y-90440000D02*
X126868000Y-90440000D01*
X124440000Y-90480000D02*
X126893000Y-90480000D01*
X124440000Y-90520000D02*
X126916000Y-90520000D01*
X124440000Y-90560000D02*
X126939000Y-90560000D01*
X124440000Y-90600000D02*
X126962000Y-90600000D01*
X124440000Y-90640000D02*
X126984000Y-90640000D01*
X124440000Y-90680000D02*
X127005000Y-90680000D01*
X124440000Y-90720000D02*
X127026000Y-90720000D01*
X124440000Y-90760000D02*
X127046000Y-90760000D01*
X124440000Y-90800000D02*
X127066000Y-90800000D01*
X124440000Y-90840000D02*
X127085000Y-90840000D01*
X124440000Y-90880000D02*
X127104000Y-90880000D01*
X124440000Y-90920000D02*
X127122000Y-90920000D01*
X124440000Y-90960000D02*
X127140000Y-90960000D01*
X124440000Y-91000000D02*
X127157000Y-91000000D01*
X124440000Y-91040000D02*
X127173000Y-91040000D01*
X124440000Y-91080000D02*
X127189000Y-91080000D01*
X124440000Y-91120000D02*
X127205000Y-91120000D01*
X124440000Y-91160000D02*
X127220000Y-91160000D01*
X124440000Y-91200000D02*
X127235000Y-91200000D01*
X124440000Y-91240000D02*
X127249000Y-91240000D01*
X124440000Y-91280000D02*
X127263000Y-91280000D01*
X124440000Y-91320000D02*
X127276000Y-91320000D01*
X124440000Y-91360000D02*
X127289000Y-91360000D01*
X124440000Y-91400000D02*
X127301000Y-91400000D01*
X124440000Y-91440000D02*
X127313000Y-91440000D01*
X124440000Y-91480000D02*
X127325000Y-91480000D01*
X124440000Y-91520000D02*
X127336000Y-91520000D01*
X124440000Y-91560000D02*
X127347000Y-91560000D01*
X124440000Y-91600000D02*
X127357000Y-91600000D01*
X124440000Y-91640000D02*
X127367000Y-91640000D01*
X124440000Y-91680000D02*
X127376000Y-91680000D01*
X124440000Y-91720000D02*
X127385000Y-91720000D01*
X127520000Y-92600000D02*
G75*
G02*
X119280000Y-92600000I-4120000J0D01*
G01*
X119280000Y-92600000D02*
G75*
G02*
X127520000Y-92600000I4120000J0D01*
G01*
%TO.C,J2*%
X93750000Y-87850000D02*
X92450000Y-87850000D01*
X93750000Y-89550000D02*
X93750000Y-87850000D01*
%TO.C,SW1*%
X130100000Y-106350000D02*
X130100000Y-107850000D01*
X131350000Y-110350000D02*
X135850000Y-110350000D01*
X135850000Y-103850000D02*
X131350000Y-103850000D01*
X137100000Y-107850000D02*
X137100000Y-106350000D01*
%TO.C,C1*%
X121530000Y-97630000D02*
X124770000Y-97630000D01*
X121530000Y-97778000D02*
X121530000Y-97630000D01*
X121530000Y-99870000D02*
X121530000Y-99722000D01*
X124770000Y-97630000D02*
X124770000Y-97778000D01*
X124770000Y-99722000D02*
X124770000Y-99870000D01*
X124770000Y-99870000D02*
X121530000Y-99870000D01*
%TO.C,U2*%
X134390000Y-90000000D02*
X129250000Y-90000000D01*
X129250000Y-100320000D01*
X134390000Y-100320000D01*
X134390000Y-90000000D01*
X153860000Y-87690000D02*
X128940000Y-87690000D01*
X128940000Y-102310000D01*
X153860000Y-102310000D01*
X153860000Y-87690000D01*
X135539755Y-91819079D02*
X134539755Y-91319079D01*
X135539755Y-90819079D01*
X135539755Y-91819079D01*
G36*
X135539755Y-91819079D02*
G01*
X134539755Y-91319079D01*
X135539755Y-90819079D01*
X135539755Y-91819079D01*
G37*
%TO.C,R2*%
X124030000Y-102170000D02*
X124360000Y-102170000D01*
X124030000Y-108710000D02*
X124030000Y-102170000D01*
X124360000Y-108710000D02*
X124030000Y-108710000D01*
X126440000Y-108710000D02*
X126770000Y-108710000D01*
X126770000Y-102170000D02*
X126440000Y-102170000D01*
X126770000Y-108710000D02*
X126770000Y-102170000D01*
%TO.C,SW2*%
X140500000Y-106350000D02*
X140500000Y-107850000D01*
X141750000Y-110350000D02*
X146250000Y-110350000D01*
X146250000Y-103850000D02*
X141750000Y-103850000D01*
X147500000Y-107850000D02*
X147500000Y-106350000D01*
%TO.C,R1*%
X120530000Y-102170000D02*
X120530000Y-108710000D01*
X120530000Y-108710000D02*
X120860000Y-108710000D01*
X120860000Y-102170000D02*
X120530000Y-102170000D01*
X122940000Y-102170000D02*
X123270000Y-102170000D01*
X123270000Y-102170000D02*
X123270000Y-108710000D01*
X123270000Y-108710000D02*
X122940000Y-108710000D01*
%TO.C,J4*%
X191740000Y-102170000D02*
X191740000Y-112330000D01*
X191740000Y-112330000D02*
X199360000Y-112330000D01*
X193010000Y-112330000D02*
X193010000Y-102170000D01*
X199360000Y-102170000D02*
X191740000Y-102170000D01*
X199360000Y-112330000D02*
X199360000Y-102170000D01*
%TO.C,J3*%
X102460000Y-88220000D02*
X102460000Y-90980000D01*
X112730000Y-88220000D02*
X102460000Y-88220000D01*
X112730000Y-88220000D02*
X112730000Y-90980000D01*
X112730000Y-90980000D02*
X102460000Y-90980000D01*
X114000000Y-88220000D02*
X115380000Y-88220000D01*
X115380000Y-88220000D02*
X115380000Y-89600000D01*
%TO.C,J5*%
X149630000Y-107570000D02*
X149630000Y-110330000D01*
X152170000Y-107570000D02*
X149630000Y-107570000D01*
X152170000Y-107570000D02*
X152170000Y-105030000D01*
X154930000Y-105030000D02*
X152170000Y-105030000D01*
X154930000Y-107570000D02*
X154930000Y-105030000D01*
X154930000Y-107570000D02*
X154930000Y-110330000D01*
X154930000Y-110330000D02*
X149630000Y-110330000D01*
%TO.C,U3*%
X189750000Y-93868000D02*
X155750000Y-93868000D01*
X155750000Y-110632000D01*
X189750000Y-110632000D01*
X189750000Y-93868000D01*
%TO.C,J1*%
X84440000Y-102260000D02*
X84440000Y-112420000D01*
X84440000Y-112420000D02*
X92060000Y-112420000D01*
X90790000Y-102260000D02*
X90790000Y-112420000D01*
X92060000Y-102260000D02*
X84440000Y-102260000D01*
X92060000Y-112420000D02*
X92060000Y-102260000D01*
%TD*%
M02*
