%TF.GenerationSoftware,KiCad,Pcbnew,9.0.4*%
%TF.CreationDate,2025-09-11T11:59:47+05:30*%
%TF.ProjectId,DimLED,44696d4c-4544-42e6-9b69-6361645f7063,Mark II.B*%
%TF.SameCoordinates,Original*%
%TF.FileFunction,Copper,L2,Bot*%
%TF.FilePolarity,Positive*%
%FSLAX46Y46*%
G04 Gerber Fmt 4.6, Leading zero omitted, Abs format (unit mm)*
G04 Created by KiCad (PCBNEW 9.0.4) date 2025-09-11 11:59:47*
%MOMM*%
%LPD*%
G01*
G04 APERTURE LIST*
G04 Aperture macros list*
%AMRoundRect*
0 Rectangle with rounded corners*
0 $1 Rounding radius*
0 $2 $3 $4 $5 $6 $7 $8 $9 X,Y pos of 4 corners*
0 Add a 4 corners polygon primitive as box body*
4,1,4,$2,$3,$4,$5,$6,$7,$8,$9,$2,$3,0*
0 Add four circle primitives for the rounded corners*
1,1,$1+$1,$2,$3*
1,1,$1+$1,$4,$5*
1,1,$1+$1,$6,$7*
1,1,$1+$1,$8,$9*
0 Add four rect primitives between the rounded corners*
20,1,$1+$1,$2,$3,$4,$5,0*
20,1,$1+$1,$4,$5,$6,$7,0*
20,1,$1+$1,$6,$7,$8,$9,0*
20,1,$1+$1,$8,$9,$2,$3,0*%
G04 Aperture macros list end*
%TA.AperFunction,ComponentPad*%
%ADD10RoundRect,0.250000X0.600000X0.600000X-0.600000X0.600000X-0.600000X-0.600000X0.600000X-0.600000X0*%
%TD*%
%TA.AperFunction,ComponentPad*%
%ADD11RoundRect,0.250000X-0.600000X-0.600000X0.600000X-0.600000X0.600000X0.600000X-0.600000X0.600000X0*%
%TD*%
%TA.AperFunction,ComponentPad*%
%ADD12RoundRect,0.250000X0.550000X-0.550000X0.550000X0.550000X-0.550000X0.550000X-0.550000X-0.550000X0*%
%TD*%
%TA.AperFunction,ComponentPad*%
%ADD13C,1.600000*%
%TD*%
%TA.AperFunction,ComponentPad*%
%ADD14R,2.000000X4.600000*%
%TD*%
%TA.AperFunction,ComponentPad*%
%ADD15O,2.000000X4.200000*%
%TD*%
%TA.AperFunction,ComponentPad*%
%ADD16O,4.200000X2.000000*%
%TD*%
%TA.AperFunction,ComponentPad*%
%ADD17C,2.000000*%
%TD*%
%TA.AperFunction,ComponentPad*%
%ADD18C,1.500000*%
%TD*%
%TA.AperFunction,ComponentPad*%
%ADD19R,3.000000X3.000000*%
%TD*%
%TA.AperFunction,ComponentPad*%
%ADD20C,3.000000*%
%TD*%
%TA.AperFunction,ComponentPad*%
%ADD21R,1.700000X1.700000*%
%TD*%
%TA.AperFunction,ComponentPad*%
%ADD22C,1.700000*%
%TD*%
%TA.AperFunction,ViaPad*%
%ADD23C,0.800000*%
%TD*%
%TA.AperFunction,ViaPad*%
%ADD24C,1.200000*%
%TD*%
%TA.AperFunction,Conductor*%
%ADD25C,2.000000*%
%TD*%
%TA.AperFunction,Conductor*%
%ADD26C,0.254000*%
%TD*%
%TA.AperFunction,Conductor*%
%ADD27C,0.500000*%
%TD*%
G04 APERTURE END LIST*
D10*
%TO.P,U1,1,IN+*%
%TO.N,+12V*%
X97100000Y-106885000D03*
D11*
%TO.P,U1,2,IN-*%
%TO.N,GND*%
X97100000Y-97940000D03*
D10*
%TO.P,U1,3,OUT+*%
%TO.N,+3V3*%
X116075000Y-106885000D03*
D11*
%TO.P,U1,4,OUT-*%
%TO.N,GND*%
X116100000Y-97940000D03*
%TD*%
D12*
%TO.P,C2,1*%
%TO.N,+3V3*%
X123400000Y-94500000D03*
D13*
%TO.P,C2,2*%
%TO.N,GND*%
X123400000Y-90700000D03*
%TD*%
D14*
%TO.P,J2,1*%
%TO.N,+12V*%
X92750000Y-92750000D03*
D15*
%TO.P,J2,2*%
%TO.N,GND*%
X86450000Y-92750000D03*
D16*
%TO.P,J2,3*%
X89850000Y-97550000D03*
%TD*%
D17*
%TO.P,SW1,1,1*%
%TO.N,/GPIO0*%
X130350000Y-104850000D03*
X136850000Y-104850000D03*
%TO.P,SW1,2,2*%
%TO.N,Net-(R2-Pad1)*%
X130350000Y-109350000D03*
X136850000Y-109350000D03*
%TD*%
D13*
%TO.P,C1,1*%
%TO.N,+3V3*%
X121900000Y-98750000D03*
%TO.P,C1,2*%
%TO.N,GND*%
X124400000Y-98750000D03*
%TD*%
D18*
%TO.P,U2,1,GND*%
%TO.N,GND*%
X133090000Y-91300000D03*
%TO.P,U2,2,GPIO2*%
%TO.N,/GPIO2*%
X133090000Y-93840000D03*
%TO.P,U2,3,GPIO0*%
%TO.N,/GPIO0*%
X133090000Y-96380000D03*
%TO.P,U2,4,URXD*%
%TO.N,/GPIO3*%
X133090000Y-98920000D03*
%TO.P,U2,5,UTXD*%
%TO.N,/GPIO1*%
X130550000Y-91300000D03*
%TO.P,U2,6,CH_PD*%
%TO.N,+3V3*%
X130550000Y-93840000D03*
%TO.P,U2,7,RST*%
%TO.N,/RESET*%
X130550000Y-96380000D03*
%TO.P,U2,8,VCC*%
%TO.N,+3V3*%
X130550000Y-98920000D03*
%TD*%
D13*
%TO.P,R2,1*%
%TO.N,Net-(R2-Pad1)*%
X125400000Y-109250000D03*
%TO.P,R2,2*%
%TO.N,GND*%
X125400000Y-101630000D03*
%TD*%
D17*
%TO.P,SW2,1,1*%
%TO.N,/RESET*%
X147250000Y-109350000D03*
X140750000Y-109350000D03*
%TO.P,SW2,2,2*%
%TO.N,GND*%
X147250000Y-104850000D03*
X140750000Y-104850000D03*
%TD*%
D13*
%TO.P,R1,1*%
%TO.N,+3V3*%
X121900000Y-101630000D03*
%TO.P,R1,2*%
%TO.N,/RESET*%
X121900000Y-109250000D03*
%TD*%
D19*
%TO.P,J4,1,Pin_1*%
%TO.N,/LED-*%
X195550000Y-104710000D03*
D20*
%TO.P,J4,2,Pin_2*%
%TO.N,+12V*%
X195550000Y-109790000D03*
%TD*%
D21*
%TO.P,J3,1,Pin_1*%
%TO.N,+3V3*%
X114000000Y-89600000D03*
D22*
%TO.P,J3,2,Pin_2*%
%TO.N,/GPIO1*%
X111460000Y-89600000D03*
%TO.P,J3,3,Pin_3*%
%TO.N,/GPIO2*%
X108920000Y-89600000D03*
%TO.P,J3,4,Pin_4*%
%TO.N,/GPIO3*%
X106380000Y-89600000D03*
%TO.P,J3,5,Pin_5*%
%TO.N,GND*%
X103840000Y-89600000D03*
%TD*%
%TO.P,J5,1,Pin_1*%
%TO.N,/GPIO3*%
X153550000Y-108950000D03*
D10*
%TO.P,J5,2,Pin_2*%
%TO.N,/PWM_SIG*%
X153550000Y-106410000D03*
D22*
%TO.P,J5,3,Pin_3*%
%TO.N,GND*%
X151010000Y-108950000D03*
%TD*%
D19*
%TO.P,J1,1,Pin_1*%
%TO.N,+12V*%
X88250000Y-109880000D03*
D20*
%TO.P,J1,2,Pin_2*%
%TO.N,GND*%
X88250000Y-104800000D03*
%TD*%
D23*
%TO.N,GND*%
X136500000Y-92500000D03*
X85250000Y-89200000D03*
X141400000Y-95000000D03*
X118400000Y-95400000D03*
X136500000Y-91250000D03*
X174250000Y-105500000D03*
X174250000Y-103750000D03*
X86400000Y-98600000D03*
X85200000Y-98600000D03*
X136500000Y-90100000D03*
X85400000Y-104300000D03*
X153300000Y-103300000D03*
X139600000Y-96500000D03*
X118400000Y-107400000D03*
X157250000Y-93000000D03*
X164800000Y-103250000D03*
X164800000Y-104750000D03*
X141400000Y-93500000D03*
X172750000Y-103750000D03*
X118400000Y-98400000D03*
X86000000Y-103300000D03*
X118400000Y-96900000D03*
X86200000Y-106500000D03*
X143200000Y-100600000D03*
X151800000Y-103300000D03*
X164750000Y-93000000D03*
X88800000Y-92750000D03*
X166250000Y-93000000D03*
X99450000Y-93000000D03*
X100750000Y-93000000D03*
X102000000Y-93000000D03*
X163250000Y-93000000D03*
X86400000Y-96600000D03*
X115850000Y-93000000D03*
X129900000Y-101400000D03*
X164800000Y-106250000D03*
X144200000Y-101500000D03*
X171250000Y-103750000D03*
X98200000Y-93000000D03*
X139600000Y-93500000D03*
X126000000Y-97100000D03*
X96950000Y-93000000D03*
X172750000Y-105500000D03*
X160250000Y-93000000D03*
X86450000Y-89200000D03*
X141400000Y-96500000D03*
X150300000Y-103300000D03*
X139600000Y-95000000D03*
X171250000Y-105500000D03*
X126700000Y-99100000D03*
X118400000Y-109150000D03*
X117100000Y-93000000D03*
X131200000Y-101400000D03*
X85400000Y-105500000D03*
X161750000Y-93000000D03*
X158750000Y-93000000D03*
X85200000Y-96600000D03*
%TO.N,/LED-*%
X198600000Y-106200000D03*
X198600000Y-104700000D03*
D24*
X180820000Y-100070000D03*
D23*
X198600000Y-103200000D03*
%TO.N,+12V*%
X198600000Y-110800000D03*
X198600000Y-109300000D03*
D24*
X185900000Y-108980000D03*
D23*
%TO.N,/RESET*%
X127900000Y-100400000D03*
%TD*%
D25*
%TO.N,+12V*%
X92750000Y-92750000D02*
X92750000Y-94550000D01*
D26*
%TO.N,/GPIO2*%
X108920000Y-90920000D02*
X109500000Y-91500000D01*
X120250000Y-91500000D02*
X121350000Y-92600000D01*
X121350000Y-92600000D02*
X131850000Y-92600000D01*
X109500000Y-91500000D02*
X120250000Y-91500000D01*
X108920000Y-89600000D02*
X108920000Y-90920000D01*
X131850000Y-92600000D02*
X133090000Y-93840000D01*
D27*
%TO.N,/RESET*%
X127900000Y-97300000D02*
X128820000Y-96380000D01*
X127900000Y-100400000D02*
X127900000Y-97300000D01*
X130035000Y-96115000D02*
X130200000Y-96280000D01*
X128820000Y-96380000D02*
X130550000Y-96380000D01*
%TO.N,/GPIO0*%
X135250000Y-102250000D02*
X135250000Y-97050000D01*
X135250000Y-97050000D02*
X134580000Y-96380000D01*
X132650000Y-104850000D02*
X135250000Y-102250000D01*
X130350000Y-104850000D02*
X132650000Y-104850000D01*
X134580000Y-96380000D02*
X133090000Y-96380000D01*
%TD*%
%TA.AperFunction,Conductor*%
%TO.N,GND*%
G36*
X147032909Y-87770185D02*
G01*
X147078664Y-87822989D01*
X147089869Y-87874714D01*
X147065000Y-102125000D01*
X153690000Y-102150000D01*
X153702247Y-95131902D01*
X156199500Y-95131902D01*
X156199500Y-95368097D01*
X156236446Y-95601368D01*
X156309433Y-95825996D01*
X156380277Y-95965033D01*
X156416657Y-96036433D01*
X156555483Y-96227510D01*
X156722490Y-96394517D01*
X156913567Y-96533343D01*
X157012991Y-96584002D01*
X157124003Y-96640566D01*
X157124005Y-96640566D01*
X157124008Y-96640568D01*
X157223288Y-96672826D01*
X157348631Y-96713553D01*
X157581903Y-96750500D01*
X157581908Y-96750500D01*
X157818097Y-96750500D01*
X158051368Y-96713553D01*
X158275992Y-96640568D01*
X158486433Y-96533343D01*
X158677510Y-96394517D01*
X158844517Y-96227510D01*
X158983343Y-96036433D01*
X159090568Y-95825992D01*
X159163553Y-95601368D01*
X159169257Y-95565352D01*
X159200500Y-95368097D01*
X159200500Y-95131902D01*
X159163553Y-94898631D01*
X159090566Y-94674003D01*
X158983342Y-94463566D01*
X158955905Y-94425802D01*
X158844517Y-94272490D01*
X158677510Y-94105483D01*
X158486433Y-93966657D01*
X158431009Y-93938417D01*
X158275996Y-93859433D01*
X158051368Y-93786446D01*
X157818097Y-93749500D01*
X157818092Y-93749500D01*
X157581908Y-93749500D01*
X157581903Y-93749500D01*
X157348631Y-93786446D01*
X157124003Y-93859433D01*
X156913566Y-93966657D01*
X156833953Y-94024500D01*
X156722490Y-94105483D01*
X156722488Y-94105485D01*
X156722487Y-94105485D01*
X156555485Y-94272487D01*
X156555485Y-94272488D01*
X156555483Y-94272490D01*
X156546602Y-94284714D01*
X156416657Y-94463566D01*
X156309433Y-94674003D01*
X156236446Y-94898631D01*
X156199500Y-95131902D01*
X153702247Y-95131902D01*
X153714913Y-87874280D01*
X153734715Y-87807279D01*
X153787598Y-87761616D01*
X153838913Y-87750500D01*
X199125500Y-87750500D01*
X199192539Y-87770185D01*
X199238294Y-87822989D01*
X199249500Y-87874500D01*
X199249500Y-101370500D01*
X199229815Y-101437539D01*
X199177011Y-101483294D01*
X199125500Y-101494500D01*
X191760746Y-101494500D01*
X191693707Y-101474815D01*
X191673065Y-101458181D01*
X190143776Y-99928892D01*
X190143761Y-99928877D01*
X190143737Y-99928855D01*
X190103519Y-99892728D01*
X190103507Y-99892718D01*
X190082856Y-99876076D01*
X190038974Y-99844433D01*
X189908100Y-99784663D01*
X189841055Y-99764976D01*
X189793582Y-99758150D01*
X189698638Y-99744500D01*
X189698636Y-99744500D01*
X183879500Y-99744500D01*
X183812461Y-99724815D01*
X183766706Y-99672011D01*
X183755500Y-99620500D01*
X183755500Y-96124010D01*
X183755500Y-96124000D01*
X183743947Y-96016544D01*
X183732741Y-95965033D01*
X183724598Y-95940566D01*
X183698616Y-95862502D01*
X183698613Y-95862496D01*
X183656554Y-95797052D01*
X183620825Y-95741457D01*
X183597830Y-95714919D01*
X183575076Y-95688659D01*
X183575072Y-95688656D01*
X183575070Y-95688653D01*
X183466336Y-95594433D01*
X183466333Y-95594431D01*
X183466331Y-95594430D01*
X183335465Y-95534664D01*
X183335460Y-95534662D01*
X183335459Y-95534662D01*
X183268420Y-95514977D01*
X183268422Y-95514977D01*
X183268417Y-95514976D01*
X183206347Y-95506052D01*
X183126000Y-95494500D01*
X179124000Y-95494500D01*
X179123991Y-95494500D01*
X179123990Y-95494501D01*
X179016549Y-95506052D01*
X179016537Y-95506054D01*
X178965027Y-95517260D01*
X178862502Y-95551383D01*
X178862496Y-95551386D01*
X178741462Y-95629171D01*
X178741451Y-95629179D01*
X178688659Y-95674923D01*
X178594433Y-95783664D01*
X178594430Y-95783668D01*
X178534664Y-95914534D01*
X178514976Y-95981582D01*
X178501325Y-96076528D01*
X178494502Y-96123990D01*
X178494500Y-96124001D01*
X178494500Y-101948640D01*
X178497397Y-102002688D01*
X178497397Y-102002689D01*
X178500229Y-102029022D01*
X178500232Y-102029049D01*
X178508885Y-102082445D01*
X178508885Y-102082447D01*
X178559166Y-102217252D01*
X178559168Y-102217257D01*
X178592653Y-102278580D01*
X178678877Y-102393761D01*
X178678881Y-102393765D01*
X178678886Y-102393771D01*
X179671562Y-103386446D01*
X180606239Y-104321123D01*
X180606255Y-104321137D01*
X180606262Y-104321144D01*
X180646480Y-104357271D01*
X180646492Y-104357281D01*
X180646500Y-104357288D01*
X180667142Y-104373922D01*
X180711026Y-104405567D01*
X180841903Y-104465338D01*
X180908942Y-104485023D01*
X180908946Y-104485024D01*
X181051362Y-104505500D01*
X183370500Y-104505500D01*
X183437539Y-104525185D01*
X183483294Y-104577989D01*
X183494500Y-104629500D01*
X183494500Y-112625500D01*
X183474815Y-112692539D01*
X183422011Y-112738294D01*
X183370500Y-112749500D01*
X84374500Y-112749500D01*
X84307461Y-112729815D01*
X84261706Y-112677011D01*
X84250500Y-112625500D01*
X84250500Y-108332135D01*
X86249500Y-108332135D01*
X86249500Y-111427870D01*
X86249501Y-111427876D01*
X86255908Y-111487483D01*
X86306202Y-111622328D01*
X86306206Y-111622335D01*
X86392452Y-111737544D01*
X86392455Y-111737547D01*
X86507664Y-111823793D01*
X86507671Y-111823797D01*
X86642517Y-111874091D01*
X86642516Y-111874091D01*
X86649444Y-111874835D01*
X86702127Y-111880500D01*
X89797872Y-111880499D01*
X89857483Y-111874091D01*
X89992331Y-111823796D01*
X90107546Y-111737546D01*
X90193796Y-111622331D01*
X90244091Y-111487483D01*
X90250500Y-111427873D01*
X90250499Y-108332128D01*
X90244091Y-108272517D01*
X90244080Y-108272488D01*
X90193797Y-108137671D01*
X90193793Y-108137664D01*
X90107547Y-108022455D01*
X90107544Y-108022452D01*
X89992335Y-107936206D01*
X89992328Y-107936202D01*
X89857482Y-107885908D01*
X89857483Y-107885908D01*
X89797883Y-107879501D01*
X89797881Y-107879500D01*
X89797873Y-107879500D01*
X89797864Y-107879500D01*
X86702129Y-107879500D01*
X86702123Y-107879501D01*
X86642516Y-107885908D01*
X86507671Y-107936202D01*
X86507664Y-107936206D01*
X86392455Y-108022452D01*
X86392452Y-108022455D01*
X86306206Y-108137664D01*
X86306202Y-108137671D01*
X86255908Y-108272517D01*
X86250902Y-108319087D01*
X86249501Y-108332123D01*
X86249500Y-108332135D01*
X84250500Y-108332135D01*
X84250500Y-104668905D01*
X86250000Y-104668905D01*
X86250000Y-104931094D01*
X86284220Y-105191009D01*
X86284222Y-105191020D01*
X86352075Y-105444255D01*
X86452404Y-105686471D01*
X86452409Y-105686482D01*
X86583488Y-105913516D01*
X86583494Y-105913524D01*
X86670080Y-106026365D01*
X87564767Y-105131677D01*
X87576497Y-105159995D01*
X87659670Y-105284472D01*
X87765528Y-105390330D01*
X87890005Y-105473503D01*
X87918320Y-105485231D01*
X87023633Y-106379917D01*
X87023633Y-106379918D01*
X87136475Y-106466505D01*
X87136483Y-106466511D01*
X87363517Y-106597590D01*
X87363528Y-106597595D01*
X87605744Y-106697924D01*
X87858979Y-106765777D01*
X87858990Y-106765779D01*
X88118905Y-106799999D01*
X88118920Y-106800000D01*
X88381080Y-106800000D01*
X88381094Y-106799999D01*
X88641009Y-106765779D01*
X88641020Y-106765777D01*
X88894255Y-106697924D01*
X89136471Y-106597595D01*
X89136482Y-106597590D01*
X89363516Y-106466511D01*
X89363534Y-106466499D01*
X89476365Y-106379919D01*
X89476365Y-106379917D01*
X89415963Y-106319515D01*
X89331431Y-106234983D01*
X95749500Y-106234983D01*
X95749500Y-107535001D01*
X95749501Y-107535018D01*
X95760000Y-107637796D01*
X95760001Y-107637799D01*
X95790420Y-107729595D01*
X95815186Y-107804334D01*
X95907288Y-107953656D01*
X96031344Y-108077712D01*
X96180666Y-108169814D01*
X96347203Y-108224999D01*
X96449991Y-108235500D01*
X97750008Y-108235499D01*
X97852797Y-108224999D01*
X97936498Y-108197262D01*
X98006323Y-108194861D01*
X98066365Y-108230592D01*
X98097558Y-108293112D01*
X98099500Y-108314969D01*
X98099500Y-110490892D01*
X98106891Y-110518477D01*
X98133608Y-110618187D01*
X98146529Y-110640566D01*
X98199500Y-110732314D01*
X98292686Y-110825500D01*
X98406814Y-110891392D01*
X98534108Y-110925500D01*
X98534110Y-110925500D01*
X114665890Y-110925500D01*
X114665892Y-110925500D01*
X114793186Y-110891392D01*
X114907314Y-110825500D01*
X115000500Y-110732314D01*
X115066392Y-110618186D01*
X115100500Y-110490892D01*
X115100500Y-109147648D01*
X120599500Y-109147648D01*
X120599500Y-109352351D01*
X120631522Y-109554534D01*
X120694781Y-109749223D01*
X120735831Y-109829786D01*
X120784850Y-109925992D01*
X120787715Y-109931613D01*
X120908028Y-110097213D01*
X121052786Y-110241971D01*
X121207749Y-110354556D01*
X121218390Y-110362287D01*
X121334607Y-110421503D01*
X121400776Y-110455218D01*
X121400778Y-110455218D01*
X121400781Y-110455220D01*
X121505137Y-110489127D01*
X121595465Y-110518477D01*
X121689318Y-110533342D01*
X121797648Y-110550500D01*
X121797649Y-110550500D01*
X122002351Y-110550500D01*
X122002352Y-110550500D01*
X122204534Y-110518477D01*
X122399219Y-110455220D01*
X122581610Y-110362287D01*
X122713097Y-110266757D01*
X122747213Y-110241971D01*
X122747215Y-110241968D01*
X122747219Y-110241966D01*
X122891966Y-110097219D01*
X122891968Y-110097215D01*
X122891971Y-110097213D01*
X122944732Y-110024590D01*
X123012287Y-109931610D01*
X123105220Y-109749219D01*
X123168477Y-109554534D01*
X123200500Y-109352352D01*
X123200500Y-109147648D01*
X124099500Y-109147648D01*
X124099500Y-109352351D01*
X124131522Y-109554534D01*
X124194781Y-109749223D01*
X124235831Y-109829786D01*
X124284850Y-109925992D01*
X124287715Y-109931613D01*
X124408028Y-110097213D01*
X124552786Y-110241971D01*
X124707749Y-110354556D01*
X124718390Y-110362287D01*
X124834607Y-110421503D01*
X124900776Y-110455218D01*
X124900778Y-110455218D01*
X124900781Y-110455220D01*
X125005137Y-110489127D01*
X125095465Y-110518477D01*
X125189318Y-110533342D01*
X125297648Y-110550500D01*
X125297649Y-110550500D01*
X125502351Y-110550500D01*
X125502352Y-110550500D01*
X125704534Y-110518477D01*
X125899219Y-110455220D01*
X126081610Y-110362287D01*
X126213097Y-110266757D01*
X126247213Y-110241971D01*
X126247215Y-110241968D01*
X126247219Y-110241966D01*
X126391966Y-110097219D01*
X126391968Y-110097215D01*
X126391971Y-110097213D01*
X126444732Y-110024590D01*
X126512287Y-109931610D01*
X126605220Y-109749219D01*
X126668477Y-109554534D01*
X126700500Y-109352352D01*
X126700500Y-109231902D01*
X128849500Y-109231902D01*
X128849500Y-109468097D01*
X128886446Y-109701368D01*
X128959433Y-109925996D01*
X129050667Y-110105051D01*
X129066657Y-110136433D01*
X129205483Y-110327510D01*
X129372490Y-110494517D01*
X129563567Y-110633343D01*
X129662991Y-110684002D01*
X129774003Y-110740566D01*
X129774005Y-110740566D01*
X129774008Y-110740568D01*
X129894412Y-110779689D01*
X129998631Y-110813553D01*
X130231903Y-110850500D01*
X130231908Y-110850500D01*
X130468097Y-110850500D01*
X130701368Y-110813553D01*
X130925992Y-110740568D01*
X131136433Y-110633343D01*
X131327510Y-110494517D01*
X131494517Y-110327510D01*
X131633343Y-110136433D01*
X131740568Y-109925992D01*
X131813553Y-109701368D01*
X131829062Y-109603447D01*
X131850500Y-109468097D01*
X131850500Y-109231902D01*
X135349500Y-109231902D01*
X135349500Y-109468097D01*
X135386446Y-109701368D01*
X135459433Y-109925996D01*
X135550667Y-110105051D01*
X135566657Y-110136433D01*
X135705483Y-110327510D01*
X135872490Y-110494517D01*
X136063567Y-110633343D01*
X136162991Y-110684002D01*
X136274003Y-110740566D01*
X136274005Y-110740566D01*
X136274008Y-110740568D01*
X136394412Y-110779689D01*
X136498631Y-110813553D01*
X136731903Y-110850500D01*
X136731908Y-110850500D01*
X136968097Y-110850500D01*
X137201368Y-110813553D01*
X137425992Y-110740568D01*
X137636433Y-110633343D01*
X137827510Y-110494517D01*
X137994517Y-110327510D01*
X138133343Y-110136433D01*
X138240568Y-109925992D01*
X138313553Y-109701368D01*
X138329062Y-109603447D01*
X138350500Y-109468097D01*
X138350500Y-109231902D01*
X139249500Y-109231902D01*
X139249500Y-109468097D01*
X139286446Y-109701368D01*
X139359433Y-109925996D01*
X139450667Y-110105051D01*
X139466657Y-110136433D01*
X139605483Y-110327510D01*
X139772490Y-110494517D01*
X139963567Y-110633343D01*
X140062991Y-110684002D01*
X140174003Y-110740566D01*
X140174005Y-110740566D01*
X140174008Y-110740568D01*
X140294412Y-110779689D01*
X140398631Y-110813553D01*
X140631903Y-110850500D01*
X140631908Y-110850500D01*
X140868097Y-110850500D01*
X141101368Y-110813553D01*
X141325992Y-110740568D01*
X141536433Y-110633343D01*
X141727510Y-110494517D01*
X141894517Y-110327510D01*
X142033343Y-110136433D01*
X142140568Y-109925992D01*
X142213553Y-109701368D01*
X142229062Y-109603447D01*
X142250500Y-109468097D01*
X142250500Y-109231902D01*
X145749500Y-109231902D01*
X145749500Y-109468097D01*
X145786446Y-109701368D01*
X145859433Y-109925996D01*
X145950667Y-110105051D01*
X145966657Y-110136433D01*
X146105483Y-110327510D01*
X146272490Y-110494517D01*
X146463567Y-110633343D01*
X146562991Y-110684002D01*
X146674003Y-110740566D01*
X146674005Y-110740566D01*
X146674008Y-110740568D01*
X146794412Y-110779689D01*
X146898631Y-110813553D01*
X147131903Y-110850500D01*
X147131908Y-110850500D01*
X147368097Y-110850500D01*
X147601368Y-110813553D01*
X147825992Y-110740568D01*
X148036433Y-110633343D01*
X148227510Y-110494517D01*
X148394517Y-110327510D01*
X148533343Y-110136433D01*
X148640568Y-109925992D01*
X148713553Y-109701368D01*
X148729062Y-109603447D01*
X148750500Y-109468097D01*
X148750500Y-109231902D01*
X148713553Y-108998631D01*
X148681061Y-108898632D01*
X148663230Y-108843753D01*
X149660000Y-108843753D01*
X149660000Y-109056246D01*
X149693242Y-109266127D01*
X149693242Y-109266130D01*
X149758904Y-109468217D01*
X149855375Y-109657550D01*
X149894728Y-109711716D01*
X150527037Y-109079408D01*
X150544075Y-109142993D01*
X150609901Y-109257007D01*
X150702993Y-109350099D01*
X150817007Y-109415925D01*
X150880590Y-109432962D01*
X150248282Y-110065269D01*
X150248282Y-110065270D01*
X150302449Y-110104624D01*
X150491782Y-110201095D01*
X150693870Y-110266757D01*
X150903754Y-110300000D01*
X151116246Y-110300000D01*
X151326127Y-110266757D01*
X151326130Y-110266757D01*
X151528217Y-110201095D01*
X151717554Y-110104622D01*
X151771716Y-110065270D01*
X151771717Y-110065270D01*
X151139408Y-109432962D01*
X151202993Y-109415925D01*
X151317007Y-109350099D01*
X151410099Y-109257007D01*
X151475925Y-109142993D01*
X151492962Y-109079408D01*
X152125270Y-109711717D01*
X152125270Y-109711716D01*
X152164622Y-109657555D01*
X152169232Y-109648507D01*
X152217205Y-109597709D01*
X152285025Y-109580912D01*
X152351161Y-109603447D01*
X152390204Y-109648504D01*
X152394949Y-109657817D01*
X152519890Y-109829786D01*
X152670213Y-109980109D01*
X152842179Y-110105048D01*
X152842181Y-110105049D01*
X152842184Y-110105051D01*
X153031588Y-110201557D01*
X153233757Y-110267246D01*
X153443713Y-110300500D01*
X153443714Y-110300500D01*
X153656286Y-110300500D01*
X153656287Y-110300500D01*
X153866243Y-110267246D01*
X154068412Y-110201557D01*
X154257816Y-110105051D01*
X154312572Y-110065269D01*
X154429786Y-109980109D01*
X154429788Y-109980106D01*
X154429792Y-109980104D01*
X154580104Y-109829792D01*
X154580106Y-109829788D01*
X154580109Y-109829786D01*
X154705048Y-109657820D01*
X154705050Y-109657817D01*
X154705051Y-109657816D01*
X154801557Y-109468412D01*
X154867246Y-109266243D01*
X154888524Y-109131902D01*
X156199500Y-109131902D01*
X156199500Y-109368097D01*
X156236446Y-109601368D01*
X156309433Y-109825996D01*
X156416657Y-110036433D01*
X156555483Y-110227510D01*
X156722490Y-110394517D01*
X156913567Y-110533343D01*
X156947240Y-110550500D01*
X157124003Y-110640566D01*
X157124005Y-110640566D01*
X157124008Y-110640568D01*
X157244412Y-110679689D01*
X157348631Y-110713553D01*
X157581903Y-110750500D01*
X157581908Y-110750500D01*
X157818097Y-110750500D01*
X158051368Y-110713553D01*
X158275992Y-110640568D01*
X158486433Y-110533343D01*
X158677510Y-110394517D01*
X158844517Y-110227510D01*
X158983343Y-110036433D01*
X159090568Y-109825992D01*
X159163553Y-109601368D01*
X159184662Y-109468092D01*
X159200500Y-109368097D01*
X159200500Y-109131902D01*
X159163553Y-108898631D01*
X159115513Y-108750781D01*
X159090568Y-108674008D01*
X159090566Y-108674005D01*
X159090566Y-108674003D01*
X158983342Y-108463566D01*
X158973486Y-108450000D01*
X158844517Y-108272490D01*
X158677510Y-108105483D01*
X158486433Y-107966657D01*
X158460917Y-107953656D01*
X158275996Y-107859433D01*
X158051368Y-107786446D01*
X157818097Y-107749500D01*
X157818092Y-107749500D01*
X157581908Y-107749500D01*
X157581903Y-107749500D01*
X157348631Y-107786446D01*
X157124003Y-107859433D01*
X156913566Y-107966657D01*
X156836772Y-108022452D01*
X156722490Y-108105483D01*
X156722488Y-108105485D01*
X156722487Y-108105485D01*
X156555485Y-108272487D01*
X156555485Y-108272488D01*
X156555483Y-108272490D01*
X156512162Y-108332116D01*
X156416657Y-108463566D01*
X156309433Y-108674003D01*
X156236446Y-108898631D01*
X156199500Y-109131902D01*
X154888524Y-109131902D01*
X154900500Y-109056287D01*
X154900500Y-108843713D01*
X154867246Y-108633757D01*
X154801557Y-108431588D01*
X154705051Y-108242184D01*
X154705049Y-108242181D01*
X154705048Y-108242179D01*
X154580109Y-108070213D01*
X154429790Y-107919894D01*
X154429785Y-107919890D01*
X154424891Y-107916334D01*
X154382227Y-107861003D01*
X154376249Y-107791390D01*
X154408857Y-107729595D01*
X154458774Y-107698312D01*
X154469334Y-107694814D01*
X154618656Y-107602712D01*
X154742712Y-107478656D01*
X154834814Y-107329334D01*
X154889999Y-107162797D01*
X154900500Y-107060009D01*
X154900499Y-105759992D01*
X154889999Y-105657203D01*
X154834814Y-105490666D01*
X154742712Y-105341344D01*
X154618656Y-105217288D01*
X154469334Y-105125186D01*
X154302797Y-105070001D01*
X154302795Y-105070000D01*
X154200010Y-105059500D01*
X152899998Y-105059500D01*
X152899981Y-105059501D01*
X152797203Y-105070000D01*
X152797200Y-105070001D01*
X152630668Y-105125185D01*
X152630663Y-105125187D01*
X152481342Y-105217289D01*
X152357289Y-105341342D01*
X152265187Y-105490663D01*
X152265185Y-105490668D01*
X152257094Y-105515086D01*
X152210001Y-105657203D01*
X152210001Y-105657204D01*
X152210000Y-105657204D01*
X152199500Y-105759983D01*
X152199500Y-107060001D01*
X152199501Y-107060018D01*
X152210000Y-107162796D01*
X152210001Y-107162799D01*
X152265185Y-107329331D01*
X152265186Y-107329334D01*
X152357288Y-107478656D01*
X152481344Y-107602712D01*
X152630666Y-107694814D01*
X152641223Y-107698312D01*
X152698668Y-107738084D01*
X152725492Y-107802600D01*
X152713177Y-107871376D01*
X152675113Y-107916330D01*
X152670219Y-107919885D01*
X152670209Y-107919894D01*
X152519890Y-108070213D01*
X152394949Y-108242182D01*
X152390202Y-108251499D01*
X152342227Y-108302293D01*
X152274405Y-108319087D01*
X152208271Y-108296548D01*
X152169234Y-108251495D01*
X152164626Y-108242452D01*
X152125270Y-108188282D01*
X152125269Y-108188282D01*
X151492962Y-108820590D01*
X151475925Y-108757007D01*
X151410099Y-108642993D01*
X151317007Y-108549901D01*
X151202993Y-108484075D01*
X151139409Y-108467037D01*
X151771716Y-107834728D01*
X151717550Y-107795375D01*
X151528217Y-107698904D01*
X151326129Y-107633242D01*
X151116246Y-107600000D01*
X150903754Y-107600000D01*
X150693872Y-107633242D01*
X150693869Y-107633242D01*
X150491782Y-107698904D01*
X150302439Y-107795380D01*
X150248282Y-107834727D01*
X150248282Y-107834728D01*
X150880591Y-108467037D01*
X150817007Y-108484075D01*
X150702993Y-108549901D01*
X150609901Y-108642993D01*
X150544075Y-108757007D01*
X150527037Y-108820591D01*
X149894728Y-108188282D01*
X149894727Y-108188282D01*
X149855380Y-108242439D01*
X149758904Y-108431782D01*
X149693242Y-108633869D01*
X149693242Y-108633872D01*
X149660000Y-108843753D01*
X148663230Y-108843753D01*
X148640568Y-108774008D01*
X148640566Y-108774005D01*
X148640566Y-108774003D01*
X148584002Y-108662991D01*
X148533343Y-108563567D01*
X148394517Y-108372490D01*
X148227510Y-108205483D01*
X148036433Y-108066657D01*
X147890837Y-107992472D01*
X147825996Y-107959433D01*
X147601368Y-107886446D01*
X147368097Y-107849500D01*
X147368092Y-107849500D01*
X147131908Y-107849500D01*
X147131903Y-107849500D01*
X146898631Y-107886446D01*
X146674003Y-107959433D01*
X146463566Y-108066657D01*
X146365828Y-108137669D01*
X146272490Y-108205483D01*
X146272488Y-108205485D01*
X146272487Y-108205485D01*
X146105485Y-108372487D01*
X146105485Y-108372488D01*
X146105483Y-108372490D01*
X146083472Y-108402786D01*
X145966657Y-108563566D01*
X145859433Y-108774003D01*
X145786446Y-108998631D01*
X145749500Y-109231902D01*
X142250500Y-109231902D01*
X142213553Y-108998631D01*
X142166468Y-108853720D01*
X142140568Y-108774008D01*
X142140566Y-108774005D01*
X142140566Y-108774003D01*
X142084002Y-108662991D01*
X142033343Y-108563567D01*
X141894517Y-108372490D01*
X141727510Y-108205483D01*
X141536433Y-108066657D01*
X141449682Y-108022455D01*
X141325996Y-107959433D01*
X141101368Y-107886446D01*
X140868097Y-107849500D01*
X140868092Y-107849500D01*
X140631908Y-107849500D01*
X140631903Y-107849500D01*
X140398631Y-107886446D01*
X140174003Y-107959433D01*
X139963566Y-108066657D01*
X139865828Y-108137669D01*
X139772490Y-108205483D01*
X139772488Y-108205485D01*
X139772487Y-108205485D01*
X139605485Y-108372487D01*
X139605485Y-108372488D01*
X139605483Y-108372490D01*
X139583472Y-108402786D01*
X139466657Y-108563566D01*
X139359433Y-108774003D01*
X139286446Y-108998631D01*
X139249500Y-109231902D01*
X138350500Y-109231902D01*
X138313553Y-108998631D01*
X138266468Y-108853720D01*
X138240568Y-108774008D01*
X138240566Y-108774005D01*
X138240566Y-108774003D01*
X138184002Y-108662991D01*
X138133343Y-108563567D01*
X137994517Y-108372490D01*
X137827510Y-108205483D01*
X137636433Y-108066657D01*
X137549682Y-108022455D01*
X137425996Y-107959433D01*
X137201368Y-107886446D01*
X136968097Y-107849500D01*
X136968092Y-107849500D01*
X136731908Y-107849500D01*
X136731903Y-107849500D01*
X136498631Y-107886446D01*
X136274003Y-107959433D01*
X136063566Y-108066657D01*
X135965828Y-108137669D01*
X135872490Y-108205483D01*
X135872488Y-108205485D01*
X135872487Y-108205485D01*
X135705485Y-108372487D01*
X135705485Y-108372488D01*
X135705483Y-108372490D01*
X135683472Y-108402786D01*
X135566657Y-108563566D01*
X135459433Y-108774003D01*
X135386446Y-108998631D01*
X135349500Y-109231902D01*
X131850500Y-109231902D01*
X131813553Y-108998631D01*
X131766468Y-108853720D01*
X131740568Y-108774008D01*
X131740566Y-108774005D01*
X131740566Y-108774003D01*
X131684002Y-108662991D01*
X131633343Y-108563567D01*
X131494517Y-108372490D01*
X131327510Y-108205483D01*
X131136433Y-108066657D01*
X131049682Y-108022455D01*
X130925996Y-107959433D01*
X130701368Y-107886446D01*
X130468097Y-107849500D01*
X130468092Y-107849500D01*
X130231908Y-107849500D01*
X130231903Y-107849500D01*
X129998631Y-107886446D01*
X129774003Y-107959433D01*
X129563566Y-108066657D01*
X129465828Y-108137669D01*
X129372490Y-108205483D01*
X129372488Y-108205485D01*
X129372487Y-108205485D01*
X129205485Y-108372487D01*
X129205485Y-108372488D01*
X129205483Y-108372490D01*
X129183472Y-108402786D01*
X129066657Y-108563566D01*
X128959433Y-108774003D01*
X128886446Y-108998631D01*
X128849500Y-109231902D01*
X126700500Y-109231902D01*
X126700500Y-109147648D01*
X126668477Y-108945466D01*
X126653259Y-108898631D01*
X126605218Y-108750776D01*
X126550299Y-108642993D01*
X126512287Y-108568390D01*
X126498854Y-108549901D01*
X126391971Y-108402786D01*
X126247213Y-108258028D01*
X126081613Y-108137715D01*
X126081612Y-108137714D01*
X126081610Y-108137713D01*
X126018355Y-108105483D01*
X125899223Y-108044781D01*
X125704534Y-107981522D01*
X125528598Y-107953657D01*
X125502352Y-107949500D01*
X125297648Y-107949500D01*
X125273329Y-107953351D01*
X125095465Y-107981522D01*
X124900776Y-108044781D01*
X124718386Y-108137715D01*
X124552786Y-108258028D01*
X124408028Y-108402786D01*
X124287715Y-108568386D01*
X124194781Y-108750776D01*
X124131522Y-108945465D01*
X124099500Y-109147648D01*
X123200500Y-109147648D01*
X123168477Y-108945466D01*
X123153259Y-108898631D01*
X123105218Y-108750776D01*
X123050299Y-108642993D01*
X123012287Y-108568390D01*
X122998854Y-108549901D01*
X122891971Y-108402786D01*
X122747213Y-108258028D01*
X122581613Y-108137715D01*
X122581612Y-108137714D01*
X122581610Y-108137713D01*
X122518355Y-108105483D01*
X122399223Y-108044781D01*
X122204534Y-107981522D01*
X122028598Y-107953657D01*
X122002352Y-107949500D01*
X121797648Y-107949500D01*
X121773329Y-107953351D01*
X121595465Y-107981522D01*
X121400776Y-108044781D01*
X121218386Y-108137715D01*
X121052786Y-108258028D01*
X120908028Y-108402786D01*
X120787715Y-108568386D01*
X120694781Y-108750776D01*
X120631522Y-108945465D01*
X120599500Y-109147648D01*
X115100500Y-109147648D01*
X115100500Y-108323253D01*
X115120185Y-108256214D01*
X115172989Y-108210459D01*
X115242147Y-108200515D01*
X115263490Y-108205543D01*
X115322203Y-108224999D01*
X115424991Y-108235500D01*
X116725008Y-108235499D01*
X116827797Y-108224999D01*
X116994334Y-108169814D01*
X117143656Y-108077712D01*
X117267712Y-107953656D01*
X117359814Y-107804334D01*
X117414999Y-107637797D01*
X117425500Y-107535009D01*
X117425499Y-106234992D01*
X117414999Y-106132203D01*
X117359814Y-105965666D01*
X117267712Y-105816344D01*
X117143656Y-105692288D01*
X116994334Y-105600186D01*
X116827797Y-105545001D01*
X116827795Y-105545000D01*
X116725010Y-105534500D01*
X115424998Y-105534500D01*
X115424981Y-105534501D01*
X115322203Y-105545000D01*
X115322196Y-105545002D01*
X115263503Y-105564451D01*
X115193674Y-105566852D01*
X115133633Y-105531120D01*
X115102441Y-105468600D01*
X115100500Y-105446745D01*
X115100500Y-101527648D01*
X120599500Y-101527648D01*
X120599500Y-101732351D01*
X120631522Y-101934534D01*
X120694781Y-102129223D01*
X120758691Y-102254653D01*
X120787585Y-102311359D01*
X120787715Y-102311613D01*
X120908028Y-102477213D01*
X121052786Y-102621971D01*
X121173226Y-102709474D01*
X121218390Y-102742287D01*
X121331658Y-102800000D01*
X121400776Y-102835218D01*
X121400778Y-102835218D01*
X121400781Y-102835220D01*
X121505137Y-102869127D01*
X121595465Y-102898477D01*
X121696557Y-102914488D01*
X121797648Y-102930500D01*
X121797649Y-102930500D01*
X122002351Y-102930500D01*
X122002352Y-102930500D01*
X122204534Y-102898477D01*
X122399219Y-102835220D01*
X122581610Y-102742287D01*
X122674590Y-102674732D01*
X122747213Y-102621971D01*
X122747215Y-102621968D01*
X122747219Y-102621966D01*
X122891966Y-102477219D01*
X122891968Y-102477215D01*
X122891971Y-102477213D01*
X122952603Y-102393759D01*
X123012287Y-102311610D01*
X123105220Y-102129219D01*
X123168477Y-101934534D01*
X123200500Y-101732352D01*
X123200500Y-101527682D01*
X124100000Y-101527682D01*
X124100000Y-101732317D01*
X124132009Y-101934417D01*
X124195244Y-102129031D01*
X124288141Y-102311350D01*
X124288147Y-102311359D01*
X124320523Y-102355921D01*
X124320524Y-102355922D01*
X125000000Y-101676446D01*
X125000000Y-101682661D01*
X125027259Y-101784394D01*
X125079920Y-101875606D01*
X125154394Y-101950080D01*
X125245606Y-102002741D01*
X125347339Y-102030000D01*
X125353553Y-102030000D01*
X124674076Y-102709474D01*
X124718650Y-102741859D01*
X124900968Y-102834755D01*
X125095582Y-102897990D01*
X125297683Y-102930000D01*
X125502317Y-102930000D01*
X125704417Y-102897990D01*
X125899031Y-102834755D01*
X126081349Y-102741859D01*
X126125921Y-102709474D01*
X125446447Y-102030000D01*
X125452661Y-102030000D01*
X125554394Y-102002741D01*
X125645606Y-101950080D01*
X125720080Y-101875606D01*
X125772741Y-101784394D01*
X125800000Y-101682661D01*
X125800000Y-101676447D01*
X126479474Y-102355921D01*
X126511859Y-102311349D01*
X126604755Y-102129031D01*
X126667990Y-101934417D01*
X126700000Y-101732317D01*
X126700000Y-101527682D01*
X126667990Y-101325582D01*
X126604755Y-101130968D01*
X126511859Y-100948650D01*
X126479474Y-100904077D01*
X126479474Y-100904076D01*
X125800000Y-101583551D01*
X125800000Y-101577339D01*
X125772741Y-101475606D01*
X125720080Y-101384394D01*
X125645606Y-101309920D01*
X125554394Y-101257259D01*
X125452661Y-101230000D01*
X125446446Y-101230000D01*
X126125922Y-100550524D01*
X126125921Y-100550523D01*
X126081359Y-100518147D01*
X126081350Y-100518141D01*
X125899031Y-100425244D01*
X125704417Y-100362009D01*
X125502317Y-100330000D01*
X125297683Y-100330000D01*
X125095582Y-100362009D01*
X124900968Y-100425244D01*
X124718644Y-100518143D01*
X124674077Y-100550523D01*
X124674077Y-100550524D01*
X125353554Y-101230000D01*
X125347339Y-101230000D01*
X125245606Y-101257259D01*
X125154394Y-101309920D01*
X125079920Y-101384394D01*
X125027259Y-101475606D01*
X125000000Y-101577339D01*
X125000000Y-101583553D01*
X124320524Y-100904077D01*
X124320523Y-100904077D01*
X124288143Y-100948644D01*
X124195244Y-101130968D01*
X124132009Y-101325582D01*
X124100000Y-101527682D01*
X123200500Y-101527682D01*
X123200500Y-101527648D01*
X123186228Y-101437539D01*
X123168477Y-101325465D01*
X123127064Y-101198009D01*
X123105220Y-101130781D01*
X123105218Y-101130778D01*
X123105218Y-101130776D01*
X123025355Y-100974038D01*
X123012287Y-100948390D01*
X122980092Y-100904077D01*
X122891971Y-100782786D01*
X122747213Y-100638028D01*
X122581613Y-100517715D01*
X122581612Y-100517714D01*
X122581610Y-100517713D01*
X122524653Y-100488691D01*
X122399223Y-100424781D01*
X122204534Y-100361522D01*
X122029995Y-100333878D01*
X122002352Y-100329500D01*
X121797648Y-100329500D01*
X121773329Y-100333351D01*
X121595465Y-100361522D01*
X121400776Y-100424781D01*
X121218386Y-100517715D01*
X121052786Y-100638028D01*
X120908028Y-100782786D01*
X120787715Y-100948386D01*
X120694781Y-101130776D01*
X120631522Y-101325465D01*
X120599500Y-101527648D01*
X115100500Y-101527648D01*
X115100500Y-99369443D01*
X115120185Y-99302404D01*
X115172989Y-99256649D01*
X115242147Y-99246705D01*
X115263504Y-99251737D01*
X115347302Y-99279505D01*
X115347309Y-99279506D01*
X115450019Y-99289999D01*
X115849999Y-99289999D01*
X115850000Y-99289998D01*
X115850000Y-98373012D01*
X115907007Y-98405925D01*
X116034174Y-98440000D01*
X116165826Y-98440000D01*
X116292993Y-98405925D01*
X116350000Y-98373012D01*
X116350000Y-99289999D01*
X116749972Y-99289999D01*
X116749986Y-99289998D01*
X116852697Y-99279505D01*
X117019119Y-99224358D01*
X117019124Y-99224356D01*
X117168345Y-99132315D01*
X117292315Y-99008345D01*
X117384356Y-98859124D01*
X117384358Y-98859119D01*
X117439505Y-98692697D01*
X117439506Y-98692689D01*
X117444108Y-98647648D01*
X120599500Y-98647648D01*
X120599500Y-98852351D01*
X120631522Y-99054534D01*
X120694781Y-99249223D01*
X120736549Y-99331195D01*
X120787585Y-99431359D01*
X120787715Y-99431613D01*
X120908028Y-99597213D01*
X121052786Y-99741971D01*
X121173226Y-99829474D01*
X121218390Y-99862287D01*
X121334607Y-99921503D01*
X121400776Y-99955218D01*
X121400778Y-99955218D01*
X121400781Y-99955220D01*
X121505137Y-99989127D01*
X121595465Y-100018477D01*
X121696557Y-100034488D01*
X121797648Y-100050500D01*
X121797649Y-100050500D01*
X122002351Y-100050500D01*
X122002352Y-100050500D01*
X122204534Y-100018477D01*
X122399219Y-99955220D01*
X122581610Y-99862287D01*
X122715547Y-99764977D01*
X122747213Y-99741971D01*
X122747215Y-99741968D01*
X122747219Y-99741966D01*
X122891966Y-99597219D01*
X122891968Y-99597215D01*
X122891971Y-99597213D01*
X123012286Y-99431611D01*
X123012415Y-99431359D01*
X123039795Y-99377621D01*
X123087769Y-99326826D01*
X123155589Y-99310030D01*
X123221725Y-99332567D01*
X123260765Y-99377621D01*
X123288141Y-99431350D01*
X123288147Y-99431359D01*
X123320523Y-99475921D01*
X123320524Y-99475922D01*
X124000000Y-98796446D01*
X124000000Y-98802661D01*
X124027259Y-98904394D01*
X124079920Y-98995606D01*
X124154394Y-99070080D01*
X124245606Y-99122741D01*
X124347339Y-99150000D01*
X124353553Y-99150000D01*
X123674076Y-99829474D01*
X123718650Y-99861859D01*
X123900968Y-99954755D01*
X124095582Y-100017990D01*
X124297683Y-100050000D01*
X124502317Y-100050000D01*
X124704417Y-100017990D01*
X124899031Y-99954755D01*
X125081349Y-99861859D01*
X125125921Y-99829474D01*
X124446447Y-99150000D01*
X124452661Y-99150000D01*
X124554394Y-99122741D01*
X124645606Y-99070080D01*
X124720080Y-98995606D01*
X124772741Y-98904394D01*
X124800000Y-98802661D01*
X124800000Y-98796447D01*
X125479474Y-99475921D01*
X125511859Y-99431349D01*
X125604755Y-99249031D01*
X125667990Y-99054417D01*
X125700000Y-98852317D01*
X125700000Y-98647682D01*
X125667990Y-98445582D01*
X125604755Y-98250968D01*
X125511859Y-98068650D01*
X125479474Y-98024077D01*
X125479474Y-98024076D01*
X124800000Y-98703551D01*
X124800000Y-98697339D01*
X124772741Y-98595606D01*
X124720080Y-98504394D01*
X124645606Y-98429920D01*
X124554394Y-98377259D01*
X124452661Y-98350000D01*
X124446446Y-98350000D01*
X125125922Y-97670524D01*
X125125921Y-97670523D01*
X125081359Y-97638147D01*
X125081350Y-97638141D01*
X124899031Y-97545244D01*
X124704417Y-97482009D01*
X124502317Y-97450000D01*
X124297683Y-97450000D01*
X124095582Y-97482009D01*
X123900968Y-97545244D01*
X123718644Y-97638143D01*
X123674077Y-97670523D01*
X123674077Y-97670524D01*
X124353554Y-98350000D01*
X124347339Y-98350000D01*
X124245606Y-98377259D01*
X124154394Y-98429920D01*
X124079920Y-98504394D01*
X124027259Y-98595606D01*
X124000000Y-98697339D01*
X124000000Y-98703553D01*
X123320524Y-98024077D01*
X123320523Y-98024077D01*
X123288143Y-98068644D01*
X123260765Y-98122378D01*
X123212790Y-98173174D01*
X123144969Y-98189969D01*
X123078834Y-98167431D01*
X123039795Y-98122378D01*
X123031120Y-98105352D01*
X123012287Y-98068390D01*
X123012285Y-98068387D01*
X123012284Y-98068385D01*
X122891971Y-97902786D01*
X122747213Y-97758028D01*
X122581613Y-97637715D01*
X122581612Y-97637714D01*
X122581610Y-97637713D01*
X122498154Y-97595190D01*
X122399223Y-97544781D01*
X122204534Y-97481522D01*
X122029995Y-97453878D01*
X122002352Y-97449500D01*
X121797648Y-97449500D01*
X121773329Y-97453351D01*
X121595465Y-97481522D01*
X121400776Y-97544781D01*
X121218386Y-97637715D01*
X121052786Y-97758028D01*
X120908028Y-97902786D01*
X120787715Y-98068386D01*
X120694781Y-98250776D01*
X120631522Y-98445465D01*
X120599500Y-98647648D01*
X117444108Y-98647648D01*
X117445894Y-98630173D01*
X117445894Y-98630172D01*
X117449999Y-98589988D01*
X117450000Y-98589973D01*
X117450000Y-98190000D01*
X116533012Y-98190000D01*
X116565925Y-98132993D01*
X116600000Y-98005826D01*
X116600000Y-97874174D01*
X116565925Y-97747007D01*
X116533012Y-97690000D01*
X117449999Y-97690000D01*
X117449999Y-97290028D01*
X117449998Y-97290013D01*
X117439505Y-97187302D01*
X117384358Y-97020880D01*
X117384356Y-97020875D01*
X117292315Y-96871654D01*
X117168345Y-96747684D01*
X117019124Y-96655643D01*
X117019119Y-96655641D01*
X116852697Y-96600494D01*
X116852690Y-96600493D01*
X116749986Y-96590000D01*
X116350000Y-96590000D01*
X116350000Y-97506988D01*
X116292993Y-97474075D01*
X116165826Y-97440000D01*
X116034174Y-97440000D01*
X115907007Y-97474075D01*
X115850000Y-97506988D01*
X115850000Y-96590000D01*
X115450028Y-96590000D01*
X115450012Y-96590001D01*
X115347302Y-96600494D01*
X115263504Y-96628262D01*
X115193675Y-96630664D01*
X115133633Y-96594932D01*
X115102441Y-96532411D01*
X115100500Y-96510556D01*
X115100500Y-94359110D01*
X115100500Y-94359108D01*
X115066392Y-94231814D01*
X115000500Y-94117686D01*
X114907314Y-94024500D01*
X114850250Y-93991554D01*
X114793187Y-93958608D01*
X114717831Y-93938417D01*
X114665892Y-93924500D01*
X98665892Y-93924500D01*
X98534108Y-93924500D01*
X98406812Y-93958608D01*
X98292686Y-94024500D01*
X98292683Y-94024502D01*
X98199502Y-94117683D01*
X98199500Y-94117686D01*
X98133608Y-94231812D01*
X98099500Y-94359108D01*
X98099500Y-96510556D01*
X98079815Y-96577595D01*
X98027011Y-96623350D01*
X97957853Y-96633294D01*
X97936497Y-96628262D01*
X97852701Y-96600495D01*
X97852690Y-96600493D01*
X97749986Y-96590000D01*
X97350000Y-96590000D01*
X97350000Y-97506988D01*
X97292993Y-97474075D01*
X97165826Y-97440000D01*
X97034174Y-97440000D01*
X96907007Y-97474075D01*
X96850000Y-97506988D01*
X96850000Y-96590000D01*
X96450028Y-96590000D01*
X96450012Y-96590001D01*
X96347302Y-96600494D01*
X96180880Y-96655641D01*
X96180875Y-96655643D01*
X96031654Y-96747684D01*
X95907684Y-96871654D01*
X95815643Y-97020875D01*
X95815641Y-97020880D01*
X95760494Y-97187302D01*
X95760493Y-97187309D01*
X95750000Y-97290013D01*
X95750000Y-97690000D01*
X96666988Y-97690000D01*
X96634075Y-97747007D01*
X96600000Y-97874174D01*
X96600000Y-98005826D01*
X96634075Y-98132993D01*
X96666988Y-98190000D01*
X95750001Y-98190000D01*
X95750001Y-98589986D01*
X95760494Y-98692697D01*
X95815641Y-98859119D01*
X95815643Y-98859124D01*
X95907684Y-99008345D01*
X96031654Y-99132315D01*
X96180875Y-99224356D01*
X96180880Y-99224358D01*
X96347302Y-99279505D01*
X96347309Y-99279506D01*
X96450019Y-99289999D01*
X96849999Y-99289999D01*
X96850000Y-99289998D01*
X96850000Y-98373012D01*
X96907007Y-98405925D01*
X97034174Y-98440000D01*
X97165826Y-98440000D01*
X97292993Y-98405925D01*
X97350000Y-98373012D01*
X97350000Y-99289999D01*
X97749972Y-99289999D01*
X97749986Y-99289998D01*
X97852695Y-99279506D01*
X97936495Y-99251737D01*
X98006324Y-99249335D01*
X98066366Y-99285066D01*
X98097559Y-99347587D01*
X98099500Y-99369443D01*
X98099500Y-105455030D01*
X98079815Y-105522069D01*
X98027011Y-105567824D01*
X97957853Y-105577768D01*
X97936497Y-105572736D01*
X97852799Y-105545001D01*
X97852795Y-105545000D01*
X97750010Y-105534500D01*
X96449998Y-105534500D01*
X96449981Y-105534501D01*
X96347203Y-105545000D01*
X96347200Y-105545001D01*
X96180668Y-105600185D01*
X96180663Y-105600187D01*
X96031342Y-105692289D01*
X95907289Y-105816342D01*
X95815187Y-105965663D01*
X95815185Y-105965668D01*
X95795072Y-106026365D01*
X95760001Y-106132203D01*
X95760001Y-106132204D01*
X95760000Y-106132204D01*
X95749500Y-106234983D01*
X89331431Y-106234983D01*
X88581679Y-105485231D01*
X88609995Y-105473503D01*
X88734472Y-105390330D01*
X88840330Y-105284472D01*
X88923503Y-105159995D01*
X88935231Y-105131679D01*
X89829917Y-106026365D01*
X89829919Y-106026365D01*
X89916499Y-105913534D01*
X89916511Y-105913516D01*
X90047590Y-105686482D01*
X90047595Y-105686471D01*
X90147924Y-105444255D01*
X90215777Y-105191020D01*
X90215779Y-105191009D01*
X90249999Y-104931094D01*
X90250000Y-104931080D01*
X90250000Y-104668919D01*
X90249999Y-104668905D01*
X90215779Y-104408990D01*
X90215777Y-104408979D01*
X90147924Y-104155744D01*
X90047595Y-103913528D01*
X90047590Y-103913517D01*
X89916511Y-103686483D01*
X89916505Y-103686475D01*
X89829918Y-103573633D01*
X89829917Y-103573633D01*
X88935231Y-104468320D01*
X88923503Y-104440005D01*
X88840330Y-104315528D01*
X88734472Y-104209670D01*
X88609995Y-104126497D01*
X88581677Y-104114767D01*
X89476365Y-103220080D01*
X89363524Y-103133494D01*
X89363516Y-103133488D01*
X89136482Y-103002409D01*
X89136471Y-103002404D01*
X88894255Y-102902075D01*
X88641020Y-102834222D01*
X88641009Y-102834220D01*
X88381094Y-102800000D01*
X88118905Y-102800000D01*
X87858990Y-102834220D01*
X87858979Y-102834222D01*
X87605744Y-102902075D01*
X87363528Y-103002404D01*
X87363517Y-103002409D01*
X87136471Y-103133496D01*
X87023633Y-103220079D01*
X87023633Y-103220080D01*
X87918321Y-104114768D01*
X87890005Y-104126497D01*
X87765528Y-104209670D01*
X87659670Y-104315528D01*
X87576497Y-104440005D01*
X87564768Y-104468321D01*
X86670080Y-103573633D01*
X86670079Y-103573633D01*
X86583496Y-103686471D01*
X86452409Y-103913517D01*
X86452404Y-103913528D01*
X86352075Y-104155744D01*
X86284222Y-104408979D01*
X86284220Y-104408990D01*
X86250000Y-104668905D01*
X84250500Y-104668905D01*
X84250500Y-97300000D01*
X87270898Y-97300000D01*
X88316988Y-97300000D01*
X88284075Y-97357007D01*
X88250000Y-97484174D01*
X88250000Y-97615826D01*
X88284075Y-97742993D01*
X88316988Y-97800000D01*
X87270898Y-97800000D01*
X87286934Y-97901247D01*
X87359897Y-98125802D01*
X87467085Y-98336171D01*
X87605866Y-98527186D01*
X87772813Y-98694133D01*
X87963828Y-98832914D01*
X88174197Y-98940102D01*
X88398752Y-99013065D01*
X88398751Y-99013065D01*
X88631948Y-99050000D01*
X89600000Y-99050000D01*
X89600000Y-98050000D01*
X90100000Y-98050000D01*
X90100000Y-99050000D01*
X91068052Y-99050000D01*
X91301247Y-99013065D01*
X91525802Y-98940102D01*
X91736171Y-98832914D01*
X91927186Y-98694133D01*
X92094133Y-98527186D01*
X92232914Y-98336171D01*
X92340102Y-98125804D01*
X92348383Y-98100319D01*
X92348383Y-98100318D01*
X92413065Y-97901247D01*
X92429102Y-97800000D01*
X91383012Y-97800000D01*
X91415925Y-97742993D01*
X91450000Y-97615826D01*
X91450000Y-97484174D01*
X91415925Y-97357007D01*
X91383012Y-97300000D01*
X92429102Y-97300000D01*
X92413065Y-97198752D01*
X92340102Y-96974197D01*
X92232914Y-96763828D01*
X92094133Y-96572813D01*
X91927186Y-96405866D01*
X91736171Y-96267085D01*
X91525802Y-96159897D01*
X91301247Y-96086934D01*
X91301248Y-96086934D01*
X91068052Y-96050000D01*
X90100000Y-96050000D01*
X90100000Y-97050000D01*
X89600000Y-97050000D01*
X89600000Y-96050000D01*
X88631948Y-96050000D01*
X88398752Y-96086934D01*
X88174197Y-96159897D01*
X87963828Y-96267085D01*
X87772813Y-96405866D01*
X87605866Y-96572813D01*
X87467085Y-96763828D01*
X87359897Y-96974197D01*
X87286934Y-97198752D01*
X87270898Y-97300000D01*
X84250500Y-97300000D01*
X84250500Y-91531947D01*
X84950000Y-91531947D01*
X84950000Y-92500000D01*
X85950000Y-92500000D01*
X85950000Y-93000000D01*
X84950000Y-93000000D01*
X84950000Y-93968052D01*
X84986934Y-94201247D01*
X85059897Y-94425802D01*
X85167085Y-94636171D01*
X85305866Y-94827186D01*
X85472813Y-94994133D01*
X85663828Y-95132914D01*
X85874195Y-95240102D01*
X86098744Y-95313063D01*
X86098750Y-95313065D01*
X86200000Y-95329101D01*
X86200000Y-94283012D01*
X86257007Y-94315925D01*
X86384174Y-94350000D01*
X86515826Y-94350000D01*
X86642993Y-94315925D01*
X86700000Y-94283012D01*
X86700000Y-95329100D01*
X86801249Y-95313065D01*
X86801255Y-95313063D01*
X87025804Y-95240102D01*
X87236171Y-95132914D01*
X87427186Y-94994133D01*
X87594133Y-94827186D01*
X87732914Y-94636171D01*
X87840102Y-94425802D01*
X87913065Y-94201247D01*
X87950000Y-93968052D01*
X87950000Y-93000000D01*
X86950000Y-93000000D01*
X86950000Y-92500000D01*
X87950000Y-92500000D01*
X87950000Y-91531947D01*
X87913065Y-91298752D01*
X87840102Y-91074197D01*
X87732914Y-90863828D01*
X87594133Y-90672813D01*
X87427187Y-90505867D01*
X87417907Y-90499125D01*
X87417906Y-90499124D01*
X87284413Y-90402135D01*
X91249500Y-90402135D01*
X91249500Y-95097870D01*
X91249501Y-95097876D01*
X91255908Y-95157483D01*
X91306202Y-95292328D01*
X91306206Y-95292335D01*
X91392452Y-95407544D01*
X91392455Y-95407547D01*
X91449053Y-95449916D01*
X91507669Y-95493796D01*
X91584616Y-95522495D01*
X91584622Y-95522497D01*
X91628971Y-95550998D01*
X91772490Y-95694517D01*
X91963567Y-95833343D01*
X92020783Y-95862496D01*
X92174003Y-95940566D01*
X92174005Y-95940566D01*
X92174008Y-95940568D01*
X92294412Y-95979689D01*
X92398631Y-96013553D01*
X92631903Y-96050500D01*
X92631908Y-96050500D01*
X92868097Y-96050500D01*
X93101368Y-96013553D01*
X93325992Y-95940568D01*
X93536433Y-95833343D01*
X93727510Y-95694517D01*
X93871031Y-95550994D01*
X93915373Y-95522498D01*
X93992331Y-95493796D01*
X94107546Y-95407546D01*
X94193796Y-95292331D01*
X94244091Y-95157483D01*
X94250500Y-95097873D01*
X94250500Y-92770476D01*
X94250500Y-92631908D01*
X94250500Y-92624313D01*
X94250499Y-92624295D01*
X94250499Y-90402129D01*
X94250498Y-90402123D01*
X94250497Y-90402116D01*
X94244091Y-90342517D01*
X94231148Y-90307816D01*
X94193797Y-90207671D01*
X94193793Y-90207664D01*
X94107547Y-90092455D01*
X94107544Y-90092452D01*
X93992335Y-90006206D01*
X93992328Y-90006202D01*
X93857482Y-89955908D01*
X93857483Y-89955908D01*
X93797883Y-89949501D01*
X93797881Y-89949500D01*
X93797873Y-89949500D01*
X93797864Y-89949500D01*
X91702129Y-89949500D01*
X91702123Y-89949501D01*
X91642516Y-89955908D01*
X91507671Y-90006202D01*
X91507664Y-90006206D01*
X91392455Y-90092452D01*
X91392452Y-90092455D01*
X91306206Y-90207664D01*
X91306202Y-90207671D01*
X91255908Y-90342517D01*
X91249501Y-90402116D01*
X91249501Y-90402123D01*
X91249500Y-90402135D01*
X87284413Y-90402135D01*
X87236171Y-90367085D01*
X87025802Y-90259897D01*
X86801247Y-90186934D01*
X86700000Y-90170897D01*
X86700000Y-91216988D01*
X86642993Y-91184075D01*
X86515826Y-91150000D01*
X86384174Y-91150000D01*
X86257007Y-91184075D01*
X86200000Y-91216988D01*
X86200000Y-90170897D01*
X86098752Y-90186934D01*
X85874197Y-90259897D01*
X85663828Y-90367085D01*
X85472813Y-90505866D01*
X85305866Y-90672813D01*
X85167085Y-90863828D01*
X85059897Y-91074197D01*
X84986934Y-91298752D01*
X84950000Y-91531947D01*
X84250500Y-91531947D01*
X84250500Y-89493753D01*
X102490000Y-89493753D01*
X102490000Y-89706246D01*
X102523242Y-89916127D01*
X102523242Y-89916130D01*
X102588904Y-90118217D01*
X102685375Y-90307550D01*
X102724728Y-90361716D01*
X103357037Y-89729408D01*
X103374075Y-89792993D01*
X103439901Y-89907007D01*
X103532993Y-90000099D01*
X103647007Y-90065925D01*
X103710590Y-90082962D01*
X103078282Y-90715269D01*
X103078282Y-90715270D01*
X103132449Y-90754624D01*
X103321782Y-90851095D01*
X103523870Y-90916757D01*
X103733754Y-90950000D01*
X103946246Y-90950000D01*
X104156127Y-90916757D01*
X104156130Y-90916757D01*
X104358217Y-90851095D01*
X104547554Y-90754622D01*
X104601716Y-90715270D01*
X104601717Y-90715270D01*
X103969408Y-90082962D01*
X104032993Y-90065925D01*
X104147007Y-90000099D01*
X104240099Y-89907007D01*
X104305925Y-89792993D01*
X104322962Y-89729409D01*
X104955270Y-90361717D01*
X104955270Y-90361716D01*
X104994622Y-90307555D01*
X104999232Y-90298507D01*
X105047205Y-90247709D01*
X105115025Y-90230912D01*
X105181161Y-90253447D01*
X105220204Y-90298504D01*
X105224949Y-90307817D01*
X105349890Y-90479786D01*
X105500213Y-90630109D01*
X105672179Y-90755048D01*
X105672181Y-90755049D01*
X105672184Y-90755051D01*
X105861588Y-90851557D01*
X106063757Y-90917246D01*
X106273713Y-90950500D01*
X106273714Y-90950500D01*
X106486286Y-90950500D01*
X106486287Y-90950500D01*
X106696243Y-90917246D01*
X106898412Y-90851557D01*
X107087816Y-90755051D01*
X107157090Y-90704721D01*
X107259786Y-90630109D01*
X107259788Y-90630106D01*
X107259792Y-90630104D01*
X107410104Y-90479792D01*
X107410106Y-90479788D01*
X107410109Y-90479786D01*
X107535048Y-90307820D01*
X107535050Y-90307817D01*
X107535051Y-90307816D01*
X107539514Y-90299054D01*
X107587488Y-90248259D01*
X107655308Y-90231463D01*
X107721444Y-90253999D01*
X107760486Y-90299056D01*
X107764951Y-90307820D01*
X107889890Y-90479786D01*
X107889896Y-90479792D01*
X108040208Y-90630104D01*
X108212184Y-90755051D01*
X108212188Y-90755053D01*
X108212195Y-90755057D01*
X108224790Y-90761474D01*
X108275588Y-90809446D01*
X108292500Y-90871961D01*
X108292500Y-90981807D01*
X108316612Y-91103027D01*
X108316614Y-91103035D01*
X108339450Y-91158165D01*
X108363917Y-91217234D01*
X108410163Y-91286447D01*
X108410164Y-91286447D01*
X108432588Y-91320008D01*
X108432591Y-91320011D01*
X109012589Y-91900008D01*
X109065396Y-91952815D01*
X109099994Y-91987413D01*
X109099996Y-91987414D01*
X109202756Y-92056076D01*
X109202758Y-92056077D01*
X109202767Y-92056083D01*
X109227772Y-92066440D01*
X109250071Y-92075677D01*
X109292254Y-92093149D01*
X109316966Y-92103386D01*
X109438192Y-92127499D01*
X109438196Y-92127500D01*
X109438197Y-92127500D01*
X119938719Y-92127500D01*
X120005758Y-92147185D01*
X120026400Y-92163819D01*
X120862589Y-93000008D01*
X120949992Y-93087411D01*
X120949994Y-93087413D01*
X120949997Y-93087414D01*
X121052767Y-93156083D01*
X121086215Y-93169937D01*
X121166965Y-93203386D01*
X121288192Y-93227499D01*
X121288196Y-93227500D01*
X121288197Y-93227500D01*
X122211770Y-93227500D01*
X122278809Y-93247185D01*
X122324564Y-93299989D01*
X122334508Y-93369147D01*
X122305483Y-93432703D01*
X122299451Y-93439181D01*
X122257289Y-93481342D01*
X122165187Y-93630663D01*
X122165186Y-93630666D01*
X122110001Y-93797203D01*
X122110001Y-93797204D01*
X122110000Y-93797204D01*
X122099500Y-93899983D01*
X122099500Y-95100001D01*
X122099501Y-95100018D01*
X122110000Y-95202796D01*
X122110001Y-95202799D01*
X122146540Y-95313065D01*
X122165186Y-95369334D01*
X122257288Y-95518656D01*
X122381344Y-95642712D01*
X122530666Y-95734814D01*
X122697203Y-95789999D01*
X122799991Y-95800500D01*
X124000008Y-95800499D01*
X124102797Y-95789999D01*
X124269334Y-95734814D01*
X124418656Y-95642712D01*
X124542712Y-95518656D01*
X124634814Y-95369334D01*
X124689999Y-95202797D01*
X124700500Y-95100009D01*
X124700499Y-93899992D01*
X124689999Y-93797203D01*
X124634814Y-93630666D01*
X124542712Y-93481344D01*
X124500549Y-93439181D01*
X124467064Y-93377858D01*
X124472048Y-93308166D01*
X124513920Y-93252233D01*
X124579384Y-93227816D01*
X124588230Y-93227500D01*
X129263489Y-93227500D01*
X129330528Y-93247185D01*
X129376283Y-93299989D01*
X129386227Y-93369147D01*
X129381422Y-93389808D01*
X129359932Y-93455948D01*
X129330290Y-93547173D01*
X129299500Y-93741577D01*
X129299500Y-93938422D01*
X129330290Y-94132826D01*
X129391117Y-94320029D01*
X129464253Y-94463566D01*
X129480476Y-94495405D01*
X129596172Y-94654646D01*
X129735354Y-94793828D01*
X129894595Y-94909524D01*
X130017992Y-94972397D01*
X130071213Y-94999515D01*
X130122009Y-95047489D01*
X130138804Y-95115310D01*
X130116267Y-95181445D01*
X130071213Y-95220485D01*
X129894591Y-95310478D01*
X129745273Y-95418964D01*
X129719844Y-95433206D01*
X129679507Y-95449915D01*
X129556581Y-95532050D01*
X129537635Y-95550997D01*
X129495449Y-95593182D01*
X129434129Y-95626666D01*
X129407770Y-95629500D01*
X128746080Y-95629500D01*
X128601092Y-95658340D01*
X128601082Y-95658343D01*
X128464511Y-95714912D01*
X128464498Y-95714919D01*
X128341584Y-95797048D01*
X128341580Y-95797051D01*
X127317050Y-96821580D01*
X127317044Y-96821588D01*
X127267812Y-96895268D01*
X127267813Y-96895269D01*
X127234921Y-96944496D01*
X127234914Y-96944508D01*
X127178342Y-97081086D01*
X127178340Y-97081092D01*
X127149500Y-97226079D01*
X127149500Y-99864729D01*
X127129815Y-99931768D01*
X127128602Y-99933620D01*
X127101988Y-99973449D01*
X127101987Y-99973452D01*
X127034106Y-100137332D01*
X127034103Y-100137341D01*
X126999500Y-100311304D01*
X126999500Y-100488695D01*
X127034103Y-100662658D01*
X127034106Y-100662667D01*
X127101983Y-100826540D01*
X127101990Y-100826553D01*
X127200535Y-100974034D01*
X127200538Y-100974038D01*
X127325961Y-101099461D01*
X127325965Y-101099464D01*
X127473446Y-101198009D01*
X127473459Y-101198016D01*
X127550677Y-101230000D01*
X127637334Y-101265894D01*
X127637336Y-101265894D01*
X127637341Y-101265896D01*
X127811304Y-101300499D01*
X127811307Y-101300500D01*
X127811309Y-101300500D01*
X127988693Y-101300500D01*
X127988694Y-101300499D01*
X128046682Y-101288964D01*
X128162658Y-101265896D01*
X128162661Y-101265894D01*
X128162666Y-101265894D01*
X128326547Y-101198013D01*
X128474035Y-101099464D01*
X128599464Y-100974035D01*
X128698013Y-100826547D01*
X128765894Y-100662666D01*
X128800500Y-100488691D01*
X128800500Y-100311309D01*
X128800500Y-100311306D01*
X128800499Y-100311304D01*
X128765896Y-100137341D01*
X128765893Y-100137332D01*
X128741683Y-100078884D01*
X128698013Y-99973453D01*
X128698011Y-99973451D01*
X128698011Y-99973449D01*
X128671398Y-99933620D01*
X128650520Y-99866942D01*
X128650500Y-99864729D01*
X128650500Y-97662229D01*
X128670185Y-97595190D01*
X128686819Y-97574548D01*
X129094548Y-97166819D01*
X129155871Y-97133334D01*
X129182229Y-97130500D01*
X129486386Y-97130500D01*
X129553425Y-97150185D01*
X129586702Y-97181612D01*
X129596172Y-97194646D01*
X129735354Y-97333828D01*
X129894595Y-97449524D01*
X129957395Y-97481522D01*
X130071213Y-97539515D01*
X130122009Y-97587489D01*
X130138804Y-97655310D01*
X130116267Y-97721445D01*
X130071213Y-97760485D01*
X129894594Y-97850476D01*
X129824715Y-97901247D01*
X129735354Y-97966172D01*
X129735352Y-97966174D01*
X129735351Y-97966174D01*
X129596174Y-98105351D01*
X129596174Y-98105352D01*
X129596172Y-98105354D01*
X129576091Y-98132993D01*
X129480476Y-98264594D01*
X129391117Y-98439970D01*
X129330290Y-98627173D01*
X129299500Y-98821577D01*
X129299500Y-99018422D01*
X129330290Y-99212826D01*
X129391117Y-99400029D01*
X129429787Y-99475922D01*
X129480476Y-99575405D01*
X129596172Y-99734646D01*
X129735354Y-99873828D01*
X129894595Y-99989524D01*
X129950463Y-100017990D01*
X130069970Y-100078882D01*
X130069972Y-100078882D01*
X130069975Y-100078884D01*
X130170317Y-100111487D01*
X130257173Y-100139709D01*
X130451578Y-100170500D01*
X130451583Y-100170500D01*
X130648422Y-100170500D01*
X130842826Y-100139709D01*
X130850142Y-100137332D01*
X131030025Y-100078884D01*
X131205405Y-99989524D01*
X131364646Y-99873828D01*
X131503828Y-99734646D01*
X131619524Y-99575405D01*
X131708884Y-99400025D01*
X131709515Y-99398787D01*
X131757489Y-99347990D01*
X131825310Y-99331195D01*
X131891445Y-99353732D01*
X131930485Y-99398787D01*
X132020474Y-99575403D01*
X132036323Y-99597217D01*
X132136172Y-99734646D01*
X132275354Y-99873828D01*
X132434595Y-99989524D01*
X132490463Y-100017990D01*
X132609970Y-100078882D01*
X132609972Y-100078882D01*
X132609975Y-100078884D01*
X132710317Y-100111487D01*
X132797173Y-100139709D01*
X132991578Y-100170500D01*
X132991583Y-100170500D01*
X133188422Y-100170500D01*
X133382826Y-100139709D01*
X133390142Y-100137332D01*
X133570025Y-100078884D01*
X133745405Y-99989524D01*
X133904646Y-99873828D01*
X134043828Y-99734646D01*
X134159524Y-99575405D01*
X134248884Y-99400025D01*
X134257569Y-99373292D01*
X134297006Y-99315619D01*
X134361365Y-99288420D01*
X134430211Y-99300334D01*
X134481687Y-99347578D01*
X134499500Y-99411612D01*
X134499500Y-101887770D01*
X134479815Y-101954809D01*
X134463181Y-101975451D01*
X132375451Y-104063181D01*
X132314128Y-104096666D01*
X132287770Y-104099500D01*
X131722631Y-104099500D01*
X131655592Y-104079815D01*
X131622313Y-104048386D01*
X131494517Y-103872490D01*
X131327510Y-103705483D01*
X131136433Y-103566657D01*
X130925996Y-103459433D01*
X130701368Y-103386446D01*
X130468097Y-103349500D01*
X130468092Y-103349500D01*
X130231908Y-103349500D01*
X130231903Y-103349500D01*
X129998631Y-103386446D01*
X129774003Y-103459433D01*
X129563566Y-103566657D01*
X129480044Y-103627340D01*
X129372490Y-103705483D01*
X129372488Y-103705485D01*
X129372487Y-103705485D01*
X129205485Y-103872487D01*
X129205485Y-103872488D01*
X129205483Y-103872490D01*
X129175675Y-103913517D01*
X129066657Y-104063566D01*
X128959433Y-104274003D01*
X128886446Y-104498631D01*
X128849500Y-104731902D01*
X128849500Y-104968097D01*
X128886446Y-105201368D01*
X128959433Y-105425996D01*
X129048188Y-105600185D01*
X129066657Y-105636433D01*
X129205483Y-105827510D01*
X129372490Y-105994517D01*
X129563567Y-106133343D01*
X129662991Y-106184002D01*
X129774003Y-106240566D01*
X129774005Y-106240566D01*
X129774008Y-106240568D01*
X129894412Y-106279689D01*
X129998631Y-106313553D01*
X130231903Y-106350500D01*
X130231908Y-106350500D01*
X130468097Y-106350500D01*
X130701368Y-106313553D01*
X130702870Y-106313065D01*
X130925992Y-106240568D01*
X131136433Y-106133343D01*
X131327510Y-105994517D01*
X131494517Y-105827510D01*
X131622313Y-105651613D01*
X131677643Y-105608949D01*
X131722631Y-105600500D01*
X132723920Y-105600500D01*
X132821462Y-105581096D01*
X132868913Y-105571658D01*
X133005495Y-105515084D01*
X133054729Y-105482186D01*
X133128416Y-105432952D01*
X133829466Y-104731902D01*
X135349500Y-104731902D01*
X135349500Y-104968097D01*
X135386446Y-105201368D01*
X135459433Y-105425996D01*
X135548188Y-105600185D01*
X135566657Y-105636433D01*
X135705483Y-105827510D01*
X135872490Y-105994517D01*
X136063567Y-106133343D01*
X136162991Y-106184002D01*
X136274003Y-106240566D01*
X136274005Y-106240566D01*
X136274008Y-106240568D01*
X136394412Y-106279689D01*
X136498631Y-106313553D01*
X136731903Y-106350500D01*
X136731908Y-106350500D01*
X136968097Y-106350500D01*
X137201368Y-106313553D01*
X137202870Y-106313065D01*
X137425992Y-106240568D01*
X137636433Y-106133343D01*
X137827510Y-105994517D01*
X137994517Y-105827510D01*
X138133343Y-105636433D01*
X138240568Y-105425992D01*
X138313553Y-105201368D01*
X138325619Y-105125185D01*
X138350500Y-104968097D01*
X138350500Y-104731947D01*
X139250000Y-104731947D01*
X139250000Y-104968052D01*
X139286934Y-105201247D01*
X139359897Y-105425802D01*
X139467087Y-105636174D01*
X139527338Y-105719104D01*
X139527340Y-105719105D01*
X140226212Y-105020233D01*
X140237482Y-105062292D01*
X140309890Y-105187708D01*
X140412292Y-105290110D01*
X140537708Y-105362518D01*
X140579765Y-105373787D01*
X139880893Y-106072658D01*
X139963828Y-106132914D01*
X140174197Y-106240102D01*
X140398752Y-106313065D01*
X140398751Y-106313065D01*
X140631948Y-106350000D01*
X140868052Y-106350000D01*
X141101247Y-106313065D01*
X141325802Y-106240102D01*
X141536163Y-106132918D01*
X141536169Y-106132914D01*
X141619104Y-106072658D01*
X141619105Y-106072658D01*
X140920233Y-105373787D01*
X140962292Y-105362518D01*
X141087708Y-105290110D01*
X141190110Y-105187708D01*
X141262518Y-105062292D01*
X141273787Y-105020234D01*
X141972658Y-105719105D01*
X141972658Y-105719104D01*
X142032914Y-105636169D01*
X142032918Y-105636163D01*
X142140102Y-105425802D01*
X142213065Y-105201247D01*
X142250000Y-104968052D01*
X142250000Y-104731947D01*
X145750000Y-104731947D01*
X145750000Y-104968052D01*
X145786934Y-105201247D01*
X145859897Y-105425802D01*
X145967087Y-105636174D01*
X146027338Y-105719104D01*
X146027340Y-105719105D01*
X146726212Y-105020233D01*
X146737482Y-105062292D01*
X146809890Y-105187708D01*
X146912292Y-105290110D01*
X147037708Y-105362518D01*
X147079765Y-105373787D01*
X146380893Y-106072658D01*
X146463828Y-106132914D01*
X146674197Y-106240102D01*
X146898752Y-106313065D01*
X146898751Y-106313065D01*
X147131948Y-106350000D01*
X147368052Y-106350000D01*
X147601247Y-106313065D01*
X147825802Y-106240102D01*
X148036163Y-106132918D01*
X148036169Y-106132914D01*
X148119104Y-106072658D01*
X148119105Y-106072658D01*
X147420233Y-105373787D01*
X147462292Y-105362518D01*
X147587708Y-105290110D01*
X147690110Y-105187708D01*
X147762518Y-105062292D01*
X147773787Y-105020234D01*
X148472658Y-105719105D01*
X148472658Y-105719104D01*
X148532914Y-105636169D01*
X148532918Y-105636163D01*
X148640102Y-105425802D01*
X148713065Y-105201247D01*
X148750000Y-104968052D01*
X148750000Y-104731947D01*
X148713065Y-104498752D01*
X148640102Y-104274197D01*
X148532914Y-104063828D01*
X148472658Y-103980894D01*
X148472658Y-103980893D01*
X147773787Y-104679765D01*
X147762518Y-104637708D01*
X147690110Y-104512292D01*
X147587708Y-104409890D01*
X147462292Y-104337482D01*
X147420234Y-104326212D01*
X148119105Y-103627340D01*
X148119104Y-103627338D01*
X148036174Y-103567087D01*
X147825802Y-103459897D01*
X147601247Y-103386934D01*
X147601248Y-103386934D01*
X147368052Y-103350000D01*
X147131948Y-103350000D01*
X146898752Y-103386934D01*
X146674197Y-103459897D01*
X146463830Y-103567084D01*
X146380894Y-103627340D01*
X147079766Y-104326212D01*
X147037708Y-104337482D01*
X146912292Y-104409890D01*
X146809890Y-104512292D01*
X146737482Y-104637708D01*
X146726212Y-104679766D01*
X146027340Y-103980894D01*
X145967084Y-104063830D01*
X145859897Y-104274197D01*
X145786934Y-104498752D01*
X145750000Y-104731947D01*
X142250000Y-104731947D01*
X142213065Y-104498752D01*
X142140102Y-104274197D01*
X142032914Y-104063828D01*
X141972658Y-103980894D01*
X141972658Y-103980893D01*
X141273787Y-104679765D01*
X141262518Y-104637708D01*
X141190110Y-104512292D01*
X141087708Y-104409890D01*
X140962292Y-104337482D01*
X140920234Y-104326212D01*
X141619105Y-103627340D01*
X141619104Y-103627339D01*
X141536174Y-103567087D01*
X141325802Y-103459897D01*
X141101247Y-103386934D01*
X141101248Y-103386934D01*
X140868052Y-103350000D01*
X140631948Y-103350000D01*
X140398752Y-103386934D01*
X140174197Y-103459897D01*
X139963830Y-103567084D01*
X139880894Y-103627340D01*
X140579766Y-104326212D01*
X140537708Y-104337482D01*
X140412292Y-104409890D01*
X140309890Y-104512292D01*
X140237482Y-104637708D01*
X140226212Y-104679766D01*
X139527340Y-103980894D01*
X139467084Y-104063830D01*
X139359897Y-104274197D01*
X139286934Y-104498752D01*
X139250000Y-104731947D01*
X138350500Y-104731947D01*
X138350500Y-104731902D01*
X138313553Y-104498631D01*
X138255883Y-104321144D01*
X138240568Y-104274008D01*
X138240566Y-104274005D01*
X138240566Y-104274003D01*
X138184002Y-104162991D01*
X138133343Y-104063567D01*
X137994517Y-103872490D01*
X137827510Y-103705483D01*
X137636433Y-103566657D01*
X137425996Y-103459433D01*
X137201368Y-103386446D01*
X136968097Y-103349500D01*
X136968092Y-103349500D01*
X136731908Y-103349500D01*
X136731903Y-103349500D01*
X136498631Y-103386446D01*
X136274003Y-103459433D01*
X136063566Y-103566657D01*
X135980044Y-103627340D01*
X135872490Y-103705483D01*
X135872488Y-103705485D01*
X135872487Y-103705485D01*
X135705485Y-103872487D01*
X135705485Y-103872488D01*
X135705483Y-103872490D01*
X135675675Y-103913517D01*
X135566657Y-104063566D01*
X135459433Y-104274003D01*
X135386446Y-104498631D01*
X135349500Y-104731902D01*
X133829466Y-104731902D01*
X134481553Y-104079815D01*
X135832948Y-102728419D01*
X135832947Y-102728419D01*
X135832951Y-102728416D01*
X135915084Y-102605495D01*
X135971658Y-102468913D01*
X135986607Y-102393761D01*
X136000500Y-102323920D01*
X136000500Y-96976079D01*
X135971659Y-96831092D01*
X135971658Y-96831091D01*
X135971658Y-96831087D01*
X135955134Y-96791195D01*
X135915087Y-96694511D01*
X135915080Y-96694498D01*
X135832952Y-96571585D01*
X135793778Y-96532411D01*
X135728416Y-96467049D01*
X135655881Y-96394514D01*
X135058421Y-95797052D01*
X135058414Y-95797046D01*
X134980859Y-95745226D01*
X134980859Y-95745227D01*
X134935495Y-95714916D01*
X134935492Y-95714914D01*
X134935491Y-95714914D01*
X134798917Y-95658343D01*
X134798907Y-95658340D01*
X134653920Y-95629500D01*
X134653918Y-95629500D01*
X134153614Y-95629500D01*
X134086575Y-95609815D01*
X134053297Y-95578387D01*
X134043828Y-95565354D01*
X133904648Y-95426174D01*
X133904646Y-95426172D01*
X133771039Y-95329100D01*
X133745403Y-95310474D01*
X133568787Y-95220485D01*
X133517990Y-95172511D01*
X133501195Y-95104690D01*
X133523732Y-95038555D01*
X133568787Y-94999515D01*
X133745403Y-94909525D01*
X133745402Y-94909525D01*
X133745405Y-94909524D01*
X133904646Y-94793828D01*
X134043828Y-94654646D01*
X134159524Y-94495405D01*
X134248884Y-94320025D01*
X134309709Y-94132826D01*
X134326866Y-94024500D01*
X134340500Y-93938422D01*
X134340500Y-93741577D01*
X134309709Y-93547173D01*
X134258581Y-93389819D01*
X134248884Y-93359975D01*
X134248882Y-93359972D01*
X134248882Y-93359970D01*
X134181385Y-93227500D01*
X134159524Y-93184595D01*
X134043828Y-93025354D01*
X133904646Y-92886172D01*
X133745405Y-92770476D01*
X133570025Y-92681116D01*
X133570024Y-92681115D01*
X133568235Y-92680204D01*
X133517439Y-92632230D01*
X133500644Y-92564409D01*
X133523181Y-92498274D01*
X133568236Y-92459234D01*
X133745141Y-92369097D01*
X133780125Y-92343678D01*
X133780126Y-92343678D01*
X133136447Y-91700000D01*
X133142661Y-91700000D01*
X133244394Y-91672741D01*
X133335606Y-91620080D01*
X133410080Y-91545606D01*
X133462741Y-91454394D01*
X133490000Y-91352661D01*
X133490000Y-91346448D01*
X134133678Y-91990126D01*
X134133678Y-91990125D01*
X134159095Y-91955143D01*
X134248418Y-91779835D01*
X134309221Y-91592705D01*
X134340000Y-91398382D01*
X134340000Y-91201617D01*
X134309221Y-91007294D01*
X134248418Y-90820164D01*
X134159096Y-90644858D01*
X134133678Y-90609873D01*
X134133677Y-90609873D01*
X133490000Y-91253551D01*
X133490000Y-91247339D01*
X133462741Y-91145606D01*
X133410080Y-91054394D01*
X133335606Y-90979920D01*
X133244394Y-90927259D01*
X133142661Y-90900000D01*
X133136447Y-90900000D01*
X133780125Y-90256320D01*
X133780125Y-90256319D01*
X133745145Y-90230905D01*
X133569835Y-90141581D01*
X133382705Y-90080778D01*
X133188382Y-90050000D01*
X132991618Y-90050000D01*
X132797294Y-90080778D01*
X132610161Y-90141582D01*
X132434863Y-90230899D01*
X132434859Y-90230902D01*
X132399873Y-90256320D01*
X132399872Y-90256320D01*
X133043554Y-90900000D01*
X133037339Y-90900000D01*
X132935606Y-90927259D01*
X132844394Y-90979920D01*
X132769920Y-91054394D01*
X132717259Y-91145606D01*
X132690000Y-91247339D01*
X132690000Y-91253553D01*
X132046320Y-90609872D01*
X132046320Y-90609873D01*
X132020902Y-90644859D01*
X131930765Y-90821764D01*
X131882790Y-90872560D01*
X131814969Y-90889355D01*
X131748835Y-90866818D01*
X131709795Y-90821763D01*
X131619525Y-90644596D01*
X131594296Y-90609872D01*
X131503828Y-90485354D01*
X131364646Y-90346172D01*
X131205405Y-90230476D01*
X131030029Y-90141117D01*
X130842826Y-90080290D01*
X130648422Y-90049500D01*
X130648417Y-90049500D01*
X130451583Y-90049500D01*
X130451578Y-90049500D01*
X130257173Y-90080290D01*
X130069970Y-90141117D01*
X129894594Y-90230476D01*
X129803741Y-90296485D01*
X129735354Y-90346172D01*
X129735352Y-90346174D01*
X129735351Y-90346174D01*
X129596174Y-90485351D01*
X129596174Y-90485352D01*
X129596172Y-90485354D01*
X129552396Y-90545606D01*
X129480476Y-90644594D01*
X129391117Y-90819970D01*
X129330290Y-91007173D01*
X129299500Y-91201577D01*
X129299500Y-91398422D01*
X129330290Y-91592826D01*
X129391118Y-91780031D01*
X129397321Y-91792204D01*
X129410218Y-91860874D01*
X129383942Y-91925614D01*
X129326836Y-91965872D01*
X129286837Y-91972500D01*
X124241877Y-91972500D01*
X124174838Y-91952815D01*
X124129083Y-91900011D01*
X124119139Y-91830853D01*
X124122448Y-91823605D01*
X124125921Y-91779474D01*
X123446447Y-91100000D01*
X123452661Y-91100000D01*
X123554394Y-91072741D01*
X123645606Y-91020080D01*
X123720080Y-90945606D01*
X123772741Y-90854394D01*
X123800000Y-90752661D01*
X123800000Y-90746447D01*
X124479474Y-91425921D01*
X124511859Y-91381349D01*
X124604755Y-91199031D01*
X124667990Y-91004417D01*
X124700000Y-90802317D01*
X124700000Y-90597682D01*
X124667990Y-90395582D01*
X124604755Y-90200968D01*
X124511859Y-90018650D01*
X124479474Y-89974077D01*
X124479474Y-89974076D01*
X123800000Y-90653551D01*
X123800000Y-90647339D01*
X123772741Y-90545606D01*
X123720080Y-90454394D01*
X123645606Y-90379920D01*
X123554394Y-90327259D01*
X123452661Y-90300000D01*
X123446446Y-90300000D01*
X124125922Y-89620524D01*
X124125921Y-89620523D01*
X124081359Y-89588147D01*
X124081350Y-89588141D01*
X123899031Y-89495244D01*
X123704417Y-89432009D01*
X123502317Y-89400000D01*
X123297683Y-89400000D01*
X123095582Y-89432009D01*
X122900968Y-89495244D01*
X122718644Y-89588143D01*
X122674077Y-89620523D01*
X122674077Y-89620524D01*
X123353554Y-90300000D01*
X123347339Y-90300000D01*
X123245606Y-90327259D01*
X123154394Y-90379920D01*
X123079920Y-90454394D01*
X123027259Y-90545606D01*
X123000000Y-90647339D01*
X123000000Y-90653553D01*
X122320524Y-89974077D01*
X122320523Y-89974077D01*
X122288143Y-90018644D01*
X122195244Y-90200968D01*
X122132009Y-90395582D01*
X122100000Y-90597682D01*
X122100000Y-90802317D01*
X122132009Y-91004417D01*
X122195244Y-91199031D01*
X122288141Y-91381350D01*
X122288147Y-91381359D01*
X122320523Y-91425921D01*
X122320524Y-91425922D01*
X123000000Y-90746446D01*
X123000000Y-90752661D01*
X123027259Y-90854394D01*
X123079920Y-90945606D01*
X123154394Y-91020080D01*
X123245606Y-91072741D01*
X123347339Y-91100000D01*
X123353553Y-91100000D01*
X122674076Y-91779474D01*
X122678562Y-91836463D01*
X122676515Y-91836624D01*
X122679652Y-91873120D01*
X122647049Y-91934916D01*
X122586212Y-91969276D01*
X122558121Y-91972500D01*
X121661281Y-91972500D01*
X121594242Y-91952815D01*
X121573600Y-91936181D01*
X120650011Y-91012591D01*
X120650006Y-91012587D01*
X120599512Y-90978849D01*
X120595377Y-90976086D01*
X120547233Y-90943917D01*
X120513784Y-90930062D01*
X120507127Y-90927304D01*
X120507119Y-90927300D01*
X120433035Y-90896614D01*
X120433027Y-90896612D01*
X120311807Y-90872500D01*
X120311803Y-90872500D01*
X115404408Y-90872500D01*
X115374746Y-90863790D01*
X115344564Y-90857103D01*
X115341517Y-90854033D01*
X115337369Y-90852815D01*
X115317132Y-90829460D01*
X115295348Y-90807509D01*
X115294444Y-90803277D01*
X115291614Y-90800011D01*
X115287214Y-90769416D01*
X115280759Y-90739179D01*
X115282177Y-90734381D01*
X115281670Y-90730853D01*
X115288393Y-90704721D01*
X115292328Y-90694290D01*
X115293796Y-90692331D01*
X115344091Y-90557483D01*
X115350500Y-90497873D01*
X115350499Y-89600000D01*
X115350499Y-88702129D01*
X115350498Y-88702123D01*
X115344091Y-88642516D01*
X115293797Y-88507671D01*
X115293793Y-88507664D01*
X115207547Y-88392455D01*
X115207544Y-88392452D01*
X115092335Y-88306206D01*
X115092328Y-88306202D01*
X114957482Y-88255908D01*
X114957483Y-88255908D01*
X114897883Y-88249501D01*
X114897881Y-88249500D01*
X114897873Y-88249500D01*
X114897864Y-88249500D01*
X113102129Y-88249500D01*
X113102123Y-88249501D01*
X113042516Y-88255908D01*
X112907671Y-88306202D01*
X112907664Y-88306206D01*
X112792455Y-88392452D01*
X112792452Y-88392455D01*
X112706206Y-88507664D01*
X112706203Y-88507669D01*
X112657189Y-88639083D01*
X112615317Y-88695016D01*
X112549853Y-88719433D01*
X112481580Y-88704581D01*
X112453326Y-88683430D01*
X112339786Y-88569890D01*
X112167820Y-88444951D01*
X111978414Y-88348444D01*
X111978413Y-88348443D01*
X111978412Y-88348443D01*
X111776243Y-88282754D01*
X111776241Y-88282753D01*
X111776240Y-88282753D01*
X111614957Y-88257208D01*
X111566287Y-88249500D01*
X111353713Y-88249500D01*
X111305042Y-88257208D01*
X111143760Y-88282753D01*
X110941585Y-88348444D01*
X110752179Y-88444951D01*
X110580213Y-88569890D01*
X110429890Y-88720213D01*
X110304949Y-88892182D01*
X110300484Y-88900946D01*
X110252509Y-88951742D01*
X110184688Y-88968536D01*
X110118553Y-88945998D01*
X110079516Y-88900946D01*
X110075050Y-88892182D01*
X109950109Y-88720213D01*
X109799786Y-88569890D01*
X109627820Y-88444951D01*
X109438414Y-88348444D01*
X109438413Y-88348443D01*
X109438412Y-88348443D01*
X109236243Y-88282754D01*
X109236241Y-88282753D01*
X109236240Y-88282753D01*
X109074957Y-88257208D01*
X109026287Y-88249500D01*
X108813713Y-88249500D01*
X108765042Y-88257208D01*
X108603760Y-88282753D01*
X108401585Y-88348444D01*
X108212179Y-88444951D01*
X108040213Y-88569890D01*
X107889890Y-88720213D01*
X107764949Y-88892182D01*
X107760484Y-88900946D01*
X107712509Y-88951742D01*
X107644688Y-88968536D01*
X107578553Y-88945998D01*
X107539516Y-88900946D01*
X107535050Y-88892182D01*
X107410109Y-88720213D01*
X107259786Y-88569890D01*
X107087820Y-88444951D01*
X106898414Y-88348444D01*
X106898413Y-88348443D01*
X106898412Y-88348443D01*
X106696243Y-88282754D01*
X106696241Y-88282753D01*
X106696240Y-88282753D01*
X106534957Y-88257208D01*
X106486287Y-88249500D01*
X106273713Y-88249500D01*
X106225042Y-88257208D01*
X106063760Y-88282753D01*
X105861585Y-88348444D01*
X105672179Y-88444951D01*
X105500213Y-88569890D01*
X105349890Y-88720213D01*
X105224949Y-88892182D01*
X105220202Y-88901499D01*
X105172227Y-88952293D01*
X105104405Y-88969087D01*
X105038271Y-88946548D01*
X104999234Y-88901495D01*
X104994626Y-88892452D01*
X104955270Y-88838282D01*
X104955269Y-88838282D01*
X104322962Y-89470590D01*
X104305925Y-89407007D01*
X104240099Y-89292993D01*
X104147007Y-89199901D01*
X104032993Y-89134075D01*
X103969409Y-89117037D01*
X104601716Y-88484728D01*
X104547550Y-88445375D01*
X104358217Y-88348904D01*
X104156129Y-88283242D01*
X103946246Y-88250000D01*
X103733754Y-88250000D01*
X103523872Y-88283242D01*
X103523869Y-88283242D01*
X103321782Y-88348904D01*
X103132439Y-88445380D01*
X103078282Y-88484727D01*
X103078282Y-88484728D01*
X103710591Y-89117037D01*
X103647007Y-89134075D01*
X103532993Y-89199901D01*
X103439901Y-89292993D01*
X103374075Y-89407007D01*
X103357037Y-89470591D01*
X102724728Y-88838282D01*
X102724727Y-88838282D01*
X102685380Y-88892439D01*
X102588904Y-89081782D01*
X102523242Y-89283869D01*
X102523242Y-89283872D01*
X102490000Y-89493753D01*
X84250500Y-89493753D01*
X84250500Y-87874500D01*
X84270185Y-87807461D01*
X84322989Y-87761706D01*
X84374500Y-87750500D01*
X146965870Y-87750500D01*
X147032909Y-87770185D01*
G37*
%TD.AperFunction*%
%TD*%
%TA.AperFunction,Conductor*%
%TO.N,/LED-*%
G36*
X183193039Y-96019685D02*
G01*
X183238794Y-96072489D01*
X183250000Y-96124000D01*
X183250000Y-100250000D01*
X189698638Y-100250000D01*
X189765677Y-100269685D01*
X189786319Y-100286319D01*
X191500000Y-102000000D01*
X199125500Y-102000000D01*
X199192539Y-102019685D01*
X199238294Y-102072489D01*
X199249500Y-102124000D01*
X199249500Y-106876000D01*
X199229815Y-106943039D01*
X199177011Y-106988794D01*
X199125500Y-107000000D01*
X189051362Y-107000000D01*
X188984323Y-106980315D01*
X188963681Y-106963681D01*
X188541819Y-106541819D01*
X188508334Y-106480496D01*
X188505500Y-106454138D01*
X188505500Y-104624010D01*
X188505500Y-104624000D01*
X188500000Y-104572842D01*
X188500000Y-104562500D01*
X188498753Y-104561253D01*
X188493947Y-104516544D01*
X188482741Y-104465033D01*
X188482637Y-104464722D01*
X188448616Y-104362502D01*
X188448613Y-104362496D01*
X188370828Y-104241462D01*
X188370825Y-104241457D01*
X188370820Y-104241451D01*
X188325076Y-104188659D01*
X188325072Y-104188656D01*
X188325070Y-104188653D01*
X188216336Y-104094433D01*
X188216333Y-104094431D01*
X188216331Y-104094430D01*
X188085465Y-104034664D01*
X188085460Y-104034662D01*
X188085459Y-104034662D01*
X188018420Y-104014977D01*
X188018422Y-104014977D01*
X188018417Y-104014976D01*
X187965272Y-104007335D01*
X187965272Y-104007334D01*
X187941402Y-104003902D01*
X187937500Y-104000000D01*
X187914256Y-104000000D01*
X187905477Y-103998738D01*
X187876001Y-103994500D01*
X187876000Y-103994500D01*
X184124000Y-103994500D01*
X184123991Y-103994500D01*
X184123990Y-103994501D01*
X184079457Y-103999289D01*
X184066202Y-104000000D01*
X181051362Y-104000000D01*
X180984323Y-103980315D01*
X180963681Y-103963681D01*
X179036319Y-102036319D01*
X179002834Y-101974996D01*
X179000000Y-101948638D01*
X179000000Y-96124000D01*
X179019685Y-96056961D01*
X179072489Y-96011206D01*
X179124000Y-96000000D01*
X183126000Y-96000000D01*
X183193039Y-96019685D01*
G37*
%TD.AperFunction*%
%TD*%
%TA.AperFunction,Conductor*%
%TO.N,+12V*%
G36*
X187943039Y-104519685D02*
G01*
X187988794Y-104572489D01*
X188000000Y-104624000D01*
X188000000Y-106950000D01*
X188650000Y-107600000D01*
X199125500Y-107600000D01*
X199192539Y-107619685D01*
X199238294Y-107672489D01*
X199249500Y-107724000D01*
X199249500Y-112625500D01*
X199229815Y-112692539D01*
X199177011Y-112738294D01*
X199125500Y-112749500D01*
X184124000Y-112749500D01*
X184056961Y-112729815D01*
X184011206Y-112677011D01*
X184000000Y-112625500D01*
X184000000Y-104624000D01*
X184019685Y-104556961D01*
X184072489Y-104511206D01*
X184124000Y-104500000D01*
X187876000Y-104500000D01*
X187943039Y-104519685D01*
G37*
%TD.AperFunction*%
%TD*%
M02*
